<?xml version="1.0" standalone="no"?>
<!DOCTYPE svg PUBLIC "-//W3C//DTD SVG 1.1//EN" "http://www.w3.org/Graphics/SVG/1.1/DTD/svg11.dtd" >
<svg xmlns="http://www.w3.org/2000/svg" xmlns:xlink="http://www.w3.org/1999/xlink" version="1.1">
<metadata>
Created by FontForge 20170731 at Fri Mar 24 01:46:06 2017
 By Aleksey,,,
Copyright (c) 2016 by Bigelow &#38; Holmes Inc.. All rights reserved.
</metadata>
<defs>
<font id="GoMono" horiz-adv-x="1229" >
  <font-face 
    font-family="Go Mono"
    font-weight="400"
    font-stretch="normal"
    units-per-em="2048"
    panose-1="2 6 6 9 5 0 0 0 0 0"
    ascent="1638"
    descent="-410"
    x-height="1086"
    cap-height="1480"
    bbox="0 -432 1229 2227"
    underline-thickness="50"
    underline-position="-350"
    unicode-range="U+000D-FFFD"
  />
<missing-glyph 
d="M123 0v1480h983v-1480h-983zM983 123v1234h-737v-1234h737z" />
    <glyph glyph-name=".notdef" 
d="M123 0v1480h983v-1480h-983zM983 123v1234h-737v-1234h737z" />
    <glyph glyph-name="uni0000" 
 />
    <glyph glyph-name="uni0000" 
 />
    <glyph glyph-name="uni000D" unicode="&#xd;" 
 />
    <glyph glyph-name="space" unicode=" " 
 />
    <glyph glyph-name="exclam" unicode="!" 
d="M500 0v262h267v-262h-267zM558 459l-37 627v394h225v-394l-37 -627h-151z" />
    <glyph glyph-name="quotedbl" unicode="&#x22;" 
d="M289 952l-49 627h247l-50 -627h-148zM792 952l-49 627h246l-49 -627h-148z" />
    <glyph glyph-name="numbersign" unicode="#" 
d="M165 0l111 444h-235l31 124h235l86 345h-284l31 123h284l111 444h136l-111 -444h259l111 444h136l-111 -444h234l-31 -123h-234l-87 -345h284l-31 -124h-283l-111 -444h-136l111 444h-259l-111 -444h-136zM442 568h260l86 345h-259z" />
    <glyph glyph-name="dollar" unicode="$" 
d="M525 -123v123q-202 16 -382 86v299h123l25 -198q124 -56 234 -64v575l-90 53q-255 150 -255 372q0 174 129 273q90 69 241 84v124h124v-124q161 -1 328 -72v-284h-123l-25 198q-87 35 -159 35h-21v-534l87 -47q150 -81 210 -163t60 -204q0 -197 -138 -314
q-93 -80 -244 -95v-123h-124zM649 123q81 9 133 69q70 80 70 196q0 132 -136 209l-67 38v-512zM550 891v466q-105 -26 -150 -86q-42 -55 -42 -138q0 -130 139 -211z" />
    <glyph glyph-name="percent" unicode="%" 
d="M61 -37l973 1554h132l-976 -1554h-129zM291 1480q125 0 191 -101q79 -102 79 -268q0 -169 -73 -270q-72 -101 -201 -101q-110 0 -179 83q-87 105 -87 287q0 168 73 269q72 101 197 101zM291 1357q-128 0 -128 -247q0 -246 128 -246t128 247q0 246 -128 246zM937 740
q125 0 191 -101q79 -101 79 -267q0 -170 -73 -271t-199 -101q-112 0 -181 82q-87 105 -87 289q0 167 73 268q72 101 197 101zM937 617q-128 0 -128 -245q0 -249 128 -249q129 0 129 247t-129 247z" />
    <glyph glyph-name="ampersand" unicode="&#x26;" 
d="M928 0l-94 110q-181 -147 -356 -147q-188 0 -304 125q-117 125 -117 325q0 178 107 315q62 80 181 161q-72 167 -72 299q0 152 84 241t231 89q152 0 226 -82q64 -71 64 -196q0 -145 -111 -261q-67 -70 -195 -143q173 -332 307 -504q89 119 90 218l-2 67h-99v123h324v-123
h-72q-9 -90 -41 -177q-31 -88 -121 -200l110 -117h124v-123h-264zM757 208q-177 225 -352 577q-169 -131 -169 -344q0 -154 75 -242q75 -89 204 -89q124 0 242 98zM518 938q81 54 122 109q59 80 59 185q0 162 -115 162q-132 0 -132 -196q0 -139 59 -248q2 -4 7 -12z" />
    <glyph glyph-name="quotesingle" unicode="'" 
d="M540 952l-74 627h296l-74 -627h-148z" />
    <glyph glyph-name="parenleft" unicode="(" 
d="M982 -296q-152 30 -262 102q-183 120 -294 349q-105 217 -105 487q0 419 248 702q99 113 225 175q78 38 188 60v-123q-192 -58 -304 -232q-147 -228 -147 -582q0 -373 161 -604q109 -156 290 -211v-123z" />
    <glyph glyph-name="parenright" unicode=")" 
d="M247 -296v123q193 58 305 232q147 228 147 583q0 372 -161 603q-109 156 -291 211v123q153 -30 263 -102q183 -120 293 -349q105 -216 105 -486q0 -421 -247 -703q-100 -113 -225 -175q-78 -38 -189 -60z" />
    <glyph glyph-name="asterisk" unicode="*" 
d="M440 317l-193 118l265 305q24 -45 85 -61zM104 832l66 214l362 -170q-34 -36 -34 -76q0 -9 2 -26zM557 895l-51 395h222l-58 -395q-39 15 -56 15q-19 0 -57 -15zM696 875l365 172l64 -217l-396 -54q0 3 1 9v3v4q0 49 -34 83zM804 316l-181 362q57 7 90 56l274 -290z" />
    <glyph glyph-name="plus" unicode="+" 
d="M541 101v442h-442v148h442v442h148v-442h441v-148h-441v-442h-148z" />
    <glyph glyph-name="comma" unicode="," 
d="M447 0v336h336v-220q0 -511 -336 -511v99q112 12 134 67q20 48 26 229h-160z" />
    <glyph glyph-name="hyphen" unicode="-" 
d="M99 543v148h1031v-148h-1031z" />
    <glyph glyph-name="period" unicode="." 
d="M446 0v336h336v-336h-336z" />
    <glyph glyph-name="slash" unicode="/" 
d="M99 -296l868 1875h164l-869 -1875h-163z" />
    <glyph glyph-name="zero" unicode="0" 
d="M614 1517q240 0 379 -208q139 -207 139 -567q0 -366 -139 -572q-139 -207 -387 -207q-211 0 -343 169q-167 214 -167 609q0 361 139 568q139 208 379 208zM388 258q78 -172 225 -172q307 0 307 654q0 135 -15 241l-558 -605q17 -66 41 -118zM614 1394q-147 0 -226 -170
q-79 -171 -79 -482q0 -135 14 -243l559 606q-17 67 -41 120q-80 169 -227 169z" />
    <glyph glyph-name="one" unicode="1" 
d="M113 0v123h444v1182l-444 -177v132l642 257v-1394h444v-123h-1086z" />
    <glyph glyph-name="two" unicode="2" 
d="M133 0v173q110 186 258 320l103 93l122 112q238 218 238 421q0 125 -76 200q-75 75 -201 75q-118 0 -259 -86l-24 -235h-124v350q246 94 446 94q207 0 328 -108q120 -107 120 -291q0 -132 -55 -229q-57 -101 -201 -221l-85 -71q-220 -186 -282 -268q-56 -72 -85 -156h752
v-173h-975z" />
    <glyph glyph-name="three" unicode="3" 
d="M185 10v374h123l25 -246q86 -52 205 -52q153 0 243 87t90 236q0 319 -416 319h-135v123h114q395 0 395 296q0 114 -73 180q-72 67 -199 67q-118 0 -202 -39l-12 -209h-124v318q193 53 358 53q453 0 453 -353q0 -163 -105 -263q-64 -59 -183 -103q105 -31 160 -65
q179 -111 179 -334q0 -194 -138 -315t-367 -121q-155 0 -306 30z" />
    <glyph glyph-name="four" unicode="4" 
d="M738 419h-654v149l629 912h197v-912h222v-149h-222v-296h198v-123h-642v123h272v296zM238 568h500v724z" />
    <glyph glyph-name="five" unicode="5" 
d="M249 0v321h123l25 -198q92 -37 159 -37q133 0 221 98q89 99 89 249q0 167 -119 266q-119 98 -320 98q-65 0 -147 -14v697h765v-172h-620v-392q49 3 75 3q261 0 418 -131q158 -130 158 -348q0 -208 -146 -342q-146 -135 -371 -135q-115 0 -310 37z" />
    <glyph glyph-name="six" unicode="6" 
d="M335 773q64 88 134 132q103 64 237 64q190 0 308 -134q118 -133 118 -349q0 -231 -137 -377t-353 -146q-244 0 -382 198q-138 199 -138 549q0 385 163 596t453 211q128 0 326 -71v-317h-124l-23 210q-87 55 -178 55q-215 0 -324 -216q-77 -151 -80 -405zM669 839
q-135 0 -227 -103q-92 -102 -92 -256q0 -160 93 -277t224 -117q111 0 179 79q86 100 86 298q0 376 -263 376z" />
    <glyph glyph-name="seven" unicode="7" 
d="M264 0q61 432 407 949l125 184l109 162h-760v185h913v-185l-87 -119q-255 -352 -376 -711q-83 -250 -84 -465h-247z" />
    <glyph glyph-name="eight" unicode="8" 
d="M413 803l-53 40q-172 130 -172 302q0 162 125 267q124 105 321 105q187 0 302 -91t115 -241q0 -118 -58 -197q-44 -59 -149 -153l-47 -42l68 -46q144 -97 196 -175q52 -77 52 -191q0 -186 -139 -302t-363 -116t-357 112q-134 112 -134 297q0 224 238 392zM682 862
q184 169 184 312q0 106 -64 163q-65 57 -190 57q-109 0 -175 -60q-65 -59 -65 -150q0 -97 127 -194l98 -75zM512 743q-113 -123 -152 -191q-43 -75 -43 -175q0 -128 87 -209q87 -82 222 -82q125 0 201 72q76 71 76 187q0 82 -39 135q-37 52 -150 128z" />
    <glyph glyph-name="nine" unicode="9" 
d="M893 707q-64 -87 -134 -131q-103 -64 -238 -64q-190 0 -307 134q-118 133 -118 348q0 232 137 377q137 146 353 146q244 0 382 -198t138 -549q0 -385 -163 -596t-453 -211q-128 0 -326 71v317h123l24 -210q86 -55 178 -55q214 0 324 216q77 151 80 405zM560 1394
q-110 0 -178 -79q-86 -100 -86 -298q0 -376 263 -376q134 0 227 103q92 102 92 256q0 160 -94 277t-224 117z" />
    <glyph glyph-name="colon" unicode=":" 
d="M500 774v336h336v-336h-336zM500 0v336h336v-336h-336z" />
    <glyph glyph-name="semicolon" unicode=";" 
d="M500 774v336h336v-336h-336zM500 0v336h336v-220q0 -511 -336 -511v99q112 12 134 67q20 48 26 229h-160z" />
    <glyph glyph-name="less" unicode="&#x3c;" 
d="M1131 0l-1032 617l1032 617v-173l-743 -444l743 -444v-173z" />
    <glyph glyph-name="equal" unicode="=" 
d="M99 346v148h1031v-148h-1031zM99 740v148h1031v-148h-1031z" />
    <glyph glyph-name="greater" unicode="&#x3e;" 
d="M99 0v173l743 444l-743 444v173l1032 -617z" />
    <glyph glyph-name="question" unicode="?" 
d="M435 0v222h247v-222h-247zM435 439v49q0 232 244 388l67 47q143 100 143 239q0 106 -71 169q-70 63 -194 63t-254 -62l-24 -259h-124v377q218 67 411 67q466 0 466 -337q0 -166 -147 -276q-59 -44 -68 -51l-19.5 -13t-55.5 -46.5t-82 -90.5q-45 -56 -45 -212v-52h-247z
" />
    <glyph glyph-name="at" unicode="@" 
d="M945 12q-151 -49 -254 -49q-276 0 -440 203t-164 553q0 355 162 577q162 221 426 221q393 0 393 -475v-628h118v-123h-241v367h-25q-38 -159 -104 -252q-86 -122 -195 -122q-104 0 -170 104q-67 104 -67 266q0 219 114 371q114 153 278 153q64 0 160 -26
q-29 135 -103 191q-66 51 -170 51q-204 0 -328 -182q-125 -183 -125 -479q0 -297 133 -472q132 -175 351 -175q117 0 251 64v-138zM945 927v111q-83 48 -151 48q-121 0 -191 -112q-71 -112 -71 -300q0 -109 31 -179q30 -69 76 -69q70 0 144 125q72 121 162 376z" />
    <glyph glyph-name="A" unicode="A" 
d="M327 444l-99 -321h143v-123h-346v123h74l421 1357h189l420 -1357h74v-123h-437v123h157l-100 321h-496zM366 568h419l-208 675h-2z" />
    <glyph glyph-name="B" unicode="B" 
d="M247 123v1234h-173v123h618q374 0 374 -325q0 -168 -102 -273q-60 -63 -174 -111q98 -26 148 -56q174 -105 174 -338q0 -377 -444 -377h-594v123h173zM444 131h163q295 0 295 261q0 141 -97 227q-96 85 -264 85h-97v-573zM444 827h98q313 0 313 312q0 218 -211 218h-200
v-530z" />
    <glyph glyph-name="C" unicode="C" 
d="M1127 74q-207 -111 -388 -111q-289 0 -452 206q-164 206 -164 579q0 369 156 569t446 200q164 0 381 -64v-328h-123l-29 216q-113 53 -224 53q-187 0 -291 -176q-103 -175 -103 -484q0 -299 115 -472q116 -168 314 -168q176 0 362 138v-158z" />
    <glyph glyph-name="D" unicode="D" 
d="M49 0v123h148v1234h-148v123h510q608 0 608 -705q0 -356 -160 -566q-160 -209 -430 -209h-528zM395 131h118q441 0 441 623q0 309 -111 456q-112 147 -344 147h-104v-1226z" />
    <glyph glyph-name="E" unicode="E" 
d="M74 0v123h185v1234h-185v123h982v-355h-123v232h-476v-543h291v124h123v-371h-123v124h-291v-560h525v247h124v-378h-1032z" />
    <glyph glyph-name="F" unicode="F" 
d="M530 123h272v-123h-691v123h222v1234h-222v123h1025v-370h-123v247h-483v-580h298v124h123v-371h-123v124h-298v-531z" />
    <glyph glyph-name="G" unicode="G" 
d="M1081 74q-182 -111 -383 -111q-296 0 -460 206q-164 205 -164 578t157 572q158 199 457 199q173 0 369 -62v-331h-123l-29 216q-114 54 -213 54q-405 0 -405 -658q0 -307 115 -473q115 -170 319 -170q78 0 162 32v411h-172v123h370v-586z" />
    <glyph glyph-name="H" unicode="H" 
d="M370 703v-580h99v-123h-407v123h111v1234h-111v123h407v-123h-99v-530h489v530h-99v123h408v-123h-111v-1234h111v-123h-408v123h99v580h-489z" />
    <glyph glyph-name="I" unicode="I" 
d="M160 0v123h355v1234h-355v123h908v-123h-355v-1234h355v-123h-908z" />
    <glyph glyph-name="J" unicode="J" 
d="M111 31v413h123l39 -301q113 -49 194 -49q116 0 167 55q52 54 52 173v1035h-395v123h852v-123h-260v-995q0 -214 -92 -306q-92 -93 -304 -93q-158 0 -376 68z" />
    <glyph glyph-name="K" unicode="K" 
d="M74 0v123h130v1234h-130v123h432v-123h-105v-601h7l430 601h-111v123h356v-123h-92l-397 -546l529 -688h74v-123h-425v123h111l-475 617h-7v-617h123v-123h-450z" />
    <glyph glyph-name="L" unicode="L" 
d="M1151 0h-1065v123h247v1234h-247v123h679v-123h-235v-1226h498v345h123v-476z" />
    <glyph glyph-name="M" unicode="M" 
d="M25 0v123h86v1234h-86v123h285l306 -1018h2l317 1018h269v-123h-86v-1234h86v-123h-320v123h72v1005h-2l-291 -934h-135l-291 972h-2v-1043h86v-123h-296z" />
    <glyph glyph-name="N" unicode="N" 
d="M74 0v123h111v1234h-111v123h234l610 -1075h2v952h-110v123h345v-123h-111v-1357h-124l-609 1076h-3v-953h111v-123h-345z" />
    <glyph glyph-name="O" unicode="O" 
d="M615 1517q243 0 398 -216t155 -559q0 -348 -155 -563q-155 -216 -405 -216q-214 0 -359 175q-187 225 -187 603q0 343 154 559q155 217 399 217zM615 1384q-161 0 -250 -167q-90 -170 -90 -479q0 -306 89 -475q88 -171 250 -171t246 147q95 164 95 497q0 313 -90 481
q-91 167 -250 167z" />
    <glyph glyph-name="P" unicode="P" 
d="M481 599v-476h284v-123h-679v123h197v1234h-197v123h661q377 0 377 -361q0 -241 -140 -381q-140 -139 -385 -139h-118zM481 722h111q322 0 322 367q0 268 -232 268h-201v-635z" />
    <glyph glyph-name="Q" unicode="Q" 
d="M615 -37q-156 25 -239 66q-100 49 -178 176q-136 223 -136 535q0 343 154 560t399 217q244 0 398 -217q155 -217 155 -559q0 -320 -134 -532q-91 -143 -245 -211q162 -101 434 -161q-69 -85 -168 -158q-209 79 -440 284zM615 1386q-161 0 -250 -169q-90 -167 -90 -477
q0 -306 89 -476q88 -172 250 -172t246 148q95 165 95 498q0 313 -90 480q-91 168 -250 168z" />
    <glyph glyph-name="R" unicode="R" 
d="M86 0v123h130v1234h-130v123h587q176 0 277 -97q102 -97 102 -265q0 -153 -92 -271q-54 -68 -157 -138l313 -586h88v-123h-253l-339 648h-199v-525h130v-123h-457zM413 771h99q330 0 330 325q0 261 -250 261h-179v-586z" />
    <glyph glyph-name="S" unicode="S" 
d="M151 61v358h124l24 -234q187 -91 311 -91q127 0 206 79q79 78 79 192q0 157 -200 261l-190 99q-189 98 -256 181q-66 80 -66 217q0 394 448 394q183 0 375 -73v-319h-123l-25 195q-125 74 -242 74q-241 0 -241 -246q0 -101 56 -149q49 -42 175 -110l169 -91
q195 -105 255 -178q61 -74 61 -207q0 -204 -134 -327q-135 -123 -359 -123q-205 0 -447 98z" />
    <glyph glyph-name="T" unicode="T" 
d="M257 0v123h259v1234h-331v-232h-123v355h1106v-355h-124v232h-330v-1234h259v-123h-716z" />
    <glyph glyph-name="U" unicode="U" 
d="M185 1357h-123v123h457v-123h-136v-834q0 -210 72 -323q71 -114 201 -114q265 0 265 446v825h-136v123h383v-123h-124v-861q0 -252 -111 -392q-110 -141 -312 -141q-436 0 -436 587v807z" />
    <glyph glyph-name="V" unicode="V" 
d="M520 0l-420 1357h-74v123h437v-123h-157l346 -1120h2l347 1120h-143v123h346v-123h-74l-421 -1357h-189z" />
    <glyph glyph-name="W" unicode="W" 
d="M242 0l-170 1357h-49v123h304v-123h-100l136 -1082h10l184 972l149 1l184 -967h9l134 1076h-100v123h274v-123h-50l-170 -1357h-178l-186 974h-8l-184 -974h-189z" />
    <glyph glyph-name="X" unicode="X" 
d="M49 0v123h111l350 607l-362 627h-99v123h420v-123h-100l288 -500l289 500h-128v123h361v-123h-105l-353 -611l360 -623h98v-123h-443v123h124l-286 496l-286 -496h154v-123h-393z" />
    <glyph glyph-name="Y" unicode="Y" 
d="M294 0v123h222v537l-403 697h-86v123h463v-123h-149l315 -544h2l315 544h-148v123h376v-123h-86l-402 -696v-538h222v-123h-641z" />
    <glyph glyph-name="Z" unicode="Z" 
d="M148 0v136l700 1221h-558v-232h-123v355h901v-123l-708 -1226h597v296h124v-427h-933z" />
    <glyph glyph-name="bracketleft" unicode="[" 
d="M395 -296v1875h543v-123h-370v-1629h370v-123h-543z" />
    <glyph glyph-name="backslash" unicode="\" 
d="M1131 -296h-164l-868 1875h163z" />
    <glyph glyph-name="bracketright" unicode="]" 
d="M834 -296h-543v123h370v1629h-370v123h543v-1875z" />
    <glyph glyph-name="asciicircum" unicode="^" 
d="M99 494l516 986l515 -986h-168l-347 667l-349 -667h-167z" />
    <glyph glyph-name="underscore" unicode="_" 
d="M0 0h1229v-148h-1229v148z" />
    <glyph glyph-name="grave" unicode="`" 
d="M836 1283h-123l-321 321h228z" />
    <glyph glyph-name="a" unicode="a" 
d="M834 119q-173 -144 -351 -144q-153 0 -244 86q-91 85 -91 232q0 190 142 276q142 85 459 85h85v168q0 165 -204 165q-103 0 -257 -58l-25 -127h-123v216q229 93 467 93q189 0 264 -65q75 -66 75 -227v-696h136v-123h-313zM834 269v262h-53q-230 0 -327 -52
q-96 -52 -96 -196q0 -177 186 -177q147 0 290 163z" />
    <glyph glyph-name="b" unicode="b" 
d="M383 0h-198v1456h-123v123h321v-715q75 111 146 166q102 80 220 80q165 0 267 -143q102 -144 102 -379q0 -286 -135 -449q-134 -164 -369 -164q-88 0 -231 25zM383 129q136 -23 212 -23q167 0 240 107t73 365q0 372 -214 372q-164 0 -311 -234v-587z" />
    <glyph glyph-name="c" unicode="c" 
d="M1110 46q-162 -71 -394 -71q-283 0 -445 158q-161 158 -161 422q0 260 158 407q157 148 444 148q213 0 385 -54v-310h-124l-35 197q-121 44 -237 44q-176 0 -280 -118q-96 -118 -96 -317q0 -220 108 -333q116 -113 322 -113q168 0 355 81v-141z" />
    <glyph glyph-name="d" unicode="d" 
d="M846 1456h-246v123h444v-1456h123v-123h-321v222q-75 -111 -145 -167q-102 -80 -221 -80q-165 0 -267 144q-102 143 -102 379q0 285 135 448q134 164 372 164q87 0 228 -24v370zM846 957q-136 22 -213 22q-165 0 -239 -107q-73 -106 -73 -368q0 -381 214 -381
q164 0 311 234v600z" />
    <glyph glyph-name="e" unicode="e" 
d="M1105 506h-771q14 -135 41 -195q91 -205 352 -205q161 0 349 105v-149q-175 -87 -375 -87q-259 0 -419 159q-159 159 -159 417q0 251 148 405q147 154 389 154q445 0 445 -543v-61zM336 629h559v46q0 312 -249 312q-154 0 -238 -123q-59 -86 -72 -235z" />
    <glyph glyph-name="f" unicode="f" 
d="M159 0v123h260v782h-271v136h271v138q0 225 91 325t293 100q171 0 364 -80v-247h-123l-31 156q-101 47 -184 47q-119 0 -165 -60q-47 -60 -47 -219v-160h444v-136h-444v-782h320v-123h-778z" />
    <glyph glyph-name="g" unicode="g" 
d="M1044 963v-808q0 -70 -2.5 -139.5t-16.5 -133.5t-43 -119t-81.5 -95.5t-132.5 -64t-196 -23.5q-86 0 -187.5 13.5t-203.5 53.5v247h123l26 -136q21 -10 49.5 -20t60.5 -17.5t66 -12t68 -4.5q67 0 113.5 15.5t76.5 43t46.5 65.5t24.5 83.5t9.5 96.5t1.5 105v199
q-76 -113 -145 -167q-103 -80 -221 -80q-165 0 -267 144q-102 142 -102 339q0 123 33.5 219.5t101.5 178.5q134 164 373 164q67 0 120 -7t107 -17h317v-123h-119zM846 939q-69 11 -122 17t-91 6q-165 0 -239 -107q-37 -54 -55 -125t-18 -171q0 -333 214 -333q164 0 311 234
v479z" />
    <glyph glyph-name="h" unicode="h" 
d="M82 0v123h110v1333h-123v123h321v-703q69 105 137 158q96 76 215 76q301 0 301 -388v-599h124v-123h-321v705q0 257 -163 257q-150 0 -293 -258v-581h111v-123h-419z" />
    <glyph glyph-name="i" unicode="i" 
d="M148 0v123h390v839h-390v124h587v-963h370v-123h-957zM508 1332v247h242v-247h-242z" />
    <glyph glyph-name="j" unicode="j" 
d="M159 -344v319h123l31 -218q68 -53 147 -53q132 0 188 96q57 96 57 327v835h-444v124h642v-1020q0 -230 -113 -358t-314 -128q-139 0 -317 76zM673 1332v247h242v-247h-242z" />
    <glyph glyph-name="k" unicode="k" 
d="M821 0v123l-402 401h-24v-401h99v-123h-420v123h123v1333h-123v123h321v-987h24l358 370h-116v124h432v-124h-141l-363 -362l488 -477h99v-123h-355z" />
    <glyph glyph-name="l" unicode="l" 
d="M1115 61q-166 -86 -336 -86q-92 0 -153.5 21.5t-98 68t-52 119.5t-15.5 175v1097h-370v123h567v-1154q0 -93 7 -152t27.5 -92t58.5 -45t101 -12q124 0 264 77v-140z" />
    <glyph glyph-name="m" unicode="m" 
d="M100 0v962h-74v124h253v-217q67 140 110 186q52 55 128 55q100 0 146 -93q24 -50 35 -148q42 114 89 166q66 75 156 75q187 0 187 -273v-714h70v-123h-249v752q0 210 -65 210q-48 0 -107 -88q-31 -49 -48 -91q-26 -65 -26 -92v-568h70v-123h-249v798q0 164 -66 164
q-87 0 -181 -271v-568h70v-123h-249z" />
    <glyph glyph-name="n" unicode="n" 
d="M82 0v123h110v839h-120v124h318v-210q69 105 137 158q96 76 215 76q301 0 301 -388v-599h120v-123h-317v705q0 257 -163 257q-150 0 -293 -258v-581h100v-123h-408z" />
    <glyph glyph-name="o" unicode="o" 
d="M614 1110q235 0 369 -151q135 -151 135 -415q0 -268 -135 -418q-135 -151 -377 -151q-205 0 -334 125q-161 155 -161 443q0 265 135 416t368 151zM614 987q-290 0 -290 -442q0 -447 290 -447q291 0 291 447q0 442 -291 442z" />
    <glyph glyph-name="p" unicode="p" 
d="M383 -272h247v-123h-568v123h123v1234h-123v124h321v-222q75 111 146 166q102 80 220 80q165 0 267 -143q102 -144 102 -379q0 -286 -135 -449q-134 -164 -369 -164q-88 0 -231 25v-272zM383 146q136 -23 212 -23q167 0 240 107t73 359q0 373 -214 373q-164 0 -311 -246
v-570z" />
    <glyph glyph-name="q" unicode="q" 
d="M846 222q-75 -111 -145 -167q-102 -80 -221 -80q-165 0 -267 144q-102 143 -102 379q0 285 135 448q134 164 373 164l227 -24h198v-1358h123v-123h-567v124h246v493zM846 939q-136 23 -213 23q-165 0 -239 -107q-73 -107 -73 -346q0 -373 214 -373q164 0 311 234v569z
" />
    <glyph glyph-name="r" unicode="r" 
d="M530 702v-579h360v-123h-807v123h250v839h-259v124h456v-211q74 106 141 159q96 76 207 76q118 0 228 -68v-296h-124l-20 156q-56 36 -118 36q-184 0 -314 -236z" />
    <glyph glyph-name="s" unicode="s" 
d="M173 61v297h123l25 -183q196 -76 333 -76q238 0 238 168q0 66 -40 102q-40 37 -143 64l-204 54q-171 45 -249 118q-77 71 -77 189q0 317 432 317q221 0 402 -72v-286h-123l-25 181q-109 53 -255 53q-110 0 -171 -35q-72 -41 -72 -126q0 -112 206 -166l202 -53
q168 -44 241 -112q72 -67 72 -182q0 -157 -123 -247q-123 -91 -343 -91q-226 0 -449 86z" />
    <glyph glyph-name="t" unicode="t" 
d="M1032 61q-165 -86 -336 -86q-161 0 -230 75q-69 74 -69 249v626h-278v136h278v281h197v-281h426v-136h-426v-537q0 -160 32 -212q32 -53 127 -53q106 0 279 77v-139z" />
    <glyph glyph-name="u" unicode="u" 
d="M734 1086h309v-963h123v-123h-321v209q-69 -105 -137 -158q-96 -76 -215 -76q-302 0 -302 388v599h-123v124h321v-706q0 -255 163 -255q149 0 293 257v580h-111v124z" />
    <glyph glyph-name="v" unicode="v" 
d="M514 0l-385 962h-74v124h447v-124h-160l311 -778h2l311 778h-160v124h367v-124h-74l-385 -962h-200z" />
    <glyph glyph-name="w" unicode="w" 
d="M242 0l-170 962h-49v124h311v-124h-86l129 -724h2l177 685h167l178 -688h2l130 727h-98v124h272v-124h-49l-170 -962h-193l-179 703h-2l-182 -703h-190z" />
    <glyph glyph-name="x" unicode="x" 
d="M72 0v123h110l331 420l-331 419h-123v124h438v-124h-87l261 -331l260 331h-103v124h361v-124h-117l-331 -420l330 -419h118v-123h-445v123h99l-253 321l-252 -321h100v-123h-366z" />
    <glyph glyph-name="y" unicode="y" 
d="M514 0l-385 962h-74v124h447v-124h-160l311 -778h2l311 778h-160v124h367v-124h-74l-385 -962l-108 -271h148v-124h-479v124h198l108 271h-67z" />
    <glyph glyph-name="z" unicode="z" 
d="M123 0v123l700 839h-540v-197h-123v321h896v-124l-691 -831h604v195h124v-326h-970z" />
    <glyph glyph-name="braceleft" unicode="{" 
d="M1002 -296h-131q-172 0 -281 95q-110 95 -110 248q0 53 13 129l21 121q8 47 8 90q0 193 -227 193h-112v123h112q227 0 227 197q0 39 -8 86l-21 121q-13 76 -13 134q0 149 111 244q110 94 280 94h131v-123h-59q-278 0 -278 -207q0 -40 8 -86l22 -125q8 -46 8 -84
q0 -129 -78 -217q-46 -51 -132 -95q94 -48 141 -106q68 -85 68 -210q0 -41 -7 -81l-22 -125q-8 -46 -8 -91q0 -202 278 -202h59v-123z" />
    <glyph glyph-name="bar" unicode="|" 
d="M540 -296v1875h148v-1875h-148z" />
    <glyph glyph-name="braceright" unicode="}" 
d="M227 1579h131q172 0 281 -95q110 -96 110 -247q0 -55 -13 -130l-21 -121q-8 -46 -8 -90q0 -193 227 -193h112v-123h-112q-227 0 -227 -197q0 -41 8 -86l21 -120q13 -74 13 -135q0 -148 -111 -243q-110 -95 -280 -95h-131v123h59q278 0 278 206q0 42 -8 87l-22 125
q-7 40 -7 85q0 128 77 216q45 51 132 96q-93 48 -140 106q-69 85 -69 209q0 41 7 81l22 125q8 45 8 91q0 202 -278 202h-59v123z" />
    <glyph glyph-name="asciitilde" unicode="~" 
d="M247 469h-148q4 106 23 161q61 167 254 167q103 0 208 -69l117 -77l70 -46q30 -20 84 -20q123 0 127 180h148q-3 -106 -23 -161q-60 -167 -253 -167q-104 0 -208 69l-117 77l-70 46q-31 20 -87 20q-121 0 -125 -180z" />
    <glyph glyph-name="uni00A0" unicode="&#xa0;" 
 />
    <glyph glyph-name="exclamdown" unicode="&#xa1;" 
d="M738 1086v-222h-247v222h247zM676 666l37 -666v-395h-197v395l37 666h123z" />
    <glyph glyph-name="cent" unicode="&#xa2;" 
d="M629 0v179q-201 25 -312 141q-144 149 -144 417q0 283 157 435q109 106 299 133v175h124v-172q156 -13 296 -50v-320h-123l-25 209q-71 37 -148 37v-879q116 0 308 71v-142q-146 -51 -308 -61v-173h-124zM629 317v862q-66 -22 -100 -48q-146 -110 -146 -397
q0 -222 91 -328q38 -45 86 -67q23 -10 69 -22z" />
    <glyph glyph-name="sterling" unicode="&#xa3;" 
d="M149 0v179q202 70 204 332v217h-173v123h173v259q0 188 105 297q105 110 288 110q128 0 282 -49v-308h-123l-25 209q-80 25 -140 25q-190 0 -190 -203v-340h265v-123h-265v-169q-1 -254 -182 -386h675v-173h-894z" />
    <glyph glyph-name="currency" unicode="&#xa4;" 
d="M347 316l-175 -175l-87 87l174 175q-89 125 -89 267q0 144 89 268l-174 174l87 88l175 -175q130 90 267 90t267 -90l175 175l87 -88l-175 -174q90 -125 90 -268q0 -142 -90 -267l175 -174l-87 -88l-175 175q-130 -90 -267 -90t-267 90zM614 967q-124 0 -210 -86
q-86 -85 -86 -207q0 -115 69 -197q88 -103 228 -103q124 0 209 86q86 86 86 211q0 124 -86 210q-85 86 -210 86z" />
    <glyph glyph-name="yen" unicode="&#xa5;" 
d="M294 0v123h222v284h-345v124h345v129l-46 80h-299v124h229l-285 493h-66v123h441v-123h-149l315 -544h2l315 544h-148v123h354v-123h-64l-285 -493h229v-124h-300l-46 -79v-130h346v-124h-346v-284h222v-123h-641z" />
    <glyph glyph-name="brokenbar" unicode="&#xa6;" 
d="M540 -296v740h148v-740h-148zM540 839v740h148v-740h-148z" />
    <glyph glyph-name="section" unicode="&#xa7;" 
d="M154 -259v321h123l25 -210q160 -62 315 -62q132 0 208 56q75 55 75 148q0 83 -69 131q-53 38 -163 81l-246 96q-262 102 -262 320q0 154 144 290q-138 101 -138 246q0 172 132 266q131 94 375 94q157 0 345 -44v-320h-124l-24 203q-130 37 -240 37q-132 0 -206 -42
q-85 -49 -85 -150q0 -84 87 -148q51 -36 139 -70l206 -79q277 -106 277 -334q0 -145 -129 -290q154 -111 154 -268q0 -158 -128 -252t-355 -94q-230 0 -436 74zM811 344q89 98 89 189q0 131 -186 199l-256 94l-48 19q-83 -88 -83 -173q0 -131 164 -198l269 -109z" />
    <glyph glyph-name="dieresis" unicode="&#xa8;" 
d="M281 1283v197h197v-197h-197zM750 1283v197h197v-197h-197z" />
    <glyph glyph-name="copyright" unicode="&#xa9;" 
d="M615 1517q249 0 401 -213t152 -562q0 -356 -152 -567q-152 -212 -410 -212q-218 0 -361 173q-183 221 -183 604q0 352 152 564q152 213 401 213zM615 1406q-192 0 -311 -184t-119 -481q0 -296 118 -481q118 -186 308 -186q174 0 288 147q145 186 145 521q0 297 -119 480
q-120 184 -310 184zM872 344l-20 -8q-115 -46 -201 -46q-160 0 -262 123q-103 123 -103 320q0 199 100 322q99 123 264 123q93 0 202 -27l16 -4v-185h-85v93q-73 25 -129 25q-110 0 -177 -94q-68 -94 -68 -245q0 -155 73 -247q73 -93 197 -93q97 0 193 50v-107z" />
    <glyph glyph-name="ordfeminine" unicode="&#xaa;" 
d="M765 817q-159 -102 -310 -102q-143 0 -231 59t-88 158q0 263 551 263h78v55q0 78 -47 111q-46 33 -153 33q-87 0 -212 -42v-83h-149v189q251 59 393 59q177 0 259 -54t82 -176v-431h178v-123h-326zM765 933v145h-40q-403 0 -403 -141q0 -98 169 -98q136 0 274 94z" />
    <glyph glyph-name="guillemotleft" unicode="&#xab;" 
d="M1106 185l-86 -86l-445 444l445 444l86 -86l-284 -358zM613 185l-87 -86l-444 444l444 444l87 -86l-284 -358z" />
    <glyph glyph-name="logicalnot" unicode="&#xac;" 
d="M982 197v346h-883v148h1031v-148v0v-346h-148z" />
    <glyph glyph-name="uni00AD" unicode="&#xad;" 
d="M148 543v148h933v-148h-933z" />
    <glyph glyph-name="registered" unicode="&#xae;" 
d="M615 1517q249 0 401 -213t152 -562q0 -356 -152 -567q-152 -212 -410 -212q-218 0 -361 173q-183 221 -183 604q0 352 152 564q152 213 401 213zM615 1406q-192 0 -311 -184t-119 -481q0 -296 118 -481q118 -186 308 -186q174 0 288 147q145 186 145 521q0 297 -119 480
q-120 184 -310 184zM364 317v71h62v705h-62v70h272q217 0 217 -206q0 -153 -149 -234l185 -335h25v-71h-119l-194 370h-64v-299h74v-71h-247zM537 758h7q185 0 185 188q0 82 -34 114q-34 33 -121 33h-37v-335z" />
    <glyph glyph-name="macron" unicode="&#xaf;" 
d="M0 1604h1229v-148h-1229v148z" />
    <glyph glyph-name="degree" unicode="&#xb0;" 
d="M614 1517q121 0 209 -87q87 -86 87 -208q0 -124 -87 -210q-88 -87 -213 -87q-106 0 -187 70q-105 92 -105 226q0 123 87 209q88 87 209 87zM614 1394q-71 0 -122 -51q-51 -50 -51 -121t51 -122q50 -51 120 -51q65 0 113 41q62 52 62 132q0 71 -51 121q-51 51 -122 51z
" />
    <glyph glyph-name="plusminus" unicode="&#xb1;" 
d="M541 296v395h-442v148h442v395h148v-395h441v-148h-441v-395h-148zM1130 0h-1031v148h1031v-148z" />
    <glyph glyph-name="uni00B2" unicode="&#xb2;" 
d="M257 728v148q41 95 107 139q60 40 187 90l96 38q134 53 134 135q0 116 -192 116q-114 0 -197 -37l-12 -92h-123v203l37 9q168 41 298 41q368 0 368 -223q0 -157 -208 -233l-82 -30q-180 -66 -210 -156h512v-148h-715z" />
    <glyph glyph-name="uni00B3" unicode="&#xb3;" 
d="M263 752v173h123l12 -68q70 -18 163 -18q226 0 226 104q0 84 -96 107q-73 17 -226 17h-91v124h95q190 0 254 22q64 21 64 83q0 98 -192 98q-118 0 -197 -30l-12 -81h-123v185q170 50 343 50q360 0 360 -192q0 -130 -212 -200q212 -46 212 -193q0 -218 -389 -218
q-146 0 -314 37z" />
    <glyph glyph-name="acute" unicode="&#xb4;" 
d="M392 1283l216 321h228l-321 -321h-123z" />
    <glyph glyph-name="mu" unicode="&#xb5;" 
d="M191 962h-123v124h321v-701q0 -255 163 -255q149 0 293 252v580h-111v124h309v-963h123v-123h-321v209q-78 -120 -145 -172q-80 -62 -201 -62q-50 0 -110 15v-385h-198v758v599z" />
    <glyph glyph-name="paragraph" unicode="&#xb6;" 
d="M550 -296v1036q-144 17 -219 50q-231 99 -231 364q0 339 357 339q38 0 97 -5l70 -6q20 -2 55 -2h291v-1776h-124v1653h-172v-1653h-124z" />
    <glyph glyph-name="periodcentered" unicode="&#xb7;" 
d="M446 774v336h336v-336h-336z" />
    <glyph glyph-name="cedilla" unicode="&#xb8;" 
d="M557 0h97l-60 -109q72 -2 124 -39q70 -49 70 -121q0 -68 -59 -115q-58 -48 -145 -48q-67 0 -143 21v81q50 -15 104 -15q104 0 104 74q0 93 -187 96z" />
    <glyph glyph-name="uni00B9" unicode="&#xb9;" 
d="M266 728v123h262v494l-262 -50v124l435 98v-666h262v-123h-697z" />
    <glyph glyph-name="ordmasculine" unicode="&#xba;" 
d="M614 1517q215 0 341 -108t126 -293q0 -186 -126 -293q-127 -107 -348 -107q-189 0 -309 89q-150 111 -150 312q0 184 126 292t340 108zM614 1394q-123 0 -202 -78q-79 -79 -79 -199q0 -121 79 -199q78 -79 200 -79q112 0 188 63q96 80 96 215q0 121 -80 199t-202 78z" />
    <glyph glyph-name="guillemotright" unicode="&#xbb;" 
d="M123 185l284 358l-284 358l86 86l444 -444l-444 -444zM616 185l284 358l-284 358l87 86l444 -444l-444 -444z" />
    <glyph glyph-name="onequarter" unicode="&#xbc;" 
d="M68 -37l812 1554h136l-812 -1554h-136zM935 0v197h-395v141l359 427h191v-457h115v-111h-115v-197h-155zM12 1304v127l346 87v-778h-173v608zM654 308h281v335z" />
    <glyph glyph-name="onehalf" unicode="&#xbd;" 
d="M50 -37l812 1554h136l-812 -1554h-136zM660 0v139q76 137 226 254l43 34q77 61 77 123q0 104 -132 104q-99 0 -214 -56v135q129 45 232 45q132 0 213.5 -60t81.5 -158q0 -125 -163 -233l-55 -37l-40 -26q-73 -51 -105 -128h381v-136h-545zM16 1304v127l346 87v-778h-173
v608z" />
    <glyph glyph-name="threequarters" unicode="&#xbe;" 
d="M42 874q122 -36 200 -36q154 0 154 104q0 133 -274 133v118h30q246 0 246 121q0 91 -138 91q-94 0 -218 -44v126q122 30 238 30q136 0 214 -49t78 -135q0 -141 -231 -200q234 -41 234 -195q0 -218 -342 -218q-94 0 -191 29v125zM70 -37l1017 1554h142l-1017 -1554h-142z
M943 0v197h-382v141l358 427h192v-457h100v-111h-100v-197h-168zM662 308h281v335z" />
    <glyph glyph-name="questiondown" unicode="&#xbf;" 
d="M790 1086v-222h-247v222h247zM790 647v-49q0 -232 -244 -388l-67 -47q-143 -100 -143 -239q0 -106 71 -169q70 -63 194 -63t254 62l24 259h124v-377q-218 -67 -411 -67q-466 0 -466 337q0 166 147 276l56 42q3 2 12 9q9 6 17 12q13 8 33 22q70 65 107 116q45 56 45 212
v52h247z" />
    <glyph glyph-name="Agrave" unicode="&#xc0;" 
d="M327 444l-99 -321h143v-123h-346v123h74l421 1357h189l420 -1357h74v-123h-437v123h157l-100 321h-496zM366 568h419l-208 675h-2zM738 1614h-123l-321 321h228z" />
    <glyph glyph-name="Aacute" unicode="&#xc1;" 
d="M327 444l-99 -321h143v-123h-346v123h74l421 1357h189l420 -1357h74v-123h-437v123h157l-100 321h-496zM366 568h419l-208 675h-2zM491 1614l216 321h228l-321 -321h-123z" />
    <glyph glyph-name="Acircumflex" unicode="&#xc2;" 
d="M327 444l-99 -321h143v-123h-346v123h74l421 1357h189l420 -1357h74v-123h-437v123h157l-100 321h-496zM366 568h419l-208 675h-2zM249 1614l256 321h219l256 -321h-123l-241 202h-3l-241 -202h-123z" />
    <glyph glyph-name="Atilde" unicode="&#xc3;" 
d="M327 444l-99 -321h143v-123h-346v123h74l421 1357h189l420 -1357h74v-123h-437v123h157l-100 321h-496zM366 568h419l-208 675h-2zM281 1634q6 95 31 145q45 90 154 90q72 0 135 -39l60 -37q62 -38 96 -38q68 0 79 114h111q-7 -94 -32 -144q-46 -91 -153 -91
q-73 0 -136 39l-60 37q-60 37 -96 37q-68 0 -79 -113h-110z" />
    <glyph glyph-name="Adieresis" unicode="&#xc4;" 
d="M327 444l-99 -321h143v-123h-346v123h74l421 1357h189l420 -1357h74v-123h-437v123h157l-100 321h-496zM366 568h419l-208 675h-2zM281 1634v197h197v-197h-197zM750 1634v197h197v-197h-197z" />
    <glyph glyph-name="Aring" unicode="&#xc5;" 
d="M327 444l-99 -321h143v-123h-346v123h74l421 1357h62q-63 9 -112 52q-80 69 -80 175q0 95 67 161q66 67 160 67t160 -66q67 -66 67 -161q0 -99 -67 -164q-55 -55 -130 -64h62l420 -1357h74v-123h-437v123h157l-100 321h-496zM366 568h419l-208 675h-2zM617 1849
q-58 -1 -99 -41q-42 -41 -42 -100q0 -61 41 -102q41 -42 100 -42q52 0 91 33q50 43 50 111q0 59 -42 100q-41 40 -99 41z" />
    <glyph glyph-name="AE" unicode="&#xc6;" 
d="M824 703v-580h269v210h124v-333h-689v123h111v296h-329l-127 -296h121v-123h-292v123h44l583 1357h559v-314h-123v191h-251v-530h177v123h123v-370h-123v123h-177zM363 543h276v637h-1z" />
    <glyph glyph-name="Ccedilla" unicode="&#xc7;" 
d="M1127 74q-198 -106 -372 -111l-39 -72q72 -2 124 -39q70 -49 70 -121q0 -68 -59 -115q-59 -48 -144 -48q-67 0 -144 21v81q50 -15 104 -15q104 0 104 74q0 93 -187 96l77 142q-234 25 -374 202q-164 206 -164 579q0 369 156 569t446 200q164 0 381 -64v-343h-123l-29 231
q-113 53 -224 53q-188 0 -291 -176t-103 -484q0 -298 114 -467q113 -168 313 -168q178 0 364 135v-160z" />
    <glyph glyph-name="Egrave" unicode="&#xc8;" 
d="M740 1614h-123l-321 321h228zM74 0v123h185v1234h-185v123h982v-355h-123v232h-476v-543h291v124h123v-371h-123v124h-291v-560h525v247h124v-378h-1032z" />
    <glyph glyph-name="Eacute" unicode="&#xc9;" 
d="M481 1614l216 321h228l-321 -321h-123zM74 0v123h185v1234h-185v123h982v-355h-123v232h-476v-543h291v124h123v-371h-123v124h-291v-560h525v247h124v-378h-1032z" />
    <glyph glyph-name="Ecircumflex" unicode="&#xca;" 
d="M259 1614l256 321h219l256 -321h-123l-241 202h-3l-241 -202h-123zM74 0v123h185v1234h-185v123h982v-355h-123v232h-476v-543h291v124h123v-371h-123v124h-291v-560h525v247h124v-378h-1032z" />
    <glyph glyph-name="Edieresis" unicode="&#xcb;" 
d="M259 1634v197h197v-197h-197zM728 1634v197h197v-197h-197zM74 0v123h185v1234h-185v123h982v-355h-123v232h-476v-543h291v124h123v-371h-123v124h-291v-560h525v247h124v-378h-1032z" />
    <glyph glyph-name="Igrave" unicode="&#xcc;" 
d="M160 0v123h355v1234h-355v123h908v-123h-355v-1234h355v-123h-908zM712 1614h-123l-321 321h228z" />
    <glyph glyph-name="Iacute" unicode="&#xcd;" 
d="M160 0v123h355v1234h-355v123h908v-123h-355v-1234h355v-123h-908zM515 1614l216 321h228l-321 -321h-123z" />
    <glyph glyph-name="Icircumflex" unicode="&#xce;" 
d="M160 0v123h355v1234h-355v123h908v-123h-355v-1234h355v-123h-908zM248 1614l256 321h219l256 -321h-123l-241 202h-3l-241 -202h-123z" />
    <glyph glyph-name="Idieresis" unicode="&#xcf;" 
d="M160 0v123h355v1234h-355v123h908v-123h-355v-1234h355v-123h-908zM281 1634v197h197v-197h-197zM750 1634v197h197v-197h-197z" />
    <glyph glyph-name="Eth" unicode="&#xd0;" 
d="M49 0v123h148v593h-148v123h148v518h-148v123h509q609 0 609 -704q0 -357 -160 -567q-160 -209 -430 -209h-528zM394 1357v-518h272v-123h-272v-593h119q441 0 441 631q0 308 -112 456q-112 147 -343 147h-105z" />
    <glyph glyph-name="Ntilde" unicode="&#xd1;" 
d="M74 0v123h111v1234h-111v123h234l610 -1075h2v952h-110v123h345v-123h-111v-1357h-124l-609 1076h-3v-953h111v-123h-345zM271 1634q6 95 31 145q45 90 154 90q72 0 135 -39l60 -37q62 -38 96 -38q69 0 79 114h111q-7 -94 -32 -144q-46 -91 -153 -91q-73 0 -136 39
l-60 37q-60 37 -96 37q-68 0 -79 -113h-110z" />
    <glyph glyph-name="Ograve" unicode="&#xd2;" 
d="M738 1614h-123l-321 321h228zM615 1517q243 0 398 -216t155 -559q0 -348 -155 -563q-155 -216 -405 -216q-214 0 -359 175q-187 225 -187 603q0 343 154 559q155 217 399 217zM615 1386q-161 0 -250 -167q-90 -170 -90 -479q0 -306 89 -475q88 -171 250 -171t246 147
q95 164 95 497q0 313 -90 481q-91 167 -250 167z" />
    <glyph glyph-name="Oacute" unicode="&#xd3;" 
d="M491 1614l216 321h228l-321 -321h-123zM615 1517q243 0 398 -216t155 -559q0 -348 -155 -563q-155 -216 -405 -216q-214 0 -359 175q-187 225 -187 603q0 343 154 559q155 217 399 217zM615 1386q-161 0 -250 -167q-90 -170 -90 -479q0 -306 89 -475q88 -171 250 -171
t246 147q95 164 95 497q0 313 -90 481q-91 167 -250 167z" />
    <glyph glyph-name="Ocircumflex" unicode="&#xd4;" 
d="M249 1614l256 321h219l256 -321h-123l-241 202h-3l-241 -202h-123zM615 1517q243 0 398 -216t155 -559q0 -348 -155 -563q-155 -216 -405 -216q-214 0 -359 175q-187 225 -187 603q0 343 154 559q155 217 399 217zM615 1386q-161 0 -250 -167q-90 -170 -90 -479
q0 -306 89 -475q88 -171 250 -171t246 147q95 164 95 497q0 313 -90 481q-91 167 -250 167z" />
    <glyph glyph-name="Otilde" unicode="&#xd5;" 
d="M282 1634q6 95 31 145q45 90 154 90q72 0 135 -39l60 -37q62 -38 96 -38q68 0 79 114h111q-7 -94 -32 -144q-46 -91 -153 -91q-73 0 -136 39l-60 37q-60 37 -96 37q-68 0 -79 -113h-110zM615 1517q243 0 398 -216t155 -559q0 -348 -155 -563q-155 -216 -405 -216
q-214 0 -359 175q-187 225 -187 603q0 343 154 559q155 217 399 217zM615 1386q-161 0 -250 -167q-90 -170 -90 -479q0 -306 89 -475q88 -171 250 -171t246 147q95 164 95 497q0 313 -90 481q-91 167 -250 167z" />
    <glyph glyph-name="Odieresis" unicode="&#xd6;" 
d="M282 1634v197h197v-197h-197zM751 1634v197h197v-197h-197zM615 1517q243 0 398 -216t155 -559q0 -348 -155 -563q-155 -216 -405 -216q-214 0 -359 175q-187 225 -187 603q0 343 154 559q155 217 399 217zM615 1386q-161 0 -250 -167q-90 -170 -90 -479q0 -306 89 -475
q88 -171 250 -171t246 147q95 164 95 497q0 313 -90 481q-91 167 -250 167z" />
    <glyph glyph-name="multiply" unicode="&#xd7;" 
d="M99 206l411 411l-411 411l105 105l411 -412l411 412l105 -105l-412 -411l412 -411l-105 -105l-411 411l-411 -411z" />
    <glyph glyph-name="Oslash" unicode="&#xd8;" 
d="M321 371l544 854q-91 159 -249 159q-163 0 -257 -167.5t-94 -474.5q0 -197 56 -371zM364 254q93 -160 249 -160q168 0 260 168.5t92 475.5q0 199 -57 372zM62 -37l144 227q-144 242 -144 549q0 344 154 561t397 217q186 0 345 -146l93 146h117l-145 -227
q145 -242 145 -550q0 -342 -154 -559q-154 -218 -398 -218q-185 0 -344 147l-93 -147h-117z" />
    <glyph glyph-name="Ugrave" unicode="&#xd9;" 
d="M185 1357h-123v123h457v-123h-136v-834q0 -210 72 -323q71 -114 201 -114q265 0 265 446v825h-136v123h383v-123h-124v-861q0 -252 -111 -392q-110 -141 -312 -141q-436 0 -436 587v807zM775 1614h-123l-321 321h228z" />
    <glyph glyph-name="Uacute" unicode="&#xda;" 
d="M185 1357h-123v123h457v-123h-136v-834q0 -210 72 -323q71 -114 201 -114q265 0 265 446v825h-136v123h383v-123h-124v-861q0 -252 -111 -392q-110 -141 -312 -141q-436 0 -436 587v807zM528 1614l216 321h228l-321 -321h-123z" />
    <glyph glyph-name="Ucircumflex" unicode="&#xdb;" 
d="M185 1357h-123v123h457v-123h-136v-834q0 -210 72 -323q71 -114 201 -114q265 0 265 446v825h-136v123h383v-123h-124v-861q0 -252 -111 -392q-110 -141 -312 -141q-436 0 -436 587v807zM286 1614l256 321h219l256 -321h-123l-241 202h-3l-241 -202h-123z" />
    <glyph glyph-name="Udieresis" unicode="&#xdc;" 
d="M185 1357h-123v123h457v-123h-136v-834q0 -210 72 -323q71 -114 201 -114q265 0 265 446v825h-136v123h383v-123h-124v-861q0 -252 -111 -392q-110 -141 -312 -141q-436 0 -436 587v807zM319 1634v197h197v-197h-197zM788 1634v197h197v-197h-197z" />
    <glyph glyph-name="Yacute" unicode="&#xdd;" 
d="M294 0v123h222v537l-403 697h-86v123h463v-123h-149l315 -544h2l315 544h-148v123h376v-123h-86l-402 -696v-538h222v-123h-641zM534 1614l216 321h228l-321 -321h-123z" />
    <glyph glyph-name="Thorn" unicode="&#xde;" 
d="M481 1191h189q454 0 454 -362q0 -241 -169 -380q-168 -140 -463 -140h-11v-186h197v-123h-592v123h197v1234h-197v123h592v-123h-197v-166zM481 432h12q201 0 311 96q110 95 110 268q0 271 -322 271h-111v-635z" />
    <glyph glyph-name="germandbls" unicode="&#xdf;" 
d="M62 0v123h135v980q0 190 22 270t90 139q106 92 300 92q180 0 288 -65t108 -176q0 -118 -125 -221l-130 -107q-68 -56 -68 -122q0 -69 124 -162l135 -101q163 -122 206 -182q46 -65 46 -168q0 -145 -94 -235t-252 -90q-114 0 -243 37v278h111l25 -148q72 -43 135 -43
q151 0 151 151q0 107 -110 189l-99 74l-124 93q-121 91 -155 136q-35 47 -35 112q0 107 103 211l98 99q104 105 104 195q0 122 -190 122q-122 0 -173 -51q-50 -50 -50 -174v-1133h123v-123h-456z" />
    <glyph glyph-name="agrave" unicode="&#xe0;" 
d="M798 1283h-123l-321 321h228zM834 119q-173 -144 -351 -144q-153 0 -244 86q-91 85 -91 232q0 190 142 276q142 85 459 85h85v168q0 165 -204 165q-103 0 -257 -58l-25 -127h-123v216q229 93 467 93q189 0 264 -65q75 -66 75 -227v-696h136v-123h-313zM834 269v262h-53
q-230 0 -327 -52q-96 -52 -96 -196q0 -177 186 -177q147 0 290 163z" />
    <glyph glyph-name="aacute" unicode="&#xe1;" 
d="M552 1283l216 321h228l-321 -321h-123zM834 119q-173 -144 -351 -144q-153 0 -244 86q-91 85 -91 232q0 190 142 276q142 85 459 85h85v168q0 165 -204 165q-103 0 -257 -58l-25 -127h-123v216q229 93 467 93q189 0 264 -65q75 -66 75 -227v-696h136v-123h-313zM834 269
v262h-53q-230 0 -327 -52q-96 -52 -96 -196q0 -177 186 -177q147 0 290 163z" />
    <glyph glyph-name="acircumflex" unicode="&#xe2;" 
d="M275 1283l256 321h219l256 -321h-123l-241 202h-3l-241 -202h-123zM834 119q-173 -144 -351 -144q-153 0 -244 86q-91 85 -91 232q0 190 142 276q142 85 459 85h85v168q0 165 -204 165q-103 0 -257 -58l-25 -127h-123v216q229 93 467 93q189 0 264 -65q75 -66 75 -227
v-696h136v-123h-313zM834 269v262h-53q-230 0 -327 -52q-96 -52 -96 -196q0 -177 186 -177q147 0 290 163z" />
    <glyph glyph-name="atilde" unicode="&#xe3;" 
d="M303 1293q6 94 31 145q45 90 154 90q72 0 135 -39l60 -37q62 -38 96 -38q68 0 79 114h111q-7 -94 -32 -144q-46 -91 -153 -91q-73 0 -136 39l-60 37q-60 37 -96 37q-68 0 -79 -113h-110zM834 119q-173 -144 -351 -144q-153 0 -244 86q-91 85 -91 232q0 190 142 276
q142 85 459 85h85v168q0 165 -204 165q-103 0 -257 -58l-25 -127h-123v216q229 93 467 93q189 0 264 -65q75 -66 75 -227v-696h136v-123h-313zM834 269v262h-53q-230 0 -327 -52q-96 -52 -96 -196q0 -177 186 -177q147 0 290 163z" />
    <glyph glyph-name="adieresis" unicode="&#xe4;" 
d="M316 1293v197h197v-197h-197zM785 1293v197h197v-197h-197zM834 119q-173 -144 -351 -144q-153 0 -244 86q-91 85 -91 232q0 190 142 276q142 85 459 85h85v168q0 165 -204 165q-103 0 -257 -58l-25 -127h-123v216q229 93 467 93q189 0 264 -65q75 -66 75 -227v-696h136
v-123h-313zM834 269v262h-53q-230 0 -327 -52q-96 -52 -96 -196q0 -177 186 -177q147 0 290 163z" />
    <glyph glyph-name="aring" unicode="&#xe5;" 
d="M676 1737q94 0 160 -66q67 -66 67 -160q0 -97 -67 -162q-66 -66 -162 -66q-83 0 -145 54q-80 69 -80 173q0 94 67 160q67 67 160 67zM676 1650q-58 0 -99 -41q-42 -40 -42 -99q0 -58 41 -99q41 -42 99 -42q53 0 92 33q50 43 50 109q0 58 -42 98q-42 41 -99 41zM834 119
q-173 -144 -351 -144q-153 0 -244 86q-91 85 -91 232q0 190 142 276q142 85 459 85h85v168q0 165 -204 165q-103 0 -257 -58l-25 -127h-123v216q229 93 467 93q189 0 264 -65q75 -66 75 -227v-696h136v-123h-313zM834 269v262h-53q-230 0 -327 -52q-96 -52 -96 -196
q0 -177 186 -177q147 0 290 163z" />
    <glyph glyph-name="ae" unicode="&#xe6;" 
d="M594 154q-37 -81 -81 -121q-65 -58 -161 -58q-131 0 -220 95q-90 94 -90 237q0 168 117 264q116 95 322 95h43v141q0 110 -21 145q-22 35 -90 35q-63 0 -124 -40l-25 -136h-123v232q153 67 298 67q97 0 158 -48q36 -29 56 -83q78 131 226 131q146 0 227 -136
q80 -136 80 -382v-49h-482l3 -51q0 -386 241 -386q84 0 244 84v-147q-176 -68 -307 -68q-166 0 -291 179zM524 228v315h-31q-247 0 -247 -236q0 -201 141 -201q85 0 137 122zM704 666h280q-3 178 -35 250q-31 71 -90 71q-134 0 -155 -321z" />
    <glyph glyph-name="ccedilla" unicode="&#xe7;" 
d="M1110 46q-162 -71 -394 -71l-46 -84q72 -2 124 -39q70 -49 70 -121q0 -68 -59 -115q-58 -48 -145 -48q-67 0 -143 21v81q50 -15 104 -15q104 0 104 74q0 93 -187 96l84 155q-217 22 -351 153q-161 158 -161 422q0 260 158 407q157 148 444 148q213 0 385 -54v-310h-124
l-35 197q-121 44 -237 44q-176 0 -280 -118q-96 -118 -96 -317q0 -220 108 -333q116 -113 322 -113q168 0 355 81v-141z" />
    <glyph glyph-name="egrave" unicode="&#xe8;" 
d="M772 1283h-123l-321 321h228zM1105 506h-771q14 -135 41 -195q91 -205 352 -205q161 0 349 105v-149q-175 -87 -375 -87q-259 0 -419 159q-159 159 -159 417q0 251 148 405q147 154 389 154q445 0 445 -543v-61zM336 629h559v46q0 312 -249 312q-154 0 -238 -123
q-59 -86 -72 -235z" />
    <glyph glyph-name="eacute" unicode="&#xe9;" 
d="M525 1283l216 321h228l-321 -321h-123zM1105 506h-771q14 -135 41 -195q91 -205 352 -205q161 0 349 105v-149q-175 -87 -375 -87q-259 0 -419 159q-159 159 -159 417q0 251 148 405q147 154 389 154q445 0 445 -543v-61zM336 629h559v46q0 312 -249 312
q-154 0 -238 -123q-59 -86 -72 -235z" />
    <glyph glyph-name="ecircumflex" unicode="&#xea;" 
d="M283 1283l256 321h219l256 -321h-123l-241 202h-3l-241 -202h-123zM1105 506h-771q14 -135 41 -195q91 -205 352 -205q161 0 349 105v-149q-175 -87 -375 -87q-259 0 -419 159q-159 159 -159 417q0 251 148 405q147 154 389 154q445 0 445 -543v-61zM336 629h559v46
q0 312 -249 312q-154 0 -238 -123q-59 -86 -72 -235z" />
    <glyph glyph-name="edieresis" unicode="&#xeb;" 
d="M315 1293v197h197v-197h-197zM784 1293v197h197v-197h-197zM1105 506h-771q14 -135 41 -195q91 -205 352 -205q161 0 349 105v-149q-175 -87 -375 -87q-259 0 -419 159q-159 159 -159 417q0 251 148 405q147 154 389 154q445 0 445 -543v-61zM336 629h559v46
q0 312 -249 312q-154 0 -238 -123q-59 -86 -72 -235z" />
    <glyph glyph-name="igrave" unicode="&#xec;" 
d="M148 0v123h390v839h-390v124h587v-963h370v-123h-957zM735 1283h-123l-321 321h228z" />
    <glyph glyph-name="iacute" unicode="&#xed;" 
d="M148 0v123h390v839h-390v124h587v-963h370v-123h-957zM538 1283l216 321h228l-321 -321h-123z" />
    <glyph glyph-name="icircumflex" unicode="&#xee;" 
d="M148 0v123h390v839h-390v124h587v-963h370v-123h-957zM271 1283l256 321h219l256 -321h-123l-241 202h-3l-241 -202h-123z" />
    <glyph glyph-name="idieresis" unicode="&#xef;" 
d="M148 0v123h390v839h-390v124h587v-963h370v-123h-957zM293 1293v197h197v-197h-197zM762 1293v197h197v-197h-197z" />
    <glyph glyph-name="eth" unicode="&#xf0;" 
d="M785 1031q-127 185 -243 271l-247 -168l-62 92l216 145q-141 85 -335 85v123h27q254 0 448 -113l224 151l61 -91l-189 -128q192 -139 297 -330q137 -249 137 -500q0 -262 -139 -427q-139 -166 -362 -166q-219 0 -363 158t-144 399q0 239 139 396q138 158 342 158
q95 0 193 -55zM615 962q-127 1 -210 -123q-84 -124 -84 -308q1 -185 84 -309q83 -123 210 -123q125 0 209 122q85 123 85 305q0 170 -69 288q-83 162 -225 148z" />
    <glyph glyph-name="ntilde" unicode="&#xf1;" 
d="M279 1283q6 94 31 145q45 90 154 90q72 0 135 -39l60 -37q62 -38 96 -38q68 0 79 114h111q-7 -94 -32 -144q-46 -91 -153 -91q-73 0 -136 39l-60 37q-60 37 -96 37q-68 0 -79 -113h-110zM72 0v123h120v839h-120v124h318v-210q69 105 137 158q96 76 215 76q301 0 301 -388
v-599h120v-123h-417v123h100v582q0 257 -163 257q-150 0 -293 -258v-581h100v-123h-418z" />
    <glyph glyph-name="ograve" unicode="&#xf2;" 
d="M614 1110q235 0 369 -151q135 -151 135 -415q0 -268 -135 -418q-135 -151 -377 -151q-205 0 -334 125q-161 155 -161 443q0 265 135 416t368 151zM614 987q-290 0 -290 -442q0 -446 290 -446q291 0 291 446q0 442 -291 442zM738 1283h-123l-321 321h228z" />
    <glyph glyph-name="oacute" unicode="&#xf3;" 
d="M614 1110q235 0 369 -151q135 -151 135 -415q0 -268 -135 -418q-135 -151 -377 -151q-205 0 -334 125q-161 155 -161 443q0 265 135 416t368 151zM614 987q-290 0 -290 -442q0 -446 290 -446q291 0 291 446q0 442 -291 442zM491 1283l216 321h228l-321 -321h-123z" />
    <glyph glyph-name="ocircumflex" unicode="&#xf4;" 
d="M614 1110q235 0 369 -151q135 -151 135 -415q0 -268 -135 -418q-135 -151 -377 -151q-205 0 -334 125q-161 155 -161 443q0 265 135 416t368 151zM614 987q-290 0 -290 -442q0 -446 290 -446q291 0 291 446q0 442 -291 442zM249 1283l256 321h219l256 -321h-123l-241 202
h-3l-241 -202h-123z" />
    <glyph glyph-name="otilde" unicode="&#xf5;" 
d="M614 1110q235 0 369 -151q135 -151 135 -415q0 -268 -135 -418q-135 -151 -377 -151q-205 0 -334 125q-161 155 -161 443q0 265 135 416t368 151zM614 987q-290 0 -290 -442q0 -446 290 -446q291 0 291 446q0 442 -291 442zM282 1293q6 94 31 145q45 90 154 90
q72 0 135 -39l60 -37q62 -38 96 -38q68 0 79 114h111q-7 -94 -32 -144q-46 -91 -153 -91q-73 0 -136 39l-60 37q-60 37 -96 37q-68 0 -79 -113h-110z" />
    <glyph glyph-name="odieresis" unicode="&#xf6;" 
d="M614 1110q235 0 369 -151q135 -151 135 -415q0 -268 -135 -418q-135 -151 -377 -151q-205 0 -334 125q-161 155 -161 443q0 265 135 416t368 151zM614 987q-290 0 -290 -442q0 -446 290 -446q291 0 291 446q0 442 -291 442zM281 1293v197h197v-197h-197zM750 1293v197
h197v-197h-197z" />
    <glyph glyph-name="divide" unicode="&#xf7;" 
d="M99 543v148h1031v-148h-1031zM491 0v247h247v-247h-247zM491 987v247h247v-247h-247z" />
    <glyph glyph-name="oslash" unicode="&#xf8;" 
d="M111 -25l127 164q-127 172 -127 406q0 264 135 415q135 150 374 150q179 0 301 -92l72 92h125l-127 -163q127 -172 127 -407q0 -264 -135 -414q-135 -151 -375 -151q-180 0 -300 93l-72 -93h-125zM822 891q-80 96 -208 96q-300 0 -300 -445q0 -150 43 -250zM408 196
q71 -97 206 -97q301 0 301 443q0 148 -43 252z" />
    <glyph glyph-name="ugrave" unicode="&#xf9;" 
d="M740 1283h-123l-321 321h228zM734 1086h309v-963h123v-123h-321v209q-69 -105 -137 -158q-96 -76 -215 -76q-302 0 -302 388v599h-123v124h321v-706q0 -255 163 -255q149 0 293 257v580h-111v124z" />
    <glyph glyph-name="uacute" unicode="&#xfa;" 
d="M493 1283l216 321h228l-321 -321h-123zM734 1086h309v-963h123v-123h-321v209q-69 -105 -137 -158q-96 -76 -215 -76q-302 0 -302 388v599h-123v124h321v-706q0 -255 163 -255q149 0 293 257v580h-111v124z" />
    <glyph glyph-name="ucircumflex" unicode="&#xfb;" 
d="M251 1283l256 321h219l256 -321h-123l-241 202h-3l-241 -202h-123zM734 1086h309v-963h123v-123h-321v209q-69 -105 -137 -158q-96 -76 -215 -76q-302 0 -302 388v599h-123v124h321v-706q0 -255 163 -255q149 0 293 257v580h-111v124z" />
    <glyph glyph-name="udieresis" unicode="&#xfc;" 
d="M284 1293v197h197v-197h-197zM753 1293v197h197v-197h-197zM734 1086h309v-963h123v-123h-321v209q-69 -105 -137 -158q-96 -76 -215 -76q-302 0 -302 388v599h-123v124h321v-706q0 -255 163 -255q149 0 293 257v580h-111v124z" />
    <glyph glyph-name="yacute" unicode="&#xfd;" 
d="M514 0l-385 962h-74v124h447v-124h-160l311 -778h2l311 778h-160v124h367v-124h-74l-385 -962l-108 -271h148v-124h-479v124h198l108 271h-67zM531 1283l216 321h228l-321 -321h-123z" />
    <glyph glyph-name="thorn" unicode="&#xfe;" 
d="M185 -272v1728h-123v123h321v-715q75 111 146 166q102 80 220 80q165 0 267 -143q102 -144 102 -379q0 -286 -135 -449q-134 -164 -369 -164q-88 0 -231 25v-272h247v-123h-568v123h123zM383 146q135 -23 208 -23q317 0 317 468q0 359 -214 359q-164 0 -311 -234v-570z
" />
    <glyph glyph-name="ydieresis" unicode="&#xff;" 
d="M514 0l-385 962h-74v124h447v-124h-160l311 -778h2l311 778h-160v124h367v-124h-74l-385 -962l-108 -271h148v-124h-479v124h198l108 271h-67zM321 1293v197h197v-197h-197zM790 1293v197h197v-197h-197z" />
    <glyph glyph-name="Amacron" unicode="&#x100;" 
d="M327 444l-99 -321h143v-123h-346v123h74l421 1357h189l420 -1357h74v-123h-437v123h157l-100 321h-496zM366 568h419l-208 675h-2zM259 1644v124h691v-124h-691z" />
    <glyph glyph-name="amacron" unicode="&#x101;" 
d="M291 1303v124h691v-124h-691zM834 119q-173 -144 -351 -144q-153 0 -244 86q-91 85 -91 232q0 190 142 276q142 85 459 85h85v168q0 165 -204 165q-103 0 -257 -58l-25 -127h-123v216q229 93 467 93q189 0 264 -65q75 -66 75 -227v-696h136v-123h-313zM834 269v262h-53
q-230 0 -327 -52q-96 -52 -96 -196q0 -177 186 -177q147 0 290 163z" />
    <glyph glyph-name="Abreve" unicode="&#x102;" 
d="M327 444l-99 -321h143v-123h-346v123h74l421 1357h189l420 -1357h74v-123h-437v123h157l-100 321h-496zM366 568h419l-208 675h-2zM268 1904h123q48 -148 222 -148q175 0 223 148h123q-23 -89 -49 -135q-91 -155 -293 -155q-152 0 -241 81q-55 49 -83 121q-11 29 -25 88z
" />
    <glyph glyph-name="abreve" unicode="&#x103;" 
d="M281 1579h123q48 -148 222 -148q175 0 223 148h123q-23 -89 -49 -135q-91 -155 -293 -155q-152 0 -241 81q-55 49 -83 121q-11 29 -25 88zM834 119q-173 -144 -351 -144q-153 0 -244 86q-91 85 -91 232q0 190 142 276q142 85 459 85h85v168q0 165 -204 165
q-103 0 -257 -58l-25 -127h-123v216q229 93 467 93q189 0 264 -65q75 -66 75 -227v-696h136v-123h-313zM834 269v262h-53q-230 0 -327 -52q-96 -52 -96 -196q0 -177 186 -177q147 0 290 163z" />
    <glyph glyph-name="Aogonek" unicode="&#x104;" 
d="M327 444l-99 -321h143v-123h-346v123h74l421 1357h189l420 -1357h74v-123h-176q-129 -81 -129 -179q0 -96 115 -96q54 0 91 15v-81q-62 -29 -140 -29q-202 0 -202 157q0 123 158 213h-154v123h157l-100 321h-496zM366 568h419l-208 675h-2z" />
    <glyph glyph-name="aogonek" unicode="&#x105;" 
d="M834 119q-173 -144 -351 -144q-153 0 -244 86q-91 85 -91 232q0 190 142 276q142 85 459 85h85v168q0 165 -204 165q-103 0 -257 -58l-25 -127h-123v216q229 93 467 93q189 0 264 -65q75 -66 75 -227v-696h136v-123h-136q-129 -81 -129 -179q0 -96 115 -96q54 0 91 15
v-81q-62 -29 -140 -29q-202 0 -202 157q0 123 158 213h-70zM834 269v262h-53q-230 0 -327 -52q-96 -52 -96 -196q0 -177 186 -177q147 0 290 163z" />
    <glyph glyph-name="Cacute" unicode="&#x106;" 
d="M1127 74q-207 -111 -388 -111q-289 0 -452 206q-164 206 -164 579q0 369 156 569t446 200q164 0 381 -64v-343h-123l-29 231q-113 53 -224 53q-187 0 -291 -176q-103 -175 -103 -484q0 -299 114 -467q113 -168 313 -168q178 0 364 135v-160zM591 1614l216 321h228
l-321 -321h-123z" />
    <glyph glyph-name="cacute" unicode="&#x107;" 
d="M566 1283l216 321h228l-321 -321h-123zM1110 46q-162 -71 -394 -71q-283 0 -445 158q-161 158 -161 422q0 260 158 407q157 148 444 148q213 0 385 -54v-310h-124l-35 197q-121 44 -237 44q-176 0 -280 -118q-96 -118 -96 -317q0 -220 108 -333q116 -113 322 -113
q168 0 355 81v-141z" />
    <glyph glyph-name="Ccircumflex" unicode="&#x108;" 
d="M1127 74q-207 -111 -388 -111q-289 0 -452 206q-164 206 -164 579q0 369 156 569t446 200q164 0 381 -64v-343h-123l-29 231q-113 53 -224 53q-187 0 -291 -176q-103 -175 -103 -484q0 -299 114 -467q113 -168 313 -168q178 0 364 135v-160zM348 1614l256 321h219
l256 -321h-123l-241 202h-3l-241 -202h-123z" />
    <glyph glyph-name="ccircumflex" unicode="&#x109;" 
d="M348 1283l256 321h219l256 -321h-123l-241 202h-3l-241 -202h-123zM1110 46q-162 -71 -394 -71q-283 0 -445 158q-161 158 -161 422q0 260 158 407q157 148 444 148q213 0 385 -54v-310h-124l-35 197q-121 44 -237 44q-176 0 -280 -118q-96 -118 -96 -317
q0 -220 108 -333q116 -113 322 -113q168 0 355 81v-141z" />
    <glyph glyph-name="Cdotaccent" unicode="&#x10a;" 
d="M1127 74q-207 -111 -388 -111q-289 0 -452 206q-164 206 -164 579q0 369 156 569t446 200q164 0 381 -64v-343h-123l-29 231q-113 53 -224 53q-187 0 -291 -176q-103 -175 -103 -484q0 -299 114 -467q113 -168 313 -168q178 0 364 135v-160zM615 1644v197h197v-197h-197z
" />
    <glyph glyph-name="cdotaccent" unicode="&#x10b;" 
d="M601 1303v197h197v-197h-197zM1110 46q-162 -71 -394 -71q-283 0 -445 158q-161 158 -161 422q0 260 158 407q157 148 444 148q213 0 385 -54v-310h-124l-35 197q-121 44 -237 44q-176 0 -280 -118q-96 -118 -96 -317q0 -220 108 -333q116 -113 322 -113q168 0 355 81
v-141z" />
    <glyph glyph-name="Ccaron" unicode="&#x10c;" 
d="M1127 74q-207 -111 -388 -111q-289 0 -452 206q-164 206 -164 579q0 369 156 569t446 200q164 0 381 -64v-343h-123l-29 231q-113 53 -224 53q-187 0 -291 -176q-103 -175 -103 -484q0 -299 114 -467q113 -168 313 -168q178 0 364 135v-160zM1080 1935l-257 -321h-218
l-257 321h124l241 -202h2l242 202h123z" />
    <glyph glyph-name="ccaron" unicode="&#x10d;" 
d="M1056 1604l-257 -321h-218l-257 321h124l241 -202h2l242 202h123zM1110 46q-162 -71 -394 -71q-283 0 -445 158q-161 158 -161 422q0 260 158 407q157 148 444 148q213 0 385 -54v-310h-124l-35 197q-121 44 -237 44q-176 0 -280 -118q-96 -118 -96 -317q0 -220 108 -333
q116 -113 322 -113q168 0 355 81v-141z" />
    <glyph glyph-name="Dcaron" unicode="&#x10e;" 
d="M909 1935l-257 -321h-218l-257 321h124l241 -202h2l242 202h123zM49 0v123h148v1234h-148v123h510q608 0 608 -705q0 -356 -160 -566q-160 -209 -430 -209h-528zM395 131h118q441 0 441 623q0 309 -111 456q-112 147 -344 147h-104v-1226z" />
    <glyph glyph-name="dcaron" unicode="&#x10f;" 
d="M753 0v222q-62 -111 -123 -167q-88 -80 -195 -80q-145 0 -234 144q-90 144 -90 379q0 284 118 448q117 164 325 164q80 0 199 -24v370h-216v123h413v-1456h108v-123h-305zM753 955q-108 24 -179 24q-141 0 -198 -105q-58 -118 -58 -372q0 -379 172 -379q154 0 263 247
v585zM1031 1125v59q77 21 77 181v17h-77v197h198v-171q-1 -262 -198 -283z" />
    <glyph glyph-name="Dcroat" unicode="&#x110;" 
d="M49 0v123h148v593h-148v123h148v518h-148v123h509q609 0 609 -704q0 -357 -160 -567q-160 -209 -430 -209h-528zM394 1357v-518h272v-123h-272v-585h119q441 0 441 623q0 308 -112 456q-112 147 -343 147h-105z" />
    <glyph glyph-name="dcroat" unicode="&#x111;" 
d="M846 0v222q-75 -111 -145 -167q-102 -80 -221 -80q-165 0 -267 144q-102 143 -102 379q0 285 135 448q134 164 372 164q87 0 228 -24v135h-320v124h320v111h-246v123h444v-234h123v-124h-123v-1098h123v-123h-321zM846 957q-136 22 -213 22q-165 0 -239 -107
q-73 -106 -73 -368q0 -381 214 -381q164 0 311 234v600z" />
    <glyph glyph-name="Emacron" unicode="&#x112;" 
d="M74 0v123h185v1234h-185v123h982v-357h-123v234h-476v-543h291v124h123v-371h-123v124h-291v-560h525v252h124v-383h-1032zM284 1644v124h691v-124h-691z" />
    <glyph glyph-name="emacron" unicode="&#x113;" 
d="M303 1303v124h691v-124h-691zM1105 506h-771q14 -135 41 -195q91 -205 352 -205q161 0 349 105v-149q-175 -87 -375 -87q-259 0 -419 159q-159 159 -159 417q0 251 148 405q147 154 389 154q445 0 445 -543v-61zM336 629h559v46q0 312 -249 312q-154 0 -238 -123
q-59 -86 -72 -235z" />
    <glyph glyph-name="Ebreve" unicode="&#x114;" 
d="M74 0v123h185v1234h-185v123h982v-357h-123v234h-476v-543h291v124h123v-371h-123v124h-291v-560h525v252h124v-383h-1032zM259 1904h123q48 -148 222 -148q175 0 223 148h123q-23 -89 -49 -135q-91 -155 -293 -155q-152 0 -241 81q-55 49 -83 121q-11 29 -25 88z" />
    <glyph glyph-name="ebreve" unicode="&#x115;" 
d="M303 1579h123q48 -148 222 -148q175 0 223 148h123q-23 -89 -49 -135q-91 -155 -293 -155q-152 0 -241 81q-55 49 -83 121q-11 29 -25 88zM1105 506h-771q14 -135 41 -195q91 -205 352 -205q161 0 349 105v-149q-175 -87 -375 -87q-259 0 -419 159q-159 159 -159 417
q0 251 148 405q147 154 389 154q445 0 445 -543v-61zM336 629h559v46q0 312 -249 312q-154 0 -238 -123q-59 -86 -72 -235z" />
    <glyph glyph-name="Edotaccent" unicode="&#x116;" 
d="M74 0v123h185v1234h-185v123h982v-357h-123v234h-476v-543h291v124h123v-371h-123v124h-291v-560h525v252h124v-383h-1032zM533 1644v197h197v-197h-197z" />
    <glyph glyph-name="edotaccent" unicode="&#x117;" 
d="M550 1303v197h197v-197h-197zM1105 506h-771q14 -135 41 -195q91 -205 352 -205q161 0 349 105v-149q-175 -87 -375 -87q-259 0 -419 159q-159 159 -159 417q0 251 148 405q147 154 389 154q445 0 445 -543v-61zM336 629h559v46q0 312 -249 312q-154 0 -238 -123
q-59 -86 -72 -235z" />
    <glyph glyph-name="Eogonek" unicode="&#x118;" 
d="M74 0v123h185v1234h-185v123h982v-357h-123v234h-476v-543h291v124h123v-371h-123v124h-291v-560h525v252h124v-383h-139q-129 -81 -129 -179q0 -96 115 -96q54 0 91 15v-81q-62 -29 -140 -29q-202 0 -202 157q0 123 158 213h-786z" />
    <glyph glyph-name="eogonek" unicode="&#x119;" 
d="M1105 506h-771q14 -135 41 -195q91 -205 352 -205q161 0 349 105v-149q-116 -58 -242 -77q-106 -75 -106 -164q0 -96 115 -96q54 0 91 15v-81q-62 -29 -140 -29q-202 0 -202 157q0 106 117 188h-8q-259 0 -419 159q-159 159 -159 417q0 251 148 405q147 154 389 154
q445 0 445 -543v-61zM336 629h559v46q0 312 -249 312q-154 0 -238 -123q-59 -86 -72 -235z" />
    <glyph glyph-name="Ecaron" unicode="&#x11a;" 
d="M74 0v123h185v1234h-185v123h982v-357h-123v234h-476v-543h291v124h123v-371h-123v124h-291v-560h525v252h124v-383h-1032zM957 1935l-257 -321h-218l-257 321h124l241 -202h2l242 202h123z" />
    <glyph glyph-name="ecaron" unicode="&#x11b;" 
d="M1015 1604l-257 -321h-218l-257 321h124l241 -202h2l242 202h123zM1105 506h-771q14 -135 41 -195q91 -205 352 -205q161 0 349 105v-149q-175 -87 -375 -87q-259 0 -419 159q-159 159 -159 417q0 251 148 405q147 154 389 154q445 0 445 -543v-61zM336 629h559v46
q0 312 -249 312q-154 0 -238 -123q-59 -86 -72 -235z" />
    <glyph glyph-name="Gcircumflex" unicode="&#x11c;" 
d="M299 1614l256 321h219l256 -321h-123l-241 202h-3l-241 -202h-123zM1081 74q-182 -111 -383 -111q-296 0 -460 206q-164 205 -164 578t157 572q158 199 457 199q173 0 369 -62v-331h-123l-29 216q-114 54 -213 54q-405 0 -405 -658q0 -307 115 -473q115 -170 319 -170
q78 0 162 32v411h-172v123h370v-586z" />
    <glyph glyph-name="gcircumflex" unicode="&#x11d;" 
d="M332 1283l256 321h219l256 -321h-123l-241 202h-3l-241 -202h-123zM1044 963v-808q0 -70 -2.5 -139.5t-16.5 -133.5t-43 -119t-81.5 -95.5t-132.5 -64t-196 -23.5q-86 0 -187.5 13.5t-203.5 53.5v247h123l26 -136q21 -10 49.5 -20t60.5 -17.5t66 -12t68 -4.5
q67 0 113.5 15.5t76.5 43t46.5 65.5t24.5 83.5t9.5 96.5t1.5 105v199q-76 -113 -145 -167q-103 -80 -221 -80q-165 0 -267 144q-102 142 -102 339q0 123 33.5 219.5t101.5 178.5q134 164 373 164q67 0 120 -7t107 -17h317v-123h-119zM846 939q-69 11 -122 17t-91 6
q-165 0 -239 -107q-37 -54 -55 -125t-18 -171q0 -333 214 -333q164 0 311 234v479z" />
    <glyph glyph-name="Gbreve" unicode="&#x11e;" 
d="M320 1935h123q48 -148 222 -148q175 0 223 148h123q-23 -89 -49 -135q-91 -155 -292 -155q-153 0 -242 81q-55 49 -83 121q-11 29 -25 88zM1081 74q-182 -111 -383 -111q-296 0 -460 206q-164 205 -164 578t157 572q158 199 457 199q173 0 369 -62v-331h-123l-29 216
q-114 54 -213 54q-405 0 -405 -658q0 -307 115 -473q115 -170 319 -170q78 0 162 32v411h-172v123h370v-586z" />
    <glyph glyph-name="gbreve" unicode="&#x11f;" 
d="M317 1579h123q48 -148 222 -148q175 0 223 148h123q-23 -89 -49 -135q-91 -155 -293 -155q-152 0 -241 81q-55 49 -83 121q-11 29 -25 88zM1044 963v-808q0 -70 -2.5 -139.5t-16.5 -133.5t-43 -119t-81.5 -95.5t-132.5 -64t-196 -23.5q-86 0 -187.5 13.5t-203.5 53.5v247
h123l26 -136q21 -10 49.5 -20t60.5 -17.5t66 -12t68 -4.5q67 0 113.5 15.5t76.5 43t46.5 65.5t24.5 83.5t9.5 96.5t1.5 105v199q-76 -113 -145 -167q-103 -80 -221 -80q-165 0 -267 144q-102 142 -102 339q0 123 33.5 219.5t101.5 178.5q134 164 373 164q67 0 120 -7
t107 -17h317v-123h-119zM846 939q-69 11 -122 17t-91 6q-165 0 -239 -107q-37 -54 -55 -125t-18 -171q0 -333 214 -333q164 0 311 234v479z" />
    <glyph glyph-name="Gdotaccent" unicode="&#x120;" 
d="M566 1644v197h197v-197h-197zM1081 74q-182 -111 -383 -111q-296 0 -460 206q-164 205 -164 578t157 572q158 199 457 199q173 0 369 -62v-331h-123l-29 216q-114 54 -213 54q-405 0 -405 -658q0 -307 115 -473q115 -170 319 -170q78 0 162 32v411h-172v123h370v-586z
" />
    <glyph glyph-name="gdotaccent" unicode="&#x121;" 
d="M561 1303v197h197v-197h-197zM1044 963v-808q0 -70 -2.5 -139.5t-16.5 -133.5t-43 -119t-81.5 -95.5t-132.5 -64t-196 -23.5q-86 0 -187.5 13.5t-203.5 53.5v247h123l26 -136q21 -10 49.5 -20t60.5 -17.5t66 -12t68 -4.5q67 0 113.5 15.5t76.5 43t46.5 65.5t24.5 83.5
t9.5 96.5t1.5 105v199q-76 -113 -145 -167q-103 -80 -221 -80q-165 0 -267 144q-102 142 -102 339q0 123 33.5 219.5t101.5 178.5q134 164 373 164q67 0 120 -7t107 -17h317v-123h-119zM846 939q-69 11 -122 17t-91 6q-165 0 -239 -107q-37 -54 -55 -125t-18 -171
q0 -333 214 -333q164 0 311 234v479z" />
    <glyph glyph-name="uni0122" unicode="&#x122;" 
d="M528 -421v85q57 -9 97 -9q109 0 109 67q0 74 -157 90v77q134 -3 200 -32q93 -42 93 -137q0 -152 -218 -152q-58 0 -124 11zM1081 74q-182 -111 -383 -111q-296 0 -460 206q-164 205 -164 578t157 572q158 199 457 199q173 0 369 -62v-331h-123l-29 216q-114 54 -213 54
q-405 0 -405 -658q0 -307 115 -473q115 -170 319 -170q78 0 162 32v411h-172v123h370v-586z" />
    <glyph glyph-name="uni0123" unicode="&#x123;" 
d="M763 1747v-59q-77 -21 -77 -181v-17h77v-197h-198v171q1 262 198 283zM1044 963v-808q0 -70 -2.5 -139.5t-16.5 -133.5t-43 -119t-81.5 -95.5t-132.5 -64t-196 -23.5q-86 0 -187.5 13.5t-203.5 53.5v247h123l26 -136q21 -10 49.5 -20t60.5 -17.5t66 -12t68 -4.5
q67 0 113.5 15.5t76.5 43t46.5 65.5t24.5 83.5t9.5 96.5t1.5 105v199q-76 -113 -145 -167q-103 -80 -221 -80q-165 0 -267 144q-102 142 -102 339q0 123 33.5 219.5t101.5 178.5q134 164 373 164q67 0 120 -7t107 -17h317v-123h-119zM846 939q-69 11 -122 17t-91 6
q-165 0 -239 -107q-37 -54 -55 -125t-18 -171q0 -333 214 -333q164 0 311 234v479z" />
    <glyph glyph-name="Hcircumflex" unicode="&#x124;" 
d="M370 703v-580h99v-123h-407v123h111v1234h-111v123h407v-123h-99v-530h489v530h-99v123h408v-123h-111v-1234h111v-123h-408v123h99v580h-489zM249 1614l256 321h219l256 -321h-123l-241 202h-3l-241 -202h-123z" />
    <glyph glyph-name="hcircumflex" unicode="&#x125;" 
d="M254 1678l256 321h219l256 -321h-123l-241 202h-3l-241 -202h-123zM69 0v123h123v1333h-123v123h321v-703q69 105 137 158q96 76 215 76q301 0 301 -388v-599h124v-123h-420v123h99v582q0 257 -163 257q-150 0 -293 -258v-581h111v-123h-432z" />
    <glyph glyph-name="Hbar" unicode="&#x126;" 
d="M370 827h489v259h-489v-259zM62 0v123h111v963h-136v98h136v173h-111v123h407v-123h-99v-172h489v172h-99v123h408v-123h-111v-173h135v-98h-135v-963h111v-123h-408v123h99v580h-489v-580h99v-123h-407z" />
    <glyph glyph-name="hbar" unicode="&#x127;" 
d="M390 876q69 105 137 158q96 76 215 76q301 0 301 -388v-599h124v-123h-420v123h99v578q0 261 -163 261q-150 0 -293 -258v-581h111v-123h-432v123h123v1111h-123v98h123v124h-123v123h321v-247h296v-98h-296v-358z" />
    <glyph glyph-name="Itilde" unicode="&#x128;" 
d="M160 0v123h355v1234h-355v123h908v-123h-355v-1234h355v-123h-908zM281 1634q6 95 31 145q45 90 154 90q72 0 135 -39l60 -37q62 -38 96 -38q68 0 79 114h111q-7 -94 -32 -144q-46 -91 -153 -91q-73 0 -136 39l-60 37q-60 37 -96 37q-68 0 -79 -113h-110z" />
    <glyph glyph-name="itilde" unicode="&#x129;" 
d="M148 0v123h390v839h-390v124h587v-963h370v-123h-957zM247 1293q6 94 31 144q45 91 154 91q72 0 135 -39l60 -37q62 -38 96 -38q68 0 79 114h111q-7 -94 -32 -144q-46 -91 -153 -91q-73 0 -136 39l-60 37q-60 37 -96 37q-68 0 -79 -113h-110z" />
    <glyph glyph-name="Imacron" unicode="&#x12a;" 
d="M160 0v123h355v1234h-355v123h908v-123h-355v-1234h355v-123h-908zM269 1644v124h691v-124h-691z" />
    <glyph glyph-name="imacron" unicode="&#x12b;" 
d="M148 0v123h390v839h-390v124h587v-963h370v-123h-957zM237 1303v124h691v-124h-691z" />
    <glyph glyph-name="Ibreve" unicode="&#x12c;" 
d="M160 0v123h355v1234h-355v123h908v-123h-355v-1234h355v-123h-908zM269 1904h123q48 -148 222 -148q175 0 223 148h123q-23 -89 -49 -135q-91 -155 -293 -155q-152 0 -241 81q-55 49 -83 121q-11 29 -25 88z" />
    <glyph glyph-name="ibreve" unicode="&#x12d;" 
d="M148 0v123h390v839h-390v124h587v-963h370v-123h-957zM279 1579h123q48 -148 222 -148q175 0 223 148h123q-22 -89 -49 -135q-91 -155 -292 -155q-153 0 -242 81q-55 49 -83 121q-11 29 -25 88z" />
    <glyph glyph-name="Iogonek" unicode="&#x12e;" 
d="M160 0v123h355v1234h-355v123h908v-123h-355v-1234h355v-123h-176q-129 -81 -129 -179q0 -96 115 -96q54 0 91 15v-81q-62 -29 -139 -29q-203 0 -203 157q0 123 158 213h-625z" />
    <glyph glyph-name="iogonek" unicode="&#x12f;" 
d="M148 0v123h390v839h-390v124h587v-963h370v-123h-195q-129 -81 -129 -179q0 -96 115 -96q54 0 91 15v-81q-62 -29 -140 -29q-202 0 -202 157q0 123 158 213h-655zM528 1332v247h222v-247h-222z" />
    <glyph glyph-name="Idotaccent" unicode="&#x130;" 
d="M160 0v123h355v1234h-355v123h908v-123h-355v-1234h355v-123h-908zM493 1644v247h242v-247h-242z" />
    <glyph glyph-name="dotlessi" unicode="&#x131;" 
d="M148 0v123h390v839h-390v124h587v-963h370v-123h-957z" />
    <glyph glyph-name="IJ" unicode="&#x132;" 
d="M45 0v123h99v1234h-99v123h395v-123h-99v-1234h99v-123h-395zM563 -19v216h124l12 -89q30 -22 63 -22q171 0 171 324v947h-197v123h395v-947q0 -307 -97 -428q-114 -142 -323 -142q-59 0 -148 18z" />
    <glyph glyph-name="ij" unicode="&#x133;" 
d="M57 0v123h148v839h-148v124h345v-963h148v-123h-493zM1056 1086v-1075q0 -431 -363 -431q-94 0 -223 37v210h124l12 -117q63 -31 110 -31q143 0 143 239v1044h-197v124h394zM180 1332v247h222v-247h-222zM834 1332v247h222v-247h-222z" />
    <glyph glyph-name="Jcircumflex" unicode="&#x134;" 
d="M341 1614l256 321h219l256 -321h-123l-241 202h-3l-241 -202h-123zM111 31v413h123l39 -301q113 -49 194 -49q116 0 167 55q52 54 52 173v1035h-395v123h852v-123h-260v-995q0 -214 -92 -306q-92 -93 -304 -93q-158 0 -376 68z" />
    <glyph glyph-name="jcircumflex" unicode="&#x135;" 
d="M159 -344v319h123l31 -218q68 -53 147 -53q132 0 188 96q57 96 57 327v835h-444v124h642v-1020q0 -230 -113 -358t-314 -128q-139 0 -317 76zM360 1283l257 321h218l257 -321h-124l-241 202h-2l-241 -202h-124z" />
    <glyph glyph-name="uni0136" unicode="&#x136;" 
d="M74 0v123h130v1234h-130v123h432v-123h-105v-601h7l430 601h-111v123h356v-123h-92l-397 -546l529 -688h74v-123h-425v123h111l-475 617h-7v-617h123v-123h-450zM512 -421v85q57 -9 97 -9q109 0 109 67q0 73 -157 90v77q134 -3 200 -32q93 -42 93 -137q0 -152 -218 -152
q-58 0 -124 11z" />
    <glyph glyph-name="uni0137" unicode="&#x137;" 
d="M821 0v123l-402 401h-24v-401h99v-123h-420v123h123v1333h-123v123h321v-987h24l358 370h-116v124h432v-124h-141l-363 -362l488 -477h99v-123h-355zM493 -421v85q57 -9 97 -9q109 0 109 67q0 73 -157 90v77q134 -3 200 -32q93 -42 93 -137q0 -152 -218 -152
q-58 0 -124 11z" />
    <glyph glyph-name="kgreenlandic" unicode="&#x138;" 
d="M821 0v123l-402 401h-24v-401h99v-123h-420v123h123v839h-123v124h321v-494h24l358 370h-116v124h432v-124h-141l-363 -362l488 -477h99v-123h-355z" />
    <glyph glyph-name="Lacute" unicode="&#x139;" 
d="M1151 0h-1065v123h247v1234h-247v123h679v-123h-235v-1226h498v350h123v-481zM407 1614l216 321h228l-321 -321h-123z" />
    <glyph glyph-name="lacute" unicode="&#x13a;" 
d="M524 1678l216 321h228l-321 -321h-123zM1115 61q-166 -86 -336 -86q-92 0 -153.5 21.5t-98 68t-52 119.5t-15.5 175v1097h-370v123h567v-1154q0 -93 7 -152t27.5 -92t58.5 -45t101 -12q124 0 264 77v-140z" />
    <glyph glyph-name="uni013B" unicode="&#x13b;" 
d="M1151 0h-1065v123h247v1234h-247v123h679v-123h-235v-1226h498v350h123v-481zM518 -421v85q57 -9 97 -9q109 0 109 67q0 73 -157 90v77q134 -3 200 -32q93 -42 93 -137q0 -152 -218 -152q-58 0 -124 11z" />
    <glyph glyph-name="uni013C" unicode="&#x13c;" 
d="M501 -421v85q57 -9 97 -9q109 0 109 67q0 73 -157 90v77q134 -3 200 -32q93 -42 93 -137q0 -152 -218 -152q-58 0 -124 11zM1115 61q-166 -86 -336 -86q-92 0 -153.5 21.5t-98 68t-52 119.5t-15.5 175v1097h-370v123h567v-1154q0 -93 7 -152t27.5 -92t58.5 -45t101 -12
q124 0 264 77v-140z" />
    <glyph glyph-name="Lcaron" unicode="&#x13d;" 
d="M1151 0h-1065v123h247v1234h-247v123h679v-123h-235v-1226h498v350h123v-481zM937 1026v59q76 21 76 181v17h-76v197h197v-171q-1 -262 -197 -283z" />
    <glyph glyph-name="lcaron" unicode="&#x13e;" 
d="M908 1125v59q76 21 76 181v17h-76v197h197v-171q-1 -262 -197 -283zM1115 61q-166 -86 -336 -86q-92 0 -153.5 21.5t-98 68t-52 119.5t-15.5 175v1097h-370v123h567v-1154q0 -93 7 -152t27.5 -92t58.5 -45t101 -12q124 0 264 77v-140z" />
    <glyph glyph-name="Ldot" unicode="&#x13f;" 
d="M1151 0h-1065v123h247v1234h-247v123h679v-123h-235v-1226h498v350h123v-481zM954 740v197h197v-197h-197z" />
    <glyph glyph-name="ldot" unicode="&#x140;" 
d="M1011 666v197h197v-197h-197zM1115 61q-166 -86 -336 -86q-92 0 -153.5 21.5t-98 68t-52 119.5t-15.5 175v1097h-370v123h567v-1154q0 -93 7 -152t27.5 -92t58.5 -45t101 -12q124 0 264 77v-140z" />
    <glyph glyph-name="Lslash" unicode="&#x141;" 
d="M86 0v123h247v529l-247 -124v138l247 124v567h-247v123h679v-123h-235v-469l296 148v-137l-296 -149v-619h498v350h123v-481h-1065z" />
    <glyph glyph-name="lslash" unicode="&#x142;" 
d="M1115 61q-44 -23 -88 -40v-21l-37 8q-105 -33 -211 -33q-92 0 -153.5 21.5t-98 68t-52 119.5t-15.5 175v369l-291 -145v138l291 145v590h-370v123h567v-614l291 145v-138l-291 -145v-402q0 -93 7 -152t27.5 -92t58.5 -45t101 -12q124 0 264 77v-140z" />
    <glyph glyph-name="Nacute" unicode="&#x143;" 
d="M74 0v123h111v1234h-111v123h234l610 -1075h2v952h-110v123h345v-123h-111v-1357h-124l-609 1076h-3v-953h111v-123h-345zM493 1614l216 321h228l-321 -321h-123z" />
    <glyph glyph-name="nacute" unicode="&#x144;" 
d="M488 1283l216 321h228l-321 -321h-123zM72 0v123h120v839h-120v124h318v-210q69 105 137 158q96 76 215 76q301 0 301 -388v-599h120v-123h-417v123h100v582q0 257 -163 257q-150 0 -293 -258v-581h100v-123h-418z" />
    <glyph glyph-name="uni0145" unicode="&#x145;" 
d="M74 0v123h111v1234h-111v123h234l610 -1075h2v952h-110v123h345v-123h-111v-1357h-124l-609 1076h-3v-953h111v-123h-345zM481 -421v85q57 -9 97 -9q109 0 109 67q0 73 -157 90v77q134 -3 200 -32q93 -42 93 -137q0 -152 -218 -152q-58 0 -124 11z" />
    <glyph glyph-name="uni0146" unicode="&#x146;" 
d="M488 -421v85q57 -9 97 -9q109 0 109 67q0 73 -157 90v77q134 -3 200 -32q93 -42 93 -137q0 -152 -218 -152q-58 0 -124 11zM72 0v123h120v839h-120v124h318v-210q69 105 137 158q96 76 215 76q301 0 301 -388v-599h120v-123h-417v123h100v582q0 257 -163 257
q-150 0 -293 -258v-581h100v-123h-418z" />
    <glyph glyph-name="Ncaron" unicode="&#x147;" 
d="M74 0v123h111v1234h-111v123h234l610 -1075h2v952h-110v123h345v-123h-111v-1357h-124l-609 1076h-3v-953h111v-123h-345zM981 1935l-257 -321h-218l-257 321h124l241 -202h2l242 202h123z" />
    <glyph glyph-name="ncaron" unicode="&#x148;" 
d="M954 1604l-257 -321h-218l-257 321h124l241 -202h2l242 202h123zM72 0v123h120v839h-120v124h318v-210q69 105 137 158q96 76 215 76q301 0 301 -388v-599h120v-123h-417v123h100v582q0 257 -163 257q-150 0 -293 -258v-581h100v-123h-418z" />
    <glyph glyph-name="napostrophe" unicode="&#x149;" 
d="M8 1125v59q76 21 76 181v17h-76v197h197v-171q-1 -262 -197 -283zM72 0v123h120v839h-120v124h318v-210q69 105 137 158q96 76 215 76q301 0 301 -388v-599h120v-123h-417v123h100v582q0 257 -163 257q-150 0 -293 -258v-581h100v-123h-418z" />
    <glyph glyph-name="Eng" unicode="&#x14a;" 
d="M74 0v123h111v1234h-111v123h234l610 -1075h2v952h-110v123h345v-123h-111v-1357q0 -134 -80 -215q-79 -81 -212 -81q-88 0 -216 37v210h123l13 -118q64 -31 111 -31q62 0 97 40q42 47 42 132q0 7 -1 16l-1 10l-609 1076h-3v-953h111v-123h-345z" />
    <glyph glyph-name="eng" unicode="&#x14b;" 
d="M69 0v123h123v839h-123v124h321v-210q69 105 137 158q96 76 215 76q301 0 301 -388l1 -711q1 -431 -363 -431q-96 0 -223 37v210h123l12 -117q64 -31 111 -31q142 0 142 239v783q0 261 -163 261q-150 0 -293 -258v-581h111v-123h-432z" />
    <glyph glyph-name="Omacron" unicode="&#x14c;" 
d="M269 1644v124h691v-124h-691zM615 1517q243 0 398 -216t155 -559q0 -348 -155 -563q-155 -216 -405 -216q-214 0 -359 175q-187 225 -187 603q0 343 154 559q155 217 399 217zM615 1384q-161 0 -250 -167q-90 -170 -90 -479q0 -306 89 -475q88 -171 250 -171t246 147
q95 164 95 497q0 313 -90 481q-91 167 -250 167z" />
    <glyph glyph-name="omacron" unicode="&#x14d;" 
d="M614 1110q235 0 369 -151q135 -151 135 -415q0 -268 -135 -418q-135 -151 -377 -151q-205 0 -334 125q-161 155 -161 443q0 265 135 416t368 151zM614 987q-290 0 -290 -442q0 -446 290 -446q291 0 291 446q0 442 -291 442zM269 1303v124h691v-124h-691z" />
    <glyph glyph-name="Obreve" unicode="&#x14e;" 
d="M269 1904h123q48 -148 222 -148q175 0 223 148h123q-23 -89 -49 -135q-91 -155 -293 -155q-152 0 -241 81q-55 49 -83 121q-11 29 -25 88zM615 1517q243 0 398 -216t155 -559q0 -348 -155 -563q-155 -216 -405 -216q-214 0 -359 175q-187 225 -187 603q0 343 154 559
q155 217 399 217zM615 1384q-161 0 -250 -167q-90 -170 -90 -479q0 -306 89 -475q88 -171 250 -171t246 147q95 164 95 497q0 313 -90 481q-91 167 -250 167z" />
    <glyph glyph-name="obreve" unicode="&#x14f;" 
d="M614 1110q235 0 369 -151q135 -151 135 -415q0 -268 -135 -418q-135 -151 -377 -151q-205 0 -334 125q-161 155 -161 443q0 265 135 416t368 151zM614 987q-290 0 -290 -442q0 -446 290 -446q291 0 291 446q0 442 -291 442zM269 1579h123q48 -148 222 -148q175 0 223 148
h123q-23 -89 -49 -135q-91 -155 -293 -155q-152 0 -241 81q-55 49 -83 121q-11 29 -25 88z" />
    <glyph glyph-name="Ohungarumlaut" unicode="&#x150;" 
d="M318 1614l240 321h192l-321 -321h-111zM669 1614l241 321h191l-321 -321h-111zM615 1517q243 0 398 -216t155 -559q0 -348 -155 -563q-155 -216 -405 -216q-214 0 -359 175q-187 225 -187 603q0 343 154 559q155 217 399 217zM615 1384q-161 0 -250 -167
q-90 -170 -90 -479q0 -306 89 -475q88 -171 250 -171t246 147q95 164 95 497q0 313 -90 481q-91 167 -250 167z" />
    <glyph glyph-name="ohungarumlaut" unicode="&#x151;" 
d="M614 1110q235 0 369 -151q135 -151 135 -415q0 -268 -135 -418q-135 -151 -377 -151q-205 0 -334 125q-161 155 -161 443q0 265 135 416t368 151zM614 987q-290 0 -290 -442q0 -446 290 -446q291 0 291 446q0 442 -291 442zM325 1283l240 321h192l-321 -321h-111z
M676 1283l241 321h191l-321 -321h-111z" />
    <glyph glyph-name="OE" unicode="&#x152;" 
d="M609 0v74q-60 -111 -173 -111q-184 0 -291 207q-108 207 -108 570q0 361 107 570q107 208 291 208q117 0 174 -112v74h533v-314h-123v191h-219v-530h145v123h111v-370h-111v123h-145v-572h244v239h123v-370h-558zM609 364v753q0 278 -149 278q-223 0 -223 -649
q0 -350 52 -506q51 -154 168 -154q152 0 152 278z" />
    <glyph glyph-name="oe" unicode="&#x153;" 
d="M647 118q-83 -143 -234 -143q-164 0 -264 156t-100 411t101 412q100 156 266 156q158 0 247 -159q86 160 230 160q286 0 286 -504v-76h-444v-16q0 -392 216 -392q100 0 228 87v-154q-152 -81 -276 -81q-158 0 -256 143zM421 987q-181 0 -181 -446q0 -442 181 -442
q96 0 121 125q20 100 20 314q0 247 -25 344q-26 105 -116 105zM736 654h258v62q0 271 -112 271q-141 0 -146 -333z" />
    <glyph glyph-name="Racute" unicode="&#x154;" 
d="M86 0v123h130v1234h-130v123h587q176 0 277 -97q102 -97 102 -265q0 -153 -92 -271q-54 -68 -157 -138l313 -586h88v-123h-253l-339 648h-199v-525h130v-123h-457zM413 771h99q330 0 330 325q0 261 -250 261h-179v-586zM450 1614l216 321h228l-321 -321h-123z" />
    <glyph glyph-name="racute" unicode="&#x155;" 
d="M530 702v-579h369v-123h-825v123h259v839h-259v124h456v-211q74 106 141 159q96 76 207 76q118 0 228 -68v-328h-124l-20 188q-56 36 -118 36q-184 0 -314 -236zM432 1283l216 321h228l-321 -321h-123z" />
    <glyph glyph-name="uni0156" unicode="&#x156;" 
d="M86 0v123h130v1234h-130v123h587q176 0 277 -97q102 -97 102 -265q0 -153 -92 -271q-54 -68 -157 -138l313 -586h88v-123h-253l-339 648h-199v-525h130v-123h-457zM413 771h99q330 0 330 325q0 261 -250 261h-179v-586zM542 -421v85q57 -9 97 -9q109 0 109 67
q0 73 -157 90v77q134 -3 200 -32q93 -42 93 -137q0 -152 -218 -152q-59 0 -124 11z" />
    <glyph glyph-name="uni0157" unicode="&#x157;" 
d="M530 702v-579h369v-123h-825v123h259v839h-259v124h456v-211q74 106 141 159q96 76 207 76q118 0 228 -68v-328h-124l-20 188q-56 36 -118 36q-184 0 -314 -236zM432 -421v85q57 -9 97 -9q109 0 109 67q0 73 -157 90v77q134 -3 200 -32q93 -42 93 -137q0 -152 -218 -152
q-58 0 -124 11z" />
    <glyph glyph-name="Rcaron" unicode="&#x158;" 
d="M86 0v123h130v1234h-130v123h587q176 0 277 -97q102 -97 102 -265q0 -153 -92 -271q-54 -68 -157 -138l313 -586h88v-123h-253l-339 648h-199v-525h130v-123h-457zM413 771h99q330 0 330 325q0 261 -250 261h-179v-586zM925 1935l-257 -321h-218l-257 321h124l241 -202h2
l242 202h123z" />
    <glyph glyph-name="rcaron" unicode="&#x159;" 
d="M530 702v-579h369v-123h-825v123h259v839h-259v124h456v-211q74 106 141 159q96 76 207 76q118 0 228 -68v-328h-124l-20 188q-56 36 -118 36q-184 0 -314 -236zM956 1604l-257 -321h-218l-257 321h124l241 -202h2l242 202h123z" />
    <glyph glyph-name="Sacute" unicode="&#x15a;" 
d="M509 1614l216 321h228l-321 -321h-123zM151 61v358h124l24 -234q187 -91 311 -91q127 0 206 79q79 78 79 192q0 157 -200 261l-190 99q-189 98 -256 181q-66 80 -66 217q0 394 448 394q183 0 375 -73v-319h-123l-25 195q-125 74 -242 74q-241 0 -241 -246q0 -101 56 -149
q49 -42 175 -110l169 -91q195 -105 255 -178q61 -74 61 -207q0 -204 -134 -327q-135 -123 -359 -123q-205 0 -447 98z" />
    <glyph glyph-name="sacute" unicode="&#x15b;" 
d="M173 61v297h123l25 -183q196 -76 333 -76q238 0 238 168q0 66 -40 102q-40 37 -143 64l-204 54q-171 45 -249 118q-77 71 -77 189q0 317 432 317q221 0 402 -72v-286h-123l-25 181q-109 53 -255 53q-110 0 -171 -35q-72 -41 -72 -126q0 -112 206 -166l202 -53
q168 -44 241 -112q72 -67 72 -182q0 -157 -123 -247q-123 -91 -343 -91q-226 0 -449 86zM505 1283l216 321h228l-321 -321h-123z" />
    <glyph glyph-name="Scircumflex" unicode="&#x15c;" 
d="M267 1614l256 321h219l256 -321h-123l-241 202h-3l-241 -202h-123zM151 61v358h124l24 -234q187 -91 311 -91q127 0 206 79q79 78 79 192q0 157 -200 261l-190 99q-189 98 -256 181q-66 80 -66 217q0 394 448 394q183 0 375 -73v-319h-123l-25 195q-125 74 -242 74
q-241 0 -241 -246q0 -101 56 -149q49 -42 175 -110l169 -91q195 -105 255 -178q61 -74 61 -207q0 -204 -134 -327q-135 -123 -359 -123q-205 0 -447 98z" />
    <glyph glyph-name="scircumflex" unicode="&#x15d;" 
d="M173 61v297h123l25 -183q196 -76 333 -76q238 0 238 168q0 66 -40 102q-40 37 -143 64l-204 54q-171 45 -249 118q-77 71 -77 189q0 317 432 317q221 0 402 -72v-286h-123l-25 181q-109 53 -255 53q-110 0 -171 -35q-72 -41 -72 -126q0 -112 206 -166l202 -53
q168 -44 241 -112q72 -67 72 -182q0 -157 -123 -247q-123 -91 -343 -91q-226 0 -449 86zM263 1283l256 321h219l256 -321h-123l-241 202h-3l-241 -202h-123z" />
    <glyph glyph-name="Scedilla" unicode="&#x15e;" 
d="M151 61v358h124l24 -234q187 -91 311 -91q127 0 206 79q79 78 79 192q0 157 -200 261l-190 99q-189 98 -256 181q-66 80 -66 217q0 394 448 394q183 0 375 -73v-319h-123l-25 195q-125 74 -242 74q-241 0 -241 -246q0 -101 56 -149q49 -42 175 -110l169 -91
q195 -105 255 -178q61 -74 61 -207q0 -204 -134 -327q-120 -109 -309 -121l-40 -74q72 -2 124 -39q70 -49 70 -121q0 -68 -59 -115q-58 -48 -145 -48q-67 0 -143 21v81q50 -15 104 -15q104 0 104 74q0 93 -187 96l75 139q-185 10 -400 97z" />
    <glyph glyph-name="scedilla" unicode="&#x15f;" 
d="M173 61v297h123l25 -183q196 -76 333 -76q238 0 238 168q0 66 -40 102q-40 37 -143 64l-204 54q-171 45 -249 118q-77 71 -77 189q0 317 432 317q221 0 402 -72v-286h-123l-25 181q-109 53 -255 53q-110 0 -171 -35q-72 -41 -72 -126q0 -112 206 -166l202 -53
q168 -44 241 -112q72 -67 72 -182q0 -157 -123 -247q-110 -81 -298 -90l-47 -85q72 -2 124 -39q70 -49 70 -121q0 -68 -59 -115q-58 -48 -145 -48q-67 0 -143 21v81q50 -15 104 -15q104 0 104 74q0 93 -187 96l82 152q-200 8 -397 84z" />
    <glyph glyph-name="Scaron" unicode="&#x160;" 
d="M999 1935l-257 -321h-218l-257 321h124l241 -202h2l242 202h123zM151 61v358h124l24 -234q187 -91 311 -91q127 0 206 79q79 78 79 192q0 157 -200 261l-190 99q-189 98 -256 181q-66 80 -66 217q0 394 448 394q183 0 375 -73v-319h-123l-25 195q-125 74 -242 74
q-241 0 -241 -246q0 -101 56 -149q49 -42 175 -110l169 -91q195 -105 255 -178q61 -74 61 -207q0 -204 -134 -327q-135 -123 -359 -123q-205 0 -447 98z" />
    <glyph glyph-name="scaron" unicode="&#x161;" 
d="M173 61v297h123l25 -183q196 -76 333 -76q238 0 238 168q0 66 -40 102q-40 37 -143 64l-204 54q-171 45 -249 118q-77 71 -77 189q0 317 432 317q221 0 402 -72v-286h-123l-25 181q-109 53 -255 53q-110 0 -171 -35q-72 -41 -72 -126q0 -112 206 -166l202 -53
q168 -44 241 -112q72 -67 72 -182q0 -157 -123 -247q-123 -91 -343 -91q-226 0 -449 86zM995 1604l-257 -321h-218l-257 321h124l241 -202h2l242 202h123z" />
    <glyph glyph-name="uni0162" unicode="&#x162;" 
d="M257 0v123h259v1234h-331v-232h-123v355h1106v-355h-124v232h-330v-1234h259v-123h-284l-60 -109q72 -2 124 -39q70 -49 70 -121q0 -68 -59 -115q-59 -48 -144 -48q-68 0 -144 21v81q50 -15 104 -15q104 0 104 74q0 93 -187 96l95 175h-335z" />
    <glyph glyph-name="uni0163" unicode="&#x163;" 
d="M1032 61q-165 -86 -336 -86h-6l-46 -84q72 -2 124 -39q70 -49 70 -121q0 -68 -59 -115q-58 -48 -145 -48q-67 0 -143 21v81q50 -15 104 -15q104 0 104 74q0 93 -187 96l86 159q-86 16 -132 66q-69 74 -69 249v626h-278v136h278v281h197v-281h426v-136h-426v-537
q0 -160 32 -212q32 -53 127 -53q107 0 279 77v-139z" />
    <glyph glyph-name="Tcaron" unicode="&#x164;" 
d="M981 1935l-257 -321h-218l-257 321h124l241 -202h2l242 202h123zM257 0v123h259v1234h-331v-232h-123v355h1106v-355h-124v232h-330v-1234h259v-123h-716z" />
    <glyph glyph-name="tcaron" unicode="&#x165;" 
d="M1032 61q-165 -86 -336 -86q-161 0 -230 75q-69 74 -69 249v626h-278v136h278v281h197v-281h426v-136h-426v-537q0 -160 32 -212q32 -53 127 -53q106 0 279 77v-139zM767 1234v59q76 21 76 181v17h-76v197h197v-171q-1 -262 -197 -283z" />
    <glyph glyph-name="Tbar" unicode="&#x166;" 
d="M257 0v123h259v593h-296v98h296v543h-331v-232h-123v355h1106v-355h-124v232h-330v-543h296v-98h-296v-593h259v-123h-716z" />
    <glyph glyph-name="tbar" unicode="&#x167;" 
d="M1032 200v-139q-165 -86 -336 -86q-161 0 -230 75q-69 74 -69 249v296h-229v98h229v232h-278v136h278v281h197v-281h426v-136h-426v-232h302v-98h-302v-207q0 -160 32 -212q32 -53 127 -53q106 0 279 77z" />
    <glyph glyph-name="Utilde" unicode="&#x168;" 
d="M185 1357h-123v123h457v-123h-136v-834q0 -210 72 -323q71 -114 201 -114q265 0 265 446v825h-136v123h383v-123h-124v-861q0 -252 -111 -392q-110 -141 -312 -141q-436 0 -436 587v807zM284 1634q6 95 31 145q45 90 154 90q72 0 135 -39l60 -37q62 -38 96 -38
q68 0 79 114h111q-7 -94 -32 -144q-46 -91 -153 -91q-73 0 -136 39l-60 37q-60 37 -96 37q-68 0 -79 -113h-110z" />
    <glyph glyph-name="utilde" unicode="&#x169;" 
d="M278 1293q6 95 31 145q45 90 154 90q72 0 135 -39l60 -37q62 -38 96 -38q68 0 79 114h111q-7 -94 -32 -144q-46 -91 -153 -91q-73 0 -136 39l-60 37q-60 37 -96 37q-68 0 -79 -113h-110zM734 1086h309v-963h123v-123h-321v209q-69 -105 -137 -158q-96 -76 -215 -76
q-302 0 -302 388v599h-123v124h321v-706q0 -255 163 -255q149 0 293 257v580h-111v124z" />
    <glyph glyph-name="Umacron" unicode="&#x16a;" 
d="M185 1357h-123v123h457v-123h-136v-834q0 -210 72 -323q71 -114 201 -114q265 0 265 446v825h-136v123h383v-123h-124v-861q0 -252 -111 -392q-110 -141 -312 -141q-436 0 -436 587v807zM303 1644v124h691v-124h-691z" />
    <glyph glyph-name="umacron" unicode="&#x16b;" 
d="M265 1303v124h691v-124h-691zM734 1086h309v-963h123v-123h-321v209q-69 -105 -137 -158q-96 -76 -215 -76q-302 0 -302 388v599h-123v124h321v-706q0 -255 163 -255q149 0 293 257v580h-111v124z" />
    <glyph glyph-name="Ubreve" unicode="&#x16c;" 
d="M185 1357h-123v123h457v-123h-136v-834q0 -210 72 -323q71 -114 201 -114q265 0 265 446v825h-136v123h383v-123h-124v-861q0 -252 -111 -392q-110 -141 -312 -141q-436 0 -436 587v807zM306 1904h123q48 -148 222 -148q175 0 223 148h123q-23 -89 -49 -135
q-91 -155 -293 -155q-152 0 -241 81q-55 49 -83 121q-11 29 -25 88z" />
    <glyph glyph-name="ubreve" unicode="&#x16d;" 
d="M265 1579h123q48 -148 222 -148q175 0 223 148h123q-23 -89 -49 -135q-91 -155 -292 -155q-153 0 -242 81q-55 49 -83 121q-11 29 -25 88zM734 1086h309v-963h123v-123h-321v209q-69 -105 -137 -158q-96 -76 -215 -76q-302 0 -302 388v599h-123v124h321v-706
q0 -255 163 -255q149 0 293 257v580h-111v124z" />
    <glyph glyph-name="Uring" unicode="&#x16e;" 
d="M185 1357h-123v123h457v-123h-136v-834q0 -210 72 -323q71 -114 201 -114q265 0 265 446v825h-136v123h383v-123h-124v-861q0 -252 -111 -392q-110 -141 -312 -141q-436 0 -436 587v807zM616 2033q94 0 160 -66q67 -66 67 -160q0 -97 -67 -162q-66 -66 -162 -66
q-83 0 -145 54q-80 70 -80 173q0 94 67 160q66 67 160 67zM616 1946q-57 0 -99 -41q-42 -40 -42 -99q0 -58 41 -99q42 -42 98 -42q54 0 93 33q50 43 50 109q0 58 -42 98q-41 41 -99 41z" />
    <glyph glyph-name="uring" unicode="&#x16f;" 
d="M611 1737q94 0 160 -66q67 -66 67 -160q0 -97 -67 -162q-66 -66 -162 -66q-83 0 -145 54q-80 69 -80 173q0 94 67 160q67 67 160 67zM611 1650q-58 0 -99 -41q-42 -40 -42 -99q0 -58 41 -99q41 -42 99 -42q53 0 92 33q50 43 50 109q0 58 -42 98q-42 41 -99 41zM734 1086
h309v-963h123v-123h-321v209q-69 -105 -137 -158q-96 -76 -215 -76q-302 0 -302 388v599h-123v124h321v-706q0 -255 163 -255q149 0 293 257v580h-111v124z" />
    <glyph glyph-name="Uhungarumlaut" unicode="&#x170;" 
d="M185 1357h-123v123h457v-123h-136v-834q0 -210 72 -323q71 -114 201 -114q265 0 265 446v825h-136v123h383v-123h-124v-861q0 -252 -111 -392q-110 -141 -312 -141q-436 0 -436 587v807zM384 1614l240 321h192l-321 -321h-111zM735 1614l241 321h191l-321 -321h-111z" />
    <glyph glyph-name="uhungarumlaut" unicode="&#x171;" 
d="M315 1283l240 321h192l-321 -321h-111zM666 1283l241 321h191l-321 -321h-111zM734 1086h309v-963h123v-123h-321v209q-69 -105 -137 -158q-96 -76 -215 -76q-302 0 -302 388v599h-123v124h321v-706q0 -255 163 -255q149 0 293 257v580h-111v124z" />
    <glyph glyph-name="Uogonek" unicode="&#x172;" 
d="M185 1357h-123v123h457v-123h-136v-834q0 -210 72 -323q71 -114 201 -114q265 0 265 446v825h-136v123h383v-123h-124v-861q0 -252 -111 -392q-64 -82 -159 -116q-110 -76 -110 -167q0 -96 115 -96q54 0 91 15v-81q-62 -29 -140 -29q-202 0 -202 157q0 99 101 176h-8
q-436 0 -436 587v807z" />
    <glyph glyph-name="uogonek" unicode="&#x173;" 
d="M734 1086h309v-963h123v-123h-123q-129 -81 -129 -179q0 -96 115 -96q54 0 91 15v-81q-62 -29 -140 -29q-202 0 -202 157q0 123 158 213h-91v209q-69 -105 -137 -158q-96 -76 -215 -76q-302 0 -302 388v599h-123v124h321v-706q0 -255 163 -255q149 0 293 257v580h-111
v124z" />
    <glyph glyph-name="Wcircumflex" unicode="&#x174;" 
d="M242 0l-170 1357h-49v123h309v-123h-98l134 -1076h2l186 977h156l184 -973h3l134 1072h-99v123h273v-123h-50l-170 -1357h-188l-182 974h-2l-184 -974h-189zM267 1614l256 321h219l256 -321h-123l-241 202h-3l-241 -202h-123z" />
    <glyph glyph-name="wcircumflex" unicode="&#x175;" 
d="M242 0l-170 962h-49v124h311v-124h-86l129 -724h2l177 685h167l178 -688h2l130 727h-98v124h272v-124h-49l-170 -962h-193l-179 703h-2l-182 -703h-190zM268 1283l256 321h219l256 -321h-123l-241 202h-3l-241 -202h-123z" />
    <glyph glyph-name="Ycircumflex" unicode="&#x176;" 
d="M294 0v123h222v537l-403 697h-86v123h463v-123h-149l315 -544h2l315 544h-148v123h376v-123h-86l-402 -696v-538h222v-123h-641zM291 1614l256 321h219l256 -321h-123l-241 202h-3l-241 -202h-123z" />
    <glyph glyph-name="ycircumflex" unicode="&#x177;" 
d="M514 0l-385 962h-74v124h447v-124h-160l311 -778h2l311 778h-160v124h367v-124h-74l-385 -962l-108 -271h148v-124h-479v124h198l108 271h-67zM288 1283l256 321h219l256 -321h-123l-241 202h-3l-241 -202h-123z" />
    <glyph glyph-name="Ydieresis" unicode="&#x178;" 
d="M294 0v123h222v537l-403 697h-86v123h463v-123h-149l315 -544h2l315 544h-148v123h376v-123h-86l-402 -696v-538h222v-123h-641zM324 1634v197h197v-197h-197zM793 1634v197h197v-197h-197z" />
    <glyph glyph-name="Zacute" unicode="&#x179;" 
d="M491 1614l216 321h228l-321 -321h-123zM148 0v136l700 1221h-558v-232h-123v355h901v-123l-708 -1226h597v296h124v-427h-933z" />
    <glyph glyph-name="zacute" unicode="&#x17a;" 
d="M485 1283l216 321h228l-321 -321h-123zM123 0v123l700 839h-540v-197h-123v321h896v-124l-691 -831h604v195h124v-326h-970z" />
    <glyph glyph-name="Zdotaccent" unicode="&#x17b;" 
d="M516 1644v197h197v-197h-197zM148 0v136l700 1221h-558v-232h-123v355h901v-123l-708 -1226h597v296h124v-427h-933z" />
    <glyph glyph-name="zdotaccent" unicode="&#x17c;" 
d="M509 1303v197h197v-197h-197zM123 0v123l700 839h-540v-197h-123v321h896v-124l-691 -831h604v195h124v-326h-970z" />
    <glyph glyph-name="Zcaron" unicode="&#x17d;" 
d="M980 1935l-257 -321h-218l-257 321h124l241 -202h2l242 202h123zM148 0v136l700 1221h-558v-232h-123v355h901v-123l-708 -1226h597v296h124v-427h-933z" />
    <glyph glyph-name="zcaron" unicode="&#x17e;" 
d="M974 1604l-257 -321h-218l-257 321h124l241 -202h2l242 202h123zM123 0v123l700 839h-540v-197h-123v321h896v-124l-691 -831h604v195h124v-326h-970z" />
    <glyph glyph-name="longs" unicode="&#x17f;" 
d="M148 0v123h271v802h-271v136h271v118q0 225 91 325t293 100q171 0 364 -80v-247h-123l-31 156q-101 47 -184 47q-119 0 -165 -60q-47 -60 -47 -219v-1078h370v-123h-839z" />
    <glyph glyph-name="florin" unicode="&#x192;" 
d="M84 -296l204 1024h-172v123h197l27 139q103 527 552 527q79 0 189 -18v-333h-123l-25 197q-80 25 -128 25q-187 0 -250 -312l-45 -225h244v-123h-268l-204 -1024h-198z" />
    <glyph glyph-name="Aringacute" unicode="&#x1fa;" 
d="M774 1848q67 -66 67 -160q0 -97 -67 -162q-30 -30 -65 -46l420 -1357h74v-123h-437v123h157l-100 321h-496l-99 -321h143v-123h-346v123h74l421 1356q-28 13 -53 35q-80 69 -80 173q0 94 67 160q43 44 99 59l216 321h228l-321 -321q55 -15 98 -58zM366 568h419l-208 675
h-2zM614 1827q-58 0 -99 -40q-42 -41 -42 -99q0 -59 41 -100q41 -42 98 -42q54 0 93 33q50 43 50 109q0 58 -42 99q-41 40 -99 40z" />
    <glyph glyph-name="aringacute" unicode="&#x1fb;" 
d="M834 119q-173 -144 -351 -144q-153 0 -244 86q-91 85 -91 232q0 190 142 276q142 85 459 85h85v168q0 165 -204 165q-103 0 -257 -58l-25 -127h-123v216q229 93 467 93q189 0 264 -65q75 -66 75 -227v-696h136v-123h-313zM836 1622q67 -66 67 -160q0 -97 -67 -162
q-66 -66 -162 -66q-83 0 -145 54q-80 69 -80 173q0 94 67 160q44 44 100 59l216 321h228l-321 -321q54 -16 97 -58zM834 269v262h-53q-230 0 -327 -52q-96 -52 -96 -196q0 -177 186 -177q147 0 290 163zM676 1601q-58 0 -99 -41q-42 -40 -42 -99q0 -58 41 -99q41 -42 99 -42
q53 0 92 33q50 43 50 109q0 58 -42 98q-42 41 -99 41z" />
    <glyph glyph-name="AEacute" unicode="&#x1fc;" 
d="M824 703v-580h269v210h124v-333h-689v123h111v296h-329l-127 -296h121v-123h-292v123h44l583 1357h559v-314h-123v191h-251v-530h177v123h123v-370h-123v123h-177zM363 543h276v637h-1zM701 1614l216 321h228l-321 -321h-123z" />
    <glyph glyph-name="aeacute" unicode="&#x1fd;" 
d="M594 154q-37 -81 -81 -121q-65 -58 -161 -58q-131 0 -220 95q-90 94 -90 237q0 168 117 264q116 95 322 95h43v141q0 110 -21 145q-22 35 -90 35q-63 0 -124 -40l-25 -136h-123v232q153 67 298 67q97 0 158 -48q36 -29 56 -83q78 131 226 131q146 0 227 -136
q80 -136 80 -382v-49h-482l3 -51q0 -386 241 -386q84 0 244 84v-147q-176 -68 -307 -68q-166 0 -291 179zM524 228v315h-31q-247 0 -247 -236q0 -201 141 -201q85 0 137 122zM704 666h280q-3 178 -35 250q-31 71 -90 71q-134 0 -155 -321zM530 1283l216 321h228l-321 -321
h-123z" />
    <glyph glyph-name="Oslashacute" unicode="&#x1fe;" 
d="M321 371l544 854q-91 159 -249 159q-163 0 -252 -162q-94 -173 -94 -480q0 -197 51 -371zM364 254q93 -160 249 -160q163 0 252 164q95 173 95 480q0 199 -52 372zM62 -37l144 227q-144 242 -144 549q0 344 154 561t397 217q186 0 345 -146l93 146h117l-145 -227
q145 -242 145 -550q0 -342 -154 -559q-154 -218 -398 -218q-185 0 -344 147l-93 -147h-117zM490 1614l216 321h228l-321 -321h-123z" />
    <glyph glyph-name="oslashacute" unicode="&#x1ff;" 
d="M111 -25l127 164q-127 172 -127 406q0 264 135 415q135 150 374 150q179 0 301 -92l72 92h125l-127 -163q127 -172 127 -407q0 -264 -135 -414q-135 -151 -375 -151q-180 0 -300 93l-72 -93h-125zM822 891q-95 96 -208 96q-290 0 -290 -445q0 -150 33 -250zM408 196
q86 -97 206 -97q291 0 291 443q0 148 -33 252zM497 1283l216 321h228l-321 -321h-123z" />
    <glyph glyph-name="uni0218" unicode="&#x218;" 
d="M484 -421v85q57 -9 97 -9q109 0 109 67q0 73 -157 90v77q134 -3 200 -32q93 -42 93 -137q0 -152 -218 -152q-58 0 -124 11zM151 61v358h124l24 -234q187 -91 311 -91q127 0 206 79q79 78 79 192q0 157 -200 261l-190 99q-189 98 -256 181q-66 80 -66 217q0 394 448 394
q183 0 375 -73v-319h-123l-25 195q-125 74 -242 74q-241 0 -241 -246q0 -101 56 -149q49 -42 175 -110l169 -91q195 -105 255 -178q61 -74 61 -207q0 -204 -134 -327q-135 -123 -359 -123q-205 0 -447 98z" />
    <glyph glyph-name="uni0219" unicode="&#x219;" 
d="M173 61v297h123l25 -183q196 -76 333 -76q238 0 238 168q0 66 -40 102q-40 37 -143 64l-204 54q-171 45 -249 118q-77 71 -77 189q0 317 432 317q221 0 402 -72v-286h-123l-25 181q-109 53 -255 53q-110 0 -171 -35q-72 -41 -72 -126q0 -112 206 -166l202 -53
q168 -44 241 -112q72 -67 72 -182q0 -157 -123 -247q-123 -91 -343 -91q-226 0 -449 86zM506 -421v85q57 -9 97 -9q109 0 109 67q0 73 -157 90v77q134 -3 200 -32q93 -42 93 -137q0 -152 -218 -152q-58 0 -124 11z" />
    <glyph glyph-name="uni021A" unicode="&#x21a;" 
d="M472 -421v85q57 -9 97 -9q109 0 109 67q0 73 -157 90v77q134 -3 200 -32q93 -42 93 -137q0 -152 -218 -152q-58 0 -124 11zM257 0v123h259v1234h-331v-232h-123v355h1106v-355h-124v232h-330v-1234h259v-123h-716z" />
    <glyph glyph-name="uni021B" unicode="&#x21b;" 
d="M1032 61q-165 -86 -336 -86q-161 0 -230 75q-69 74 -69 249v626h-278v136h278v281h197v-281h426v-136h-426v-537q0 -160 32 -212q32 -53 127 -53q106 0 279 77v-139zM526 -421v85q57 -9 97 -9q109 0 109 67q0 73 -157 90v77q134 -3 200 -32q93 -42 93 -137
q0 -152 -218 -152q-58 0 -124 11z" />
    <glyph glyph-name="circumflex" unicode="&#x2c6;" 
d="M248 1283l256 321h219l256 -321h-123l-241 202h-3l-241 -202h-123z" />
    <glyph glyph-name="caron" unicode="&#x2c7;" 
d="M980 1604l-257 -321h-218l-257 321h124l241 -202h2l242 202h123z" />
    <glyph glyph-name="uni02C9" unicode="&#x2c9;" 
d="M269 1303v124h691v-124h-691z" />
    <glyph glyph-name="breve" unicode="&#x2d8;" 
d="M269 1579h123q48 -148 222 -148q175 0 223 148h123q-23 -89 -49 -135q-91 -155 -293 -155q-152 0 -241 81q-55 49 -83 121q-11 29 -25 88z" />
    <glyph glyph-name="dotaccent" unicode="&#x2d9;" 
d="M516 1303v197h197v-197h-197z" />
    <glyph glyph-name="ring" unicode="&#x2da;" 
d="M615 1737q94 0 160 -66q67 -66 67 -160q0 -97 -67 -162q-66 -66 -162 -66q-83 0 -145 54q-80 69 -80 173q0 94 67 160q67 67 160 67zM615 1650q-58 0 -99 -41q-42 -40 -42 -99q0 -58 41 -99q41 -42 99 -42q53 0 92 33q50 43 50 109q0 58 -42 98q-42 41 -99 41z" />
    <glyph glyph-name="ogonek" unicode="&#x2db;" 
d="M602 0h107q-129 -81 -129 -179q0 -96 115 -96q54 0 91 15v-81q-62 -29 -140 -29q-202 0 -202 157q0 123 158 213z" />
    <glyph glyph-name="tilde" unicode="&#x2dc;" 
d="M281 1293q6 94 31 145q45 90 154 90q72 0 135 -39l60 -37q62 -38 96 -38q68 0 79 114h111q-7 -94 -32 -144q-46 -91 -153 -91q-73 0 -136 39l-60 37q-60 37 -96 37q-68 0 -79 -113h-110z" />
    <glyph glyph-name="hungarumlaut" unicode="&#x2dd;" 
d="M223 1283l240 321h192l-321 -321h-111zM574 1283l241 321h191l-321 -321h-111z" />
    <glyph glyph-name="tonos" unicode="&#x384;" 
d="M505 1283l84 419h205l-176 -419h-113z" />
    <glyph glyph-name="dieresistonos" unicode="&#x385;" 
d="M214 1293v185h185v-185h-185zM831 1293v185h185v-185h-185zM521 1293l84 419h205l-176 -419h-113z" />
    <glyph glyph-name="Alphatonos" unicode="&#x386;" 
d="M327 444l-99 -321h143v-123h-346v123h74l421 1357h189l420 -1357h74v-123h-437v123h157l-100 321h-496zM366 568h419l-208 675h-2zM85 1283l84 419h205l-176 -419h-113z" />
    <glyph glyph-name="anoteleia" unicode="&#x387;" 
d="M467 790v296h296v-296h-296z" />
    <glyph glyph-name="Epsilontonos" unicode="&#x388;" 
d="M219 0v123h140v1357h697v-357h-123v234h-376v-543h191v124h123v-371h-123v124h-191v-555h425v247h124v-383h-887zM0 1283l84 419h205l-176 -419h-113z" />
    <glyph glyph-name="Etatonos" unicode="&#x389;" 
d="M511 703v-580h90v-123h-387v123h100v1357h277v-123h-80v-530h379v530h-80v123h368v-123h-90v-1234h90v-123h-378v123h90v580h-379zM0 1283l84 419h205l-176 -419h-113z" />
    <glyph glyph-name="Iotatonos" unicode="&#x38a;" 
d="M410 0v123h230v1234h-230v123h658v-123h-230v-1234h230v-123h-658zM10 1283l84 419h205l-176 -419h-113z" />
    <glyph glyph-name="Omicrontonos" unicode="&#x38c;" 
d="M670 1517q219 0 359 -216q139 -216 139 -559q0 -348 -139 -563q-140 -216 -365 -216q-192 0 -323 175q-168 225 -168 603q0 343 138 559q140 217 359 217zM670 1394q-125 0 -206 -172q-81 -173 -81 -482q0 -306 81 -480q79 -174 206 -174t203 150q85 169 85 502
q0 313 -81 484q-81 172 -207 172zM0 1283l84 419h205l-176 -419h-113z" />
    <glyph glyph-name="Upsilontonos" unicode="&#x38e;" 
d="M813 123h200v-123h-598v123h200v356q0 377 -78.5 603t-303.5 226v172h15q220 0 355 -173.5t139 -463.5q64 295 196.5 453t290.5 184v-148q-163 -30 -289.5 -285t-126.5 -497v-427zM0 1283l84 419h205l-176 -419h-113z" />
    <glyph glyph-name="Omegatonos" unicode="&#x38f;" 
d="M601 148v-148h-439v136h280q-140 176 -204.5 354t-64.5 370q0 312 131.5 484.5t368.5 172.5t368.5 -172.5t131.5 -484.5q0 -192 -65.5 -370t-204.5 -354h281v-136h-439v148q127 160 177.5 304t50.5 367q0 295 -78 435t-222 140t-222 -140t-78 -435q0 -224 50.5 -367.5
t177.5 -303.5zM0 1283l84 419h205l-176 -419h-113z" />
    <glyph glyph-name="iotadieresistonos" unicode="&#x390;" 
d="M1036 27q-136 -52 -275 -52q-221 0 -297.5 88t-76.5 319v704h197v-685q0 -180 38.5 -229.5t170.5 -49.5q108 0 243 53v-148zM123 1293v185h185v-185h-185zM740 1293v185h185v-185h-185zM430 1293l84 419h205l-176 -419h-113z" />
    <glyph glyph-name="Alpha" unicode="&#x391;" 
d="M327 444l-99 -321h143v-123h-346v123h74l421 1357h189l420 -1357h74v-123h-437v123h157l-100 321h-496zM366 568h419l-208 675h-2z" />
    <glyph glyph-name="Beta" unicode="&#x392;" 
d="M247 123v1234h-173v123h618q374 0 374 -325q0 -168 -102 -273q-60 -63 -174 -111q98 -26 148 -56q174 -105 174 -338q0 -377 -444 -377h-594v123h173zM444 123h163q295 0 295 261q0 148 -97 234q-96 85 -264 85h-97v-580zM444 827h98q313 0 313 312q0 218 -211 218h-200
v-530z" />
    <glyph glyph-name="Gamma" unicode="&#x393;" 
d="M530 123h272v-123h-691v123h222v1234h-222v123h1025v-370h-123v247h-483v-1234z" />
    <glyph glyph-name="uni0394" unicode="&#x394;" 
d="M26 0v136l494 1344h189l494 -1344v-136h-1177zM166 136h817l-405 1107h-4z" />
    <glyph glyph-name="Epsilon" unicode="&#x395;" 
d="M74 0v123h185v1234h-185v123h982v-357h-123v234h-476v-543h291v124h123v-371h-123v124h-291v-555h525v247h124v-383h-1032z" />
    <glyph glyph-name="Zeta" unicode="&#x396;" 
d="M148 0v136l700 1221h-558v-271h-123v394h901v-123l-700 -1221h589v296h124v-432h-933z" />
    <glyph glyph-name="Eta" unicode="&#x397;" 
d="M370 703v-580h99v-123h-407v123h111v1234h-111v123h407v-123h-99v-530h489v530h-99v123h408v-123h-111v-1234h111v-123h-408v123h99v580h-489z" />
    <glyph glyph-name="Theta" unicode="&#x398;" 
d="M615 1517q243 0 398 -216t155 -559q0 -348 -155 -563q-155 -216 -398 -216q-221 0 -366 175q-187 225 -187 603q0 343 154 559q155 217 399 217zM615 1394q-161 0 -250 -172q-90 -173 -90 -482q0 -306 89 -480q88 -174 251 -174q161 0 245 150q95 169 95 502
q0 313 -90 484q-91 172 -250 172zM510 694v-60h-123v240h123v-60h210v60h123v-240h-123v60h-210z" />
    <glyph glyph-name="Iota" unicode="&#x399;" 
d="M160 0v123h355v1234h-355v123h908v-123h-355v-1234h355v-123h-908z" />
    <glyph glyph-name="Kappa" unicode="&#x39a;" 
d="M74 0v123h130v1234h-130v123h432v-123h-105v-601h7l430 601h-111v123h356v-123h-92l-397 -546l529 -688h74v-123h-425v123h111l-475 617h-7v-617h123v-123h-450z" />
    <glyph glyph-name="Lambda" unicode="&#x39b;" 
d="M578 1243h-3l-347 -1120h143v-123h-346v123h74l421 1357h189l420 -1357h74v-123h-437v123h157z" />
    <glyph glyph-name="Mu" unicode="&#x39c;" 
d="M25 0v123h86v1234h-86v123h285l306 -1018h2l317 1018h269v-123h-86v-1234h86v-123h-320v123h72v1005h-2l-291 -934h-135l-291 972h-2v-1043h86v-123h-296z" />
    <glyph glyph-name="Nu" unicode="&#x39d;" 
d="M74 0v123h111v1234h-111v123h234l610 -1075h2v952h-110v123h345v-123h-111v-1357h-124l-609 1076h-3v-953h111v-123h-345z" />
    <glyph glyph-name="Xi" unicode="&#x39e;" 
d="M432 691v-122h-123v367h123v-122h316v122h123v-367h-123v122h-316zM74 0v383h124v-247h784v247h124v-383h-1032zM247 1344v-221h-123v357h932v-357h-123v221h-686z" />
    <glyph glyph-name="Omicron" unicode="&#x39f;" 
d="M615 1517q243 0 398 -216t155 -559q0 -348 -155 -563q-155 -216 -405 -216q-214 0 -359 175q-187 225 -187 603q0 343 154 559q155 217 399 217zM615 1394q-161 0 -250 -172q-90 -173 -90 -482q0 -306 89 -480q88 -174 250 -174t246 150q95 169 95 502q0 313 -90 484
q-91 172 -250 172z" />
    <glyph glyph-name="Pi" unicode="&#x3a0;" 
d="M370 1357v-1234h99v-123h-407v123h111v1234h-111v123h1106v-123h-111v-1234h111v-123h-408v123h99v1234h-489z" />
    <glyph glyph-name="Rho" unicode="&#x3a1;" 
d="M481 598v-475h284v-123h-679v123h197v1234h-197v123h661q377 0 377 -361q0 -241 -140 -381t-385 -140h-118zM481 722h111q322 0 322 367q0 268 -232 268h-201v-635z" />
    <glyph glyph-name="Sigma" unicode="&#x3a3;" 
d="M240 136h800v247h124v-383h-1098v136l612 610l-587 611v123h1042v-360h-123v237h-646l539 -562z" />
    <glyph glyph-name="Tau" unicode="&#x3a4;" 
d="M257 0v123h259v1234h-331v-232h-123v355h1106v-355h-124v232h-330v-1234h259v-123h-716z" />
    <glyph glyph-name="Upsilon" unicode="&#x3a5;" 
d="M713 123h200v-123h-598v123h200v356q0 372 -147.5 600.5t-354.5 228.5v172h15q234 0 390 -149.5t224 -447.5q91 244 263 406.5t324 190.5v-148q-206 -66 -361 -311t-155 -500v-398z" />
    <glyph glyph-name="Phi" unicode="&#x3a6;" 
d="M523 1357h-120v123h424v-123h-120v-168q201 0 341.5 -126t140.5 -323q0 -196 -140.5 -322.5t-341.5 -126.5v-168h120v-123h-424v123h120v168q-202 0 -342.5 126.5t-140.5 322.5q0 197 140.5 323t342.5 126v168zM523 414v652q-134 0 -210 -81t-76 -245q0 -165 76 -245.5
t210 -80.5zM707 414q132 0 208.5 80.5t76.5 245.5q0 164 -76.5 245t-208.5 81v-652z" />
    <glyph glyph-name="Chi" unicode="&#x3a7;" 
d="M49 0v123h111l350 607l-362 627h-99v123h420v-123h-100l288 -500l289 500h-128v123h361v-123h-105l-353 -611l360 -623h98v-123h-443v123h124l-286 496l-286 -496h154v-123h-393z" />
    <glyph glyph-name="Psi" unicode="&#x3a8;" 
d="M401 1480h427v-123h-115v-611q76 8 113.5 74.5t66.5 241.5l21 120q31 167 94 232.5t189 65.5h17v-148h-14q-44 0 -66 -27t-37 -104l-14 -71l-20 -126q-28 -172 -115.5 -267t-234.5 -114v-500h120v-123h-437v123h120v500q-148 19 -235.5 114t-114.5 267l-20 126l-14 71
q-13 65 -37.5 98t-65.5 33h-14v148h17q126 0 189.5 -65.5t93.5 -232.5l21 -120q30 -175 67 -241.5t113 -74.5v611h-115v123z" />
    <glyph glyph-name="uni03A9" unicode="&#x3a9;" 
d="M522 148v-148h-464v136h300q-155 176 -227 354t-72 370q0 312 146 484.5t410 172.5q263 0 409 -172.5t146 -484.5q0 -192 -72.5 -370t-227.5 -354h301v-136h-464v148q141 160 197 309t56 362q0 285 -86.5 430t-258.5 145q-173 0 -259.5 -145t-86.5 -430q0 -214 56 -362.5
t197 -308.5z" />
    <glyph glyph-name="Iotadieresis" unicode="&#x3aa;" 
d="M160 0v123h355v1234h-355v123h908v-123h-355v-1234h355v-123h-908zM281 1634v197h197v-197h-197zM750 1634v197h197v-197h-197z" />
    <glyph glyph-name="Upsilondieresis" unicode="&#x3ab;" 
d="M324 1634v197h197v-197h-197zM793 1634v197h197v-197h-197zM713 123h200v-123h-598v123h200v356q0 372 -147.5 600.5t-354.5 228.5v172h15q234 0 390 -149.5t224 -447.5q91 244 263 406.5t324 190.5v-148q-206 -66 -361 -311t-155 -500v-398z" />
    <glyph glyph-name="alphatonos" unicode="&#x3ac;" 
d="M485 1283l84 419h205l-176 -419h-113zM884 594q23 57 39 119t26 125.5t14.5 126t4.5 121.5h210q-16 -84 -36 -162t-47.5 -155.5t-64 -155t-86.5 -159.5q39 -80 73.5 -144.5t67.5 -118.5t65 -100.5t65 -90.5h-228q-20 31 -36.5 60t-33.5 62t-35 73t-41 93
q-45 -69 -91.5 -126.5t-99 -99t-111 -64.5t-127.5 -23q-64 0 -112.5 22t-84 59.5t-59 87t-37.5 103.5t-20 109t-6 104q0 63 8 136t27 145.5t49 139t73.5 118t102 82t133.5 30.5q68 0 117 -29.5t88.5 -84.5t75 -133.5t77.5 -175.5zM661 711q-28 69 -52.5 118t-47.5 79.5
t-45 44.5t-44 14q-37 0 -64 -29t-46 -75t-30.5 -103.5t-18 -115t-9 -108.5t-2.5 -84q0 -172 34.5 -253t104.5 -81q41 0 82.5 13.5t84 47t86 90.5t88.5 143z" />
    <glyph glyph-name="epsilontonos" unicode="&#x3ad;" 
d="M1110 186v-143q-224 -68 -404 -68q-558 0 -558 323q0 205 256 306q-220 56 -220 226q0 280 506 280q175 0 383 -40v-142q-229 59 -364 59q-179 0 -254.5 -43t-75.5 -114q0 -188 359 -188h261v-124h-256q-215 0 -300 -51t-85 -160q0 -204 379 -204q184 0 373 83zM563 1283
l84 419h205l-176 -419h-113z" />
    <glyph glyph-name="etatonos" unicode="&#x3ae;" 
d="M182 0v753q0 182 -66 333h220q27 -88 43 -206q175 230 381 230q298 0 298 -401v-1104h-197v1080q0 277 -172 277q-165 0 -310 -253v-709h-197zM465 1283l84 419h205l-176 -419h-113z" />
    <glyph glyph-name="iotatonos" unicode="&#x3af;" 
d="M1036 27q-136 -52 -275 -52q-221 0 -297.5 88t-76.5 319v704h197v-685q0 -180 38.5 -229.5t170.5 -49.5q108 0 243 53v-148zM471 1283l84 419h205l-176 -419h-113z" />
    <glyph glyph-name="upsilondieresistonos" unicode="&#x3b0;" 
d="M216 1293v185h185v-185h-185zM833 1293v185h185v-185h-185zM179 1086h197v-543q0 -49 1.5 -100t8.5 -98.5t22 -90t42.5 -74t68.5 -49.5t101 -18q90 0 148 38t92 98t47.5 134t13.5 146q0 73 -9.5 147t-28.5 145.5t-48 138.5t-68 126h202q123 -267 123 -555
q0 -123 -35.5 -225.5t-102.5 -176t-163.5 -114t-217.5 -40.5q-108 0 -183 33.5t-122 99t-68 162.5t-21 224v592zM523 1293l84 419h205l-176 -419h-113z" />
    <glyph glyph-name="alpha" unicode="&#x3b1;" 
d="M884 594q23 57 39 119t26 125.5t14.5 126t4.5 121.5h210q-16 -84 -36 -162t-47.5 -155.5t-64 -155t-86.5 -159.5q39 -80 73.5 -144.5t67.5 -118.5t65 -100.5t65 -90.5h-228q-20 31 -36.5 60t-33.5 62t-35 73t-41 93q-45 -69 -91.5 -126.5t-99 -99t-111 -64.5t-127.5 -23
q-64 0 -112.5 22t-84 59.5t-59 87t-37.5 103.5t-20 109t-6 104q0 63 8 136t27 145.5t49 139t73.5 118t102 82t133.5 30.5q68 0 117 -29.5t88.5 -84.5t75 -133.5t77.5 -175.5zM661 711q-28 69 -52.5 118t-47.5 79.5t-45 44.5t-44 14q-37 0 -64 -29t-46 -75t-30.5 -103.5
t-18 -115t-9 -108.5t-2.5 -84q0 -172 34.5 -253t104.5 -81q41 0 82.5 13.5t84 47t86 90.5t88.5 143z" />
    <glyph glyph-name="beta" unicode="&#x3b2;" 
d="M197 -395v1449q0 260 117 405t326 145q172 0 278 -90t106 -237q0 -257 -271 -398q192 -61 287 -173.5t95 -276.5q0 -199 -137.5 -326.5t-353.5 -127.5q-137 0 -250 42v-412h-197zM468 903h36q131 0 226.5 109t95.5 250q0 88 -54 153.5t-145 65.5q-233 0 -233 -396v-913
q64 -32 134.5 -48.5t112.5 -16.5q125 0 210.5 94.5t85.5 219.5q0 178 -108.5 268.5t-321.5 90.5h-39v123z" />
    <glyph glyph-name="gamma" unicode="&#x3b3;" 
d="M466 383q-36 80 -72.5 151t-69.5 129t-61.5 100.5t-49.5 66.5q-83 95 -200 95h-12l67 161h12q84 0 155.5 -34.5t129.5 -108.5q57 -72 105 -155t87 -164.5t68 -155t48 -125.5q66 91 117 177.5t86 162.5t53 139.5t18 108.5q0 23 -1.5 43t-5.5 38t-12.5 36t-21.5 38h199
q20 -54 20 -102q0 -24 -7.5 -57.5t-20.5 -72t-31.5 -78.5t-39.5 -78q-32 -57 -74 -129t-84.5 -142.5t-81.5 -130t-65 -91.5q14 -37 25.5 -79t19.5 -85.5t12.5 -87t4.5 -82.5q0 -75 -16 -151t-45 -140h-156q-9 24 -20 56t-20.5 68.5t-16 76t-6.5 77.5q0 106 16.5 182.5
t41.5 133.5z" />
    <glyph glyph-name="delta" unicode="&#x3b4;" 
d="M502 977q-342 179 -342 353q0 129 123.5 201.5t342.5 72.5q139 0 296 -29v-164q-168 70 -317 70q-248 0 -248 -135q0 -73 177 -177l94 -54l108 -66q198 -119 286 -249.5t88 -305.5q0 -227 -138.5 -373t-355.5 -146q-212 0 -352.5 142.5t-140.5 358.5q0 392 379 501z
M649 881q-316 -27 -316 -409q0 -173 83 -273t207 -100q119 0 198 104.5t79 284.5q0 134 -53 233t-198 160z" />
    <glyph glyph-name="epsilon" unicode="&#x3b5;" 
d="M1110 186v-143q-224 -68 -404 -68q-558 0 -558 323q0 205 256 306q-220 56 -220 226q0 280 506 280q175 0 383 -40v-142q-229 59 -364 59q-179 0 -254.5 -43t-75.5 -114q0 -188 359 -188h261v-124h-256q-215 0 -300 -51t-85 -160q0 -204 379 -204q184 0 373 83z" />
    <glyph glyph-name="zeta" unicode="&#x3b6;" 
d="M654 -412v148q100 -33 182 -33q236 0 236 168q0 68 -50.5 98.5t-203.5 30.5h-75q-282 0 -419.5 124t-137.5 378q0 150 77.5 344.5t232.5 356.5q-77 -4 -101 -4q-171 0 -364 70v175q228 -119 483 -128l70 1q155 154 289 214.5t267 72.5l60 -127q-243 -230 -560 -277
q-245 -339 -245 -688q0 -182 88 -260.5t292 -78.5h46q214 0 307.5 -63.5t93.5 -207.5q0 -322 -441 -322q-40 0 -127 8z" />
    <glyph glyph-name="eta" unicode="&#x3b7;" 
d="M182 0v753q0 182 -66 333h220q27 -88 43 -206q175 230 381 230q298 0 298 -401v-1104h-197v1080q0 277 -172 277q-165 0 -310 -253v-709h-197z" />
    <glyph glyph-name="theta" unicode="&#x3b8;" 
d="M123 789q0 395 127 605t367 210q239 0 366 -210t127 -604q0 -395 -127 -605t-366 -210q-244 0 -369 206.5t-125 607.5zM323 866h587q0 267 -79 441t-215 174q-135 0 -214 -174t-79 -441zM910 743h-587q0 -292 76.5 -468.5t215.5 -176.5q137 0 216 180.5t79 464.5z" />
    <glyph glyph-name="iota" unicode="&#x3b9;" 
d="M1036 27q-136 -52 -275 -52q-221 0 -297.5 88t-76.5 319v704h197v-685q0 -180 38.5 -229.5t170.5 -49.5q108 0 243 53v-148z" />
    <glyph glyph-name="kappa" unicode="&#x3ba;" 
d="M207 0v1086h187v-572l105 120q265 303 353.5 377.5t201.5 74.5h13v-168q-25 3 -38 3q-106 0 -251 -154l-184 -210l584 -557h-237l-547 514v-514h-187z" />
    <glyph glyph-name="lambda" unicode="&#x3bb;" 
d="M508 985l-100 230q-49 113 -102 157t-157 44h-29v163h37q193 0 275.5 -58t168.5 -256l356 -812q97 -220 201 -395l34 -58h-222q-102 169 -185 358l-211 478l-119 -258q-27 -59 -54.5 -122.5t-49.5 -127t-36 -126.5t-14 -120q0 -23 4.5 -45.5t10.5 -36.5h-258
q3 29 18 71.5t38.5 94t53 111t61 122t64.5 127.5t62 129z" />
    <glyph glyph-name="uni03BC" unicode="&#x3bc;" 
d="M182 -395v1481h197v-553q0 -182 18 -253t72 -112.5t137 -41.5q156 0 261 254v706h197v-751q0 -217 60 -335h-216q-21 58 -37 173q-1 10 -4 30q-92 -228 -275 -228q-132 0 -213 72v-442h-197z" />
    <glyph glyph-name="nu" unicode="&#x3bd;" 
d="M511 0q-33 78 -69 163t-68 160.5t-57.5 134.5t-37.5 86q-106 232 -167.5 364t-86.5 178h213q14 -25 39 -76t57.5 -121.5t70.5 -156.5t79.5 -181t84 -195t82.5 -198q28 63 51 113t44 95t40.5 87.5t40.5 90.5q31 70 52.5 126t35 102t19.5 85.5t6 76.5q0 87 -35 152h194
q16 -47 16 -116q0 -65 -23.5 -151t-70.5 -197.5t-117 -250t-164 -307.5l-36 -64h-193z" />
    <glyph glyph-name="xi" unicode="&#x3be;" 
d="M561 -410v155q21 -7 48.5 -14.5t56 -13.5t56 -10t50.5 -4q63 0 110 12t77.5 32.5t45.5 48.5t15 60q0 46 -14.5 74t-43 43.5t-71 21t-98.5 5.5h-104q-99 0 -194.5 22t-169.5 68.5t-119.5 118t-45.5 171.5q0 89 35 162t90.5 129t125.5 96t140 64q-155 52 -230 136t-75 201
q0 22 6.5 48.5t18.5 54t28 55.5t34 54q-28 1 -66 4t-81 9t-87.5 16.5t-86.5 27.5v161q42 -20 84 -37t92 -30.5t112 -22.5t144 -12q45 27 97 47t106 33.5t108 20.5t102 7q34 0 69.5 -3t72.5 -10l26 -102q-59 -43 -120 -67t-125 -35.5t-131 -14t-137 -2.5q-68 -80 -68 -174
q0 -86 40.5 -146.5t102.5 -98.5t137 -55.5t144 -17.5h131v-127h-152q-54 0 -110.5 -7t-109.5 -23t-100 -42t-81.5 -64t-55 -88.5t-20.5 -115.5q0 -238 308 -238h99q108 0 183.5 -17.5t122.5 -52t68 -86.5t21 -121q0 -92 -36.5 -152.5t-99 -96.5t-146 -51t-177.5 -15
q-17 0 -39 1t-51 3z" />
    <glyph glyph-name="omicron" unicode="&#x3bf;" 
d="M614 1110q235 0 369 -151q135 -151 135 -415q0 -268 -135 -418q-135 -151 -377 -151q-205 0 -334 125q-161 155 -161 443q0 265 135 416t368 151zM614 987q-290 0 -290 -442q0 -446 290 -446q291 0 291 446q0 442 -291 442z" />
    <glyph glyph-name="pi" unicode="&#x3c0;" 
d="M266 0v938h-19q-96 0 -211 -60v168q102 40 226 40h897v-148h-180v-563q0 -249 77 -375h-209q-65 146 -65 383v555h-319v-938h-197z" />
    <glyph glyph-name="rho" unicode="&#x3c1;" 
d="M179 -395v812q0 693 477 693q227 0 344 -124t117 -344q0 -277 -157 -459.5t-396 -182.5q-90 0 -188 35v-430h-197zM376 210q94 -78 211 -78q143 0 238 139t95 337q0 159 -74 268.5t-195 109.5q-275 0 -275 -481v-295z" />
    <glyph glyph-name="sigma1" unicode="&#x3c2;" 
d="M558 -265q109 -31 187 -31q128 0 178 26q91 50 92 154q-4 69 -46 88q-48 28 -200 28h-100q-267 0 -401.5 122t-134.5 346q0 275 202.5 458.5t484.5 183.5q141 0 232 -22v-160q-88 38 -257 38q-213 0 -336 -137t-123 -347q0 -152 86.5 -230.5t275.5 -78.5h109
q192 0 273 -72q83 -59 83 -205q0 -165 -118 -240.5t-337 -75.5q-74 0 -150 13v142z" />
    <glyph glyph-name="sigma" unicode="&#x3c3;" 
d="M720 1086h509v-153h-301q112 -172 109 -393q0 -264 -129.5 -414.5t-357.5 -150.5q-229 0 -358.5 151t-129.5 417t129.5 416.5t357.5 150.5q76 0 171 -24zM546 98q281 0 281 447q0 442 -277 442q-278 0 -278 -444q0 -445 274 -445z" />
    <glyph glyph-name="tau" unicode="&#x3c4;" 
d="M513 383v555h-206q-138 0 -251 -50v158q106 40 264 40h847v-148h-457v-563q0 -249 77 -375h-209q-65 146 -65 383z" />
    <glyph glyph-name="upsilon" unicode="&#x3c5;" 
d="M179 1086h197v-543q0 -49 1.5 -100t8.5 -98.5t22 -90t42.5 -74t68.5 -49.5t101 -18q90 0 148 38t92 98t47.5 134t13.5 146q0 73 -9.5 147t-28.5 145.5t-48 138.5t-68 126h202q123 -267 123 -555q0 -123 -35.5 -225.5t-102.5 -176t-163.5 -114t-217.5 -40.5
q-108 0 -183 33.5t-122 99t-68 162.5t-21 224v592z" />
    <glyph glyph-name="phi" unicode="&#x3c6;" 
d="M1184 585q0 -128 -30.5 -229.5t-90.5 -173t-149.5 -110.5t-207.5 -40v-427h-179v427q-120 1 -209.5 39t-149 108t-89.5 167.5t-30 216.5q0 118 27 214t79.5 165t130.5 110t179 50v-140q-75 -14 -120.5 -50.5t-70 -90t-32.5 -120t-8 -141.5q0 -78 13.5 -150.5t47 -128.5
t90 -90t142.5 -35v402q0 72 5 141.5t18 130.5t35 112.5t57.5 89t85 58t116.5 20.5q76 0 131 -23.5t92.5 -63.5t60.5 -92.5t35.5 -111t16.5 -119t4 -115.5zM706 156q94 1 153 36.5t92.5 93t45.5 132t12 152.5q0 34 -1 78.5t-5.5 90.5t-14 90.5t-27 79.5t-44.5 56t-66 21
q-36 0 -61 -22t-41 -58t-25 -81t-13 -92t-4.5 -90.5t-0.5 -76.5v-410z" />
    <glyph glyph-name="chi" unicode="&#x3c7;" 
d="M592 229l-209 -337q-20 -32 -39 -72.5t-34.5 -81t-25.5 -76.5t-12 -58h-196q6 24 22.5 59.5t37.5 74t42.5 75t36.5 61.5l296 490l-213 358q-101 169 -166 258.5t-78 105.5h221q13 -17 38 -52.5t59 -87t75.5 -118t87.5 -144.5l84 -142l167 272q56 91 77.5 159t25.5 113
h196q-6 -24 -19 -53.5t-29 -60.5t-33.5 -61.5t-32.5 -55.5l-272 -448l263 -439q48 -81 85.5 -141.5t65.5 -104t46 -72.5t29 -45h-212q-18 25 -44.5 65.5t-55 85.5t-55.5 88.5t-46 75.5z" />
    <glyph glyph-name="psi" unicode="&#x3c8;" 
d="M531 -395v427q-239 25 -338.5 172.5t-99.5 441.5v153q0 173 -49 287h187q20 -36 34 -93q13 -53 13 -181v-153q0 -485 253 -503v1127h185v-1127q278 35 278 496q0 262 -79 434h184q80 -204 80 -458q0 -247 -124.5 -416.5t-338.5 -179.5v-427h-185z" />
    <glyph glyph-name="omega" unicode="&#x3c9;" 
d="M621 277q-81 -302 -253 -302q-144 0 -232.5 147.5t-88.5 386.5q0 336 145 577h191q-161 -229 -161 -582q0 -160 45 -266.5t114 -106.5q111 0 164 335q-47 123 -47 251q0 140 47 264h156q47 -124 47 -264q0 -128 -47 -251q36 -335 167 -335q63 0 103 107.5t40 269.5
q0 367 -148 578h190q134 -198 134 -538q0 -252 -90.5 -412.5t-231.5 -160.5q-188 0 -244 302z" />
    <glyph glyph-name="iotadieresis" unicode="&#x3ca;" 
d="M222 1293v185h185v-185h-185zM629 1293v185h185v-185h-185zM1036 27q-136 -52 -275 -52q-221 0 -297.5 88t-76.5 319v704h197v-685q0 -180 38.5 -229.5t170.5 -49.5q108 0 243 53v-148z" />
    <glyph glyph-name="upsilondieresis" unicode="&#x3cb;" 
d="M301 1293v185h185v-185h-185zM708 1293v185h185v-185h-185zM179 1086h197v-543q0 -49 1.5 -100t8.5 -98.5t22 -90t42.5 -74t68.5 -49.5t101 -18q90 0 148 38t92 98t47.5 134t13.5 146q0 73 -9.5 147t-28.5 145.5t-48 138.5t-68 126h202q123 -267 123 -555
q0 -123 -35.5 -225.5t-102.5 -176t-163.5 -114t-217.5 -40.5q-108 0 -183 33.5t-122 99t-68 162.5t-21 224v592z" />
    <glyph glyph-name="omicrontonos" unicode="&#x3cc;" 
d="M614 1110q235 0 369 -151q135 -151 135 -415q0 -268 -135 -418q-135 -151 -377 -151q-205 0 -334 125q-161 155 -161 443q0 265 135 416t368 151zM614 987q-290 0 -290 -442q0 -446 290 -446q291 0 291 446q0 442 -291 442zM531 1283l84 419h205l-176 -419h-113z" />
    <glyph glyph-name="upsilontonos" unicode="&#x3cd;" 
d="M179 1086h197v-543q0 -49 1.5 -100t8.5 -98.5t22 -90t42.5 -74t68.5 -49.5t101 -18q90 0 148 38t92 98t47.5 134t13.5 146q0 73 -9.5 147t-28.5 145.5t-48 138.5t-68 126h202q123 -267 123 -555q0 -123 -35.5 -225.5t-102.5 -176t-163.5 -114t-217.5 -40.5
q-108 0 -183 33.5t-122 99t-68 162.5t-21 224v592zM512 1283l84 419h205l-176 -419h-113z" />
    <glyph glyph-name="omegatonos" unicode="&#x3ce;" 
d="M621 277q-81 -302 -253 -302q-144 0 -232.5 147.5t-88.5 386.5q0 336 145 577h191q-161 -229 -161 -582q0 -160 45 -266.5t114 -106.5q111 0 164 335q-47 123 -47 251q0 140 47 264h156q47 -124 47 -264q0 -128 -47 -251q36 -335 167 -335q63 0 103 107.5t40 269.5
q0 367 -148 578h190q134 -198 134 -538q0 -252 -90.5 -412.5t-231.5 -160.5q-188 0 -244 302zM535 1283l84 419h205l-176 -419h-113z" />
    <glyph glyph-name="uni0400" unicode="&#x400;" 
d="M74 0v123h185v1234h-185v123h982v-355h-123v232h-477v-543h292v124h123v-371h-123v124h-292v-560h526v252h124v-383h-1032zM740 1614h-123l-321 321h228z" />
    <glyph glyph-name="uni0401" unicode="&#x401;" 
d="M74 0v123h185v1234h-185v123h982v-355h-123v232h-477v-543h292v124h123v-371h-123v124h-292v-560h526v252h124v-383h-1032zM259 1634v197h197v-197h-197zM728 1634v197h197v-197h-197z" />
    <glyph glyph-name="uni0402" unicode="&#x402;" 
d="M743 98q109 0 162 83.5t53 297.5q0 159 -49.5 243.5t-139.5 84.5q-159 0 -267 -143v-664h-339v123h140v1234h-180v-210h-123v333h845v-333h-123v210h-220v-538q135 131 306 131q166 0 262.5 -122t96.5 -349q0 -225 -111 -364.5t-313 -139.5v123z" />
    <glyph glyph-name="uni0403" unicode="&#x403;" 
d="M519 123h272v-123h-691v123h222v1234h-222v123h1036v-355h-123v232h-494v-1234zM457 1614l216 321h228l-321 -321h-123z" />
    <glyph glyph-name="uni0404" unicode="&#x404;" 
d="M1158 20q-175 -57 -350 -57q-325 0 -509 207.5t-184 574.5q0 352 188 562t502 210q161 0 334 -57v-343h-123l-29 249q-60 28 -183 28q-197 -7 -320.5 -144t-150.5 -417h442v110h123v-343h-123v110h-442q0 -274 138 -445t343 -171q171 0 344 85v-159z" />
    <glyph glyph-name="uni0405" unicode="&#x405;" 
d="M151 61v358h124l24 -234q187 -99 311 -99q127 0 206 79q79 78 79 200q0 157 -200 261l-190 99q-189 98 -256 181q-66 80 -66 217q0 394 448 394q183 0 375 -73v-319h-123l-25 195q-125 74 -242 74q-241 0 -241 -246q0 -101 56 -149q49 -42 175 -110l169 -91
q195 -105 255 -178q61 -74 61 -207q0 -204 -134 -327q-135 -123 -359 -123q-205 0 -447 98z" />
    <glyph glyph-name="uni0406" unicode="&#x406;" 
d="M161 0v123h355v1234h-355v123h907v-123h-355v-1234h355v-123h-907z" />
    <glyph glyph-name="uni0407" unicode="&#x407;" 
d="M161 0v123h355v1234h-355v123h907v-123h-355v-1234h355v-123h-907zM282 1634v197h197v-197h-197zM751 1634v197h197v-197h-197z" />
    <glyph glyph-name="uni0408" unicode="&#x408;" 
d="M111 31v413h123l39 -301q113 -49 194 -49q116 0 167 55q52 54 52 181v1027h-395v123h852v-123h-260v-995q0 -214 -92 -306q-92 -93 -304 -93q-158 0 -376 68z" />
    <glyph glyph-name="uni0409" unicode="&#x409;" 
d="M10 0v123h22q54 0 83.5 20.5t44 58t17 90.5t2.5 119v946h-100v123h668v-616h55q93 0 165.5 -29.5t123 -82.5t77 -126t26.5 -160q0 -110 -32 -196.5t-90.5 -146.5t-141 -91.5t-183.5 -31.5h-182v1357h-204v-805q0 -93 -2.5 -170t-13.5 -138.5t-32.5 -107t-59 -76
t-94 -45.5t-137.5 -15h-12zM747 131h11q78 0 127 23.5t76.5 66t38 101t10.5 129.5q0 290 -250 290h-13v-610z" />
    <glyph glyph-name="uni040A" unicode="&#x40a;" 
d="M558 0v741h-264v-618h100v-123h-383v123h100v1234h-100v123h333v-123h-50v-493h264v493h-50v123h333v-123h-100v-493h55q93 0 165.5 -29.5t123 -82.5t77 -126t26.5 -160q0 -110 -32 -196.5t-90.5 -146.5t-141 -91.5t-183.5 -31.5h-183zM741 131h11q78 0 127 23.5t76.5 66
t38 101t10.5 129.5q0 290 -250 290h-13v-610z" />
    <glyph glyph-name="uni040B" unicode="&#x40b;" 
d="M1132 123h77v-123h-375v123h100v428q0 141 -38 198.5t-122 57.5q-69 0 -136.5 -35t-135.5 -104v-545h100v-123h-439v123h140v1234h-180v-210h-123v333h845v-333h-123v210h-220v-551q93 72 173 108t166 36q143 0 217 -92t74 -276v-459z" />
    <glyph glyph-name="uni040C" unicode="&#x40c;" 
d="M1106 123h81v-123h-299v123l-19 39l-84 172q-129 262 -262 351h-121v-562h80v-123h-407v123h130v1234h-130v123h407v-123h-80v-524q94 0 136 37t154 229l115 200q106 182 309 181h36v-148h-18q-84 0 -115.5 -29t-84.5 -127q-11 -21 -39 -71l-30 -54q-130 -229 -245 -257
q110 -35 181 -113t161 -262l51 -103q11 -22 56 -117q19 -40 37 -76zM596 1614l216 321h228l-321 -321h-123z" />
    <glyph glyph-name="uni040D" unicode="&#x40d;" 
d="M737 1614h-123l-321 321h228zM367 0h-297v123h100v1234h-100v123h387v-123h-90v-1044l495 1167h297v-123h-100v-1234h100v-123h-387v123h90v1044z" />
    <glyph glyph-name="uni040E" unicode="&#x40e;" 
d="M32 1357v123h437v-123h-150l313 -702l358 702h-199v123h437v-123h-70l-505 -989q-129 -236 -221 -302t-291 -66h-14v344h123l20 -207q62 0 99 42q49 56 115 188l40 77l-406 913h-86zM297 1910h160q0 -206 173 -206q172 0 172 206h161q0 -296 -333 -296t-333 296z" />
    <glyph glyph-name="uni040F" unicode="&#x40f;" 
d="M860 131v1226h-100v123h407v-123h-110v-1234h110v-123h-459v-385h-186v385h-459v123h110v1234h-110v123h407v-123h-100v-1226h490z" />
    <glyph glyph-name="uni0410" unicode="&#x410;" 
d="M327 444l-99 -321h143v-123h-346v123h74l421 1357h189l420 -1357h74v-123h-437v123h157l-100 321h-496zM366 568h419l-208 675h-2z" />
    <glyph glyph-name="uni0411" unicode="&#x411;" 
d="M70 0v123h150v1234h-150v123h985v-355h-123v232h-515v-512h139q294 0 413 -75q170 -108 170 -319q0 -247 -193 -368q-132 -83 -444 -83h-432zM417 123h79q224 0 328.5 72t104.5 249q0 147 -88 212.5t-295 65.5h-129v-599z" />
    <glyph glyph-name="uni0412" unicode="&#x412;" 
d="M247 123v1234h-173v123h618q374 0 374 -325q0 -168 -102 -273q-60 -63 -174 -111q98 -26 148 -56q174 -105 174 -338q0 -377 -444 -377h-594v123h173zM444 123h163q295 0 295 261q0 148 -97 234q-96 85 -264 85h-97v-580zM444 827h98q313 0 313 312q0 218 -211 218h-200
v-530z" />
    <glyph glyph-name="uni0413" unicode="&#x413;" 
d="M519 123h272v-123h-691v123h222v1234h-222v123h1036v-355h-123v232h-494v-1234z" />
    <glyph glyph-name="uni0414" unicode="&#x414;" 
d="M30 -385v516h83q176 298 245.5 559t69.5 630v37h-130v123h841v-123h-75v-1226h75v-516h-186v385h-737v-385h-186zM312 131h554v1226h-260v-24q1 -353 -70 -639t-224 -563z" />
    <glyph glyph-name="uni0415" unicode="&#x415;" 
d="M74 0v123h185v1234h-185v123h982v-357h-123v234h-477v-543h292v124h123v-371h-123v124h-292v-555h526v247h124v-383h-1032z" />
    <glyph glyph-name="uni0416" unicode="&#x416;" 
d="M695 709v-586h100v-123h-360v123h100v586h-41q-15 -28 -31.5 -61t-36 -76.5t-43.5 -100.5t-52 -133q-5 -13 -15 -39.5t-23 -60t-27.5 -70.5t-27.5 -70.5t-23.5 -59.5t-15.5 -38h-199v123h58l140 331q36 85 62 141t51.5 91.5t54 56.5t69.5 38q-35 20 -63 46t-51.5 60.5
t-45 78t-43.5 98.5l-34 82q-14 34 -27.5 71.5t-33 68.5t-47.5 51t-72 20v123h23q74 0 124 -24.5t83.5 -63.5t54.5 -87t39 -94l27 -70q34 -88 54.5 -144t36.5 -90.5t32.5 -54t42.5 -33.5v538h-100v123h360v-123h-100v-538q26 14 42.5 33.5t32.5 54t36.5 90.5t54.5 144l27 70
q18 46 39 94t54.5 87t83.5 63.5t124 24.5h23v-123q-44 0 -72 -20t-47.5 -51t-33 -68.5t-27.5 -71.5l-34 -82q-23 -55 -44 -98.5t-44.5 -78t-51.5 -60.5t-63 -46q41 -17 69.5 -38t54 -56.5t51.5 -91.5t62 -141l139 -331h58v-123h-198q-5 12 -15.5 38t-23.5 59.5t-27.5 70.5
t-27.5 70.5t-23 60.5t-15 39q-29 76 -52.5 133t-43 100.5t-36 76.5t-31.5 61h-41z" />
    <glyph glyph-name="uni0417" unicode="&#x417;" 
d="M520 -33q-202 1 -408 111v156q185 -135 408 -136q146 0 245.5 79.5t99.5 233.5q0 157 -127 238t-379 81h-41v123h38q238 0 356.5 77t118.5 218q0 129 -85 189.5t-238 60.5q-84 0 -177 -24q-29 -7 -59 -17l-12 -207h-124l-1 309q96 31 190.5 46.5t192.5 15.5
q247 0 380 -92.5t133 -262.5q0 -132 -80.5 -221.5t-240.5 -136.5q173 -28 269 -129.5t96 -253.5q0 -195 -158 -326.5t-397 -131.5z" />
    <glyph glyph-name="uni0418" unicode="&#x418;" 
d="M367 0h-297v123h100v1234h-100v123h387v-123h-90v-1044l495 1167h297v-123h-100v-1234h100v-123h-387v123h90v1044z" />
    <glyph glyph-name="uni0419" unicode="&#x419;" 
d="M281 1910h160q0 -206 173 -206q172 0 172 206h161q0 -296 -333 -296t-333 296zM367 0h-297v123h100v1234h-100v123h387v-123h-90v-1044l495 1167h297v-123h-100v-1234h100v-123h-387v123h90v1044z" />
    <glyph glyph-name="uni041A" unicode="&#x41a;" 
d="M1106 123h81v-123h-299v123l-19 39l-84 172q-129 262 -262 351h-121v-562h80v-123h-407v123h130v1234h-130v123h407v-123h-80v-524q94 0 136 37t154 229l115 200q106 182 309 181h36v-148h-18q-84 0 -115.5 -29t-84.5 -127q-11 -21 -39 -71l-30 -54q-130 -229 -245 -257
q110 -35 181 -113t161 -262l51 -103q11 -22 56 -117q19 -40 37 -76z" />
    <glyph glyph-name="uni041B" unicode="&#x41b;" 
d="M34 0v123q101 7 165 63.5t90 161.5t39.5 371t13.5 567v71h-130v123h978v-123h-95v-1234h95v-123h-387v123h94v1234h-366v-39q0 -442 -22 -702.5t-65 -363.5q-54 -126 -155.5 -189t-254.5 -63z" />
    <glyph glyph-name="uni041C" unicode="&#x41c;" 
d="M25 0v123h86v1234h-86v123h285l306 -1018h2l317 1018h269v-123h-86v-1234h86v-123h-320v123h72v1005h-2l-291 -934h-135l-291 972h-2v-1043h86v-123h-296z" />
    <glyph glyph-name="uni041D" unicode="&#x41d;" 
d="M370 703v-580h100v-123h-407v123h110v1234h-110v123h407v-123h-100v-530h489v530h-100v123h407v-123h-110v-1234h110v-123h-407v123h100v580h-489z" />
    <glyph glyph-name="uni041E" unicode="&#x41e;" 
d="M615 1517q243 0 398 -216t155 -559q0 -348 -155 -563q-155 -216 -405 -216q-214 0 -359 175q-187 225 -187 603q0 343 154 559q155 217 399 217zM615 1394q-161 0 -250 -172q-90 -173 -90 -482q0 -306 89 -480q88 -174 250 -174t246 150q95 169 95 502q0 313 -90 484
q-91 172 -250 172z" />
    <glyph glyph-name="uni041F" unicode="&#x41f;" 
d="M370 1344v-1221h99v-123h-407v123h111v1234h-111v123h1105v-123h-111v-1234h111v-123h-407v123h99v1221h-489z" />
    <glyph glyph-name="uni0420" unicode="&#x420;" 
d="M480 598v-475h285v-123h-679v123h197v1234h-197v123h661q377 0 377 -361q0 -241 -140 -381t-385 -140h-119zM480 722h112q322 0 322 367q0 268 -232 268h-202v-635z" />
    <glyph glyph-name="uni0421" unicode="&#x421;" 
d="M1127 74q-207 -111 -388 -111q-289 0 -452 206q-164 206 -164 579q0 369 156 569t446 200q164 0 381 -64v-343h-123l-29 231q-113 53 -224 53q-187 0 -291 -176q-103 -175 -103 -484q0 -299 114 -467q113 -168 313 -168q178 0 364 135v-160z" />
    <glyph glyph-name="uni0422" unicode="&#x422;" 
d="M257 0v123h259v1234h-331v-232h-123v355h1105v-355h-123v232h-331v-1234h259v-123h-715z" />
    <glyph glyph-name="uni0423" unicode="&#x423;" 
d="M32 1357v123h437v-123h-150l313 -702l358 702h-199v123h437v-123h-70l-505 -989q-129 -236 -221 -302t-291 -66h-14v344h123l20 -207q62 0 99 42q49 56 115 188l40 77l-406 913h-86z" />
    <glyph glyph-name="uni0424" unicode="&#x424;" 
d="M523 1357h-115v123h414v-123h-115v-168q201 0 341.5 -126t140.5 -323q0 -196 -140.5 -322.5t-341.5 -126.5v-168h115v-123h-414v123h115v168q-202 0 -342.5 126.5t-140.5 322.5q0 197 140.5 323t342.5 126v168zM523 414v652q-134 0 -210 -81t-76 -245q0 -165 76 -245.5
t210 -80.5zM707 414q132 0 208.5 80.5t76.5 245.5q0 164 -76.5 245t-208.5 81v-652z" />
    <glyph glyph-name="uni0425" unicode="&#x425;" 
d="M49 0v123h111l350 607l-362 627h-99v123h420v-123h-100l288 -500l289 500h-128v123h361v-123h-105l-353 -611l360 -623h98v-123h-443v123h124l-286 496l-286 -496h154v-123h-393z" />
    <glyph glyph-name="uni0426" unicode="&#x426;" 
d="M859 131v1226h-99v123h407v-123h-111v-1234h111v-508h-186v385h-919v123h111v1234h-111v123h407v-123h-99v-1226h489z" />
    <glyph glyph-name="uni0427" unicode="&#x427;" 
d="M681 0v123h150v473q-80 -45 -168.5 -67t-184.5 -22q-169 0 -253 91.5t-84 275.5v483h-100v123h397v-123h-100v-429q0 -148 38.5 -199t152.5 -51q71 0 146.5 22t155.5 67v590h-100v123h418v-123h-120v-1234h120v-123h-468z" />
    <glyph glyph-name="uni0428" unicode="&#x428;" 
d="M62 0v123h40v1234h-40v123h260v-123h-40v-1226h242v1226h-40v123h260v-123h-40v-1226h243v1226h-40v123h260v-123h-40v-1234h40v-123h-1105z" />
    <glyph glyph-name="uni0429" unicode="&#x429;" 
d="M63 0v123h40v1234h-40v123h260v-123h-40v-1221h242v1221h-40v123h260v-123h-40v-1221h242v1221h-40v123h260v-123h-40v-1234h40v-508h-186v385h-918z" />
    <glyph glyph-name="uni042A" unicode="&#x42a;" 
d="M202 0v123h150v1234h-332v123h530v-635h70q278 0 398 -75q169 -108 169 -319q0 -247 -193 -368q-131 -83 -444 -83h-348zM550 136h31q204 0 300.5 68t96.5 247q0 150 -88.5 210.5t-280.5 60.5h-59v-586z" />
    <glyph glyph-name="uni042B" unicode="&#x42b;" 
d="M57 1480h300v-123h-70v-487h110q176 0 282 -110t106 -297q0 -227 -129 -345t-369 -118h-230v123h50v1234h-50v123zM873 0v123h60v1234h-60v123h300v-123h-60v-1234h60v-123h-300zM287 136h50q130 0 194 64.5t64 262.5q0 146 -63.5 215t-193.5 69h-51v-611z" />
    <glyph glyph-name="uni042C" unicode="&#x42c;" 
d="M95 0v123h128v1234h-128v123h455v-123h-130v-512h171q289 0 408 -75q170 -108 170 -319q0 -247 -193 -368q-132 -83 -439 -83h-442zM420 136h132q215 0 311 68t96 257q0 140 -88 200.5t-290 60.5h-161v-586z" />
    <glyph glyph-name="uni042D" unicode="&#x42d;" 
d="M71 179q173 -85 344 -85q205 0 343 171t138 445h-442v-110h-123v343h123v-110h442q-27 280 -150.5 417t-320.5 144q-82 -4 -182 -28h-1l-29 -249h-123v343q173 57 334 57q314 0 502 -210t188 -562q0 -367 -184 -574.5t-509 -207.5q-175 0 -350 57v159z" />
    <glyph glyph-name="uni042E" unicode="&#x42e;" 
d="M35 0v123h50v1234h-50v123h280v-123h-50v-521h147q24 348 123.5 514.5t258.5 166.5q176 0 280.5 -202t104.5 -575t-104.5 -575t-280.5 -202q-169 0 -275.5 199t-106.5 551h-147v-590h50v-123h-280zM599 750q0 -303 53.5 -483.5t141.5 -180.5q87 0 141 180t54 474
q0 295 -54 474.5t-141 179.5q-86 0 -140.5 -178t-54.5 -466z" />
    <glyph glyph-name="uni042F" unicode="&#x42f;" 
d="M361 123v-123h-361v123h129q35 48 69 102l129 198q57 87 114 156t114 104q-152 32 -248 144t-96 243q0 193 142 317q107 93 398 93h439v-123h-130v-1234h130v-123h-457v123h130v521h-140q-71 -86 -155.5 -202.5t-183.5 -279.5q-11 -17 -23 -39zM863 1357h-110
q-166 0 -249 -66t-83 -205q0 -173 96 -246t289 -73h57v590z" />
    <glyph glyph-name="uni0430" unicode="&#x430;" 
d="M834 119q-173 -144 -351 -144q-153 0 -244 86q-91 85 -91 232q0 190 142 276q142 85 459 85h85v168q0 165 -204 165q-103 0 -257 -58l-25 -127h-123v216q229 93 467 93q189 0 264 -65q75 -66 75 -227v-696h136v-123h-313zM834 278v253h-53q-230 0 -327 -52
q-96 -52 -96 -178q0 -178 186 -178q147 0 290 155z" />
    <glyph glyph-name="uni0431" unicode="&#x431;" 
d="M1007 1680v-249h-265q-218 0 -310.5 -126.5t-116.5 -457.5q152 239 397 239q186 0 299 -147t113 -387q0 -259 -139.5 -418t-367.5 -159q-499 0 -499 730q0 459 138.5 666.5t444.5 207.5h183v101h123zM317 710v-49q-1 -552 311 -552q132 0 209.5 113t77.5 304
q0 400 -257 400q-181 0 -341 -216z" />
    <glyph glyph-name="uni0432" unicode="&#x432;" 
d="M84 0v123h120v840h-120v123h592q195 0 282 -58t87 -189q0 -195 -230 -272q274 -73 274 -288q0 -279 -374 -279h-631zM402 123h174q181 0 243.5 29t62.5 159q0 200 -294 200h-186v-388zM402 626h192q110 0 179.5 48.5t69.5 130.5q0 97 -52.5 127.5t-185.5 30.5h-203v-337z
" />
    <glyph glyph-name="uni0433" unicode="&#x433;" 
d="M519 123h272v-123h-691v123h222v840h-222v123h1036v-353h-123v230h-494v-840z" />
    <glyph glyph-name="uni0434" unicode="&#x434;" 
d="M40 -345v481h75q176 163 245.5 359t69.5 441v27h-80v123h827v-123h-80v-827h80v-481h-180v345h-777v-345h-180zM319 136h573v827h-311v-27q1 -216 -60 -437t-202 -363z" />
    <glyph glyph-name="uni0435" unicode="&#x435;" 
d="M336 629h559v46q0 312 -249 312q-154 0 -238 -123q-59 -86 -72 -235zM1105 506h-771q14 -135 41 -195q91 -205 352 -205q161 0 349 105v-149q-175 -87 -375 -87q-259 0 -419 159q-159 159 -159 417q0 251 148 405q147 154 389 154q445 0 445 -543v-61z" />
    <glyph glyph-name="uni0436" unicode="&#x436;" 
d="M23 123h69l110 206q46 86 88 141t97 78q-29 13 -49.5 30t-37 41.5t-32 58t-33.5 80.5l-19 49q-28 72 -57.5 101.5t-64.5 29.5h-28v148h20q58 0 97.5 -15t68 -43.5t49.5 -70.5t42 -95l22 -55q21 -53 34.5 -91.5t29 -64t38 -38t61.5 -12.5v362h-80v123h333v-123h-80v-362
q38 0 61 13t39 39t29.5 64.5t33.5 89.5l21 55q22 54 43 95.5t49.5 70t68 43.5t97.5 15h20v-148h-28q-35 0 -64.5 -29.5t-57.5 -101.5l-19 -49q-18 -47 -33.5 -80.5t-32 -58t-37.5 -41.5t-49 -30q51 -23 94.5 -77t90.5 -142l109 -206h70v-123h-195q-10 23 -29 61t-43 84
t-51.5 97.5t-54 102t-50.5 97.5t-42 84h-40v-526h-173v526h-40q-18 -37 -42 -84t-50.5 -97.5t-54 -102t-51.5 -97.5t-43 -84t-29 -61h-195v123z" />
    <glyph glyph-name="uni0437" unicode="&#x437;" 
d="M176 33v149q85 -37 186 -56.5t222 -19.5q138 0 205 45t67 142q0 51 -15.5 86t-42.5 58t-62 35.5t-74 19t-79.5 7.5t-77.5 1h-105v125h105q74 0 133 6t100 26.5t63 58.5t22 102q0 51 -18.5 84t-50 52t-74 26t-89.5 7q-148 0 -241 -38l-31 -197h-123v296q178 62 404 62
q220 0 324.5 -69t104.5 -192q0 -99 -45.5 -162.5t-142.5 -105.5q117 -39 172 -109.5t55 -167.5q0 -66 -23 -115.5t-61.5 -86t-89 -61t-105.5 -39.5t-111.5 -21t-106.5 -6q-121 0 -219 15t-176 43z" />
    <glyph glyph-name="uni0438" unicode="&#x438;" 
d="M373 0h-300v123h110v840h-110v123h389v-123h-89v-717l483 840h300v-123h-110v-840h110v-123h-389v123h89v717z" />
    <glyph glyph-name="uni0439" unicode="&#x439;" 
d="M284 1579h160q0 -206 173 -206q172 0 172 206h161q0 -296 -333 -296t-333 296zM373 0h-300v123h110v840h-110v123h389v-123h-89v-717l483 840h300v-123h-110v-840h110v-123h-389v123h89v717z" />
    <glyph glyph-name="uni043A" unicode="&#x43a;" 
d="M125 0v123h120v840h-120v123h397v-123h-80v-362h34q34 0 58 17.5t46 48.5t46.5 74t60.5 94l32 46q40 57 75.5 96.5t75.5 63.5t89.5 34.5t117.5 10.5v-148q-40 0 -71 -8t-58 -25t-51 -44.5t-51 -66.5l-29 -43q-20 -30 -36.5 -55t-33.5 -46.5t-36 -39.5t-44 -33
q48 -15 85 -42.5t67.5 -63.5t56 -78.5t49.5 -87.5l97 -182h76v-123h-283v122q-10 19 -23 44t-27 51t-28 51t-26 43q-24 37 -41 62t-31 44t-27.5 34t-31.5 32h-138v-360h80v-123h-397z" />
    <glyph glyph-name="uni043B" unicode="&#x43b;" 
d="M709 0v123h120v840h-341v-19q0 -483 -97 -715q-107 -229 -348 -229v148q80 5 121.5 44t71.5 137q70 236 72 634h-130v123h968v-123h-120v-840h120v-123h-437z" />
    <glyph glyph-name="uni043C" unicode="&#x43c;" 
d="M25 0v123h86v840h-86v123h285l306 -747h2l317 747h269v-123h-86v-840h86v-123h-320v123h72v705h-2l-291 -686h-135l-273 696l-6 18l-6 -733h86v-123h-304z" />
    <glyph glyph-name="uni043D" unicode="&#x43d;" 
d="M390 493v-370h99v-123h-416v123h120v840h-120v123h416v-123h-99v-346h449v346h-99v123h416v-123h-120v-840h120v-123h-416v123h99v370h-449z" />
    <glyph glyph-name="uni043E" unicode="&#x43e;" 
d="M614 1110q235 0 369 -151q135 -151 135 -415q0 -268 -135 -418q-135 -151 -377 -151q-205 0 -334 125q-161 155 -161 443q0 265 135 416t368 151zM614 987q-290 0 -290 -442q0 -446 290 -446q291 0 291 446q0 442 -291 442z" />
    <glyph glyph-name="uni043F" unicode="&#x43f;" 
d="M390 950v-827h100v-123h-417v123h120v840h-120v123h1082v-123h-120v-840h120v-123h-417v123h100v827h-448z" />
    <glyph glyph-name="uni0440" unicode="&#x440;" 
d="M390 -272h247v-123h-568v123h123v1234h-123v124h321v-222q75 111 146 166q102 80 220 80q165 0 267 -143q102 -144 102 -379q0 -286 -135 -449q-134 -164 -369 -164q-88 0 -231 25v-272zM390 146q136 -23 212 -23q167 0 240 107t73 359q0 373 -214 373q-164 0 -311 -246
v-570z" />
    <glyph glyph-name="uni0441" unicode="&#x441;" 
d="M1110 46q-162 -71 -394 -71q-283 0 -445 158q-161 158 -161 422q0 260 158 407q157 148 444 148q213 0 385 -54v-310h-124l-35 197q-121 44 -237 44q-176 0 -280 -118q-96 -118 -96 -317q0 -220 108 -333q116 -113 322 -113q168 0 355 81v-141z" />
    <glyph glyph-name="uni0442" unicode="&#x442;" 
d="M257 0v123h259v840h-321v-220h-123v343h1085v-343h-123v220h-321v-840h259v-123h-715z" />
    <glyph glyph-name="uni0443" unicode="&#x443;" 
d="M820 1086h409v-124h-95l-501 -1126q-64 -143 -153.5 -199.5t-272.5 -56.5h-84v320h124l29 -196q79 -6 128 30.5t111 174.5l49 113l-413 940h-97v124h459v-124h-158l313 -708l314 708h-162v124z" />
    <glyph glyph-name="uni0444" unicode="&#x444;" 
d="M528 963q-66 0 -119 -25t-90 -76.5t-57 -131t-20 -187.5t20 -187.5t57 -131t90 -76.5t119 -25v840zM701 -272h100v-123h-373v123h100v272q-126 4 -215.5 52.5t-145.5 124.5t-82 172t-26 194t26 194t82 172t145.5 124.5t215.5 52.5v370h-125v123h423v-123h-125v-370
q126 -4 215.5 -52.5t145.5 -124.5t82 -172t26 -194t-26 -194t-82 -172t-145.5 -124.5t-215.5 -52.5v-272zM701 123q66 0 119 25t90 76.5t57 131t20 187.5t-20 187.5t-57 131t-90 76.5t-119 25v-840z" />
    <glyph glyph-name="uni0445" unicode="&#x445;" 
d="M59 0v123h123l331 420l-331 419h-123v124h438v-124h-87l261 -331l260 331h-103v124h361v-124h-117l-331 -420l330 -419h118v-123h-445v123h99l-253 321l-252 -321h100v-123h-379z" />
    <glyph glyph-name="uni0446" unicode="&#x446;" 
d="M857 136v827h-99v123h406v-123h-110l-1 -840h111v-123v-345h-180v345h-911v123h110v840h-110v123h405v-123h-98v-827h477z" />
    <glyph glyph-name="uni0447" unicode="&#x447;" 
d="M63 963v123h337v-123h-80v-161q0 -133 9 -169.5t44 -70.5q63 -63 170 -63q102 0 252 87v377h-80v123h398v-123h-120v-840h120v-123h-438v123h120v333q-174 -80 -294 -80q-187 0 -290 108q-88 92 -88 356v123h-60z" />
    <glyph glyph-name="uni0448" unicode="&#x448;" 
d="M70 0v123h60v840h-60v123h270v-123h-40v-827h230v827h-40v123h249v-123h-40v-827h230v827h-40v123h270v-123h-60v-840h60v-123h-1089z" />
    <glyph glyph-name="uni0449" unicode="&#x449;" 
d="M70 0v123h40v840h-40v123h250v-123h-40v-827h232v827h-40v123h249v-123h-40v-827h232v827h-40v123h250v-123h-40v-840h76v-468h-180v345h-909z" />
    <glyph glyph-name="uni044A" unicode="&#x44a;" 
d="M246 0v123h120v840h-326v123h523v-433h107q247 0 360.5 -76t113.5 -245q0 -170 -123 -251t-380 -81h-395zM563 123h91q280 0 280 213q0 122 -60 158t-216 36h-95v-407z" />
    <glyph glyph-name="uni044B" unicode="&#x44b;" 
d="M50 0v123h70v840h-70v123h230v-433h87q197 0 310.5 -76t113.5 -240q0 -175 -123 -256t-330 -81h-288zM300 123h71q240 0 240 218q0 117 -50 153t-186 36h-75v-407zM869 0v123h70v840h-70v123h320v-123h-70v-840h70v-123h-320z" />
    <glyph glyph-name="uni044C" unicode="&#x44c;" 
d="M100 0v123h160v840h-160v123h357v-406h117q288 0 406.5 -76t118.5 -246q0 -196 -132 -277t-422 -81h-445zM457 123h101q331 0 331 235q0 127 -69 163t-258 36h-105v-434z" />
    <glyph glyph-name="uni044D" unicode="&#x44d;" 
d="M145 178q165 -72 358 -72q351 0 376 397h-475v123h475q-20 361 -360 361q-98 0 -204 -19l-32 -206h-123v306q175 42 358 42q280 0 424.5 -143t144.5 -420t-144 -424.5t-413 -147.5q-202 0 -385 67v136z" />
    <glyph glyph-name="uni044E" unicode="&#x44e;" 
d="M45 0v123h50v840h-50v123h280v-123h-50v-335h142q24 241 123.5 363t253.5 122q171 0 275.5 -148t104.5 -422t-104.5 -422t-275.5 -148q-164 0 -270.5 146t-106.5 386h-142v-382h50v-123h-280zM604 550q0 -222 53.5 -338t136.5 -116q82 0 136 115.5t54 331.5t-54 331.5
t-136 115.5q-81 0 -135.5 -114t-54.5 -326z" />
    <glyph glyph-name="uni044F" unicode="&#x44f;" 
d="M824 963h-179q-118 0 -176.5 -47.5t-58.5 -133.5q0 -45 15.5 -83t46 -65.5t76.5 -42.5t108 -15h168v387zM78 123h109q17 28 35.5 62t41.5 76l38 70q28 52 66.5 95t79.5 66q-248 68 -248 287q0 67 18 116t50 83t76.5 55t98 33t113.5 16t124 4h421v-123h-80v-840h80v-123
h-357v123h80v329h-211q-35 -35 -71.5 -91.5t-74.5 -122.5l-66 -115v-123h-323v123z" />
    <glyph glyph-name="uni0450" unicode="&#x450;" 
d="M772 1283h-123l-321 321h228zM1105 506h-771q14 -135 41 -195q91 -205 352 -205q161 0 349 105v-149q-175 -87 -375 -87q-259 0 -419 159q-159 159 -159 417q0 251 148 405q147 154 389 154q445 0 445 -543v-61zM336 629h559v46q0 312 -249 312q-154 0 -238 -123
q-59 -86 -72 -235z" />
    <glyph glyph-name="uni0451" unicode="&#x451;" 
d="M315 1283v197h197v-197h-197zM784 1283v197h197v-197h-197zM1105 506h-771q14 -135 41 -195q91 -205 352 -205q161 0 349 105v-149q-175 -87 -375 -87q-259 0 -419 159q-159 159 -159 417q0 251 148 405q147 154 389 154q445 0 445 -543v-61zM336 629h559v46
q0 312 -249 312q-154 0 -238 -123q-59 -86 -72 -235z" />
    <glyph glyph-name="uni0452" unicode="&#x452;" 
d="M205 1188h-158v123h158v145h-123v123h321v-268h310v-123h-310v-361q69 105 137 158q96 76 215 76q301 0 301 -388v-741q0 -145 -90.5 -236t-234.5 -91q-68 0 -144 20v130q62 -27 125 -27q80 0 113 50q33 48 34 177v701q0 257 -163 257q-150 0 -293 -258v-532h111v-123
h-432v123h123v1065z" />
    <glyph glyph-name="uni0453" unicode="&#x453;" 
d="M519 1283l216 321h228l-321 -321h-123zM519 123h272v-123h-691v123h222v840h-222v123h1036v-353h-123v230h-494v-840z" />
    <glyph glyph-name="uni0454" unicode="&#x454;" 
d="M1072 178v-136q-183 -67 -375 -67q-269 0 -413 147.5t-144 424.5t144.5 420t424.5 143q173 0 348 -42v-286h-123l-32 186q-106 19 -194 19q-340 0 -360 -361h465v-123h-465q25 -397 376 -397q183 0 348 72z" />
    <glyph glyph-name="uni0455" unicode="&#x455;" 
d="M173 61v297h123l25 -183q196 -76 333 -76q238 0 238 168q0 66 -40 102q-40 37 -143 64l-204 54q-171 45 -249 118q-77 71 -77 189q0 317 432 317q221 0 402 -72v-286h-123l-25 181q-109 53 -255 53q-110 0 -171 -35q-72 -41 -72 -126q0 -112 206 -166l202 -53
q168 -44 241 -112q72 -67 72 -182q0 -157 -123 -247q-123 -91 -343 -91q-226 0 -449 86z" />
    <glyph glyph-name="uni0456" unicode="&#x456;" 
d="M148 0v123h390v839h-390v124h587v-963h370v-123h-957zM528 1332v247h222v-247h-222z" />
    <glyph glyph-name="uni0457" unicode="&#x457;" 
d="M293 1293v197h197v-197h-197zM762 1293v197h197v-197h-197zM148 0v123h390v839h-390v124h587v-963h370v-123h-957z" />
    <glyph glyph-name="uni0458" unicode="&#x458;" 
d="M159 -344v319h123l31 -218q68 -53 147 -53q132 0 188 96q57 96 57 327v835h-444v124h642v-1020q0 -230 -113 -358t-314 -128q-139 0 -317 76zM693 1332v247h222v-247h-222z" />
    <glyph glyph-name="uni0459" unicode="&#x459;" 
d="M14 0v123h22q89 0 115 50.5t27 237.5v552h-100v123h664v-414h55q182 0 287 -78.5t105 -235.5q0 -164 -112.5 -261t-288.5 -97h-226v963h-204v-263q-2 -365 -22 -481t-93 -167q-73 -52 -229 -52zM742 131h51q89 0 150.5 48.5t61.5 173.5q0 110 -52.5 153t-157.5 43h-53
v-418z" />
    <glyph glyph-name="uni045A" unicode="&#x45a;" 
d="M561 0v549h-264v-426h100v-123h-380v123h100v840h-100v123h330v-123h-50v-291h264v291h-50v123h330v-123h-100v-291h55q182 0 287 -78.5t105 -235.5q0 -164 -112.5 -261t-288.5 -97h-226zM741 131h51q89 0 150.5 48.5t61.5 173.5q0 110 -52.5 153t-157.5 43h-53v-418z
" />
    <glyph glyph-name="uni045B" unicode="&#x45b;" 
d="M846 656q0 257 -163 257q-150 0 -293 -258v-532h111v-123h-432v123h123v1065h-158v123h158v145h-123v123h321v-268h310v-123h-310v-361q69 105 137 158q96 76 215 76q301 0 301 -388v-550h123v-123h-447v123h127v533z" />
    <glyph glyph-name="uni045C" unicode="&#x45c;" 
d="M125 0v123h120v840h-120v123h397v-123h-80v-362h34q34 0 58 17.5t46 48.5t46.5 74t60.5 94l32 46q40 58 75.5 97t76 63t89.5 34.5t117 10.5v-148q-40 0 -71 -7.5t-58 -25t-51 -45t-51 -66.5l-29 -43q-20 -30 -36.5 -55t-33.5 -46.5t-36 -39.5t-44 -33q48 -15 85 -42.5
t67.5 -63.5t56 -78.5t49.5 -87.5l97 -182h76v-123h-283v122q-10 19 -23 44t-27 51t-28 51t-26 43q-24 37 -41 62t-31 44t-27.5 34t-31.5 32h-138v-360h80v-123h-397zM522 1283l216 321h228l-321 -321h-123z" />
    <glyph glyph-name="uni045D" unicode="&#x45d;" 
d="M370 176v-53h90v-123h-390v123h110v840h-110v123h390v-123h-90v-608l489 558v50h-90v123h390v-123h-110v-840h110v-123h-390v123h90v612zM737 1283h-123l-321 321h228z" />
    <glyph glyph-name="uni045E" unicode="&#x45e;" 
d="M820 1086h409v-124h-95l-501 -1126q-64 -143 -153.5 -199.5t-272.5 -56.5h-84v320h124l29 -196q79 -6 128 30.5t111 174.5l49 113l-413 940h-97v124h459v-124h-158l313 -708l314 708h-162v124zM333 1579h160q0 -206 173 -206q172 0 172 206h161q0 -296 -333 -296
t-333 296z" />
    <glyph glyph-name="uni045F" unicode="&#x45f;" 
d="M849 136v827h-100v123h407v-123h-110v-840h110v-123h-451v-345h-180v345h-452v123h110v840h-110v123h407v-123h-100v-827h469z" />
    <glyph glyph-name="uni0490" unicode="&#x490;" 
d="M519 123h272v-123h-691v123h222v1234h-222v123h893v258h143v-381h-617v-1234z" />
    <glyph glyph-name="uni0491" unicode="&#x491;" 
d="M519 123h272v-123h-691v123h222v840h-222v123h893v230h143v-353h-617v-840z" />
    <glyph glyph-name="Wgrave" unicode="&#x1e80;" 
d="M242 0l-170 1357h-49v123h304v-123h-100l136 -1082h10l184 972l149 1l184 -967h9l134 1076h-100v123h274v-123h-50l-170 -1357h-178l-186 974h-8l-184 -974h-189zM754 1614h-123l-321 321h228z" />
    <glyph glyph-name="wgrave" unicode="&#x1e81;" 
d="M242 0l-170 962h-49v124h311v-124h-86l129 -724h2l177 685h167l178 -688h2l130 727h-98v124h272v-124h-49l-170 -962h-193l-179 703h-2l-182 -703h-190zM763 1283h-123l-321 321h228z" />
    <glyph glyph-name="Wacute" unicode="&#x1e82;" 
d="M242 0l-170 1357h-49v123h304v-123h-100l136 -1082h10l184 972l149 1l184 -967h9l134 1076h-100v123h274v-123h-50l-170 -1357h-178l-186 974h-8l-184 -974h-189zM506 1614l216 321h228l-321 -321h-123z" />
    <glyph glyph-name="wacute" unicode="&#x1e83;" 
d="M242 0l-170 962h-49v124h311v-124h-86l129 -724h2l177 685h167l178 -688h2l130 727h-98v124h272v-124h-49l-170 -962h-193l-179 703h-2l-182 -703h-190zM517 1283l216 321h228l-321 -321h-123z" />
    <glyph glyph-name="Wdieresis" unicode="&#x1e84;" 
d="M242 0l-170 1357h-49v123h304v-123h-100l136 -1082h10l184 972l149 1l184 -967h9l134 1076h-100v123h274v-123h-50l-170 -1357h-178l-186 974h-8l-184 -974h-189zM299 1634v197h197v-197h-197zM768 1634v197h197v-197h-197z" />
    <glyph glyph-name="wdieresis" unicode="&#x1e85;" 
d="M242 0l-170 962h-49v124h311v-124h-86l129 -724h2l177 685h167l178 -688h2l130 727h-98v124h272v-124h-49l-170 -962h-193l-179 703h-2l-182 -703h-190zM306 1293v197h197v-197h-197zM775 1293v197h197v-197h-197z" />
    <glyph glyph-name="Ygrave" unicode="&#x1ef2;" 
d="M294 0v123h222v537l-403 697h-86v123h463v-123h-149l315 -544h2l315 544h-148v123h376v-123h-86l-402 -696v-538h222v-123h-641zM770 1614h-123l-321 321h228z" />
    <glyph glyph-name="ygrave" unicode="&#x1ef3;" 
d="M514 0l-385 962h-74v124h447v-124h-160l311 -778h2l311 778h-160v124h367v-124h-74l-385 -962l-108 -271h148v-124h-479v124h198l108 271h-67zM777 1283h-123l-321 321h228z" />
    <glyph glyph-name="endash" unicode="&#x2013;" 
d="M120 543v148h989v-148h-989z" />
    <glyph glyph-name="emdash" unicode="&#x2014;" 
d="M20 543v148h1189v-148h-1189z" />
    <glyph glyph-name="uni2015" unicode="&#x2015;" 
d="M0 543v148h1229v-148h-1229z" />
    <glyph glyph-name="underscoredbl" unicode="&#x2017;" 
d="M0 -136v136h1229v-136h-1229zM0 -432v136h1229v-136h-1229z" />
    <glyph glyph-name="quoteleft" unicode="&#x2018;" 
d="M750 1209v-336h-336v220q0 511 336 511v-99q-120 -12 -142 -67q-20 -48 -26 -229h168z" />
    <glyph glyph-name="quoteright" unicode="&#x2019;" 
d="M446 1268v336h336v-220q0 -511 -336 -511v99q120 12 142 67q20 48 26 229h-168z" />
    <glyph glyph-name="quotesinglbase" unicode="&#x201a;" 
d="M447 0v336h336v-220q0 -511 -336 -511v99q120 12 142 67q20 48 26 229h-168z" />
    <glyph glyph-name="quotereversed" unicode="&#x201b;" 
d="M614 1268q6 -181 26 -229q22 -55 142 -67v-99q-336 0 -336 511v220h336v-336h-168z" />
    <glyph glyph-name="quotedblleft" unicode="&#x201c;" 
d="M516 1209v-336h-336v220q0 511 336 511v-99q-120 -12 -142 -67q-20 -48 -26 -229h168zM1039 1209v-336h-336v220q0 511 336 511v-99q-120 -12 -142 -67q-20 -48 -26 -229h168z" />
    <glyph glyph-name="quotedblright" unicode="&#x201d;" 
d="M190 1268v336h336v-220q0 -511 -336 -511v99q120 12 142 67q20 48 26 229h-168zM713 1268v336h336v-220q0 -511 -336 -511v99q120 12 142 67q20 48 26 229h-168z" />
    <glyph glyph-name="quotedblbase" unicode="&#x201e;" 
d="M190 0v336h336v-220q0 -511 -336 -511v99q120 12 142 67q20 48 26 229h-168zM713 0v336h336v-220q0 -511 -336 -511v99q120 12 142 67q20 48 26 229h-168z" />
    <glyph glyph-name="dagger" unicode="&#x2020;" 
d="M515 -296l25 1123l-370 -13v148l370 -12l-25 530h198l-25 -530l370 12v-148l-370 13l25 -1123h-198z" />
    <glyph glyph-name="daggerdbl" unicode="&#x2021;" 
d="M515 -296l25 530l-370 -12v148l370 -12v469l-370 -13v148l370 -12l-25 530h198l-25 -530l370 12v-148l-370 13v-469l370 12v-148l-370 12l25 -530h-198z" />
    <glyph glyph-name="bullet" unicode="&#x2022;" 
d="M614 1110q123 0 209 -87q87 -86 87 -208q0 -125 -87 -211q-86 -86 -211 -86q-109 0 -189 70q-105 91 -105 226q0 123 87 209q87 87 209 87z" />
    <glyph glyph-name="ellipsis" unicode="&#x2026;" 
d="M81 0v247h247v-247h-247zM491 0v247h246v-247h-246zM900 0v247h247v-247h-247z" />
    <glyph glyph-name="perthousand" unicode="&#x2030;" 
d="M196 1476q83 0 133 -85q51 -84 51 -222q0 -142 -51 -226q-50 -84 -135 -84q-73 0 -121 68q-61 87 -61 241q0 138 51 223q50 85 133 85zM196 1383q-88 0 -88 -215q0 -216 91 -216q86 0 86 216q0 215 -89 215zM28 0l617 1480h103l-619 -1480h-101zM578 617q83 0 133 -85
q51 -84 51 -223q0 -141 -51 -225q-50 -84 -135 -84q-73 0 -121 68q-61 87 -61 241q0 139 51 223q50 85 133 85zM578 524q-89 0 -89 -215q0 -216 91 -216q86 0 86 217q0 214 -88 214zM1033 617q82 0 133 -85q51 -84 51 -223q0 -141 -51 -225q-50 -84 -135 -84q-73 0 -121 68
q-61 87 -61 241q0 139 51 223q51 85 133 85zM1033 524q-89 0 -89 -214q0 -217 91 -217q86 0 86 216q0 215 -88 215z" />
    <glyph glyph-name="minute" unicode="&#x2032;" 
d="M416 987l197 592h222l-296 -592h-123z" />
    <glyph glyph-name="second" unicode="&#x2033;" 
d="M193 987l197 592h222l-296 -592h-123zM637 987l197 592h222l-296 -592h-123z" />
    <glyph glyph-name="guilsinglleft" unicode="&#x2039;" 
d="M946 901l-438 -358l438 -358l-86 -86l-626 444l626 444z" />
    <glyph glyph-name="guilsinglright" unicode="&#x203a;" 
d="M283 185l438 358l-438 358l86 86l626 -444l-626 -444z" />
    <glyph glyph-name="exclamdbl" unicode="&#x203c;" 
d="M318 419l-24 765v296h197v-296l-25 -765h-148zM269 0v222h247v-222h-247zM762 419l-24 765v296h197v-296l-24 -765h-149zM713 0v222h247v-222h-247z" />
    <glyph glyph-name="uni203E" unicode="&#x203e;" 
d="M0 1604h1229v-148h-1229v148z" />
    <glyph glyph-name="fraction" unicode="&#x2044;" 
d="M155 -37l777 1554h141l-780 -1554h-138z" />
    <glyph glyph-name="uni207F" unicode="&#x207f;" 
d="M257 728v771h173v-154q127 173 289 173q254 0 254 -278v-512h-173v471q0 175 -133 175q-116 0 -237 -160v-486h-173z" />
    <glyph glyph-name="franc" unicode="&#x20a3;" 
d="M807 123h60v-123h-298v123h50v586h-290v-586h50v-123h-309v123h71v1234h-71v123h886v-224h-123v100l-504 1v-493h478v-177q140 196 333 196v-200q-24 2 -38 2q-164 0 -295 -173v-389z" />
    <glyph glyph-name="lira" unicode="&#x20a4;" 
d="M439 173h467v100h123v-273h-816v173q199 76 199 309v92h-173v123h173v149h-173v123h173v110q0 215 99 326.5t289 111.5q95 0 214 -29v-168q-134 49 -218 49q-202 0 -202 -212v-188h213v-123h-213v-149h213v-123h-213q0 -137 -25.5 -215.5t-129.5 -185.5z" />
    <glyph glyph-name="peseta" unicode="&#x20a7;" 
d="M25 0v1480l256 1q443 0 443 -328q0 -184 -127 -286t-356 -102h-31v-765h-185zM210 913h40q160 0 222.5 46t62.5 163q0 210 -197 210h-97h-31v-419zM556 407h-173v124h173v234h160v-234h148q-9 35 -9 60q0 193 237 193q51 0 98 -17v-129q-50 22 -96 22q-98 0 -98 -85
q0 -42 54 -97l34 -34l42 -42q98 -99 98 -191q0 -230 -229 -230q-50 0 -101 20v126q50 -22 101 -22q88 0 88 79q0 52 -69 122l-38 38l-60 63h-200v-180q0 -73 15 -97.5t60 -24.5q9 0 28 2v-113q-48 -13 -82 -13q-104 0 -142.5 60t-38.5 221v145z" />
    <glyph glyph-name="Euro" unicode="&#x20ac;" 
d="M127 857h-121l51 124h86q39 169 87 255q155 281 495 281q164 0 381 -64v-281h-123l-29 169q-113 53 -225 53q-193 0 -291 -172q-49 -85 -79 -241h668l-51 -124h-635q-4 -55 -4 -72q-1 -24 -2 -28q-1 -14 0 -18q1 -5 1 -6l2 -73h556l-51 -123h-492q26 -138 64 -217
q106 -221 347 -221q180 0 365 135v-160q-207 -111 -387 -111q-239 0 -392 141q-106 98 -162 253q-21 59 -47 180h-133l51 123h68l-2 88l-2 11q0 1 2 9q1 4 1 23q-1 6 1 24l1 25z" />
    <glyph glyph-name="uni2105" unicode="&#x2105;" 
d="M43 0l988 1480h133l-987 -1480h-134zM523 854q-137 -58 -251 -58q-223 0 -223 225q0 180 129 319.5t296 139.5q64 0 153 -25l-22 -111q-82 36 -142 36q-104 0 -180.5 -101t-76.5 -239q0 -130 118 -130q101 0 224 71zM777 0q-107 0 -169 59t-62 160q0 190 121.5 328
t288.5 138q109 0 171.5 -58.5t62.5 -159.5q0 -192 -121.5 -329.5t-291.5 -137.5zM810 102q91 0 157.5 100.5t66.5 236.5q0 144 -109 144q-89 0 -156 -100.5t-67 -234.5q0 -146 108 -146z" />
    <glyph glyph-name="uni2113" unicode="&#x2113;" 
d="M587 730q202 137 296 301q129 226 129 377q0 85 -86 85q-101 0 -170 -130t-130 -438zM556 575q-10 -51 -15 -77l-17 -85q-22 -104 -22 -156q0 -115 101 -115q81 0 168 108t155 292l114 -41q-204 -526 -520 -526q-213 0 -213 248q0 92 33 256l3 19q-204 -58 -296 -65
l-7 -1v123q99 5 330 75l48 245q148 741 524 741q109 0 176.5 -70t67.5 -184q0 -204 -239 -481q-147 -171 -391 -306z" />
    <glyph glyph-name="uni2116" unicode="&#x2116;" 
d="M755 698q0 388 222 388t222 -395t-222 -395t-222 402zM890 695q0 -288 87 -288q86 0 86 284t-86 284q-87 0 -87 -280zM742 0v148h457v-148h-457zM646 0h-148l-314 1120v-1120h-124v1480h148l314 -1116v1116h124v-1480z" />
    <glyph glyph-name="trademark" unicode="&#x2122;" 
d="M142 740v93h77v555h-87v-99h-89v191h463v-191h-89v99h-87v-555h77v-93h-265zM555 740v93h58v555h-58v92h212l122 -443l106 443h201v-92h-58v-555h58v-93h-163v579h-1l-116 -443h-87l-115 413h-2v-549h-157z" />
    <glyph glyph-name="Omega" unicode="&#x2126;" 
d="M524 148v-148h-475v136h311q-155 176 -227 354t-72 370q0 312 146 484.5t410 172.5q263 0 409 -172.5t146 -484.5q0 -192 -72.5 -370t-227.5 -354h312v-136h-475v148q141 160 197 309t56 362q0 285 -86.5 430t-258.5 145q-173 0 -259.5 -145t-86.5 -430q0 -214 56 -362.5
t197 -308.5z" />
    <glyph glyph-name="estimated" unicode="&#x212e;" 
d="M948 155h77q-70 -75 -140 -112q-126 -68 -270 -68q-114 0 -217 43t-176 120q-125 131 -125 303t125 304q73 77 176 119.5t217 42.5t217 -42.5t177 -119.5q124 -132 124 -304v-13h-833q-13 0 -13 -13v-228q0 -32 21 -58q43 -53 132.5 -89.5t176.5 -36.5q193 0 331 152z
M300 454h630q14 0 14 13v229q0 31 -21 57q-44 53 -133 90t-175 37t-175 -37t-132 -90q-21 -26 -21 -57v-229q0 -13 13 -13z" />
    <glyph glyph-name="oneeighth" unicode="&#x215b;" 
d="M86 -32l774 1549h114l-774 -1549h-114zM230 733v654l-170 -43v98l298 75v-784h-128zM730 413q-112 76 -112 174q0 88 66.5 142t174.5 54q101 0 162 -46t61 -123q0 -105 -136 -196q168 -85 168 -217q0 -98 -76 -159t-197 -61q-118 0 -191 57t-73 150q0 136 153 225z
M878 456q92 65 92 142q0 100 -122 100q-117 0 -117 -92q0 -69 147 -150zM795 367q-94 -76 -94 -160q0 -62 42 -101.5t108 -39.5q62 0 102 33t40 83q0 70 -126 143z" />
    <glyph glyph-name="threeeighths" unicode="&#x215c;" 
d="M146 -32l774 1549h114l-774 -1549h-114zM795 413q-112 76 -112 174q0 88 66.5 142t174.5 54q101 0 162 -46t61 -123q0 -105 -136 -196q168 -85 168 -217q0 -98 -76 -159t-197 -61q-118 0 -191 57t-73 150q0 136 153 225zM943 456q92 65 92 142q0 100 -122 100
q-117 0 -117 -92q0 -69 147 -150zM860 367q-94 -76 -94 -160q0 -62 42 -101.5t108 -39.5q62 0 102 33t40 83q0 70 -126 143zM50 1388v97q95 32 194 32q243 0 243 -180q0 -135 -164 -191q189 -43 189 -205q0 -105 -74.5 -166t-203.5 -61q-92 0 -194 25v105q111 -43 180 -43
q70 0 114 38.5t44 101.5q0 156 -224 156h-44v80h38q210 0 210 143q0 111 -134 111q-80 0 -174 -43z" />
    <glyph glyph-name="fiveeighths" unicode="&#x215d;" 
d="M146 -32l774 1549h114l-774 -1549h-114zM795 413q-112 76 -112 174q0 88 66.5 142t174.5 54q101 0 162 -46t61 -123q0 -105 -136 -196q168 -85 168 -217q0 -98 -76 -159t-197 -61q-118 0 -191 57t-73 150q0 136 153 225zM943 456q92 65 92 142q0 100 -122 100
q-117 0 -117 -92q0 -69 147 -150zM860 367q-94 -76 -94 -160q0 -62 42 -101.5t108 -39.5q62 0 102 33t40 83q0 70 -126 143zM60 752v101q87 -33 154 -33q153 0 153 154q0 169 -237 169q-27 0 -56 -4v378h412v-105h-311v-183q152 0 239.5 -68.5t87.5 -186.5
q0 -112 -78 -176.5t-214 -64.5q-61 0 -150 19z" />
    <glyph glyph-name="seveneighths" unicode="&#x215e;" 
d="M52 -32l774 1549h114l-774 -1549h-114zM765 413q-112 76 -112 174q0 88 66.5 142t174.5 54q101 0 162 -46t61 -123q0 -105 -136 -196q168 -85 168 -217q0 -98 -76 -159t-197 -61q-118 0 -191 57t-73 150q0 136 153 225zM913 456q92 65 92 142q0 100 -122 100
q-117 0 -117 -92q0 -69 147 -150zM830 367q-94 -76 -94 -160q0 -62 42 -101.5t108 -39.5q62 0 102 33t40 83q0 70 -126 143zM117 752q19 135 163 357l194 298h-404v110h515v-110q-304 -415 -324 -655h-144z" />
    <glyph glyph-name="arrowleft" unicode="&#x2190;" 
d="M1145 543h-793q103 -80 135 -222h-103q-121 201 -300 271v50q178 69 300 271h103q-32 -142 -135 -222h793v-148z" />
    <glyph glyph-name="arrowup" unicode="&#x2191;" 
d="M640 1480q63 -185 271 -296v-102q-133 39 -222 137v-1515h-148v1515q-89 -98 -222 -137v102q208 111 271 296h50z" />
    <glyph glyph-name="arrowright" unicode="&#x2192;" 
d="M84 691h793q-103 80 -135 222h103q122 -202 300 -271v-50q-179 -70 -300 -271h-103q32 142 135 222h-793v148z" />
    <glyph glyph-name="arrowdown" unicode="&#x2193;" 
d="M689 1480v-1515q89 97 222 137v-102q-209 -112 -271 -296h-50q-62 184 -271 296v102q133 -40 222 -137v1515h148z" />
    <glyph glyph-name="arrowboth" unicode="&#x2194;" 
d="M877 518h-525q103 -80 135 -222h-103q-121 201 -300 272v49q178 69 300 271h103q-32 -142 -135 -222h525q-103 80 -135 222h103q122 -202 300 -271v-49q-179 -71 -300 -272h-103q32 142 135 222z" />
    <glyph glyph-name="arrowupdn" unicode="&#x2195;" 
d="M590 -296q-62 184 -271 296v102q133 -40 222 -137v1254q-89 -98 -222 -137v102q208 111 271 296h50q63 -185 271 -296v-102q-133 39 -222 137v-1254q89 97 222 137v-102q-209 -112 -271 -296h-50z" />
    <glyph glyph-name="arrowupdnbse" unicode="&#x21a8;" 
d="M590 -173q-62 184 -271 296v103q132 -40 222 -137v1253q-89 -97 -222 -137v103q209 111 271 296h50q62 -185 271 -296v-103q-133 40 -222 137v-1253q90 97 222 137v-103q-209 -112 -271 -296h-50zM319 -419v148h592v-148h-592z" />
    <glyph glyph-name="partialdiff" unicode="&#x2202;" 
d="M213 1298q147 306 414 306q208 0 323 -182.5t115 -511.5q0 -402 -169.5 -668.5t-425.5 -266.5q-136 0 -218.5 95t-82.5 251q0 262 172.5 480.5t379.5 218.5q84 0 191 -69v30q0 195 -98.5 324.5t-246.5 129.5q-195 0 -354 -137zM912 774q-98 103 -204 103
q-132 0 -242.5 -150.5t-110.5 -330.5q0 -121 49.5 -195t130.5 -74q137 0 244.5 185t132.5 462z" />
    <glyph glyph-name="Delta" unicode="&#x2206;" 
d="M29 0v173l487 1307h196l489 -1307v-173h-1172zM199 173h792l-397 1072z" />
    <glyph glyph-name="product" unicode="&#x220f;" 
d="M370 1357v-1530h99v-123h-407v123h111v1530h-111v123h1106v-123h-111v-1530h111v-123h-408v123h99v1530h-489z" />
    <glyph glyph-name="summation" unicode="&#x2211;" 
d="M1179 -297h-1129v136l628 689l-587 829v123h1042v-360h-123v237h-646l539 -780l-679 -738h831v247h124v-383z" />
    <glyph glyph-name="minus" unicode="&#x2212;" 
d="M99 543v148h1031v-148h-1031z" />
    <glyph glyph-name="uni2215" unicode="&#x2215;" 
d="M155 -37l777 1554h141l-780 -1554h-138z" />
    <glyph glyph-name="uni2219" unicode="&#x2219;" 
d="M614 912q123 0 209 -87q87 -86 87 -208q0 -125 -87 -211q-86 -86 -211 -86q-109 0 -189 70q-105 91 -105 226q0 123 87 209q87 87 209 87z" />
    <glyph glyph-name="radical" unicode="&#x221a;" 
d="M63 324l-63 106l275 163l295 -632l505 1655h154l-582 -1912h-121l-327 700z" />
    <glyph glyph-name="infinity" unicode="&#x221e;" 
d="M607 402q-130 -291 -307 -291q-109 0 -187.5 116.5t-78.5 276.5q0 182 80.5 308t198.5 126q140 0 246 -178l44 -75l22 -39q120 292 304 292q113 0 190 -114.5t77 -280.5q0 -183 -81 -307.5t-199 -124.5q-162 0 -287 246zM527 527l-22 41q-101 187 -198 187
q-125 0 -125 -243q0 -111 35 -183.5t87 -72.5q90 0 223 271zM702 521l18 -35q100 -195 198 -195q58 0 93.5 67t35.5 178q0 115 -34.5 184t-91.5 69q-45 0 -105.5 -74.5t-113.5 -193.5z" />
    <glyph glyph-name="orthogonal" unicode="&#x221f;" 
d="M123 0v1086h148v-938h913v-148h-1061z" />
    <glyph glyph-name="intersection" unicode="&#x2229;" 
d="M232 0h-148v967q0 206 158.5 359.5t371.5 153.5q214 0 372.5 -153.5t158.5 -359.5v-967h-148v967q0 144 -116 254.5t-267 110.5t-266.5 -110.5t-115.5 -254.5v-967z" />
    <glyph glyph-name="integral" unicode="&#x222b;" 
d="M816 1804q-8 1 -12 1q-101 0 -101 -364l9 -464v-333q0 -543 -74.5 -741.5t-247.5 -198.5q-65 0 -110.5 36.5t-45.5 88.5q0 40 29.5 71t66.5 31q88 0 88 -83q0 -7 -4 -23q10 -2 15 -2q97 0 97 336l-3 117l-8 376v333q0 541 75.5 740.5t250.5 199.5q65 0 109 -36t44 -89
q0 -43 -29.5 -74t-69.5 -31q-84 0 -84 83q0 8 5 26z" />
    <glyph glyph-name="approxequal" unicode="&#x2248;" 
d="M84 253q0 146 75.5 237.5t196.5 91.5q94 0 210 -65l147 -82q112 -63 173 -63q115 0 123 177h136q0 -147 -75.5 -238.5t-196.5 -91.5q-95 0 -210 65l-147 82q-112 64 -173 64q-115 0 -123 -177h-136zM84 654q0 146 75.5 238t196.5 92q95 0 210 -65l147 -83
q112 -63 173 -63q115 0 123 177h136q0 -146 -75.5 -238t-196.5 -92q-94 0 -210 66l-147 82q-112 63 -173 63q-115 0 -123 -177h-136z" />
    <glyph glyph-name="notequal" unicode="&#x2260;" 
d="M84 703v148h615l141 198h178l-137 -198h264v-148h-366l-138 -197h504v-148h-609l-139 -198h-181l138 198h-270v148h376l138 197h-514z" />
    <glyph glyph-name="equivalence" unicode="&#x2261;" 
d="M84 197v149h1061v-149h-1061zM84 543v148h1061v-148h-1061zM84 888v148h1061v-148h-1061z" />
    <glyph glyph-name="lessequal" unicode="&#x2264;" 
d="M84 0v148h1061v-148h-1061zM1145 296l-1061 531l1061 530v-165l-730 -365l730 -365v-166z" />
    <glyph glyph-name="greaterequal" unicode="&#x2265;" 
d="M84 0v148h1061v-148h-1061zM84 1357l1061 -530l-1061 -531v166l730 365l-730 365v165z" />
    <glyph glyph-name="house" unicode="&#x2302;" 
d="M1096 0h-962v703l481 481l481 -481v-703zM948 148v495l-333 333l-333 -333v-495h666z" />
    <glyph glyph-name="revlogicalnot" unicode="&#x2310;" 
d="M84 691h1061v-148h-913v-345h-148v493z" />
    <glyph glyph-name="integraltp" unicode="&#x2320;" 
d="M712 -432h-197v1188q0 461 75.5 660.5t250.5 199.5q65 0 109 -36t44 -90q0 -42 -29.5 -73t-69.5 -31q-84 0 -84 83q0 8 5 25q-8 2 -12 2q-101 0 -101 -365l9 -384v-1179z" />
    <glyph glyph-name="integralbt" unicode="&#x2321;" 
d="M515 1935h198v-1507q0 -461 -76 -660.5t-250 -199.5q-65 0 -109 36t-44 90q0 43 29 74t69 31q84 0 84 -84q0 -8 -4 -25q8 -1 12 -1q100 0 100 364l-9 384v1498z" />
    <glyph glyph-name="SF100000" unicode="&#x2500;" 
d="M0 678v148h1229v-148h-1229z" />
    <glyph glyph-name="SF110000" unicode="&#x2502;" 
d="M541 1935h148v-2367h-148v2367z" />
    <glyph glyph-name="SF010000" unicode="&#x250c;" 
d="M541 826h688v-148h-540v-1110h-148v1258z" />
    <glyph glyph-name="SF030000" unicode="&#x2510;" 
d="M0 678v148h689v-1258h-148v1110h-541z" />
    <glyph glyph-name="SF020000" unicode="&#x2514;" 
d="M541 1935h148v-1109h540v-148h-688v1257z" />
    <glyph glyph-name="SF040000" unicode="&#x2518;" 
d="M0 678v148h541v1109h148v-1257h-689z" />
    <glyph glyph-name="SF080000" unicode="&#x251c;" 
d="M541 1935h148v-1109h540v-148h-540v-1110h-148v2367z" />
    <glyph glyph-name="SF090000" unicode="&#x2524;" 
d="M0 678v148h541v1109h148v-2367h-148v1110h-541z" />
    <glyph glyph-name="SF060000" unicode="&#x252c;" 
d="M1229 826v-148h-541v-1110h-148v1110h-540v148h1229z" />
    <glyph glyph-name="SF070000" unicode="&#x2534;" 
d="M0 678v148h541v1109h148v-1109h540v-148h-1229z" />
    <glyph glyph-name="SF050000" unicode="&#x253c;" 
d="M0 678v148h541v1109h148v-1109h540v-148h-540v-1110h-148v1110h-541z" />
    <glyph glyph-name="SF430000" unicode="&#x2550;" 
d="M0 826v148h1229v-148h-1229zM0 530v148h1229v-148h-1229z" />
    <glyph glyph-name="SF240000" unicode="&#x2551;" 
d="M393 -432v2367h148v-2367h-148zM689 -432v2367h148v-2367h-148z" />
    <glyph glyph-name="SF510000" unicode="&#x2552;" 
d="M541 -432v1406h688v-148h-540v-148h540v-148h-540v-962h-148z" />
    <glyph glyph-name="SF520000" unicode="&#x2553;" 
d="M393 -432v1258h836v-148h-392v-1110h-148v1110h-148v-1110h-148z" />
    <glyph glyph-name="SF390000" unicode="&#x2554;" 
d="M1229 974v-148h-688v-1258h-148v1406h836zM1229 530h-392v-962h-148v1110h540v-148z" />
    <glyph glyph-name="SF220000" unicode="&#x2555;" 
d="M0 826v148h689v-1406h-148v962h-541v148h541v148h-541z" />
    <glyph glyph-name="SF210000" unicode="&#x2556;" 
d="M393 -432v1110h-393v148h837v-1258h-148v1110h-148v-1110h-148z" />
    <glyph glyph-name="SF250000" unicode="&#x2557;" 
d="M0 530v148h541v-1110h-148v962h-393zM0 826v148h837v-1406h-148v1258h-689z" />
    <glyph glyph-name="SF500000" unicode="&#x2558;" 
d="M541 1935h148v-961h540v-148h-540v-148h540v-148h-688v1405z" />
    <glyph glyph-name="SF490000" unicode="&#x2559;" 
d="M393 1935h148v-1109h148v1109h148v-1109h392v-148h-836v1257z" />
    <glyph glyph-name="SF380000" unicode="&#x255a;" 
d="M1229 826h-540v1109h148v-961h392v-148zM1229 530h-836v1405h148v-1257h688v-148z" />
    <glyph glyph-name="SF280000" unicode="&#x255b;" 
d="M0 826v148h541v961h148v-1405h-689v148h541v148h-541z" />
    <glyph glyph-name="SF270000" unicode="&#x255c;" 
d="M393 1935h148v-1109h148v1109h148v-1257h-837v148h393v1109z" />
    <glyph glyph-name="SF260000" unicode="&#x255d;" 
d="M0 826v148h393v961h148v-1109h-541zM0 530v148h689v1257h148v-1405h-837z" />
    <glyph glyph-name="SF360000" unicode="&#x255e;" 
d="M541 1935h148v-961h540v-148h-540v-148h540v-148h-540v-962h-148v2367z" />
    <glyph glyph-name="SF370000" unicode="&#x255f;" 
d="M393 -432v2367h148v-2367h-148zM689 -432v2367h148v-1109h392v-148h-392v-1110h-148z" />
    <glyph glyph-name="SF420000" unicode="&#x2560;" 
d="M393 1935h148v-2367h-148v2367zM1229 826h-540v1109h148v-961h392v-148zM1229 530h-392v-962h-148v1110h540v-148z" />
    <glyph glyph-name="SF190000" unicode="&#x2561;" 
d="M0 826v148h541v961h148v-2367h-148v962h-541v148h541v148h-541z" />
    <glyph glyph-name="SF200000" unicode="&#x2562;" 
d="M393 -432v1110h-393v148h393v1109h148v-2367h-148zM689 -432v2367h148v-2367h-148z" />
    <glyph glyph-name="SF230000" unicode="&#x2563;" 
d="M0 530v148h541v-1110h-148v962h-393zM0 826v148h393v961h148v-1109h-541zM689 1935h148v-2367h-148v2367z" />
    <glyph glyph-name="SF470000" unicode="&#x2564;" 
d="M0 826v148h1229v-148h-1229zM0 530v148h1229v-148h-540v-962h-148v962h-541z" />
    <glyph glyph-name="SF480000" unicode="&#x2565;" 
d="M0 678v148h1229v-148h-392v-1110h-148v1110h-148v-1110h-148v1110h-393z" />
    <glyph glyph-name="SF410000" unicode="&#x2566;" 
d="M0 826v148h1229v-148h-1229zM0 530v148h541v-1110h-148v962h-393zM1229 530h-392v-962h-148v1110h540v-148z" />
    <glyph glyph-name="SF450000" unicode="&#x2567;" 
d="M0 826v148h541v961h148v-961h540v-148h-1229zM0 530v148h1229v-148h-1229z" />
    <glyph glyph-name="SF460000" unicode="&#x2568;" 
d="M0 678v148h393v1109h148v-1109h148v1109h148v-1109h392v-148h-1229z" />
    <glyph glyph-name="SF400000" unicode="&#x2569;" 
d="M0 826v148h393v961h148v-1109h-541zM1229 826h-540v1109h148v-961h392v-148zM0 530v148h1229v-148h-1229z" />
    <glyph glyph-name="SF540000" unicode="&#x256a;" 
d="M0 826v148h541v961h148v-961h540v-148h-540v-148h540v-148h-540v-962h-148v962h-541v148h541v148h-541z" />
    <glyph glyph-name="SF530000" unicode="&#x256b;" 
d="M393 -432v1110h-393v148h393v1109h148v-1109h148v1109h148v-1109h392v-148h-392v-1110h-148v1110h-148v-1110h-148z" />
    <glyph glyph-name="SF440000" unicode="&#x256c;" 
d="M0 530v148h541v-1110h-148v962h-393zM0 826v148h393v961h148v-1109h-541zM1229 826h-540v1109h148v-961h392v-148zM1229 530h-392v-962h-148v1110h540v-148z" />
    <glyph glyph-name="upblock" unicode="&#x2580;" 
d="M0 752v1183h1229v-1183h-1229z" />
    <glyph glyph-name="dnblock" unicode="&#x2584;" 
d="M0 752h1229v-1184h-1229v1184z" />
    <glyph glyph-name="block" unicode="&#x2588;" 
d="M0 1935h1229v-2367h-1229v2367z" />
    <glyph glyph-name="lfblock" unicode="&#x258c;" 
d="M0 1935h615v-2367h-615v2367z" />
    <glyph glyph-name="rtblock" unicode="&#x2590;" 
d="M614 1935h615v-2367h-615v2367z" />
    <glyph glyph-name="ltshade" unicode="&#x2591;" 
d="M0 1542v197h206v-197h-206zM205 1147v197h206v-197h-206zM0 753v197h206v-197h-206zM205 357v197h206v-197h-206zM0 -37v197h206v-197h-206zM409 1542v197h206v-197h-206zM614 1147v197h206v-197h-206zM409 753v197h206v-197h-206zM614 357v197h206v-197h-206zM409 -37
v197h206v-197h-206zM818 1542v197h206v-197h-206zM1023 1147v197h206v-197h-206zM818 753v197h206v-197h-206zM1023 357v197h206v-197h-206zM818 -37v197h206v-197h-206zM206 -432v196h205v-196h-205zM614 -432v196h206v-196h-206zM1023 -432v196h206v-196h-206z" />
    <glyph glyph-name="shade" unicode="&#x2592;" 
d="M0 1345v195h204v-195h-204zM0 950v196h204v-196h-204zM0 555v195h204v-195h-204zM0 160v195h204v-195h-204zM0 -236v196h204v-196h-204zM206 1543v195h204v-195h-204zM206 1148v195h204v-195h-204zM206 752v196h204v-196h-204zM206 357v196h204v-196h-204zM206 -38v196
h204v-196h-204zM412 1345v195h204v-195h-204zM412 950v196h204v-196h-204zM412 555v195h204v-195h-204zM412 160v195h204v-195h-204zM412 -236v196h204v-196h-204zM618 1543v195h204v-195h-204zM618 1148v195h204v-195h-204zM618 752v196h204v-196h-204zM618 357v196h204
v-196h-204zM618 -38v196h204v-196h-204zM824 1345v195h204v-195h-204zM824 950v196h204v-196h-204zM824 555v195h204v-195h-204zM824 160v195h204v-195h-204zM824 -236v196h204v-196h-204zM1030 1543v195h199v-195h-199zM1030 1148v195h199v-195h-199zM1030 752v196h199
v-196h-199zM1030 357v196h199v-196h-199zM1030 -38v196h199v-196h-199zM0 1739v196h204v-196h-204zM412 1739v196h204v-196h-204zM824 1739v196h204v-196h-204zM206 -432v195h204v-195h-204zM618 -432v195h204v-195h-204zM1030 -432v195h199v-195h-199z" />
    <glyph glyph-name="dkshade" unicode="&#x2593;" 
d="M206 1542v197h-206v-197h206zM411 1147v197h-206v-197h206zM206 753v197h-206v-197h206zM411 357v197h-206v-197h206zM206 -37v197h-206v-197h206zM615 1542v197h-206v-197h206zM820 1147v197h-206v-197h206zM615 753v197h-206v-197h206zM820 357v197h-206v-197h206z
M615 -37v197h-206v-197h206zM1024 1542v197h-206v-197h206zM1229 1147v197h-206v-197h206zM1024 753v197h-206v-197h206zM1229 357v197h-206v-197h206zM1024 -37v197h-206v-197h206zM411 -432v196h-205v-196h205zM820 -432v196h-206v-196h206zM1229 -432v196h-206v-196h206z
M0 1935h1229v-2367h-1229v2367z" />
    <glyph glyph-name="filledbox" unicode="&#x25a0;" 
d="M72 0v1086h1086v-1086h-1086z" />
    <glyph glyph-name="H22073" unicode="&#x25a1;" 
d="M72 0v1086h1086v-1086h-1086zM171 99h888v888h-888v-888z" />
    <glyph glyph-name="H18543" unicode="&#x25aa;" 
d="M319 296v592h592v-592h-592z" />
    <glyph glyph-name="H18551" unicode="&#x25ab;" 
d="M319 296v592h592v-592h-592zM418 395h394v394h-394v-394z" />
    <glyph glyph-name="filledrect" unicode="&#x25ac;" 
d="M72 625v362h1086v-362h-1086z" />
    <glyph glyph-name="triagup" unicode="&#x25b2;" 
d="M1176 0h-1123l561 1184z" />
    <glyph glyph-name="triagrt" unicode="&#x25ba;" 
d="M54 0v1184l1123 -592z" />
    <glyph glyph-name="triagdn" unicode="&#x25bc;" 
d="M53 1184h1123l-562 -1184z" />
    <glyph glyph-name="triaglf" unicode="&#x25c4;" 
d="M1175 1184v-1184l-1123 592z" />
    <glyph glyph-name="lozenge" unicode="&#x25ca;" 
d="M614 -25l-567 568l568 567l567 -567zM615 185l358 358l-358 358l-359 -358z" />
    <glyph glyph-name="circle" unicode="&#x25cb;" 
d="M608 -12q-225 0 -386.5 163.5t-161.5 391.5q0 230 162.5 392.5t392.5 162.5t392.5 -162.5t162.5 -391.5q0 -233 -163 -394.5t-399 -161.5zM610 111q183 0 310 125.5t127 307.5q0 178 -126.5 304.5t-305.5 126.5t-305.5 -126.5t-126.5 -305.5q0 -178 126 -305t301 -127z
" />
    <glyph glyph-name="H18533" unicode="&#x25cf;" 
d="M608 -12q-225 0 -386.5 163.5t-161.5 391.5q0 230 162.5 392.5t392.5 162.5t392.5 -162.5t162.5 -391.5q0 -233 -163 -394.5t-399 -161.5z" />
    <glyph glyph-name="invbullet" unicode="&#x25d8;" 
d="M1229 -432h-1229v2367h1229v-2367zM608 308q188 0 319.5 128.5t131.5 312.5q0 186 -129.5 316.5t-314.5 130.5q-184 0 -314 -130t-130 -314q0 -181 129 -312.5t308 -131.5z" />
    <glyph glyph-name="invcircle" unicode="&#x25d9;" 
d="M0 1935h1229v-2367h-1229v2367zM608 197q236 0 399 161t163 395q0 229 -163 391.5t-392 162.5q-230 0 -392.5 -162.5t-162.5 -392.5q0 -228 161.5 -391.5t386.5 -163.5zM609 320q-174 0 -300 127.5t-126 304.5q0 179 126.5 305.5t305.5 126.5q178 0 305 -126.5
t127 -304.5q0 -182 -127 -307.5t-311 -125.5z" />
    <glyph glyph-name="openbullet" unicode="&#x25e6;" 
d="M608 222q-179 0 -308 131.5t-129 312.5q0 184 130 314t314 130q185 0 314.5 -130.5t129.5 -316.5q0 -184 -131.5 -312.5t-319.5 -128.5zM610 345q135 0 230.5 93t95.5 226q0 134 -93.5 228.5t-227.5 94.5q-133 0 -227 -94t-94 -227q0 -131 93.5 -226t222.5 -95z" />
    <glyph glyph-name="smileface" unicode="&#x263a;" 
d="M608 -12q-225 0 -386.5 163.5t-161.5 391.5q0 230 162.5 392.5t392.5 162.5t392.5 -162.5t162.5 -391.5q0 -233 -163 -394.5t-399 -161.5zM610 93q191 0 323 131t132 320q0 185 -132 316.5t-318 131.5t-317.5 -131.5t-131.5 -317.5q0 -185 130.5 -317.5t313.5 -132.5z
M272 512h79q52 -216 264 -216t264 216h80q-22 -152 -115 -241t-229 -89t-229 89.5t-114 240.5zM438 631q-87 0 -87 88t88 88t88 -88t-89 -88zM790 631q-87 0 -87 88t88 88t88 -88t-89 -88z" />
    <glyph glyph-name="invsmileface" unicode="&#x263b;" 
d="M608 -12q-225 0 -387 163.5t-162 391.5q0 230 162.5 392.5t392.5 162.5t393 -162.5t163 -391.5q0 -233 -163.5 -394.5t-398.5 -161.5zM271 512q21 -151 114.5 -240.5t228.5 -89.5q136 0 229 89t115 241h-79q-52 -216 -265 -216q-212 0 -264 216h-79zM437 631q89 0 89 88
t-88 88t-88 -88t87 -88zM790 631q89 0 89 88t-88 88q-89 0 -89 -88t88 -88z" />
    <glyph glyph-name="sun" unicode="&#x263c;" 
d="M612 432q105 0 177.5 72t72.5 175q0 102 -72.5 174.5t-174.5 72.5t-174.5 -72.5t-72.5 -174.5q0 -101 72 -174t172 -73zM541 123v168q-81 18 -148 61l-119 -118l-104 104l118 118q-44 70 -61 149h-168v148h168q16 76 61 148l-118 118l104 105l119 -119q67 43 148 62v167
h148v-167q81 -19 148 -62l118 119l105 -105l-118 -118q45 -72 61 -148h167v-148h-167q-17 -79 -61 -149l118 -118l-105 -104l-119 118q-66 -43 -147 -61v-168h-148z" />
    <glyph glyph-name="female" unicode="&#x2640;" 
d="M540 0v197h-246v148h246v156q-180 25 -299.5 164t-119.5 324q0 203 144.5 347t348.5 144q205 0 349.5 -144t144.5 -347q0 -185 -120 -324t-300 -164v-156h247v-148h-247v-197h-148zM610 642q146 0 248 102t102 248q0 140 -101.5 240t-244.5 100q-142 0 -243.5 -100
t-101.5 -241q0 -143 101 -246t240 -103z" />
    <glyph glyph-name="male" unicode="&#x2642;" 
d="M874 1303l-271 -76l-41 145l521 145l146 -525l-143 -40l-79 285l-206 -353q187 -165 187 -388q0 -206 -145.5 -351t-352.5 -145q-202 0 -345.5 145t-143.5 349q0 207 146.5 350t358.5 143q75 0 169 -29zM149 501q0 -148 101 -250.5t247 -102.5q141 0 242 101.5t101 243.5
q0 145 -100.5 245.5t-246.5 100.5q-140 0 -242 -100t-102 -238z" />
    <glyph glyph-name="spade" unicode="&#x2660;" 
d="M466 0l105 530q-139 -185 -286 -185q-109 0 -186 81t-77 195q0 137 147 299l60 64l65 69q144 153 288 378l32 49l32 -49q145 -225 289 -378l64 -69l61 -64q147 -162 147 -300q0 -114 -77.5 -194.5t-186.5 -80.5q-147 0 -286 185l105 -530h-296z" />
    <glyph glyph-name="club" unicode="&#x2663;" 
d="M467 0l99 592q-119 -185 -264 -185q-118 0 -198.5 82.5t-80.5 202.5q0 115 73.5 192.5t182.5 77.5q84 0 188 -55q-136 133 -136 281q0 123 82.5 207.5t201.5 84.5q120 0 202 -84.5t82 -207.5q0 -148 -136 -281q104 55 188 55q109 0 182.5 -77.5t73.5 -192.5
q0 -120 -80.5 -202.5t-198.5 -82.5q-145 0 -263 185l98 -592h-296z" />
    <glyph glyph-name="heart" unicode="&#x2665;" 
d="M614 0q-245 189 -418.5 494.5t-173.5 546.5q0 197 81.5 318t214.5 121q195 0 296 -234q102 234 296 234q133 0 215 -121t82 -318q0 -241 -174.5 -547t-418.5 -494z" />
    <glyph glyph-name="diamond" unicode="&#x2666;" 
d="M1207 740q-216 -213 -322 -345.5t-270 -394.5q-164 263 -269 394.5t-323 345.5q209 199 325 343.5t267 396.5q151 -251 267 -396t325 -344z" />
    <glyph glyph-name="musicalnote" unicode="&#x266a;" 
d="M497 301v1179h99v-26q0 -131 217 -297l70 -53q217 -165 217 -305q0 -104 -107 -239l-69 52q62 84 62 145t-88 139l-74 67q-22 19 -74 56q-90 65 -154 130v-723q0 -257 -99 -360t-242 -103q-73 0 -120 38t-47 98q0 90 87 157.5t204 67.5q60 0 118 -23z" />
    <glyph glyph-name="musicalnotedbl" unicode="&#x266b;" 
d="M527 996v-826q0 -229 -84.5 -347.5t-247.5 -118.5q-172 0 -172 140q0 92 86 158.5t204 66.5q64 0 115 -24v1127l716 345v-1009q0 -150 -19 -222.5t-75 -131.5q-98 -105 -237 -105q-170 0 -170 135q0 91 86 156t209 65q51 0 107 -22v863z" />
    <glyph glyph-name="gopher" unicode="&#xf800;" 
d="M380 628q28 0 58 11t53 31q53 47 53 125q0 40 -14.5 73t-43.5 54q-26 20 -55.5 26t-52.5 6q-32 0 -62 -12.5t-53 -37.5t-36.5 -56.5t-13.5 -63.5q0 -17 5.5 -45t27.5 -55q19 -26 52 -40q38 -16 82 -16zM311 840q23 0 36 -14.5t13 -31.5q0 -20 -14.5 -33.5t-34.5 -13.5
q-25 0 -39 12.5t-14 31.5q0 20 13.5 34.5t39.5 14.5zM298 809q0 -7 4.5 -11t9.5 -4q6 0 10.5 4.5t4.5 10.5q0 3 -2.5 8t-10.5 5q-4 0 -10 -3.5t-6 -9.5zM849 643q33 0 62.5 12.5t52.5 34.5q22 22 33.5 50.5t11.5 59.5q0 35 -14.5 64.5t-43.5 51.5q-22 17 -49 27.5t-56 10.5
q-42 0 -69 -14.5t-43 -31.5q-20 -20 -32.5 -50t-12.5 -64q0 -51 36 -96q16 -20 47 -37.5t77 -17.5zM1021 411q0 12 -6 22t-34 10q-20 0 -44 -12t-46 -29.5t-36.5 -38t-14.5 -37.5q0 -20 13.5 -30t23.5 -10q14 0 19.5 5t8.5 12.5t6.5 16t13.5 16.5q24 18 42 27.5t30 16.5
t18 13.5t6 17.5zM621 652q26 0 38.5 9t12.5 23q0 16 -11.5 24.5t-39.5 8.5q-27 0 -41 -7.5t-14 -26.5q0 -5 1.5 -10.5t7 -10t16.5 -7.5t30 -3zM919 840q23 0 36 -14t13 -31q0 -20 -14.5 -33.5t-34.5 -13.5q-26 0 -39 12.5t-13 31.5t13 33.5t39 14.5zM907 809q0 -15 13 -15
q6 0 10.5 5t4.5 10q0 3 -2.5 8t-11.5 5q-4 0 -9 -3t-5 -10zM355 294q14 0 23 10t9 27q0 18 -9.5 27t-26 16.5t-38 17.5t-45.5 28q-3 2 -7 7t-9 10t-12 9t-14 4q-16 0 -29 -11.5t-13 -33.5q0 -17 12 -30.5t28.5 -24t33 -16t25.5 -5.5q12 0 19 -5.5t14 -12t15.5 -12t23.5 -5.5
zM618 1109q111 0 193.5 -22t139.5 -79q33 15 54 29t36 25.5t29 18.5t34 7q23 0 33.5 -11t10.5 -28q0 -18 -5.5 -37t-19 -38t-36 -37.5t-57.5 -35.5q18 -37 27.5 -77.5t14 -85t5.5 -93t1 -99.5q0 -113 -5 -197.5t-19 -146t-38 -102t-61 -65.5q16 -29 29.5 -63.5t13.5 -64.5
q0 -22 -8.5 -33t-32.5 -11q-34 0 -60 18.5t-36 54.5q-1 3 -3 10t-4.5 16l-5 18t-3.5 16q-32 -6 -69 -8.5t-81 -2.5q-36 0 -59 -1.5t-43 -4t-42 -4t-56 -1.5q-29 0 -54 3q-8 -19 -19.5 -40t-25.5 -38.5t-29.5 -29t-31.5 -11.5q-52 0 -52 53q0 26 9 51t15 51
q-64 33 -100.5 86.5t-55 118t-23 135t-4.5 135.5q0 106 12.5 205.5t49.5 178.5q-18 19 -37 39t-34 40.5t-24.5 41t-9.5 40.5q0 24 11.5 39.5t38.5 15.5q16 0 27 -9.5t24.5 -22.5t32 -26.5t50.5 -22.5q57 54 143.5 78t209.5 24zM688 560q16 0 23.5 7.5t7.5 18.5
q0 18 -10 31.5t-28 30.5q-5 -4 -25.5 -8.5t-39.5 -4.5q-15 0 -33 5t-24 10q-13 -10 -26 -27.5t-13 -36.5q0 -14 9.5 -20.5t22.5 -6.5q18 0 32.5 8t31.5 9q17 0 37 -8t35 -8zM699 541q-9 -2 -27.5 0t-41.5 13q0 -18 0.5 -35.5t2.5 -31.5t7 -23t14 -9h27q7 0 10.5 7.5t5 20
t2 28t0.5 30.5zM614 558q-14 -9 -31.5 -12.5t-37.5 -5.5q0 -36 4 -60.5t18 -23.5l33 1q5 0 7.5 10t4 25t2 33t0.5 33z" />
    <glyph glyph-name="uniFB01" unicode="&#xfb01;" 
d="M69 0v123h123v815h-117v135h117v174q0 163 86 260q87 97 230 97q94 0 215 -49v-210h-123l-25 123q-36 19 -65 19q-120 0 -120 -186v-228h654v-950h123v-123h-419v123h98v815h-456v-815h111v-123h-432zM846 1345v197h198v-197h-198z" />
    <glyph glyph-name="uniFB02" unicode="&#xfb02;" 
d="M1217 0q-21 -6 -49 -9q-104 -13 -161 7t-93.5 66.5t-52 119.5t-15.5 175v1091q-135 37 -249 37q-117 0 -163 -40q-44 -40 -44 -146v-240h296v-136h-296v-802h111v-123h-432v123h123v802h-117v136h117v186q0 357 396 357q86 0 196 -16l62 -9h197v-1190q1 -69 7 -116
q7 -59 27.5 -92t58.5 -45.5t81 -12.5v-123z" />
    <glyph glyph-name="uniFFFD" unicode="&#xfffd;" 
d="M0 784l615 820l614 -820l-614 -820zM700 178v177h-170v-177h170zM695 495v51q0 65 19 113q17 47 73 113l22 26q101 116 101 211q0 117 -78 174q-75 56 -211 56q-89 0 -235 -46v-249h108l13 143q45 31 94 31q57 0 93 -24q43 -33 43 -104q0 -73 -63 -168l-21 -28
q-71 -87 -94 -145q-24 -58 -24 -126v-28h160z" />
    <glyph glyph-name="zero.dot" 
d="M614 1517q240 0 379 -208q139 -207 139 -568q0 -365 -139 -571q-139 -207 -387 -207q-211 0 -343 169q-167 214 -167 609q0 361 139 568q139 208 379 208zM614 1394q-147 0 -226 -170q-79 -171 -79 -483q0 -310 79 -483q78 -172 225 -172q307 0 307 655q0 316 -79 484
q-80 169 -227 169zM492 621v247h245v-247h-245z" />
    <glyph glyph-name="zero.empty" 
d="M614 1517q240 0 379 -208q139 -207 139 -568q0 -365 -139 -571q-139 -207 -387 -207q-211 0 -343 169q-167 214 -167 609q0 361 139 568q139 208 379 208zM614 1394q-147 0 -226 -170q-79 -171 -79 -483q0 -310 79 -483q78 -172 225 -172q307 0 307 655q0 316 -79 484
q-80 169 -227 169z" />
  </font>
</defs>
</svg>
