<?xml version="1.0" standalone="no"?>
<!DOCTYPE svg PUBLIC "-//W3C//DTD SVG 1.1//EN" "http://www.w3.org/Graphics/SVG/1.1/DTD/svg11.dtd" >
<svg xmlns="http://www.w3.org/2000/svg" xmlns:xlink="http://www.w3.org/1999/xlink" version="1.1">
<metadata>
Created by FontForge 20170731 at Fri Mar 24 01:46:05 2017
 By Aleksey,,,
Copyright (c) 2016 by Bigelow &#38; Holmes Inc.. All rights reserved.
</metadata>
<defs>
<font id="GoMono-BoldItalic" horiz-adv-x="1229" >
  <font-face 
    font-family="Go Mono"
    font-weight="600"
    font-style="italic"
    font-stretch="normal"
    units-per-em="2048"
    panose-1="2 6 7 9 5 0 0 0 0 0"
    ascent="1638"
    descent="-410"
    x-height="1086"
    cap-height="1480"
    bbox="-84 -432 1564 2196"
    underline-thickness="100"
    underline-position="-425"
    slope="-11"
    unicode-range="U+000D-FFFD"
  />
<missing-glyph 
d="M123 0v1480h983v-1480h-983zM983 123v1234h-737v-1234h737z" />
    <glyph glyph-name=".notdef" 
d="M123 0v1480h983v-1480h-983zM983 123v1234h-737v-1234h737z" />
    <glyph glyph-name="uni0000" 
 />
    <glyph glyph-name="uni0000" 
 />
    <glyph glyph-name="uni000D" unicode="&#xd;" 
 />
    <glyph glyph-name="space" unicode=" " 
 />
    <glyph glyph-name="exclam" unicode="!" 
d="M466 0l51 257h296l-51 -257h-296zM618 454l74 730l59 296h316l-59 -296l-220 -730h-170z" />
    <glyph glyph-name="quotedbl" unicode="&#x22;" 
d="M430 952l75 627h296l-174 -627h-197zM983 952l75 627h296l-174 -627h-197z" />
    <glyph glyph-name="numbersign" unicode="#" 
d="M142 0l196 432h-203l69 173h212l122 271h-226l70 173h233l197 431h178l-194 -431h207l193 431h179l-196 -431h210l-67 -173h-218l-124 -271h233l-70 -173h-241l-195 -432h-180l197 432h-208l-196 -432h-178zM595 605h206l123 271h-206z" />
    <glyph glyph-name="dollar" unicode="$" 
d="M674 178q97 0 151 66q34 44 47 107q23 115 -118 225zM120 56l65 326h173l-6 -149q78 -38 162 -55l102 509q-6 5 -19 16l-10 9q-82 70 -136 132q-108 128 -80 272q35 175 200 279q115 72 282 85l40 198h170l-40 -198q137 -17 254 -50l-59 -295h-172l6 152q-29 13 -64 16
l-94 -468q155 -120 211 -204q65 -97 39 -230q-33 -162 -151 -264q-63 -54 -139.5 -84.5t-204.5 -52.5l-40 -196h-170l40 196q-206 20 -359 56zM828 1303q-164 0 -196 -157q-21 -107 123 -210z" />
    <glyph glyph-name="percent" unicode="%" 
d="M38 -37l1293 1554h157l-1294 -1554h-156zM1055 740q141 0 212 -102t39 -262q-33 -165 -144 -270q-111 -106 -254 -106q-141 0 -211 103q-70 102 -37 266q29 146 122 246q117 125 273 125zM1021 568q-89 0 -128 -197q-40 -198 50 -198q89 0 127 189q41 206 -49 206z
M615 1480q141 0 212 -102q71 -101 38 -262q-32 -165 -143 -270q-112 -106 -254 -106q-141 0 -210 103q-70 102 -37 266q29 146 122 246q117 125 272 125zM582 1308q-89 0 -129 -197q-39 -198 50 -198t127 191q41 204 -48 204z" />
    <glyph glyph-name="ampersand" unicode="&#x26;" 
d="M871 0l-44 87q-157 -124 -352 -124q-197 0 -293 122t-56 322q42 209 187 343q85 80 233 149q-61 202 -38 318q25 129 133 214q108 86 245 86q134 0 201 -89q67 -90 40 -225q-25 -127 -141 -236q-69 -65 -194 -138q59 -226 157 -448q83 117 95 178l2 10h-73l34 169h349
l-34 -169h-107q-25 -127 -201 -325l42 -71h125l-34 -173h-276zM756 218q-120 291 -176 527q-168 -86 -204 -266q-26 -132 35 -227q76 -76 191 -76q86 0 154 42zM760 981q132 124 155 240q25 124 -71 124q-97 0 -119 -112q-14 -71 29 -225q1 -9 6 -27z" />
    <glyph glyph-name="quotesingle" unicode="'" 
d="M701 930l56 649h345l-204 -649h-197z" />
    <glyph glyph-name="parenleft" unicode="(" 
d="M972 -296q-229 5 -396 129q-363 268 -256 807q93 461 472 746q152 113 317 160q102 29 238 33l-35 -173q-239 -43 -406 -205q-220 -215 -290 -563q-72 -361 83 -581q103 -146 308 -180z" />
    <glyph glyph-name="parenright" unicode=")" 
d="M512 1579q229 -5 396 -129q364 -268 256 -807q-92 -461 -472 -746q-152 -113 -317 -160q-102 -29 -238 -33l35 173q240 43 406 205q221 215 290 562q73 362 -83 582q-102 146 -308 180z" />
    <glyph glyph-name="asterisk" unicode="*" 
d="M751 975l-34 370h330l-182 -370q-31 14 -54 14q-21 0 -60 -14zM905 941l362 218l39 -314l-388 -12q10 37 8 59q-2 20 -21 49zM642 833l-384 12l165 314l276 -218q-30 -28 -41 -49q-11 -20 -16 -59zM728 712l-204 -363l-228 194l353 236q13 -32 28 -45t51 -22zM890 779
l257 -236l-306 -194l-56 364q38 8 58 21q20 12 47 45z" />
    <glyph glyph-name="plus" unicode="+" 
d="M543 138l83 417h-417l40 198h417l83 417h198l-83 -417h417l-40 -198h-417l-83 -417h-198z" />
    <glyph glyph-name="comma" unicode="," 
d="M432 0l72 365h365l-60 -303q-56 -281 -145 -369q-87 -88 -291 -88h-20l24 123h14q95 0 128 65q27 51 59 207h-146z" />
    <glyph glyph-name="hyphen" unicode="-" 
d="M209 554l40 200h1031l-40 -200h-1031z" />
    <glyph glyph-name="period" unicode="." 
d="M432 0l72 365h365l-72 -365h-365z" />
    <glyph glyph-name="slash" unicode="/" 
d="M-59 -296l1373 1875h230l-1374 -1875h-229z" />
    <glyph glyph-name="zero" unicode="0" 
d="M917 1517q250 0 348 -203t24 -574q-74 -372 -253 -574q-180 -203 -430 -203q-227 0 -328 166q-125 208 -45 611q74 370 254 573q180 204 430 204zM641 136q228 0 348 604q16 80 25 145l-522 -455q-20 -294 149 -294zM882 1344q-228 0 -349 -604q-14 -70 -24 -136l522 455
q20 285 -149 285z" />
    <glyph glyph-name="one" unicode="1" 
d="M147 0l34 173h363l208 1040l-392 -145l37 185l712 264l-269 -1344h363l-34 -173h-1022z" />
    <glyph glyph-name="two" unicode="2" 
d="M168 0l41 210q101 136 266 287l273 252q232 207 264 371q45 225 -192 225q-96 0 -193 -43l-60 -192h-173l67 333q230 75 422 75q229 0 334 -108q107 -107 68 -300q-27 -138 -115 -234q-73 -78 -222 -193l-139 -108q-215 -168 -297 -328h597l-49 -247h-892z" />
    <glyph glyph-name="three" unicode="3" 
d="M142 15l63 312h194l-7 -158q99 -32 167 -32q108 0 206 67q79 66 102 177q28 142 -59 226q-107 84 -283 84h-105l34 173h104q369 0 422 263q43 218 -169 218q-87 0 -178 -28l-83 -197h-174l67 335q241 62 427 62q221 0 334 -98q114 -98 83 -257q-32 -161 -184 -261
q-94 -61 -254 -106q163 -30 251 -120q117 -119 84 -282q-39 -193 -225 -311q-185 -119 -446 -119q-141 0 -371 52z" />
    <glyph glyph-name="four" unicode="4" 
d="M158 417l38 190l806 892h270l-178 -892h173l-38 -190h-173l-49 -244h148l-34 -173h-691l34 173h283l49 244h-638zM834 607l119 595l-537 -595h418z" />
    <glyph glyph-name="five" unicode="5" 
d="M201 19l64 321h173l-7 -168q62 -36 142 -36q116 0 190 69q75 69 104 215q64 319 -377 319q-49 0 -113 -7l149 748h843l-49 -246h-668l-64 -320q298 0 458 -84q193 -129 139 -395q-41 -206 -227 -339q-187 -133 -429 -133q-137 0 -328 56z" />
    <glyph glyph-name="six" unicode="6" 
d="M1364 1473l-63 -313h-173l7 158q-73 27 -131 27q-162 0 -286 -174q-93 -131 -127 -312l-13 -79q77 96 142 134q98 55 209 55q180 0 268 -135q89 -135 47 -347q-98 -488 -599 -524q-538 37 -401 726q75 372 292 600t503 228q136 0 325 -44zM799 759q-210 0 -270 -300
q-30 -153 4 -238q33 -86 143 -86q208 0 271 314q62 310 -148 310z" />
    <glyph glyph-name="seven" unicode="7" 
d="M194 0q32 160 150 343q115 179 402 510l329 381h-699l49 246h970l-39 -197l-211 -229q-505 -550 -633 -1054h-318z" />
    <glyph glyph-name="eight" unicode="8" 
d="M552 798q-102 84 -134 142q-36 67 -13 182q35 176 182 286q147 109 349 109q193 0 289 -92q98 -93 68 -242q-22 -110 -128 -218q-63 -65 -159 -153q141 -94 176 -173q63 -95 36 -233q-37 -182 -214 -313q-176 -130 -403 -130q-228 0 -349 111t-85 289q30 148 163 275
q80 76 222 160zM854 903q141 138 162 247q39 195 -134 195q-163 0 -195 -162q-21 -105 88 -205zM660 701q-160 -145 -190 -295q-24 -120 31 -195t167 -75q92 0 168 61t93 148q16 77 -26 134q-32 45 -108 111z" />
    <glyph glyph-name="nine" unicode="9" 
d="M160 7l62 313h173l-6 -158q72 -27 130 -27q162 0 286 174q93 131 128 312l12 79q-76 -96 -141 -134q-98 -55 -209 -55q-180 0 -268 135q-89 135 -47 347q97 488 599 524q538 -37 401 -726q-75 -372 -292 -600t-503 -228q-136 0 -325 44zM725 721q210 0 270 300
q30 153 -4 238q-34 86 -144 86q-208 0 -270 -314q-62 -310 148 -310z" />
    <glyph glyph-name="colon" unicode=":" 
d="M432 0l72 365h365l-72 -365h-365zM584 764l73 366h365l-73 -366h-365z" />
    <glyph glyph-name="semicolon" unicode=";" 
d="M584 764l73 366h365l-73 -366h-365zM432 0l72 365h365l-60 -303q-56 -281 -145 -369q-87 -88 -291 -88h-20l24 123h14q95 0 128 65q27 51 59 207h-146z" />
    <glyph glyph-name="less" unicode="&#x3c;" 
d="M1382 1265l-44 -222l-733 -389l576 -397l-45 -226l-907 623z" />
    <glyph glyph-name="equal" unicode="=" 
d="M167 342l40 201h1031l-40 -201h-1031zM251 765l40 200h1031l-40 -200h-1031z" />
    <glyph glyph-name="greater" unicode="&#x3e;" 
d="M107 43l44 222l732 389l-574 397l45 226l906 -623z" />
    <glyph glyph-name="question" unicode="?" 
d="M377 0l51 257h296l-51 -257h-296zM467 454l8 39q20 98 80 181t222 208l70 54q156 121 176 225q21 102 -52 148q-58 36 -164 36q-90 0 -210 -45l-60 -177h-173l66 329q285 65 450 65q251 0 375 -80q127 -81 94 -248q-27 -137 -181 -240l-82 -55l-69 -49
q-126 -90 -172 -158q-49 -68 -68 -162l-14 -71h-296z" />
    <glyph glyph-name="at" unicode="@" 
d="M958 6q-145 -43 -263 -43q-299 0 -437 210q-139 210 -69 560t294 567q226 218 521 218q225 0 306 -106q81 -105 33 -343l-120 -600h86l-34 -173h-259l61 309h-12q-115 -188 -179 -251q-77 -75 -181 -75q-117 0 -170 104q-52 103 -19 270q44 222 196 371q152 150 330 150
q51 0 139 -20q-2 104 -56 152q-58 51 -174 51q-200 0 -366 -175t-220 -442q-55 -278 43 -448q97 -169 313 -169q114 0 273 63zM1134 887l25 124q-71 24 -131 24q-238 0 -308 -350q-46 -230 54 -230q119 0 360 432z" />
    <glyph glyph-name="A" unicode="A" 
d="M25 0l34 173h62l635 1307h307l114 -1307h61l-34 -173h-491l34 173h135l-20 234h-448l-114 -234h136l-34 -173h-377zM497 580h350l-53 609h-2z" />
    <glyph glyph-name="B" unicode="B" 
d="M42 0l34 173h98l227 1135h-98l34 172h550q275 0 376 -75q102 -75 68 -245q-31 -157 -168 -264q-83 -64 -239 -121q167 -38 244 -124q98 -109 66 -266q-76 -385 -602 -385h-590zM454 173h80q191 0 274.5 49t110.5 186q54 271 -314 271h-50zM590 851h45q150 0 249.5 74.5
t124.5 197.5q23 118 -50 154q-62 31 -226 31h-52z" />
    <glyph glyph-name="C" unicode="C" 
d="M1234 261l-44 -216q-218 -82 -426 -82q-330 0 -484 208q-156 208 -86 559q71 352 307 569q236 218 553 218q183 0 386 -66l-85 -427h-173l26 257q-75 64 -177 64q-178 0 -317 -161q-140 -160 -193 -426q-57 -284 31 -442q87 -158 300 -158q155 0 382 103z" />
    <glyph glyph-name="D" unicode="D" 
d="M37 0l34 173h99l227 1135h-99l34 172h440q341 0 486 -182q144 -182 76 -527q-74 -368 -306 -569q-232 -202 -586 -202h-405zM466 173h46q381 0 497 581q50 251 -1 389q-59 159 -271 164l-44 1z" />
    <glyph glyph-name="E" unicode="E" 
d="M37 0l34 173h148l227 1135h-148l34 172h1073l-74 -370h-185l40 198h-444l-96 -481h235l24 123h172l-84 -420h-172l25 124h-235l-94 -469h506l45 222h185l-81 -407h-1135z" />
    <glyph glyph-name="F" unicode="F" 
d="M37 0l34 173h148l227 1135h-148l34 172h1123l-74 -370h-185l40 198h-494l-106 -531h284l25 124h173l-84 -420h-173l24 124h-284l-84 -420h198l-36 -185h-642z" />
    <glyph glyph-name="G" unicode="G" 
d="M1307 695l-129 -645q-217 -87 -438 -87q-314 0 -463 213q-151 212 -83 554q71 352 307 569q236 218 552 218q173 0 374 -66l-85 -427h-173l27 257q-75 64 -173 64q-172 0 -311 -163q-140 -163 -192 -425q-53 -266 26 -432q80 -166 260 -166q38 0 100 10l71 353h-185
l34 173h481z" />
    <glyph glyph-name="H" unicode="H" 
d="M41 0l34 173h100l227 1135h-100l34 172h470l-34 -172h-90l-92 -462h387l92 462h-90l34 172h470l-34 -172h-100l-227 -1135h100l-34 -173h-470l34 173h90l100 498h-387l-100 -498h90l-34 -173h-470z" />
    <glyph glyph-name="I" unicode="I" 
d="M123 0l34 173h343l227 1135h-343l34 172h982l-34 -172h-343l-227 -1135h343l-34 -173h-982z" />
    <glyph glyph-name="J" unicode="J" 
d="M117 31l97 487h172l-39 -319q85 -61 158 -61q103 0 150 72q39 60 66 193l181 905h-321l34 172h864l-34 -172h-247l-185 -925q-84 -420 -521 -420q-126 0 -302 48z" />
    <glyph glyph-name="K" unicode="K" 
d="M38 0l34 173h98l227 1135h-98l34 172h483l-34 -172h-105l-106 -531h40l543 531h-100l34 172h431l-34 -172h-115l-502 -489l354 -646h41l-34 -173h-467l34 173h100l-297 543h-40l-109 -543h105l-34 -173h-483z" />
    <glyph glyph-name="L" unicode="L" 
d="M49 0l34 173h197l227 1135h-197l34 172h691l-34 -172h-197l-225 -1123h476l62 308h160l-98 -493h-1130z" />
    <glyph glyph-name="M" unicode="M" 
d="M14 0l34 173h70l227 1135h-70l34 172h360l43 -981l440 981h357l-34 -172h-68l-227 -1135h68l-34 -173h-402l34 173h100l189 944h-6l-418 -932h-178l-48 869h-6l-176 -881h100l-34 -173h-355z" />
    <glyph glyph-name="N" unicode="N" 
d="M37 0l34 173h99l227 1135h-99l34 172h296l389 -999l165 827h-148l34 172h444l-34 -172h-99l-261 -1308h-197l-390 993l-164 -820h148l-34 -173h-444z" />
    <glyph glyph-name="O" unicode="O" 
d="M917 1517q272 0 377 -201q107 -200 32 -576q-81 -408 -277 -592.5t-443 -184.5t-356 164q-135 205 -54 613q75 375 261 576q188 201 460 201zM882 1345q-257 0 -378 -605q-120 -604 137 -604t377 604q121 605 -136 605z" />
    <glyph glyph-name="P" unicode="P" 
d="M37 0l34 173h198l227 1135h-198l34 172h634q278 0 382 -94q107 -94 65 -302q-48 -240 -237 -378q-190 -138 -471 -138h-61l-79 -395h296l-34 -173h-790zM678 740h37q314 0 375 303q30 149 -22 207q-51 58 -214 58h-62z" />
    <glyph glyph-name="Q" unicode="Q" 
d="M856 9q180 -79 351 -90q-103 -160 -241 -285q-189 87 -308 328h-17q-600 0 -445 775q75 378 261 579q187 201 460 201t378 -201q106 -201 31 -580q-65 -323 -200 -500q-101 -131 -270 -227zM882 1345q-257 0 -377 -601q-121 -608 143 -608q250 0 372 610
q119 599 -138 599z" />
    <glyph glyph-name="R" unicode="R" 
d="M40 0l34 173h100l227 1135h-100l34 172h539q182 0 255 -20q75 -21 124 -84q73 -95 42 -253q-32 -160 -163 -282q-78 -73 -213 -145l257 -523h75l-34 -173h-312l-309 617h-45l-89 -444h177l-34 -173h-565zM585 790h53q122 0 212 79t119 225q28 141 -35 180q-49 34 -184 34
h-61z" />
    <glyph glyph-name="S" unicode="S" 
d="M123 56l76 384h172l-17 -211q147 -93 267 -93q125 0 195 64q55 49 71 130q23 113 -103 199q-17 11 -32 22l-16 10l-11 8l-119 84q-171 121 -223 214q-53 92 -25 229q39 196 192 309q154 113 379 113q174 0 396 -73l-75 -376h-173l19 217q-100 59 -200 59q-84 0 -145 -52
q-62 -53 -78 -134q-15 -77 33 -130q41 -44 136 -110l127 -88q176 -123 218 -195q43 -74 16 -206q-44 -220 -219 -343q-177 -124 -434 -124q-167 0 -427 93z" />
    <glyph glyph-name="T" unicode="T" 
d="M244 0l34 173h223l227 1135h-235l-44 -222h-185l78 394h1135l-78 -394h-185l44 222h-234l-227 -1135h222l-34 -173h-741z" />
    <glyph glyph-name="U" unicode="U" 
d="M282 1308l34 172h494l-34 -172h-99l-148 -742q-49 -245 -11 -337q41 -92 190 -92t213 99q54 84 92 272l160 800h-98l34 172h394l-34 -172h-98l-153 -765q-41 -207 -91 -306q-50 -100 -148 -171q-143 -103 -356 -103q-288 0 -390 171q-34 58 -38 133q-5 88 23 228l163 813
h-99z" />
    <glyph glyph-name="V" unicode="V" 
d="M446 0l-115 1308h-58l34 172h486l-34 -172h-128l90 -1007l513 1007h-126l34 172h370l-34 -172h-76l-664 -1308h-292z" />
    <glyph glyph-name="W" unicode="W" 
d="M215 0l121 1308h-60l34 172h360l-34 -172h-70l-104 -958h7l319 921h222l-58 -921h6l281 958h-57l34 172h292l-34 -172h-60l-407 -1308h-242l30 951v0l-335 -951h-245z" />
    <glyph glyph-name="X" unicode="X" 
d="M12 0l34 173h82l488 563l-208 572h-111l34 172h556l-34 -172h-116l118 -323l261 323h-96l34 172h420l-34 -172h-105l-418 -490l235 -645h98l-34 -173h-543l34 173h114l-144 396l-331 -396h95l-34 -173h-395z" />
    <glyph glyph-name="Y" unicode="Y" 
d="M239 0l34 173h247l95 477l-247 658h-93l34 172h543l-34 -172h-95l157 -423l305 423h-103l34 172h395l-34 -172h-86l-480 -658l-95 -477h246l-34 -173h-789z" />
    <glyph glyph-name="Z" unicode="Z" 
d="M111 0l36 185l893 1123h-446l-44 -222h-185l78 394h958l-37 -185l-886 -1110h491l50 247h185l-86 -432h-1007z" />
    <glyph glyph-name="bracketleft" unicode="[" 
d="M285 -296l375 1875h691l-35 -173h-420l-305 -1529h420l-35 -173h-691z" />
    <glyph glyph-name="backslash" unicode="\" 
d="M1169 -296h-230l-624 1875h230z" />
    <glyph glyph-name="bracketright" unicode="]" 
d="M1199 1579l-375 -1875h-691l35 173h419l305 1529h-419l35 173h691z" />
    <glyph glyph-name="asciicircum" unicode="^" 
d="M254 543l656 937l282 -937h-220l-146 518l-353 -518h-219z" />
    <glyph glyph-name="underscore" unicode="_" 
d="M-39 -200l39 200h1229l-40 -200h-1228z" />
    <glyph glyph-name="grave" unicode="`" 
d="M934 1283l-257 321h295l145 -321h-183z" />
    <glyph glyph-name="a" unicode="a" 
d="M1306 1086l-183 -913h99l-34 -173h-384l31 160q-191 -185 -381 -185q-181 0 -260 143q-78 143 -29 389q57 288 228 446q170 158 422 158q89 0 206 -25h285zM980 883l-33 7q-77 21 -146 21q-260 0 -335 -371q-67 -337 130 -337q126 0 282 171z" />
    <glyph glyph-name="b" unicode="b" 
d="M145 0l280 1406h-100l35 173h380l-131 -654q192 185 384 185q180 0 259 -143q78 -143 29 -388q-57 -288 -227 -446q-169 -158 -423 -158q-91 0 -206 25h-280zM464 197l32 -9q78 -19 147 -19q261 0 337 377q68 344 -130 344q-125 0 -283 -178z" />
    <glyph glyph-name="c" unicode="c" 
d="M1233 266l-43 -214q-251 -77 -462 -77q-315 0 -464 150q-147 151 -95 415q53 263 268 416q213 154 532 154q208 0 409 -54l-73 -365h-172l15 203q-101 47 -223 47q-361 0 -435 -370q-41 -205 51 -306q86 -93 277 -93q148 0 415 94z" />
    <glyph glyph-name="d" unicode="d" 
d="M804 0l31 160q-191 -185 -381 -185q-181 0 -260 143q-78 143 -29 389q57 288 228 446q170 158 422 158q89 0 206 -25l63 320h-130l35 173h410l-281 -1406h99l-34 -173h-379zM980 883l-33 7q-77 21 -146 21q-260 0 -335 -371q-67 -337 130 -337q126 0 282 171z" />
    <glyph glyph-name="e" unicode="e" 
d="M1218 254l-40 -203q-257 -76 -485 -76q-300 0 -439 150q-138 149 -86 410q52 258 245 417q191 159 450 159q246 0 352 -150q105 -149 50 -422l-11 -58h-787q-3 -89 11 -135q53 -177 310 -177q166 0 430 85zM507 654h481q22 119 -13 189q-45 91 -160 91q-127 0 -216 -98
q-62 -68 -92 -182z" />
    <glyph glyph-name="f" unicode="f" 
d="M120 0l34 173h271l141 703h-271l37 185h271l18 92q90 451 570 451q163 0 323 -77l-52 -256h-168v121q-69 38 -141 38q-181 0 -234 -266l-20 -103h414l-37 -185h-414l-141 -703h316l-34 -173h-883z" />
    <glyph glyph-name="g" unicode="g" 
d="M974 883l-27 7q-77 21 -146 21q-260 0 -324 -316q-56 -282 122 -282q145 0 295 171zM1015 1086h395l-35 -173h-99l-162 -808q-51 -258 -197 -384t-445 -141q-189 0 -406 64l67 331h173l-8 -158q94 -68 225 -68q169 15 222 115q41 77 70 224l36 182q-186 -185 -378 -185
t-266 143q-74 129 -33 334q46 233 217 391q170 158 422 158q91 0 202 -25z" />
    <glyph glyph-name="h" unicode="h" 
d="M40 0l34 173h110l246 1233h-110l35 173h395l-131 -654q87 83 164 124q107 61 234 61q157 0 209 -84q51 -83 11 -281l-114 -572h100l-34 -173h-495l34 173h110l94 472q29 141 10 189q-18 49 -91 49q-111 0 -274 -172l-108 -538h104l-34 -173h-499z" />
    <glyph glyph-name="i" unicode="i" 
d="M140 0l34 173h370l148 740h-370l35 173h666l-183 -913h370l-34 -173h-1036zM766 1283l59 296h296l-59 -296h-296z" />
    <glyph glyph-name="j" unicode="j" 
d="M7 -356l81 405h173l-22 -232q94 -68 185 -68q126 0 179 100q41 77 73 239l165 825h-432l35 173h728l-197 -981q-54 -273 -200 -399t-402 -126q-149 0 -366 64zM915 1283l59 296h296l-59 -296h-296z" />
    <glyph glyph-name="k" unicode="k" 
d="M50 0l34 173h100l246 1233h-100l35 173h370l-192 -962h60l345 296h-120l35 173h516l-35 -173h-156l-341 -283l252 -457h129l-34 -173h-464l32 165l-184 328h-60l-64 -320h110l-34 -173h-480z" />
    <glyph glyph-name="l" unicode="l" 
d="M350 1406l35 173h616l-219 -1096q-13 -66 -20.5 -121t1 -94.5t39 -61.5t92.5 -22q28 0 58.5 2.5t65 9.5t74.5 19t66 25l-40 -202q-36 -17 -89 -31t-101.5 -21t-92.5 -9t-85 -2q-101 0 -165 28t-96 87t-32.5 151.5t25.5 220.5l188 944h-320z" />
    <glyph glyph-name="m" unicode="m" 
d="M105 0l182 913h-80l35 173h302l-37 -185q161 209 287 209q123 0 112 -209q148 209 280 209q98 0 114 -85q14 -71 -17 -225l-125 -627h87l-34 -173h-309l127 636l21 115q26 142 -13 142q-53 0 -176 -216l-135 -677h-222l127 636l21 115q26 141 -13 141q-54 0 -177 -215
l-135 -677h-222z" />
    <glyph glyph-name="n" unicode="n" 
d="M45 0l34 173h104l148 740h-104l35 173h389l-33 -161q106 100 184 140q90 45 221 45q158 0 208 -85q51 -84 11 -280l-114 -572h100l-34 -173h-385l128 645q29 141 10 189q-18 49 -91 49q-114 0 -280 -172l-108 -538h120l-34 -173h-509z" />
    <glyph glyph-name="o" unicode="o" 
d="M836 1110q243 0 367 -158q123 -158 73 -409q-51 -253 -237 -410q-187 -158 -436 -158q-216 0 -337 130q-151 164 -96 438q50 251 236 409t430 158zM802 938q-110 0 -197 -107q-89 -108 -125 -288q-36 -179 9 -287t155 -108q111 5 198.5 110.5t123.5 284.5q36 180 -9 288
q-45 107 -155 107z" />
    <glyph glyph-name="p" unicode="p" 
d="M227 913l35 173h380l-33 -161q192 185 384 185q180 0 259 -143q78 -143 29 -388q-57 -288 -227 -446q-169 -158 -423 -158q-91 0 -206 25l-45 -222h130l-34 -173h-509l33 173h100l227 1135h-100zM464 197l32 -9q78 -19 147 -19q261 0 337 377q68 344 -130 344
q-125 0 -283 -178z" />
    <glyph glyph-name="q" unicode="q" 
d="M1301 1086l-262 -1308h123l-34 -173h-508l34 173h105l76 382q-191 -185 -383 -185q-179 0 -258 143q-78 143 -29 389q57 288 228 446q170 158 420 158q91 0 208 -25h280zM981 886l-33 7q-78 21 -147 21q-260 0 -335 -374q-69 -345 128 -345q126 0 283 171z" />
    <glyph glyph-name="r" unicode="r" 
d="M56 0l34 173h247l148 740h-247l35 173h543l-33 -161q82 82 153 124q103 61 213 61q120 0 236 -54l-71 -353h-172l5 152q-49 30 -103 30q-120 0 -306 -185l-105 -527h321l-34 -173h-864z" />
    <glyph glyph-name="s" unicode="s" 
d="M197 52l63 318h173l-4 -149q131 -73 244 -73q163 0 186 117q12 58 -18 90q-29 31 -125 60l-135 41q-305 92 -259 322q36 180 198 264q130 68 341 68q200 0 379 -59l-63 -311h-172l7 156q-93 42 -201 42q-174 0 -199 -125q-11 -56 26 -79q33 -21 124 -51l158 -52
q155 -51 206 -118q52 -68 29 -186q-33 -166 -171 -259q-136 -93 -351 -93q-196 0 -436 77z" />
    <glyph glyph-name="t" unicode="t" 
d="M262 888l35 173h260l54 271h297l-54 -271h451l-35 -173h-451l-95 -475q-26 -132 -4 -180q21 -49 107 -49q109 0 312 86l-40 -202q-231 -93 -394 -93q-192 0 -259 101q-66 100 -21 329l97 483h-260z" />
    <glyph glyph-name="u" unicode="u" 
d="M213 913l35 173h390l-130 -646q-27 -139 -9 -189q18 -49 95 -49q115 0 282 172l108 539h-120l35 173h405l-183 -913h105l-34 -173h-390l31 160q-109 -100 -186 -140q-89 -45 -224 -45q-158 0 -209 85q-50 85 -10 281l114 572h-105z" />
    <glyph glyph-name="v" unicode="v" 
d="M448 0l-152 913h-102l35 173h556l-35 -173h-143l107 -653l396 653h-131l35 173h420l-35 -173h-104l-551 -913h-296z" />
    <glyph glyph-name="w" unicode="w" 
d="M220 0l48 913h-74l35 173h395l-35 -173h-82l-27 -510h4l212 473h247l14 -503h4l188 540h-79l35 173h329l-35 -173h-75l-318 -913h-246l-18 602h-4l-271 -602h-247z" />
    <glyph glyph-name="x" unicode="x" 
d="M25 0l34 173h125l377 361l-208 379h-98l35 173h514l-35 -173h-79l112 -203l214 203h-73l35 173h409l-35 -173h-94l-375 -349l219 -391h136l-34 -173h-588l34 173h111l-118 211l-217 -211h99l-34 -173h-466z" />
    <glyph glyph-name="y" unicode="y" 
d="M509 33l-214 880h-101l35 173h574l-35 -173h-138l127 -517l341 517h-138l35 173h438l-35 -173h-102l-754 -1135h201l-34 -173h-683l34 173h197z" />
    <glyph glyph-name="z" unicode="z" 
d="M148 0l39 197l700 716h-384l-39 -197h-173l74 370h907l-35 -173l-710 -728h417l40 197h173l-76 -382h-933z" />
    <glyph glyph-name="braceleft" unicode="{" 
d="M291 728h83q245 0 275 149q8 41 6 106l-5 156q-2 78 11 146q32 158 165 226q134 68 412 68h124l-35 -173h-97q-258 0 -281 -115q-6 -32 -5 -88l2 -107q1 -83 -14 -159q-24 -120 -127 -203q-63 -50 -170 -94q99 -39 142 -93q61 -78 37 -201q-16 -76 -50 -159l-45 -107
q-23 -56 -29 -90q-23 -113 235 -113h97l-35 -173h-124q-278 0 -384 68t-75 227q14 67 47 145l67 156q28 65 37 108q29 147 -216 147h-83z" />
    <glyph glyph-name="bar" unicode="|" 
d="M444 -296l375 1875h221l-375 -1875h-221z" />
    <glyph glyph-name="braceright" unicode="}" 
d="M1194 555h-83q-245 0 -274 -149q-9 -41 -7 -106l5 -156q3 -82 -10 -148q-31 -156 -166 -224q-134 -68 -412 -68h-124l35 173h98q258 0 281 114q5 28 4 89l-1 108q-1 85 13 157q25 121 127 204q62 50 170 94q-99 39 -141 93q-62 78 -37 202q15 74 50 158l44 107
q25 61 31 90q22 113 -236 113h-98l35 173h124q279 0 385 -68q107 -68 75 -226q-13 -64 -48 -146l-67 -156q-28 -65 -37 -108q-29 -147 216 -147h83z" />
    <glyph glyph-name="asciitilde" unicode="~" 
d="M373 446h-185l5 26q38 191 134 290q97 100 232 100q107 0 219 -97l62 -53q70 -71 118 -71q108 0 156 221h185l-5 -26q-16 -91 -54 -172q-51 -105 -133 -163q-79 -55 -176 -55q-109 0 -220 97l-60 53q-69 71 -118 71q-112 0 -160 -221z" />
    <glyph glyph-name="uni00A0" unicode="&#xa0;" 
 />
    <glyph glyph-name="exclamdown" unicode="&#xa1;" 
d="M979 1086l-50 -247h-296l50 247h296zM833 666l-91 -765l-59 -296h-296l59 296l217 765h170z" />
    <glyph glyph-name="cent" unicode="&#xa2;" 
d="M863 1138q-89 -31 -145 -94q-82 -95 -117 -272q-37 -183 15 -284q29 -56 98 -94zM628 -37l42 212q-147 20 -216 56q-255 130 -178 519q54 270 226 415q104 88 237 125q54 15 160 30l40 197h173l-39 -191q136 -10 289 -39l-68 -337h-173l6 150q-45 24 -92 34l-153 -768
q164 10 307 57l-43 -215q-132 -26 -303 -36l-42 -209h-173z" />
    <glyph glyph-name="sterling" unicode="&#xa3;" 
d="M119 0l49 247q98 0 162 72q80 88 123 303l16 81h-173l35 173h173l23 118q105 523 541 523q147 0 317 -58l-60 -299h-173l8 163q-63 22 -109 22q-158 0 -196 -191l-55 -278h247l-35 -173h-247l-8 -39q-58 -290 -321 -417h719l-49 -247h-987z" />
    <glyph glyph-name="currency" unicode="&#xa4;" 
d="M428 1006l-158 197l146 122l158 -197q141 82 281 82q141 0 250 -82l236 197l98 -122l-236 -197q55 -135 28 -266q-28 -140 -135 -265l158 -197l-146 -122l-158 197q-148 -83 -282 -83q-127 0 -249 83l-236 -197l-98 122l236 197l-5 13q-50 121 -24 252q28 140 136 266z
M817 1013q-112 0 -208 -80q-97 -79 -119 -190q-21 -103 28 -178q64 -97 190 -97q112 0 208 80t118 192q23 113 -41 193t-176 80z" />
    <glyph glyph-name="yen" unicode="&#xa5;" 
d="M259 0l34 173h223l33 166h-297l27 136h297l41 203h-297l27 136h202l-244 494h-25l34 172h503l-34 -172h-124l213 -454l368 454h-123l34 172h354l-34 -172h-25l-418 -494h208l-27 -136h-296l-41 -203h296l-27 -136h-296l-33 -166h222l-34 -173h-741z" />
    <glyph glyph-name="brokenbar" unicode="&#xa6;" 
d="M456 -296l148 740h197l-148 -740h-197zM683 839l148 740h197l-148 -740h-197z" />
    <glyph glyph-name="section" unicode="&#xa7;" 
d="M101 -256l64 318h173l-6 -153q132 -57 241 -57q94 0 153 31q65 33 78 97q18 91 -167 183l-146 73q-272 136 -230 347q28 141 226 316q-155 99 -123 262q33 162 187 259q155 97 383 97q159 0 377 -45l-60 -300h-173l4 142q-104 31 -196 31q-93 0 -150 -29q-61 -31 -73 -93
q-17 -83 155 -168l122 -60q159 -78 215 -164q56 -87 31 -212q-29 -148 -196 -308q65 -55 91 -106q41 -78 22 -173q-33 -163 -189 -258q-155 -95 -390 -95q-169 0 -423 65zM859 383q85 102 98 165q20 100 -156 189l-166 84l-22 10q-93 -100 -106 -165q-13 -62 30 -106
q38 -38 126 -81l173 -85z" />
    <glyph glyph-name="dieresis" unicode="&#xa8;" 
d="M537 1283l44 222h222l-44 -222h-222zM981 1283l44 222h222l-44 -222h-222z" />
    <glyph glyph-name="copyright" unicode="&#xa9;" 
d="M918 1517q249 0 358 -213q110 -213 40 -562q-71 -356 -266 -567q-194 -212 -452 -212q-218 0 -326 173q-139 221 -63 604q71 352 265 564q195 213 444 213zM893 1394q-188 0 -338 -180q-151 -180 -210 -474q-58 -291 20 -472q79 -182 263 -182q169 0 308 143
q178 183 244 513q58 293 -22 472q-80 180 -265 180zM940 344l-21 -8q-125 -46 -211 -46q-160 0 -237 123q-78 123 -39 320q40 199 164 322t289 123q93 0 196 -27l16 -4l-40 -197h-85l19 93q-59 24 -121 24q-198 0 -263 -325q-66 -329 157 -329q93 0 200 51z" />
    <glyph glyph-name="ordfeminine" unicode="&#xaa;" 
d="M910 823q-199 -107 -329 -107q-127 0 -193 61q-67 61 -46 165q53 269 516 269h129l7 32q25 126 -183 126q-63 0 -172 -22l-16 -80h-173l37 189q194 62 389 62q235 0 309 -59q74 -58 42 -222l-75 -373h136l-29 -148h-335zM940 972l18 92h-118q-228 0 -248 -101
q-15 -73 86 -73q105 0 262 82z" />
    <glyph glyph-name="guillemotleft" unicode="&#xab;" 
d="M1203 242l-172 -143l-356 444l534 444l114 -143l-298 -301zM710 242l-173 -143l-355 444l533 444l115 -143l-299 -301z" />
    <glyph glyph-name="logicalnot" unicode="&#xac;" 
d="M189 518l40 198h1031l-104 -519h-197l64 321h-834z" />
    <glyph glyph-name="uni00AD" unicode="&#xad;" 
d="M251 518l40 198h933l-40 -198h-933z" />
    <glyph glyph-name="registered" unicode="&#xae;" 
d="M918 1517q249 0 358 -213q110 -213 40 -562q-71 -356 -266 -567q-194 -212 -452 -212q-218 0 -326 173q-139 221 -63 604q71 352 265 564q195 213 444 213zM893 1394q-188 0 -338 -180q-151 -180 -210 -474q-58 -291 20 -472q79 -182 263 -182q169 0 308 143
q178 183 244 513q58 293 -22 472q-80 180 -265 180zM427 317l20 99h25l129 649h-25l20 98h272q217 0 176 -205q-28 -139 -169 -222l96 -320h26l-20 -99h-143l-110 367h-51l-53 -268h37l-20 -99h-210zM688 758h7q154 0 189 173q26 134 -98 134h-37z" />
    <glyph glyph-name="macron" unicode="&#xaf;" 
d="M335 1680h1229l-40 -200h-1229z" />
    <glyph glyph-name="degree" unicode="&#xb0;" 
d="M934 1604q122 0 192 -87q69 -87 45 -209q-25 -124 -129 -210t-228 -86q-108 0 -175 71q-87 91 -60 225q24 122 129 209q104 87 226 87zM904 1456q-61 0 -112 -44q-53 -43 -65 -104q-12 -60 23 -104q34 -44 92 -44q57 0 105 35q62 45 76 113q12 61 -23 104q-35 44 -96 44z
" />
    <glyph glyph-name="plusminus" unicode="&#xb1;" 
d="M121 0l39 197h987l-39 -197h-987zM575 296l71 358h-395l40 197h395l71 358h197l-71 -358h395l-40 -197h-395l-71 -358h-197z" />
    <glyph glyph-name="uni00B2" unicode="&#xb2;" 
d="M380 728l35 173q104 124 372 229l34 13l60 23q100 38 113 102q20 101 -164 101q-86 0 -164 -26l-29 -85h-148l40 202q176 58 350 58q399 0 350 -243q-27 -134 -192 -197l-107 -41l-37 -13q-148 -55 -213 -123h494l-35 -173h-759z" />
    <glyph glyph-name="uni00B3" unicode="&#xb3;" 
d="M396 751l34 174h148l3 -47q76 -14 158 -14q185 0 202 82q14 71 -75 91q-67 15 -212 15h-96l29 148h99q305 0 324 93q15 77 -149 77q-76 0 -190 -26l-25 -64h-148l36 180q191 58 394 58q362 0 321 -203q-16 -80 -100 -132q-51 -32 -143 -58q82 -24 118 -55q66 -54 48 -142
q-42 -212 -435 -212q-173 0 -341 35z" />
    <glyph glyph-name="acute" unicode="&#xb4;" 
d="M624 1283l272 321h285l-384 -321h-173z" />
    <glyph glyph-name="mu" unicode="&#xb5;" 
d="M219 913l35 173h389l-130 -646q-28 -140 -9 -189q18 -49 95 -49q116 0 284 172l108 539h-104l35 173h388l-183 -913h105l-34 -173h-389l31 160q-177 -172 -295 -172q-66 0 -115 36l-83 -419h-284l261 1308h-105z" />
    <glyph glyph-name="paragraph" unicode="&#xb6;" 
d="M429 -296l207 1036q-123 30 -182 66q-183 112 -136 350q68 337 425 337q38 0 96 -5l69 -6q19 -2 54 -2h340l-355 -1776h-173l326 1629h-172l-326 -1629h-173z" />
    <glyph glyph-name="periodcentered" unicode="&#xb7;" 
d="M589 738l69 346h345l-69 -346h-345z" />
    <glyph glyph-name="cedilla" unicode="&#xb8;" 
d="M541 0h136l-99 -113q226 -29 201 -156q-14 -69 -95 -116q-82 -47 -187 -47q-81 0 -182 30l18 91q68 -15 117 -15q119 0 132 61q16 83 -179 83h-20z" />
    <glyph glyph-name="uni00B9" unicode="&#xb9;" 
d="M466 728l30 148h231l88 443l-241 -48l30 148l485 98l-128 -641h232l-30 -148h-697z" />
    <glyph glyph-name="ordmasculine" unicode="&#xba;" 
d="M917 1517q209 0 311 -109q102 -110 65 -295q-37 -184 -183 -290q-145 -107 -359 -107q-184 0 -285 89q-126 110 -86 308q37 186 182 295q146 109 355 109zM887 1369q-92 0 -165 -70q-72 -71 -94 -182t21 -182t136 -71q84 0 151 56q86 71 111 197q22 112 -22 182
q-45 70 -138 70z" />
    <glyph glyph-name="guillemotright" unicode="&#xbb;" 
d="M122 242l298 301l-178 301l172 143l356 -444l-534 -444zM615 242l299 301l-179 301l173 143l355 -444l-533 -444z" />
    <glyph glyph-name="onequarter" unicode="&#xbc;" 
d="M69 -37l1209 1554h142l-1209 -1554h-142zM904 0l35 179h-338l27 136l433 475h185l-95 -475h99l-27 -136h-99l-35 -179h-185zM765 315h201l57 282zM321 728l118 592l-155 -37l29 148l363 86l-158 -789h-197z" />
    <glyph glyph-name="onehalf" unicode="&#xbd;" 
d="M704 0l34 173q79 121 215 211l29 19q113 75 127 145q21 106 -74 106q-32 0 -76 -25l-26 -86h-119l38 189q148 58 236 58q121 0 180 -67q60 -66 37 -178q-25 -128 -187 -214l-16 -8q-24 -13 -34 -19l-32 -20q-87 -55 -128 -124h320l-31 -160h-493zM312 728l118 592
l-155 -37l29 148l363 86l-158 -789h-197zM30 -37l1208 1554h142l-1208 -1554h-142z" />
    <glyph glyph-name="threequarters" unicode="&#xbe;" 
d="M182 751l32 162h115l-9 -43q50 -19 89 -19q102 0 121 96q22 111 -148 111h-42l27 136h45q167 0 188 104q17 84 -72 84q-44 0 -111 -27l-9 -44h-117l31 152q146 55 255 55q252 0 213 -196q-27 -133 -203 -197q152 -58 124 -198q-19 -94 -105 -152q-85 -59 -204 -59
q-86 0 -220 35zM84 -37l1208 1554h142l-1208 -1554h-142zM906 0l35 179h-338l27 136l433 475h185l-95 -475h99l-27 -136h-99l-35 -179h-185zM767 315h201l57 282z" />
    <glyph glyph-name="questiondown" unicode="&#xbf;" 
d="M1063 1086l-50 -247h-296l50 247h296zM979 666l-8 -38q-27 -134 -86 -216q-62 -84 -222 -208l-70 -54q-157 -122 -177 -225q-21 -102 52 -148q58 -36 165 -36q100 0 220 45l59 177h173l-66 -329q-283 -66 -459 -66q-251 0 -376 80q-127 82 -94 249q27 136 181 239l82 55
l69 50q125 90 173 158t72 187l16 80h296z" />
    <glyph glyph-name="Agrave" unicode="&#xc0;" 
d="M25 0l34 173h62l635 1307h307l114 -1307h61l-34 -173h-491l34 173h135l-20 234h-448l-114 -234h136l-34 -173h-377zM497 580h350l-53 609h-2zM915 1614l-257 321h295l145 -321h-183z" />
    <glyph glyph-name="Aacute" unicode="&#xc1;" 
d="M25 0l34 173h62l635 1307h307l114 -1307h61l-34 -173h-491l34 173h135l-20 234h-448l-114 -234h136l-34 -173h-377zM497 580h350l-53 609h-2zM772 1614l272 321h295l-384 -321h-183z" />
    <glyph glyph-name="Acircumflex" unicode="&#xc2;" 
d="M25 0l34 173h62l635 1307h307l114 -1307h61l-34 -173h-491l34 173h135l-20 234h-448l-114 -234h136l-34 -173h-377zM497 580h350l-53 609h-2zM574 1614l272 321h285l145 -321h-160l-152 190h-2l-228 -190h-160z" />
    <glyph glyph-name="Atilde" unicode="&#xc3;" 
d="M25 0l34 173h62l635 1307h307l114 -1307h61l-34 -173h-491l34 173h135l-20 234h-448l-114 -234h136l-34 -173h-377zM497 580h350l-53 609h-2zM721 1614h-148q31 141 78 213q71 108 186 108q65 0 120 -43l32 -26l11 -8q10 -8 15 -13q47 -46 85 -46q63 0 92 136h148
q-31 -141 -77 -213q-72 -108 -187 -108q-62 0 -118 43l-34 26l-23 19q-58 48 -87 48q-64 0 -93 -136z" />
    <glyph glyph-name="Adieresis" unicode="&#xc4;" 
d="M25 0l34 173h62l635 1307h307l114 -1307h61l-34 -173h-491l34 173h135l-20 234h-448l-114 -234h136l-34 -173h-377zM497 580h350l-53 609h-2zM592 1634l44 222h222l-44 -222h-222zM1036 1634l44 222h222l-44 -222h-222z" />
    <glyph glyph-name="Aring" unicode="&#xc5;" 
d="M1002 1935q98 0 153 -68q55 -69 35 -166q-19 -98 -102 -167q-44 -37 -95 -54h70l114 -1307h61l-34 -173h-491l34 173h135l-20 234h-448l-114 -234h136l-34 -173h-377l34 173h62l635 1307h72q-34 14 -59 42q-69 72 -48 178q20 98 103 167q81 68 178 68zM497 580h350
l-53 609h-2zM980 1824q-51 0 -94 -36t-54 -87q-10 -51 19 -87q29 -37 79 -37q47 0 86 29q52 38 63 95q11 51 -18 87t-81 36z" />
    <glyph glyph-name="AE" unicode="&#xc6;" 
d="M12 0l34 173h62l653 1307h700l-64 -320h-185l30 148h-148l-96 -481h222l-35 -173h-222l-94 -469h173l32 160h185l-68 -345h-629l81 407h-225l-114 -234h87l-34 -173h-345zM677 580l122 609h-3l-295 -609h176z" />
    <glyph glyph-name="Ccedilla" unicode="&#xc7;" 
d="M1234 261l-44 -216q-220 -82 -426 -82h-3l-66 -76q226 -29 201 -156q-14 -69 -95 -116q-82 -47 -187 -47q-81 0 -182 30l18 91q68 -15 117 -15q119 0 132 61q16 83 -179 83h-20l133 155q-231 33 -353 198q-156 209 -86 559q71 352 307 569q236 218 553 218q184 0 386 -66
l-85 -427h-173l26 257q-75 64 -177 64q-178 0 -317 -161q-140 -160 -193 -426q-57 -284 31 -442q87 -158 300 -158q155 0 382 103z" />
    <glyph glyph-name="Egrave" unicode="&#xc8;" 
d="M37 0l34 173h148l227 1135h-148l34 172h1073l-74 -370h-185l40 198h-444l-96 -481h235l24 123h172l-84 -420h-172l25 124h-235l-94 -469h506l45 222h185l-81 -407h-1135zM880 1614l-257 321h295l145 -321h-183z" />
    <glyph glyph-name="Eacute" unicode="&#xc9;" 
d="M37 0l34 173h148l227 1135h-148l34 172h1073l-74 -370h-185l40 198h-444l-96 -481h235l24 123h172l-84 -420h-172l25 124h-235l-94 -469h506l45 222h185l-81 -407h-1135zM816 1614l272 321h295l-384 -321h-183z" />
    <glyph glyph-name="Ecircumflex" unicode="&#xca;" 
d="M37 0l34 173h148l227 1135h-148l34 172h1073l-74 -370h-185l40 198h-444l-96 -481h235l24 123h172l-84 -420h-172l25 124h-235l-94 -469h506l45 222h185l-81 -407h-1135zM606 1614l272 321h285l145 -321h-160l-152 190h-2l-228 -190h-160z" />
    <glyph glyph-name="Edieresis" unicode="&#xcb;" 
d="M37 0l34 173h148l227 1135h-148l34 172h1073l-74 -370h-185l40 198h-444l-96 -481h235l24 123h172l-84 -420h-172l25 124h-235l-94 -469h506l45 222h185l-81 -407h-1135zM569 1634l44 222h222l-44 -222h-222zM1013 1634l44 222h222l-44 -222h-222z" />
    <glyph glyph-name="Igrave" unicode="&#xcc;" 
d="M123 0l34 173h343l227 1135h-343l34 172h982l-34 -172h-343l-227 -1135h343l-34 -173h-982zM914 1614l-257 321h295l145 -321h-183z" />
    <glyph glyph-name="Iacute" unicode="&#xcd;" 
d="M123 0l34 173h343l227 1135h-343l34 172h982l-34 -172h-343l-227 -1135h343l-34 -173h-982zM751 1614l272 321h295l-384 -321h-183z" />
    <glyph glyph-name="Icircumflex" unicode="&#xce;" 
d="M123 0l34 173h343l227 1135h-343l34 172h982l-34 -172h-343l-227 -1135h343l-34 -173h-982zM573 1614l272 321h285l145 -321h-160l-152 190h-2l-228 -190h-160z" />
    <glyph glyph-name="Idieresis" unicode="&#xcf;" 
d="M123 0l34 173h343l227 1135h-343l34 172h982l-34 -172h-343l-227 -1135h343l-34 -173h-982zM583 1634l44 222h222l-44 -222h-222zM1043 1634l44 222h222l-44 -222h-222z" />
    <glyph glyph-name="Eth" unicode="&#xd0;" 
d="M37 0l34 173h99l99 496h-136l35 173h136l93 466h-99l34 172h440q341 0 486 -182q144 -182 76 -527q-74 -368 -306 -569q-232 -202 -586 -202h-405zM466 173h46q381 0 497 581q50 251 -1 389q-59 159 -271 164l-44 1l-93 -466h198l-35 -173h-198z" />
    <glyph glyph-name="Ntilde" unicode="&#xd1;" 
d="M37 0l34 173h99l227 1135h-99l34 172h296l389 -999l165 827h-148l34 172h444l-34 -172h-99l-261 -1308h-197l-390 993l-164 -820h148l-34 -173h-444zM717 1614h-148q31 141 78 213q71 108 186 108q65 0 120 -43l32 -26q22 -17 26 -21q47 -46 84 -46q64 0 93 136h148
q-31 -141 -77 -213q-72 -108 -187 -108q-62 0 -118 43l-34 26l-10 8l-7 6q-4 3 -8 7q-54 46 -85 46q-64 0 -93 -136z" />
    <glyph glyph-name="Ograve" unicode="&#xd2;" 
d="M917 1517q272 0 377 -201q107 -200 32 -576q-155 -777 -727 -777q-240 0 -349 164q-135 205 -53 614q74 374 260 575q188 201 460 201zM882 1345q-257 0 -377 -601q-121 -608 143 -608q250 0 372 610q119 599 -138 599zM916 1614l-257 321h295l145 -321h-183z" />
    <glyph glyph-name="Oacute" unicode="&#xd3;" 
d="M917 1517q272 0 377 -201q107 -200 32 -576q-155 -777 -727 -777q-240 0 -349 164q-135 205 -53 614q74 374 260 575q188 201 460 201zM882 1345q-257 0 -377 -601q-121 -608 143 -608q250 0 372 610q119 599 -138 599zM754 1614l272 321h295l-384 -321h-183z" />
    <glyph glyph-name="Ocircumflex" unicode="&#xd4;" 
d="M917 1517q272 0 377 -201q107 -200 32 -576q-155 -777 -727 -777q-240 0 -349 164q-135 205 -53 614q74 374 260 575q188 201 460 201zM882 1345q-257 0 -377 -601q-121 -608 143 -608q250 0 372 610q119 599 -138 599zM573 1614l272 321h285l145 -321h-160l-152 190h-2
l-228 -190h-160z" />
    <glyph glyph-name="Otilde" unicode="&#xd5;" 
d="M917 1517q272 0 377 -201q107 -200 32 -576q-155 -777 -727 -777q-240 0 -349 164q-135 205 -53 614q74 374 260 575q188 201 460 201zM882 1345q-257 0 -377 -601q-121 -608 143 -608q250 0 372 610q119 599 -138 599zM721 1614h-148q31 141 78 213q71 108 186 108
q65 0 120 -43l32 -26l11 -8q12 -10 16 -14q13 -14 41 -30q26 -15 43 -15q63 0 92 136h148q-31 -141 -77 -213q-72 -108 -187 -108q-63 0 -118 43l-34 26q-3 2 -10 8q-4 4 -7 6q-4 3 -8 7q-52 46 -86 46q-63 0 -92 -136z" />
    <glyph glyph-name="Odieresis" unicode="&#xd6;" 
d="M917 1517q272 0 377 -201q107 -200 32 -576q-155 -777 -727 -777q-240 0 -349 164q-135 205 -53 614q74 374 260 575q188 201 460 201zM882 1345q-257 0 -377 -601q-121 -608 143 -608q250 0 372 610q119 599 -138 599zM591 1634l44 222h222l-44 -222h-222zM1035 1634
l44 222h222l-44 -222h-222z" />
    <glyph glyph-name="multiply" unicode="&#xd7;" 
d="M469 1173l303 -379l455 379l112 -140l-455 -379l304 -378l-168 -140l-304 379l-454 -379l-111 140l454 378l-303 379z" />
    <glyph glyph-name="Oslash" unicode="&#xd8;" 
d="M1330 1517h152l-180 -216q97 -199 25 -560q-156 -778 -721 -778q-207 0 -317 115l-95 -115h-153l179 216q-95 202 -23 562q74 374 260 575q188 201 460 201q206 0 316 -116zM882 1345q-272 0 -392 -604q-33 -163 -38 -282l605 729q-37 157 -175 157zM641 136
q272 0 393 605q32 161 35 279l-603 -729q37 -155 175 -155z" />
    <glyph glyph-name="Ugrave" unicode="&#xd9;" 
d="M282 1308l34 172h494l-34 -172h-99l-148 -742q-49 -245 -11 -337q41 -92 190 -92t213 99q54 84 92 272l160 800h-98l34 172h394l-34 -172h-98l-153 -765q-41 -207 -91 -306q-50 -100 -148 -171q-143 -103 -356 -103q-288 0 -390 171q-34 58 -38 133q-5 88 23 228l163 813
h-99zM956 1614l-257 321h295l145 -321h-183z" />
    <glyph glyph-name="Uacute" unicode="&#xda;" 
d="M282 1308l34 172h494l-34 -172h-99l-148 -742q-49 -245 -11 -337q41 -92 190 -92t213 99q54 84 92 272l160 800h-98l34 172h394l-34 -172h-98l-153 -765q-41 -207 -91 -306q-50 -100 -148 -171q-143 -103 -356 -103q-288 0 -390 171q-34 58 -38 133q-5 88 23 228l163 813
h-99zM813 1614l272 321h295l-384 -321h-183z" />
    <glyph glyph-name="Ucircumflex" unicode="&#xdb;" 
d="M282 1308l34 172h494l-34 -172h-99l-148 -742q-49 -245 -11 -337q41 -92 190 -92t213 99q54 84 92 272l160 800h-98l34 172h394l-34 -172h-98l-153 -765q-41 -207 -91 -306q-50 -100 -148 -171q-143 -103 -356 -103q-288 0 -390 171q-34 58 -38 133q-5 88 23 228l163 813
h-99zM623 1614l272 321h285l145 -321h-160l-152 190h-2l-228 -190h-160z" />
    <glyph glyph-name="Udieresis" unicode="&#xdc;" 
d="M282 1308l34 172h494l-34 -172h-99l-148 -742q-49 -245 -11 -337q41 -92 190 -92t213 99q54 84 92 272l160 800h-98l34 172h394l-34 -172h-98l-153 -765q-41 -207 -91 -306q-50 -100 -148 -171q-143 -103 -356 -103q-288 0 -390 171q-34 58 -38 133q-5 88 23 228l163 813
h-99zM641 1634l44 222h222l-44 -222h-222zM1085 1634l44 222h222l-44 -222h-222z" />
    <glyph glyph-name="Yacute" unicode="&#xdd;" 
d="M239 0l34 173h247l95 477l-247 658h-93l34 172h543l-34 -172h-95l157 -423l305 423h-103l34 172h395l-34 -172h-86l-480 -658l-95 -477h246l-34 -173h-789zM817 1614l272 321h295l-384 -321h-183z" />
    <glyph glyph-name="Thorn" unicode="&#xde;" 
d="M37 0l34 173h198l227 1135h-198l34 172h691l-34 -172h-197l-20 -99h140q277 0 382 -94q107 -94 65 -302q-48 -241 -238 -379q-189 -138 -470 -138h-61l-25 -123h197l-34 -173h-691zM624 469h37q314 0 375 303q29 148 -22 206t-214 58h-62z" />
    <glyph glyph-name="germandbls" unicode="&#xdf;" 
d="M44 0l34 173h87l179 894q55 278 197 407q143 130 393 130q361 0 304 -285q-24 -119 -136 -229l-49 -49q-79 -77 -87 -119q-6 -31 31 -77l36 -43l98 -107q180 -194 143 -378q-31 -153 -153 -247q-121 -95 -297 -95q-94 0 -189 25l56 284h158l-3 -130q22 -7 37 -7
q96 0 121 126q15 75 -43 140l-30 34l-122 137q-125 140 -103 251q15 73 113 200l54 70q84 109 100 189q27 136 -103 136q-93 0 -146 -72q-53 -73 -88 -247l-187 -938h111l-34 -173h-482z" />
    <glyph glyph-name="agrave" unicode="&#xe0;" 
d="M1306 1086l-183 -913h99l-34 -173h-384l31 160q-191 -185 -381 -185q-181 0 -260 143q-78 143 -29 389q57 288 228 446q170 158 422 158q89 0 206 -25h285zM980 883l-33 7q-77 21 -146 21q-260 0 -335 -371q-67 -337 130 -337q126 0 282 171zM870 1283l-257 321h295
l145 -321h-183z" />
    <glyph glyph-name="aacute" unicode="&#xe1;" 
d="M1306 1086l-183 -913h99l-34 -173h-384l31 160q-191 -185 -381 -185q-181 0 -260 143q-78 143 -29 389q57 288 228 446q170 158 422 158q89 0 206 -25h285zM980 883l-33 7q-77 21 -146 21q-260 0 -335 -371q-67 -337 130 -337q126 0 282 171zM687 1283l272 321h295
l-384 -321h-183z" />
    <glyph glyph-name="acircumflex" unicode="&#xe2;" 
d="M1306 1086l-183 -913h99l-34 -173h-384l31 160q-191 -185 -381 -185q-181 0 -260 143q-78 143 -29 389q57 288 228 446q170 158 422 158q89 0 206 -25h285zM980 883l-33 7q-77 21 -146 21q-260 0 -335 -371q-67 -337 130 -337q126 0 282 171zM559 1283l272 321h285
l145 -321h-160l-152 190h-2l-228 -190h-160z" />
    <glyph glyph-name="atilde" unicode="&#xe3;" 
d="M648 1293h-148q31 141 77 213q72 108 187 108q65 0 119 -43l33 -26l11 -8q10 -8 15 -13q47 -46 84 -46q64 0 93 136h148q-31 -141 -78 -213q-71 -108 -186 -108q-62 0 -119 43l-33 26l-10 8l-8 6l-7 7q-54 46 -85 46q-64 0 -93 -136zM1306 1086l-183 -913h99l-34 -173
h-384l31 160q-191 -185 -381 -185q-181 0 -260 143q-78 143 -29 389q57 288 228 446q170 158 422 158q89 0 206 -25h285zM980 883l-33 7q-77 21 -146 21q-260 0 -335 -371q-67 -337 130 -337q126 0 282 171z" />
    <glyph glyph-name="adieresis" unicode="&#xe4;" 
d="M557 1293l44 222h222l-44 -222h-222zM1001 1293l44 222h222l-44 -222h-222zM1306 1086l-183 -913h99l-34 -173h-384l31 160q-191 -185 -381 -185q-181 0 -260 143q-78 143 -29 389q57 288 228 446q170 158 422 158q89 0 206 -25h285zM980 883l-33 7q-77 21 -146 21
q-260 0 -335 -371q-67 -337 130 -337q126 0 282 171z" />
    <glyph glyph-name="aring" unicode="&#xe5;" 
d="M982 1752q98 0 152 -69q55 -68 36 -165q-20 -99 -103 -167q-81 -68 -181 -68q-85 0 -138 56q-69 71 -47 178q19 98 102 166q83 69 179 69zM959 1641q-51 0 -94 -36t-53 -87t18 -87q29 -37 79 -37q47 0 87 29q51 38 63 95q10 51 -19 87t-81 36zM1306 1086l-183 -913h99
l-34 -173h-384l31 160q-191 -185 -381 -185q-181 0 -260 143q-78 143 -29 389q57 288 228 446q170 158 422 158q89 0 206 -25h285zM980 883l-33 7q-77 21 -146 21q-260 0 -335 -371q-67 -337 130 -337q126 0 282 171z" />
    <glyph glyph-name="ae" unicode="&#xe6;" 
d="M587 151q-119 -176 -266 -176q-118 0 -178 96q-61 96 -32 243q66 328 408 328h87l26 131q32 161 -60 161q-39 0 -102 -36l-39 -96h-144l47 234q183 74 317 74q128 0 196 -114q115 114 236 114q317 0 207 -554l-18 -87h-456q-23 -129 2 -195q33 -91 157 -91q110 0 251 55
l-40 -202q-196 -61 -315 -61q-124 0 -203 65q-45 38 -81 111zM536 291l35 178h-29q-153 0 -182 -144q-22 -110 59 -110q54 0 117 76zM853 642h208l4 25q26 167 19 211q-10 61 -52 61q-98 0 -179 -297z" />
    <glyph glyph-name="ccedilla" unicode="&#xe7;" 
d="M1233 266l-43 -214q-251 -77 -462 -77l-77 -88q226 -29 201 -156q-14 -69 -95 -116q-82 -47 -187 -47q-81 0 -182 30l18 91q68 -15 117 -15q119 0 132 61q16 83 -179 83h-20l142 164q-218 25 -334 143q-147 151 -95 415q53 263 268 416q213 154 532 154q208 0 409 -54
l-73 -365h-172l15 203q-101 47 -223 47q-361 0 -435 -370q-41 -205 51 -306q86 -93 277 -93q148 0 415 94z" />
    <glyph glyph-name="egrave" unicode="&#xe8;" 
d="M1218 254l-40 -203q-257 -76 -485 -76q-300 0 -439 150q-138 149 -86 410q52 258 245 417q191 159 450 159q246 0 352 -150q105 -149 50 -422l-11 -58h-787q-3 -89 11 -135q53 -177 310 -177q166 0 430 85zM507 654h481q22 119 -13 189q-45 91 -160 91q-127 0 -216 -98
q-62 -68 -92 -182zM900 1283l-257 321h295l145 -321h-183z" />
    <glyph glyph-name="eacute" unicode="&#xe9;" 
d="M1218 254l-40 -203q-257 -76 -485 -76q-300 0 -439 150q-138 149 -86 410q52 258 245 417q191 159 450 159q246 0 352 -150q105 -149 50 -422l-11 -58h-787q-3 -89 11 -135q53 -177 310 -177q166 0 430 85zM507 654h481q22 119 -13 189q-45 91 -160 91q-127 0 -216 -98
q-62 -68 -92 -182zM747 1283l272 321h295l-384 -321h-183z" />
    <glyph glyph-name="ecircumflex" unicode="&#xea;" 
d="M1218 254l-40 -203q-257 -76 -485 -76q-300 0 -439 150q-138 149 -86 410q52 258 245 417q191 159 450 159q246 0 352 -150q105 -149 50 -422l-11 -58h-787q-3 -89 11 -135q53 -177 310 -177q166 0 430 85zM507 654h481q22 119 -13 189q-45 91 -160 91q-127 0 -216 -98
q-62 -68 -92 -182zM569 1283l272 321h285l145 -321h-160l-152 190h-2l-228 -190h-160z" />
    <glyph glyph-name="edieresis" unicode="&#xeb;" 
d="M1218 254l-40 -203q-257 -76 -485 -76q-300 0 -439 150q-138 149 -86 410q52 258 245 417q191 159 450 159q246 0 352 -150q105 -149 50 -422l-11 -58h-787q-3 -89 11 -135q53 -177 310 -177q166 0 430 85zM507 654h481q22 119 -13 189q-45 91 -160 91q-127 0 -216 -98
q-62 -68 -92 -182zM576 1293l44 222h222l-44 -222h-222zM1020 1293l44 222h222l-44 -222h-222z" />
    <glyph glyph-name="igrave" unicode="&#xec;" 
d="M140 0l34 173h370l148 740h-370l35 173h666l-183 -913h370l-34 -173h-1036zM879 1283l-257 321h295l145 -321h-183z" />
    <glyph glyph-name="iacute" unicode="&#xed;" 
d="M140 0l34 173h370l148 740h-370l35 173h666l-183 -913h370l-34 -173h-1036zM766 1283l272 321h295l-384 -321h-183z" />
    <glyph glyph-name="icircumflex" unicode="&#xee;" 
d="M140 0l34 173h370l148 740h-370l35 173h666l-183 -913h370l-34 -173h-1036zM563 1283l272 321h285l145 -321h-160l-152 190h-2l-228 -190h-160z" />
    <glyph glyph-name="idieresis" unicode="&#xef;" 
d="M140 0l34 173h370l148 740h-370l35 173h666l-183 -913h370l-34 -173h-1036zM561 1293l44 222h222l-44 -222h-222zM1005 1293l44 222h222l-44 -222h-222z" />
    <glyph glyph-name="eth" unicode="&#xf0;" 
d="M484 1088l-74 114l213 156q-125 34 -245 35l-31 1l37 185q244 -1 435 -78l258 188l75 -114l-212 -154q213 -120 295 -303q106 -239 49 -525q-55 -276 -241 -447t-434 -171q-243 0 -364 152q-120 154 -71 399q47 237 225 392q175 155 394 155q60 0 138 -17
q-41 128 -177 230zM802 889q-114 0 -204 -100q-90 -99 -124 -265q-32 -164 17 -264t164 -101q240 1 317 384q69 346 -170 346z" />
    <glyph glyph-name="ntilde" unicode="&#xf1;" 
d="M37 0l34 173h105l148 740h-105l35 173h389l-33 -161q109 100 187 140q90 45 225 45q158 0 208 -85q51 -84 11 -280l-114 -572h105l-34 -173h-518l34 173h129l94 472q29 141 10 189q-18 49 -95 49q-115 0 -284 -172l-108 -538h129l-34 -173h-518zM632 1293h-148
q31 141 77 213q72 108 187 108q65 0 119 -43l33 -26l11 -8q10 -8 15 -13q47 -46 84 -46q64 0 93 136h148q-31 -141 -78 -213q-71 -108 -186 -108q-62 0 -119 43l-33 26l-10 8l-8 6l-7 7q-54 46 -85 46q-64 0 -93 -136z" />
    <glyph glyph-name="ograve" unicode="&#xf2;" 
d="M836 1110q243 0 367 -158q123 -158 73 -409q-51 -253 -237 -410q-187 -158 -436 -158q-216 0 -337 130q-151 164 -96 438q50 251 236 409t430 158zM802 938q-112 0 -199 -107q-89 -108 -125 -287q-36 -180 9 -288t158 -108q243 0 322 394q36 183 -9 289q-45 107 -156 107
zM861 1283l-257 321h295l145 -321h-183z" />
    <glyph glyph-name="oacute" unicode="&#xf3;" 
d="M836 1110q243 0 367 -158q123 -158 73 -409q-51 -253 -237 -410q-187 -158 -436 -158q-216 0 -337 130q-151 164 -96 438q50 251 236 409t430 158zM802 938q-112 0 -199 -107q-89 -108 -125 -287q-36 -180 9 -288t158 -108q243 0 322 394q36 183 -9 289q-45 107 -156 107
zM698 1283l272 321h295l-384 -321h-183z" />
    <glyph glyph-name="ocircumflex" unicode="&#xf4;" 
d="M836 1110q243 0 367 -158q123 -158 73 -409q-51 -253 -237 -410q-187 -158 -436 -158q-216 0 -337 130q-151 164 -96 438q50 251 236 409t430 158zM802 938q-112 0 -199 -107q-89 -108 -125 -287q-36 -180 9 -288t158 -108q243 0 322 394q36 183 -9 289q-45 107 -156 107
zM520 1283l272 321h285l145 -321h-160l-152 190h-2l-228 -190h-160z" />
    <glyph glyph-name="otilde" unicode="&#xf5;" 
d="M836 1110q243 0 367 -158q123 -158 73 -409q-51 -253 -237 -410q-187 -158 -436 -158q-216 0 -337 130q-151 164 -96 438q50 251 236 409t430 158zM802 938q-112 0 -199 -107q-89 -108 -125 -287q-36 -180 9 -288t158 -108q243 0 322 394q36 183 -9 289q-45 107 -156 107
zM657 1293h-148q31 141 77 213q72 108 187 108q65 0 119 -43l33 -26l11 -8q10 -8 15 -13q47 -46 84 -46q64 0 93 136h148q-31 -141 -78 -213q-71 -108 -186 -108q-62 0 -119 43l-33 26l-10 8l-8 6l-7 7q-54 46 -85 46q-64 0 -93 -136z" />
    <glyph glyph-name="odieresis" unicode="&#xf6;" 
d="M836 1110q243 0 367 -158q123 -158 73 -409q-51 -253 -237 -410q-187 -158 -436 -158q-216 0 -337 130q-151 164 -96 438q50 251 236 409t430 158zM802 938q-112 0 -199 -107q-89 -108 -125 -287q-36 -180 9 -288t158 -108q243 0 322 394q36 183 -9 289q-45 107 -156 107
zM528 1293l44 222h222l-44 -222h-222zM972 1293l44 222h222l-44 -222h-222z" />
    <glyph glyph-name="divide" unicode="&#xf7;" 
d="M466 0l59 296h296l-59 -296h-296zM205 518l40 198h1024l-40 -198h-1024zM653 938l59 296h296l-59 -296h-296z" />
    <glyph glyph-name="oslash" unicode="&#xf8;" 
d="M1247 1123h145l-185 -178q118 -156 69 -402q-51 -253 -237 -410q-187 -158 -436 -158q-187 0 -302 97l-100 -97h-144l176 170q-111 156 -63 398q50 251 236 409t430 158q185 0 302 -93zM644 148q126 5 213.5 110.5t123.5 284.5q23 113 13 197l-515 -496q47 -96 165 -96z
M802 938q-125 0 -213 -107.5t-124 -287.5q-21 -107 -15 -188l513 494q-47 89 -161 89z" />
    <glyph glyph-name="ugrave" unicode="&#xf9;" 
d="M213 913l35 173h389l-130 -646q-27 -139 -9 -189q18 -49 95 -49q116 0 284 172l108 539h-129l35 173h413l-183 -913h105l-34 -173h-389l31 160q-110 -100 -187 -140q-89 -45 -224 -45q-158 0 -209 85q-50 85 -10 281l114 572h-105zM848 1283l-257 321h295l145 -321h-183z
" />
    <glyph glyph-name="uacute" unicode="&#xfa;" 
d="M213 913l35 173h389l-130 -646q-27 -139 -9 -189q18 -49 95 -49q116 0 284 172l108 539h-129l35 173h413l-183 -913h105l-34 -173h-389l31 160q-110 -100 -187 -140q-89 -45 -224 -45q-158 0 -209 85q-50 85 -10 281l114 572h-105zM695 1283l272 321h295l-384 -321h-183z
" />
    <glyph glyph-name="ucircumflex" unicode="&#xfb;" 
d="M213 913l35 173h389l-130 -646q-27 -139 -9 -189q18 -49 95 -49q116 0 284 172l108 539h-129l35 173h413l-183 -913h105l-34 -173h-389l31 160q-110 -100 -187 -140q-89 -45 -224 -45q-158 0 -209 85q-50 85 -10 281l114 572h-105zM516 1283l272 321h285l145 -321h-160
l-152 190h-2l-228 -190h-160z" />
    <glyph glyph-name="udieresis" unicode="&#xfc;" 
d="M213 913l35 173h389l-130 -646q-27 -139 -9 -189q18 -49 95 -49q116 0 284 172l108 539h-129l35 173h413l-183 -913h105l-34 -173h-389l31 160q-110 -100 -187 -140q-89 -45 -224 -45q-158 0 -209 85q-50 85 -10 281l114 572h-105zM524 1293l44 222h222l-44 -222h-222z
M968 1293l44 222h222l-44 -222h-222z" />
    <glyph glyph-name="yacute" unicode="&#xfd;" 
d="M509 33l-214 880h-101l35 173h574l-35 -173h-138l127 -517l341 517h-138l35 173h438l-35 -173h-102l-754 -1135h201l-34 -173h-683l34 173h197zM771 1283l272 321h295l-384 -321h-183z" />
    <glyph glyph-name="thorn" unicode="&#xfe;" 
d="M317 1406l35 173h395l-131 -654q185 185 378 185q180 0 259 -143q78 -143 29 -388q-57 -288 -227 -446q-169 -158 -423 -158q-92 0 -200 25l-45 -222h123l-34 -173h-517l34 173h97l325 1628h-98zM472 203l26 -7q77 -21 146 -21q261 0 336 371q67 337 -131 337
q-125 0 -275 -171z" />
    <glyph glyph-name="ydieresis" unicode="&#xff;" 
d="M509 33l-214 880h-101l35 173h584l-35 -173h-148l127 -517l341 517h-147l35 173h447l-35 -173h-102l-754 -1135h201l-34 -173h-683l34 173h197zM591 1293l44 222h222l-44 -222h-222zM1035 1293l44 222h222l-44 -222h-222z" />
    <glyph glyph-name="Amacron" unicode="&#x100;" 
d="M25 0l34 173h62l635 1307h307l114 -1307h61l-34 -173h-491l34 173h135l-20 234h-448l-114 -234h136l-34 -173h-377zM497 580h350l-53 609h-2zM560 1644l35 173h740l-35 -173h-740z" />
    <glyph glyph-name="amacron" unicode="&#x101;" 
d="M636 1110h220q231 0 -220 0zM541 1303l34 173h740l-34 -173h-740zM1306 1086l-183 -913h99l-34 -173h-384l31 160q-191 -185 -381 -185q-181 0 -260 143q-78 143 -29 389q57 288 228 446q170 158 422 158q89 0 206 -25h285zM980 883l-33 7q-77 21 -146 21
q-260 0 -335 -371q-67 -337 130 -337q126 0 282 171z" />
    <glyph glyph-name="Abreve" unicode="&#x102;" 
d="M25 0l34 173h62l635 1307h307l114 -1307h61l-34 -173h-491l34 173h135l-20 234h-448l-114 -234h136l-34 -173h-377zM497 580h350l-53 609h-2zM635 1935h136q14 -148 189 -148t246 148h136q-45 -135 -137 -216q-120 -105 -280 -105q-168 0 -245 114q-53 79 -45 207z" />
    <glyph glyph-name="abreve" unicode="&#x103;" 
d="M599 1604h136q13 -148 188 -148t247 148h136q-45 -136 -137 -216q-120 -105 -280 -105q-167 0 -245 114q-54 79 -45 207zM1306 1086l-183 -913h99l-34 -173h-384l31 160q-191 -185 -381 -185q-181 0 -260 143q-78 143 -29 389q57 288 228 446q170 158 422 158
q89 0 206 -25h285zM980 883l-33 7q-77 21 -146 21q-260 0 -335 -371q-67 -337 130 -337q126 0 282 171z" />
    <glyph glyph-name="Aogonek" unicode="&#x104;" 
d="M25 0l34 173h62l635 1307h307l114 -1307h61l-34 -173h-140q-212 -84 -232 -181q-18 -94 141 -94q46 0 115 15l-17 -81q-86 -29 -177 -29q-284 0 -253 156q24 120 265 214h-193l34 173h135l-20 234h-448l-114 -234h136l-34 -173h-377zM497 580h350l-53 609h-2z" />
    <glyph glyph-name="aogonek" unicode="&#x105;" 
d="M1049 0q-212 -84 -232 -181q-18 -94 141 -94q46 0 115 15l-17 -81q-85 -29 -177 -29q-284 0 -253 156q24 120 265 214h-87l31 160q-191 -185 -381 -185q-181 0 -260 143q-78 143 -29 389q57 288 228 446q170 158 422 158q89 0 206 -25h285l-183 -913h99l-34 -173h-139z
M980 883l-33 7q-77 21 -146 21q-260 0 -335 -371q-67 -337 130 -337q126 0 282 171z" />
    <glyph glyph-name="Cacute" unicode="&#x106;" 
d="M1234 261l-44 -216q-218 -82 -426 -82q-330 0 -484 208q-156 208 -86 559q71 352 307 569q236 218 553 218q183 0 386 -66l-85 -427h-173l26 257q-75 64 -177 64q-178 0 -317 -161q-140 -160 -193 -426q-57 -284 31 -442q87 -158 300 -158q155 0 382 103zM888 1614
l272 321h295l-384 -321h-183z" />
    <glyph glyph-name="cacute" unicode="&#x107;" 
d="M1233 266l-43 -214q-251 -77 -462 -77q-315 0 -464 150q-147 151 -95 415q53 263 268 416q213 154 532 154q208 0 409 -54l-73 -365h-172l15 203q-101 47 -223 47q-361 0 -435 -370q-41 -205 51 -306q86 -93 277 -93q148 0 415 94zM821 1283l272 321h295l-384 -321h-183z
" />
    <glyph glyph-name="Ccircumflex" unicode="&#x108;" 
d="M1234 261l-44 -216q-218 -82 -426 -82q-330 0 -484 208q-156 208 -86 559q71 352 307 569q236 218 553 218q183 0 386 -66l-85 -427h-173l26 257q-75 64 -177 64q-178 0 -317 -161q-140 -160 -193 -426q-57 -284 31 -442q87 -158 300 -158q155 0 382 103zM707 1614
l272 321h285l145 -321h-160l-152 190h-2l-228 -190h-160z" />
    <glyph glyph-name="ccircumflex" unicode="&#x109;" 
d="M1233 266l-43 -214q-251 -77 -462 -77q-315 0 -464 150q-147 151 -95 415q53 263 268 416q213 154 532 154q208 0 409 -54l-73 -365h-172l15 203q-101 47 -223 47q-361 0 -435 -370q-41 -205 51 -306q86 -93 277 -93q148 0 415 94zM643 1283l272 321h285l145 -321h-160
l-152 190h-2l-228 -190h-160z" />
    <glyph glyph-name="Cdotaccent" unicode="&#x10a;" 
d="M1234 261l-44 -216q-218 -82 -426 -82q-330 0 -484 208q-156 208 -86 559q71 352 307 569q236 218 553 218q183 0 386 -66l-85 -427h-173l26 257q-75 64 -177 64q-178 0 -317 -161q-140 -160 -193 -426q-57 -284 31 -442q87 -158 300 -158q155 0 382 103zM921 1639
l59 296h296l-59 -296h-296z" />
    <glyph glyph-name="cdotaccent" unicode="&#x10b;" 
d="M1233 266l-43 -214q-251 -77 -462 -77q-315 0 -464 150q-147 151 -95 415q53 263 268 416q213 154 532 154q208 0 409 -54l-73 -365h-172l15 203q-101 47 -223 47q-361 0 -435 -370q-41 -205 51 -306q86 -93 277 -93q148 0 415 94zM826 1303l59 296h296l-59 -296h-296z
" />
    <glyph glyph-name="Ccaron" unicode="&#x10c;" 
d="M1234 261l-44 -216q-218 -82 -426 -82q-330 0 -484 208q-156 208 -86 559q71 352 307 569q236 218 553 218q183 0 386 -66l-85 -427h-173l26 257q-75 64 -177 64q-178 0 -317 -161q-140 -160 -193 -426q-57 -284 31 -442q87 -158 300 -158q155 0 382 103zM1473 1935
l-272 -321h-285l-145 321h160l152 -190h2l228 190h160z" />
    <glyph glyph-name="ccaron" unicode="&#x10d;" 
d="M1233 266l-43 -214q-251 -77 -462 -77q-315 0 -464 150q-147 151 -95 415q53 263 268 416q213 154 532 154q208 0 409 -54l-73 -365h-172l15 203q-101 47 -223 47q-361 0 -435 -370q-41 -205 51 -306q86 -93 277 -93q148 0 415 94zM1399 1604l-272 -321h-285l-145 321
h160l152 -190h2l228 190h160z" />
    <glyph glyph-name="Dcaron" unicode="&#x10e;" 
d="M37 0l34 173h99l227 1135h-99l34 172h440q341 0 486 -182q144 -182 76 -527q-74 -368 -306 -569q-232 -202 -586 -202h-405zM466 173h46q381 0 497 581q50 251 -1 389q-59 159 -271 164l-44 1zM1275 1935l-272 -321h-285l-145 321h160l152 -190h2l228 190h160z" />
    <glyph glyph-name="dcaron" unicode="&#x10f;" 
d="M638 0l31 160q-159 -185 -319 -185q-151 0 -212 143q-61 144 -12 388q57 289 204 447q146 158 359 158q75 0 166 -25l63 320h-103l35 173h350l-281 -1406h82l-34 -173h-329zM814 883l-22 7q-63 21 -121 21q-217 0 -291 -370q-68 -338 96 -338q104 0 236 171zM1340 1283
h-101l59 296h246l-46 -229q-32 -161 -113 -256q-82 -98 -197 -107h-8l20 102q103 14 134 165z" />
    <glyph glyph-name="Dcroat" unicode="&#x110;" 
d="M37 0l34 173h99l99 496h-136l35 173h136l93 466h-99l34 172h440q341 0 486 -182q144 -182 76 -527q-74 -368 -306 -569q-232 -202 -586 -202h-405zM466 173h46q381 0 497 581q50 251 -1 389q-59 159 -271 164l-44 1l-93 -466h198l-35 -173h-198z" />
    <glyph glyph-name="dcroat" unicode="&#x111;" 
d="M798 0l31 160q-185 -185 -377 -185q-181 0 -260 143q-78 143 -29 389q57 288 228 446q170 158 422 158q91 0 202 -25l22 111h-247l24 123h247l17 86h-124l35 173h420l-52 -259h123l-24 -123h-123l-205 -1024h99l-34 -173h-395zM974 883l-27 7q-77 21 -146 21
q-260 0 -335 -371q-67 -337 130 -337q126 0 276 171z" />
    <glyph glyph-name="Emacron" unicode="&#x112;" 
d="M37 0l34 173h148l227 1135h-148l34 172h1073l-74 -370h-185l40 198h-444l-96 -481h235l24 123h172l-84 -420h-172l25 124h-235l-94 -469h506l45 222h185l-81 -407h-1135zM513 1644l35 173h740l-35 -173h-740z" />
    <glyph glyph-name="emacron" unicode="&#x113;" 
d="M1218 254l-40 -203q-257 -76 -485 -76q-300 0 -439 150q-138 149 -86 410q52 258 245 417q191 159 450 159q246 0 352 -150q105 -149 50 -422l-11 -58h-787q-3 -89 11 -135q53 -177 310 -177q166 0 430 85zM507 654h481q22 119 -13 189q-45 91 -160 91q-127 0 -216 -98
q-62 -68 -92 -182zM554 1303l34 173h740l-34 -173h-740z" />
    <glyph glyph-name="Ebreve" unicode="&#x114;" 
d="M37 0l34 173h148l227 1135h-148l34 172h1073l-74 -370h-185l40 198h-444l-96 -481h235l24 123h172l-84 -420h-172l25 124h-235l-94 -469h506l45 222h185l-81 -407h-1135zM613 1935h136q14 -148 189 -148t246 148h136q-45 -135 -137 -216q-120 -105 -280 -105
q-168 0 -245 114q-53 79 -45 207z" />
    <glyph glyph-name="ebreve" unicode="&#x115;" 
d="M1218 254l-40 -203q-257 -76 -485 -76q-300 0 -439 150q-138 149 -86 410q52 258 245 417q191 159 450 159q246 0 352 -150q105 -149 50 -422l-11 -58h-787q-3 -89 11 -135q53 -177 310 -177q166 0 430 85zM507 654h481q22 119 -13 189q-45 91 -160 91q-127 0 -216 -98
q-62 -68 -92 -182zM618 1604h136q13 -148 188 -148t247 148h136q-45 -136 -137 -216q-121 -105 -280 -105q-167 0 -245 115q-54 78 -45 206z" />
    <glyph glyph-name="Edotaccent" unicode="&#x116;" 
d="M37 0l34 173h148l227 1135h-148l34 172h1073l-74 -370h-185l40 198h-444l-96 -481h235l24 123h172l-84 -420h-172l25 124h-235l-94 -469h506l45 222h185l-81 -407h-1135zM791 1639l59 296h296l-59 -296h-296z" />
    <glyph glyph-name="edotaccent" unicode="&#x117;" 
d="M1218 254l-40 -203q-257 -76 -485 -76q-300 0 -439 150q-138 149 -86 410q52 258 245 417q191 159 450 159q246 0 352 -150q105 -149 50 -422l-11 -58h-787q-3 -89 11 -135q53 -177 310 -177q166 0 430 85zM507 654h481q22 119 -13 189q-45 91 -160 91q-127 0 -216 -98
q-62 -68 -92 -182zM739 1303l59 296h296l-59 -296h-296z" />
    <glyph glyph-name="Eogonek" unicode="&#x118;" 
d="M37 0l34 173h148l227 1135h-148l34 172h1073l-74 -370h-185l40 198h-444l-96 -481h235l24 123h172l-84 -420h-172l25 124h-235l-94 -469h506l45 222h185l-81 -407h-126q-212 -84 -232 -181q-18 -94 141 -94q46 0 115 15l-17 -81q-85 -29 -177 -29q-284 0 -253 156
q24 120 265 214h-851z" />
    <glyph glyph-name="eogonek" unicode="&#x119;" 
d="M1218 254l-40 -203q-156 -46 -300 -64q-181 -78 -199 -168q-18 -94 141 -94q46 0 115 15l-17 -81q-85 -29 -177 -29q-284 0 -253 156q21 104 205 189q-300 0 -439 150q-138 149 -86 410q52 258 245 417q191 159 450 159q246 0 352 -150q105 -149 50 -422l-11 -58h-787
q-3 -89 11 -135q53 -177 310 -177q166 0 430 85zM507 654h481q22 119 -13 189q-45 91 -160 91q-127 0 -216 -98q-62 -68 -92 -182z" />
    <glyph glyph-name="Ecaron" unicode="&#x11a;" 
d="M37 0l34 173h148l227 1135h-148l34 172h1073l-74 -370h-185l40 198h-444l-96 -481h235l24 123h172l-84 -420h-172l25 124h-235l-94 -469h506l45 222h185l-81 -407h-1135zM1398 1935l-272 -321h-285l-145 321h160l152 -190h2l228 190h160z" />
    <glyph glyph-name="ecaron" unicode="&#x11b;" 
d="M1218 254l-40 -203q-257 -76 -485 -76q-300 0 -439 150q-138 149 -86 410q52 258 245 417q191 159 450 159q246 0 352 -150q105 -149 50 -422l-11 -58h-787q-3 -89 11 -135q53 -177 310 -177q166 0 430 85zM507 654h481q22 119 -13 189q-45 91 -160 91q-127 0 -216 -98
q-62 -68 -92 -182zM1335 1604l-272 -321h-285l-145 321h160l152 -190h2l228 190h160z" />
    <glyph glyph-name="Gcircumflex" unicode="&#x11c;" 
d="M1305 685l-127 -635q-217 -87 -438 -87q-314 0 -463 213q-151 212 -83 554q71 352 307 569q236 218 552 218q173 0 374 -66l-85 -427h-173l27 257q-75 64 -173 64q-172 0 -311 -163q-140 -163 -192 -425q-53 -266 26 -432q80 -166 260 -166q38 0 100 10l69 343h-185
l34 173h481zM707 1614l272 321h285l145 -321h-160l-152 190h-2l-228 -190h-160z" />
    <glyph glyph-name="gcircumflex" unicode="&#x11d;" 
d="M508 1283l272 321h285l145 -321h-160l-152 190h-2l-228 -190h-160zM974 883l-27 7q-77 21 -146 21q-260 0 -324 -316q-56 -282 122 -282q145 0 295 171zM1015 1086h395l-35 -173h-99l-162 -808q-51 -258 -197 -384t-445 -141q-189 0 -406 64l67 331h173l-8 -158
q94 -68 225 -68q169 15 222 115q41 77 70 224l36 182q-186 -185 -378 -185t-266 143q-74 129 -33 334q46 233 217 391q170 158 422 158q91 0 202 -25z" />
    <glyph glyph-name="Gbreve" unicode="&#x11e;" 
d="M1305 685l-127 -635q-217 -87 -438 -87q-314 0 -463 213q-151 212 -83 554q71 352 307 569q236 218 552 218q173 0 374 -66l-85 -427h-173l27 257q-75 64 -173 64q-172 0 -311 -163q-140 -163 -192 -425q-53 -266 26 -432q80 -166 260 -166q38 0 100 10l69 343h-185
l34 173h481zM768 1935h136q14 -148 189 -148q101 0 167 48q47 33 79 100h136q-45 -135 -137 -216q-120 -105 -280 -105q-168 0 -245 114q-53 79 -45 207z" />
    <glyph glyph-name="gbreve" unicode="&#x11f;" 
d="M558 1604h136q13 -148 188 -148t247 148h136q-45 -136 -137 -216q-120 -105 -280 -105q-167 0 -245 114q-54 79 -45 207zM974 883l-27 7q-77 21 -146 21q-260 0 -324 -316q-56 -282 122 -282q145 0 295 171zM1015 1086h395l-35 -173h-99l-162 -808q-51 -258 -197 -384
t-445 -141q-189 0 -406 64l67 331h173l-8 -158q94 -68 225 -68q169 15 222 115q41 77 70 224l36 182q-186 -185 -378 -185t-266 143q-74 129 -33 334q46 233 217 391q170 158 422 158q91 0 202 -25z" />
    <glyph glyph-name="Gdotaccent" unicode="&#x120;" 
d="M1305 685l-127 -635q-217 -87 -438 -87q-314 0 -463 213q-151 212 -83 554q71 352 307 569q236 218 552 218q173 0 374 -66l-85 -427h-173l27 257q-75 64 -173 64q-172 0 -311 -163q-140 -163 -192 -425q-53 -266 26 -432q80 -166 260 -166q38 0 100 10l69 343h-185
l34 173h481zM926 1639l59 296h296l-59 -296h-296z" />
    <glyph glyph-name="gdotaccent" unicode="&#x121;" 
d="M720 1303l59 296h296l-59 -296h-296zM974 883l-27 7q-77 21 -146 21q-260 0 -324 -316q-56 -282 122 -282q145 0 295 171zM1015 1086h395l-35 -173h-99l-162 -808q-51 -258 -197 -384t-445 -141q-189 0 -406 64l67 331h173l-8 -158q94 -68 225 -68q169 15 222 115
q41 77 70 224l36 182q-186 -185 -378 -185t-266 143q-74 129 -33 334q46 233 217 391q170 158 422 158q91 0 202 -25z" />
    <glyph glyph-name="uni0122" unicode="&#x122;" 
d="M1305 685l-127 -635q-219 -87 -438 -87q-314 0 -463 213q-151 212 -83 554q71 352 307 569q236 218 552 218q174 0 374 -66l-85 -427h-173l27 257q-76 64 -173 64q-172 0 -311 -163q-140 -162 -192 -425q-53 -266 26 -432q80 -166 260 -166q38 0 100 10l69 343h-185
l34 173h481zM552 -99q176 -3 248 -38q87 -43 69 -129q-13 -69 -93 -117q-80 -49 -188 -49q-96 0 -174 13l18 92q53 -6 96 -6q130 0 144 68q15 75 -138 77z" />
    <glyph glyph-name="uni0123" unicode="&#x123;" 
d="M1144 1875l-18 -92q-115 0 -149 -168l-6 -36h114l-59 -296h-296l45 224q69 340 369 368zM974 883l-27 7q-77 21 -146 21q-260 0 -324 -316q-56 -282 122 -282q145 0 295 171zM1015 1086h395l-35 -173h-99l-162 -808q-51 -258 -197 -384t-445 -141q-189 0 -406 64l67 331
h173l-8 -158q94 -68 225 -68q169 15 222 115q41 77 70 224l36 182q-186 -185 -378 -185t-266 143q-74 129 -33 334q46 233 217 391q170 158 422 158q91 0 202 -25z" />
    <glyph glyph-name="Hcircumflex" unicode="&#x124;" 
d="M37 0l34 173h99l227 1135h-99l34 172h494l-34 -172h-99l-91 -457h365l91 457h-99l34 172h494l-34 -172h-99l-227 -1135h99l-34 -173h-494l34 173h99l99 493h-365l-99 -493h99l-34 -173h-494zM584 1614l272 321h285l145 -321h-160l-152 190h-2l-228 -190h-160z" />
    <glyph glyph-name="hcircumflex" unicode="&#x125;" 
d="M37 0l34 173h105l246 1233h-105l35 173h395l-131 -654q87 83 164 124q114 61 241 61q157 0 209 -84q51 -83 11 -281l-114 -572h105l-34 -173h-518l34 173h129l94 472q29 141 10 189q-18 49 -95 49q-115 0 -284 -172l-108 -538h129l-34 -173h-518zM582 1678l272 321h285
l145 -321h-160l-152 190h-2l-228 -190h-160z" />
    <glyph glyph-name="Hbar" unicode="&#x126;" 
d="M602 851h365l39 198h-365zM37 0l34 173h99l175 876h-99l25 123h99l27 136h-99l34 172h494l-34 -172h-99l-27 -136h365l27 136h-99l34 172h494l-34 -172h-99l-27 -136h99l-25 -123h-99l-175 -876h99l-34 -173h-494l34 173h99l99 493h-365l-99 -493h99l-34 -173h-494z" />
    <glyph glyph-name="hbar" unicode="&#x127;" 
d="M37 0l34 173h105l202 1011h-105l25 124h105l19 98h-105l35 173h395l-54 -271h296l-25 -124h-296l-52 -259q87 83 164 124q114 61 241 61q157 0 209 -84q51 -83 11 -281l-114 -572h105l-34 -173h-518l34 173h129l94 472q29 141 10 189q-18 49 -95 49q-115 0 -284 -172
l-108 -538h129l-34 -173h-518z" />
    <glyph glyph-name="Itilde" unicode="&#x128;" 
d="M123 0l34 173h343l227 1135h-343l34 172h982l-34 -172h-343l-227 -1135h343l-34 -173h-982zM730 1614h-148q31 141 78 213q71 108 186 108q65 0 120 -43l32 -26l11 -8q10 -8 15 -13q47 -46 84 -46q64 0 93 136h148q-31 -141 -77 -213q-72 -108 -187 -108q-62 0 -118 43
l-34 26l-10 8l-7 6q-4 3 -8 7q-54 46 -85 46q-64 0 -93 -136z" />
    <glyph glyph-name="itilde" unicode="&#x129;" 
d="M140 0l34 173h370l148 740h-370l35 173h666l-183 -913h370l-34 -173h-1036zM632 1293h-148q31 141 77 213q72 108 187 108q65 0 119 -43l33 -26l11 -8q12 -10 16 -14q13 -14 41 -30q26 -15 43 -15q63 0 92 136h148q-31 -141 -78 -213q-71 -108 -186 -108q-62 0 -119 43
l-33 26l-12 10q-69 57 -99 57q-63 0 -92 -136z" />
    <glyph glyph-name="Imacron" unicode="&#x12a;" 
d="M123 0l34 173h343l227 1135h-343l34 172h982l-34 -172h-343l-227 -1135h343l-34 -173h-982zM570 1644l35 173h740l-35 -173h-740z" />
    <glyph glyph-name="imacron" unicode="&#x12b;" 
d="M140 0l34 173h370l148 740h-370l35 173h666l-183 -913h370l-34 -173h-1036zM498 1303l34 173h740l-34 -173h-740z" />
    <glyph glyph-name="Ibreve" unicode="&#x12c;" 
d="M123 0l34 173h343l227 1135h-343l34 172h982l-34 -172h-343l-227 -1135h343l-34 -173h-982zM634 1935h136q14 -148 189 -148t246 148h136q-45 -135 -137 -216q-120 -105 -280 -105q-167 0 -245 114q-53 79 -45 207z" />
    <glyph glyph-name="ibreve" unicode="&#x12d;" 
d="M140 0l34 173h370l148 740h-370l35 173h666l-183 -913h370l-34 -173h-1036zM590 1604h136q13 -148 188 -148q102 0 168 48q47 33 79 100h136q-45 -136 -137 -216q-120 -105 -280 -105q-167 0 -245 114q-54 79 -45 207z" />
    <glyph glyph-name="Iogonek" unicode="&#x12e;" 
d="M123 0l34 173h343l227 1135h-343l34 172h982l-34 -172h-343l-227 -1135h343l-34 -173h-175q-212 -84 -232 -181q-18 -94 141 -94q46 0 115 15l-17 -81q-86 -29 -177 -29q-284 0 -253 156q24 120 265 214h-649z" />
    <glyph glyph-name="iogonek" unicode="&#x12f;" 
d="M140 0l34 173h370l148 740h-370l35 173h666l-183 -913h370l-34 -173h-175q-212 -84 -232 -181q-18 -94 141 -94q46 0 115 15l-17 -81q-85 -29 -177 -29q-284 0 -253 156q24 120 265 214h-703zM766 1283l59 296h296l-59 -296h-296z" />
    <glyph glyph-name="Idotaccent" unicode="&#x130;" 
d="M123 0l34 173h343l227 1135h-343l34 172h982l-34 -172h-343l-227 -1135h343l-34 -173h-982zM776 1639l59 296h296l-59 -296h-296z" />
    <glyph glyph-name="dotlessi" unicode="&#x131;" 
d="M140 0l34 173h370l148 740h-370l35 173h666l-183 -913h370l-34 -173h-1036z" />
    <glyph glyph-name="IJ" unicode="&#x132;" 
d="M32 0l34 173h74l227 1135h-74l34 172h444l-34 -172h-74l-227 -1135h49l-34 -173h-419zM546 -19l43 216h161l-18 -89q6 -22 27 -22q63 0 119 89q57 88 86 235l180 898h-172l34 172h468l-189 -947q-63 -316 -193 -443q-129 -127 -384 -127q-79 0 -162 18z" />
    <glyph glyph-name="ij" unicode="&#x133;" 
d="M57 0l34 173h123l148 740h-123l35 173h419l-183 -913h112l-34 -173h-531zM1323 1086l-215 -1075q-47 -233 -159 -332t-327 -99q-121 0 -241 37l42 210h160l-14 -68q31 -31 69 -31q117 0 155 190l199 995h-136l35 173h432zM1066 1283l59 296h296l-59 -296h-296zM436 1283
l59 296h296l-59 -296h-296z" />
    <glyph glyph-name="Jcircumflex" unicode="&#x134;" 
d="M117 31l97 487h172l-39 -319q85 -61 158 -61q103 0 150 72q39 60 66 193l181 905h-321l34 172h864l-34 -172h-247l-185 -925q-84 -420 -521 -420q-126 0 -302 48zM727 1614l272 321h285l145 -321h-160l-152 190h-2l-228 -190h-160z" />
    <glyph glyph-name="jcircumflex" unicode="&#x135;" 
d="M7 -356l81 405h173l-22 -232q94 -68 185 -68q126 0 179 100q41 77 73 239l165 825h-432l35 173h728l-197 -981q-54 -273 -200 -399t-402 -126q-149 0 -366 64zM608 1283l272 321h285l145 -321h-161l-151 190h-2l-228 -190h-160z" />
    <glyph glyph-name="uni0136" unicode="&#x136;" 
d="M37 0l34 173h98l227 1135h-98l34 172h493l-34 -172h-99l-106 -531h25l543 531h-111l34 172h442l-34 -172h-115l-502 -489l354 -646h41l-34 -173h-490l34 173h123l-297 543h-25l-109 -543h99l-34 -173h-493zM485 -99q175 -3 248 -38q87 -43 69 -129q-13 -69 -93 -117
q-80 -49 -188 -49q-96 0 -174 13l18 92q53 -6 96 -6q130 0 144 68q14 74 -138 77z" />
    <glyph glyph-name="uni0137" unicode="&#x137;" 
d="M37 0l34 173h98l246 1233h-98l35 173h394l-192 -962h50l343 296h-124l35 173h516l-35 -173h-148l-318 -277l254 -463h99l-34 -173h-471l34 173l-176 320h-50l-64 -320h99l-34 -173h-493zM485 -99q175 -3 248 -38q87 -43 69 -129q-13 -69 -93 -117q-81 -49 -188 -49
q-96 0 -174 13l18 92q53 -6 96 -6q130 0 144 68q15 75 -138 77z" />
    <glyph glyph-name="kgreenlandic" unicode="&#x138;" 
d="M37 0l34 173h98l148 740h-98l35 173h394l-94 -469h50l343 296h-124l35 173h516l-35 -173h-148l-318 -277l254 -463h99l-34 -173h-471l34 173l-176 320h-50l-64 -320h99l-34 -173h-493z" />
    <glyph glyph-name="Lacute" unicode="&#x139;" 
d="M49 0l34 173h197l227 1135h-197l34 172h691l-34 -172h-197l-225 -1123h476l62 308h160l-98 -493h-1130zM650 1614l272 321h295l-384 -321h-183z" />
    <glyph glyph-name="lacute" unicode="&#x13a;" 
d="M725 1678l272 321h295l-384 -321h-183zM350 1406l35 173h616l-219 -1096q-13 -66 -20.5 -121t1 -94.5t39 -61.5t92.5 -22q28 0 58.5 2.5t65 9.5t74.5 19t66 25l-40 -202q-36 -17 -89 -31t-101.5 -21t-92.5 -9t-85 -2q-101 0 -165 28t-96 87t-32.5 151.5t25.5 220.5
l188 944h-320z" />
    <glyph glyph-name="uni013B" unicode="&#x13b;" 
d="M49 0l34 173h197l227 1135h-197l34 172h691l-34 -172h-197l-225 -1123h476l62 308h160l-98 -493h-1130zM522 -99q175 -3 248 -38q87 -43 69 -129q-13 -69 -93 -117q-80 -49 -188 -49q-96 0 -174 13l18 92q53 -6 96 -6q130 0 144 68q15 75 -138 77z" />
    <glyph glyph-name="uni013C" unicode="&#x13c;" 
d="M519 -99q175 -3 248 -38q87 -43 69 -129q-13 -69 -93 -117q-81 -49 -188 -49q-96 0 -174 13l18 92q53 -6 96 -6q130 0 144 68q15 75 -138 77zM350 1406l35 173h616l-219 -1096q-13 -66 -20.5 -121t1 -94.5t39 -61.5t92.5 -22q28 0 58.5 2.5t65 9.5t74.5 19t66 25
l-40 -202q-36 -17 -89 -31t-101.5 -21t-92.5 -9t-85 -2q-101 0 -165 28t-96 87t-32.5 151.5t25.5 220.5l188 944h-320z" />
    <glyph glyph-name="Lcaron" unicode="&#x13d;" 
d="M49 0l34 173h197l227 1135h-197l34 172h691l-34 -172h-197l-225 -1123h476l62 308h160l-98 -493h-1130zM1238 1184h-102l59 296h247l-46 -229q-31 -160 -114 -256q-81 -98 -197 -107h-8l20 102q104 13 135 165z" />
    <glyph glyph-name="lcaron" unicode="&#x13e;" 
d="M1299 1283h-101l59 296h246l-46 -229q-32 -160 -113 -256q-82 -97 -197 -107h-8l20 102q104 14 134 165zM350 1406l35 173h616l-219 -1096q-13 -66 -20.5 -121t1 -94.5t39 -61.5t92.5 -22q28 0 58.5 2.5t65 9.5t74.5 19t66 25l-40 -202q-36 -17 -89 -31t-101.5 -21
t-92.5 -9t-85 -2q-101 0 -165 28t-96 87t-32.5 151.5t25.5 220.5l188 944h-320z" />
    <glyph glyph-name="Ldot" unicode="&#x13f;" 
d="M49 0l34 173h197l227 1135h-197l34 172h691l-34 -172h-197l-225 -1123h476l62 308h160l-98 -493h-1130zM853 654l59 296h296l-59 -296h-296z" />
    <glyph glyph-name="ldot" unicode="&#x140;" 
d="M1062 654l59 296h296l-59 -296h-296zM350 1406l35 173h616l-219 -1096q-13 -66 -20.5 -121t1 -94.5t39 -61.5t92.5 -22q28 0 58.5 2.5t65 9.5t74.5 19t66 25l-40 -202q-36 -17 -89 -31t-101.5 -21t-92.5 -9t-85 -2q-101 0 -165 28t-96 87t-32.5 151.5t25.5 220.5l188 944
h-320z" />
    <glyph glyph-name="Lslash" unicode="&#x141;" 
d="M49 0l34 173h197l85 424l-217 -99l39 193l216 99l104 518h-197l34 172h691l-34 -172h-197l-75 -370l327 148l-39 -194l-327 -148l-111 -559h476l62 308h160l-98 -493h-1130z" />
    <glyph glyph-name="lslash" unicode="&#x142;" 
d="M350 1406l35 173h616l-123 -617l325 148l-38 -194l-326 -148l-57 -285q-13 -66 -20.5 -121t1 -94.5t39 -61.5t92.5 -22q28 0 58.5 2.5t65 9.5t74.5 19t66 25l-40 -202q-36 -17 -89 -31t-101.5 -21t-92.5 -9t-85 -2q-101 0 -165 28t-96 87t-32.5 151.5t25.5 220.5l32 159
l-326 -147l39 195l325 146l118 591h-320z" />
    <glyph glyph-name="Nacute" unicode="&#x143;" 
d="M37 0l34 173h99l227 1135h-99l34 172h296l389 -999l165 827h-148l34 172h444l-34 -172h-99l-261 -1308h-197l-390 993l-164 -820h148l-34 -173h-444zM774 1604l272 321h285l-384 -321h-173z" />
    <glyph glyph-name="nacute" unicode="&#x144;" 
d="M37 0l34 173h105l148 740h-105l35 173h389l-33 -161q109 100 187 140q90 45 225 45q158 0 208 -85q51 -84 11 -280l-114 -572h105l-34 -173h-518l34 173h129l94 472q29 141 10 189q-18 49 -95 49q-115 0 -284 -172l-108 -538h129l-34 -173h-518zM682 1283l272 321h295
l-384 -321h-183z" />
    <glyph glyph-name="uni0145" unicode="&#x145;" 
d="M37 0l34 173h99l227 1135h-99l34 172h296l389 -999l165 827h-148l34 172h444l-34 -172h-99l-261 -1308h-197l-390 993l-164 -820h148l-34 -173h-444zM511 -99q175 -3 248 -38q87 -43 69 -129q-13 -69 -93 -117q-81 -49 -188 -49q-96 0 -174 13l18 92q53 -6 96 -6
q130 0 144 68q15 75 -138 77z" />
    <glyph glyph-name="uni0146" unicode="&#x146;" 
d="M37 0l34 173h105l148 740h-105l35 173h389l-33 -161q109 100 187 140q90 45 225 45q158 0 208 -85q51 -84 11 -280l-114 -572h105l-34 -173h-518l34 173h129l94 472q29 141 10 189q-18 49 -95 49q-115 0 -284 -172l-108 -538h129l-34 -173h-518zM498 -99q175 -3 248 -38
q87 -43 69 -129q-13 -69 -93 -117q-81 -49 -188 -49q-96 0 -174 13l18 92q53 -6 96 -6q130 0 144 68q15 75 -138 77z" />
    <glyph glyph-name="Ncaron" unicode="&#x147;" 
d="M37 0l34 173h99l227 1135h-99l34 172h296l389 -999l165 827h-148l34 172h444l-34 -172h-99l-261 -1308h-197l-390 993l-164 -820h148l-34 -173h-444zM1318 1935l-272 -321h-285l-145 321h160l152 -190h2l228 190h160z" />
    <glyph glyph-name="ncaron" unicode="&#x148;" 
d="M37 0l34 173h105l148 740h-105l35 173h389l-33 -161q109 100 187 140q90 45 225 45q158 0 208 -85q51 -84 11 -280l-114 -572h105l-34 -173h-518l34 173h129l94 472q29 141 10 189q-18 49 -95 49q-115 0 -284 -172l-108 -538h129l-34 -173h-518zM1268 1604l-272 -321
h-285l-145 321h160l152 -190h2l228 190h160z" />
    <glyph glyph-name="napostrophe" unicode="&#x149;" 
d="M37 0l34 173h105l148 740h-105l35 173h389l-33 -161q109 100 187 140q90 45 225 45q158 0 208 -85q51 -84 11 -280l-114 -572h105l-34 -173h-518l34 173h129l94 472q29 142 10 189q-19 49 -95 49q-115 0 -284 -172l-108 -538h129l-34 -173h-518zM387 1431h-102l60 296
h257l-46 -229q-32 -160 -114 -256q-82 -98 -208 -107h-8l21 102q103 14 135 165z" />
    <glyph glyph-name="Eng" unicode="&#x14a;" 
d="M37 0l34 173h99l227 1135h-99l34 172h296l389 -999l165 827h-148l34 172h444l-34 -172h-99l-261 -1308q-84 -420 -417 -420q-74 0 -230 31l43 216h148l-3 -18q-19 -130 69 -130q128 0 182 269l11 52l-390 993l-164 -820h148l-34 -173h-444z" />
    <glyph glyph-name="eng" unicode="&#x14b;" 
d="M37 0l34 173h105l148 740h-105l35 173h389l-33 -161q109 100 187 140q89 45 225 45q158 0 208 -85q51 -84 11 -280l-114 -572l-32 -162q-47 -233 -159 -332q-111 -99 -328 -99q-121 0 -241 37l42 210h161l-14 -68q31 -31 75 -31q123 0 161 190l51 255l94 472
q29 141 10 189q-18 49 -95 49q-115 0 -284 -172l-108 -538h129l-34 -173h-518z" />
    <glyph glyph-name="Omacron" unicode="&#x14c;" 
d="M917 1517q272 0 377 -201q107 -200 32 -576q-155 -777 -727 -777q-240 0 -349 164q-135 205 -53 614q74 374 260 575q188 201 460 201zM882 1345q-257 0 -377 -601q-121 -608 143 -608q250 0 372 610q119 599 -138 599zM570 1644l35 173h740l-35 -173h-740z" />
    <glyph glyph-name="omacron" unicode="&#x14d;" 
d="M836 1110q243 0 367 -158q123 -158 73 -409q-51 -253 -237 -410q-187 -158 -436 -158q-216 0 -337 130q-151 164 -96 438q50 251 236 409t430 158zM802 938q-112 0 -199 -107q-89 -108 -125 -287q-36 -180 9 -288t158 -108q243 0 322 394q36 183 -9 289q-45 107 -156 107
zM505 1303l34 173h740l-34 -173h-740z" />
    <glyph glyph-name="Obreve" unicode="&#x14e;" 
d="M917 1517q272 0 377 -201q107 -200 32 -576q-155 -777 -727 -777q-240 0 -349 164q-135 205 -53 614q74 374 260 575q188 201 460 201zM882 1345q-257 0 -377 -601q-121 -608 143 -608q250 0 372 610q119 599 -138 599zM645 1935h136q14 -148 189 -148q101 0 167 48
q47 33 79 100h136q-45 -135 -137 -216q-120 -105 -280 -105q-168 0 -245 114q-53 79 -45 207z" />
    <glyph glyph-name="obreve" unicode="&#x14f;" 
d="M836 1110q243 0 367 -158q123 -158 73 -409q-51 -253 -237 -410q-187 -158 -436 -158q-216 0 -337 130q-151 164 -96 438q50 251 236 409t430 158zM802 938q-112 0 -199 -107q-89 -108 -125 -287q-36 -180 9 -288t158 -108q243 0 322 394q36 183 -9 289q-45 107 -156 107
zM581 1604h136q13 -148 188 -148t247 148h136q-45 -136 -137 -216q-121 -105 -280 -105q-167 0 -245 115q-54 78 -45 206z" />
    <glyph glyph-name="Ohungarumlaut" unicode="&#x150;" 
d="M917 1517q272 0 377 -201q107 -200 32 -576q-155 -777 -727 -777q-240 0 -349 164q-135 205 -53 614q74 374 260 575q188 201 460 201zM882 1345q-257 0 -377 -601q-121 -608 143 -608q250 0 372 610q119 599 -138 599zM610 1614l280 321h232l-387 -321h-125zM970 1614
l280 321l232 -10l-387 -311h-125z" />
    <glyph glyph-name="ohungarumlaut" unicode="&#x151;" 
d="M836 1110q243 0 367 -158q123 -158 73 -409q-51 -253 -237 -410q-187 -158 -436 -158q-216 0 -337 130q-151 164 -96 438q50 251 236 409t430 158zM802 938q-112 0 -199 -107q-89 -108 -125 -287q-36 -180 9 -288t158 -108q243 0 322 394q36 183 -9 289q-45 107 -156 107
zM546 1283l280 321h232l-387 -321h-125zM906 1283l280 321h232l-387 -321h-125z" />
    <glyph glyph-name="OE" unicode="&#x152;" 
d="M572 0l6 34q-98 -71 -188 -71q-211 0 -254 256q-31 189 34 512q157 786 534 786q98 0 157 -70l6 33h589l-69 -345h-144l35 173h-210l-96 -481h113l24 123h144l-84 -420h-144l25 124h-113l-94 -469h246l35 173h144l-71 -358h-625zM669 490l105 524q38 188 24 259
q-15 72 -90 72q-105 0 -162 -159q-46 -135 -110 -451q-72 -363 -67 -482q5 -117 96 -117t136 106q35 82 68 248z" />
    <glyph glyph-name="oe" unicode="&#x153;" 
d="M660 85q-113 -110 -256 -110q-178 0 -248 149q-69 150 -15 419q54 268 183 418q128 149 302 149q138 0 233 -125q110 125 241 125q301 0 186 -576l-13 -65h-416q-10 -111 9 -170q36 -107 161 -107q89 0 203 59l-42 -207q-135 -69 -266 -69q-159 0 -262 110zM599 428
l46 229q56 281 -43 281q-116 0 -196 -401q-78 -389 38 -389q99 0 155 280zM892 642h175q36 191 22 254q-11 45 -42 45q-95 0 -150 -272z" />
    <glyph glyph-name="Racute" unicode="&#x154;" 
d="M707 1614l272 321h295l-384 -321h-183zM40 0l34 173h100l227 1135h-100l34 172h539q182 0 255 -20q75 -21 124 -84q73 -95 42 -253q-32 -160 -163 -282q-78 -73 -213 -145l257 -523h75l-34 -173h-312l-309 617h-45l-89 -444h177l-34 -173h-565zM585 790h53q122 0 212 79
t119 225q28 141 -35 180q-49 34 -184 34h-61z" />
    <glyph glyph-name="racute" unicode="&#x155;" 
d="M56 0l34 173h247l148 740h-247l35 173h543l-33 -161q82 82 153 124q103 61 213 61q120 0 236 -54l-71 -353h-172l5 152q-49 30 -103 30q-120 0 -306 -185l-105 -527h321l-34 -173h-864zM683 1283l272 321h295l-384 -321h-183z" />
    <glyph glyph-name="uni0156" unicode="&#x156;" 
d="M498 -99q175 -3 248 -38q87 -43 69 -129q-13 -69 -93 -117q-81 -49 -188 -49q-96 0 -174 13l18 92q53 -6 96 -6q130 0 144 68q15 75 -138 77zM40 0l34 173h100l227 1135h-100l34 172h539q182 0 255 -20q75 -21 124 -84q73 -95 42 -253q-32 -160 -163 -282
q-78 -73 -213 -145l257 -523h75l-34 -173h-312l-309 617h-45l-89 -444h177l-34 -173h-565zM585 790h53q122 0 212 79t119 225q28 141 -35 180q-49 34 -184 34h-61z" />
    <glyph glyph-name="uni0157" unicode="&#x157;" 
d="M56 0l34 173h247l148 740h-247l35 173h543l-33 -161q82 82 153 124q103 61 213 61q120 0 236 -54l-71 -353h-172l5 152q-49 30 -103 30q-120 0 -306 -185l-105 -527h321l-34 -173h-864zM357 -99q175 -3 248 -38q87 -43 69 -129q-13 -69 -93 -117q-81 -49 -188 -49
q-96 0 -174 13l18 92q53 -6 96 -6q130 0 144 68q15 75 -138 77z" />
    <glyph glyph-name="Rcaron" unicode="&#x158;" 
d="M1245 1935l-272 -321h-285l-145 321h160l152 -190h2l228 190h160zM40 0l34 173h100l227 1135h-100l34 172h539q182 0 255 -20q75 -21 124 -84q73 -95 42 -253q-32 -160 -163 -282q-78 -73 -213 -145l257 -523h75l-34 -173h-312l-309 617h-45l-89 -444h177l-34 -173h-565z
M585 790h53q122 0 212 79t119 225q28 141 -35 180q-49 34 -184 34h-61z" />
    <glyph glyph-name="rcaron" unicode="&#x159;" 
d="M56 0l34 173h247l148 740h-247l35 173h543l-33 -161q82 82 153 124q103 61 213 61q120 0 236 -54l-71 -353h-172l5 152q-49 30 -103 30q-120 0 -306 -185l-105 -527h321l-34 -173h-864zM1270 1604l-272 -321h-285l-145 321h160l152 -190h2l228 190h160z" />
    <glyph glyph-name="Sacute" unicode="&#x15a;" 
d="M123 56l76 384h172l-17 -211q147 -93 267 -93q125 0 195 64q55 49 71 130q23 113 -103 199q-17 11 -32 22l-16 10l-11 8l-119 84q-171 121 -223 214q-53 92 -25 229q39 196 192 309q154 113 379 113q174 0 396 -73l-75 -376h-173l19 217q-100 59 -200 59q-84 0 -145 -52
q-62 -53 -78 -134q-15 -77 33 -130q41 -44 136 -110l127 -88q176 -123 218 -195q43 -74 16 -206q-44 -220 -219 -343q-177 -124 -434 -124q-167 0 -427 93zM782 1614l272 321h295l-384 -321h-183z" />
    <glyph glyph-name="sacute" unicode="&#x15b;" 
d="M197 52l63 318h173l-4 -149q131 -73 244 -73q163 0 186 117q12 58 -18 90q-29 31 -125 60l-135 41q-305 92 -259 322q36 180 198 264q130 68 341 68q200 0 379 -59l-63 -311h-172l7 156q-93 42 -201 42q-174 0 -199 -125q-11 -56 26 -79q33 -21 124 -51l158 -52
q155 -51 206 -118q52 -68 29 -186q-33 -166 -171 -259q-136 -93 -351 -93q-196 0 -436 77zM733 1283l272 321h295l-384 -321h-183z" />
    <glyph glyph-name="Scircumflex" unicode="&#x15c;" 
d="M123 56l76 384h172l-17 -211q147 -93 267 -93q125 0 195 64q55 49 71 130q23 113 -103 199q-17 11 -32 22l-16 10l-11 8l-119 84q-171 121 -223 214q-53 92 -25 229q39 196 192 309q154 113 379 113q174 0 396 -73l-75 -376h-173l19 217q-100 59 -200 59q-84 0 -145 -52
q-62 -53 -78 -134q-15 -77 33 -130q41 -44 136 -110l127 -88q176 -123 218 -195q43 -74 16 -206q-44 -220 -219 -343q-177 -124 -434 -124q-167 0 -427 93zM596 1614l272 321h285l145 -321h-160l-152 190h-2l-228 -190h-160z" />
    <glyph glyph-name="scircumflex" unicode="&#x15d;" 
d="M197 52l63 318h173l-4 -149q131 -73 244 -73q163 0 186 117q12 58 -18 90q-29 31 -125 60l-135 41q-305 92 -259 322q36 180 198 264q130 68 341 68q200 0 379 -59l-63 -311h-172l7 156q-93 42 -201 42q-174 0 -199 -125q-11 -56 26 -79q33 -21 124 -51l158 -52
q155 -51 206 -118q52 -68 29 -186q-33 -166 -171 -259q-136 -93 -351 -93q-196 0 -436 77zM554 1283l272 321h285l145 -321h-160l-152 190h-2l-228 -190h-160z" />
    <glyph glyph-name="Scedilla" unicode="&#x15e;" 
d="M123 56l76 384h172l-17 -211q147 -93 267 -93q125 0 195 64q55 49 71 130q23 113 -103 199q-9 5 -17 12l-15 10q-15 9 -27 18l-119 84q-170 120 -223 214q-53 92 -25 229q39 196 192 309q154 113 379 113q172 0 396 -73l-75 -376h-173l19 217q-100 59 -200 59
q-84 0 -145 -52q-62 -53 -78 -133q-15 -78 33 -131q41 -44 136 -110l127 -88q176 -123 218 -195q43 -74 16 -206q-43 -219 -219 -343q-136 -95 -320 -117l-72 -83q226 -29 201 -156q-14 -69 -95 -116q-82 -47 -187 -47q-81 0 -182 30l18 91q68 -15 117 -15q119 0 132 61
q16 83 -179 83h-20l126 146q-160 7 -400 92z" />
    <glyph glyph-name="scedilla" unicode="&#x15f;" 
d="M197 52l63 318h173l-4 -149q131 -73 244 -73q163 0 186 117q12 58 -18 90q-29 31 -125 60l-135 41q-305 92 -259 322q36 180 198 264q130 68 341 68q200 0 379 -59l-63 -311h-172l7 156q-93 42 -201 42q-174 0 -199 -125q-11 -56 26 -79q33 -21 124 -51l158 -52
q155 -51 206 -118q52 -68 29 -186q-33 -166 -171 -259q-115 -78 -288 -91l-78 -90q226 -29 201 -156q-14 -69 -95 -116q-82 -47 -187 -47q-81 0 -182 30l18 91q68 -15 117 -15q119 0 132 61q16 83 -179 83h-20l138 160q-168 11 -364 74z" />
    <glyph glyph-name="Scaron" unicode="&#x160;" 
d="M123 56l76 384h172l-17 -211q147 -93 267 -93q125 0 195 64q55 49 71 130q23 113 -103 199q-17 11 -32 22l-16 10l-11 8l-119 84q-171 121 -223 214q-53 92 -25 229q39 196 192 309q154 113 379 113q174 0 396 -73l-75 -376h-173l19 217q-100 59 -200 59q-84 0 -145 -52
q-62 -53 -78 -134q-15 -77 33 -130q41 -44 136 -110l127 -88q176 -123 218 -195q43 -74 16 -206q-44 -220 -219 -343q-177 -124 -434 -124q-167 0 -427 93zM1362 1935l-272 -321h-285l-145 321h160l152 -190h2l228 190h160z" />
    <glyph glyph-name="scaron" unicode="&#x161;" 
d="M197 52l63 318h173l-4 -149q131 -73 244 -73q163 0 186 117q12 58 -18 90q-29 31 -125 60l-135 41q-305 92 -259 322q36 180 198 264q130 68 341 68q200 0 379 -59l-63 -311h-172l7 156q-93 42 -201 42q-174 0 -199 -125q-11 -56 26 -79q33 -21 124 -51l158 -52
q155 -51 206 -118q52 -68 29 -186q-33 -166 -171 -259q-136 -93 -351 -93q-196 0 -436 77zM1314 1604l-272 -321h-285l-145 321h160l152 -190h2l228 190h160z" />
    <glyph glyph-name="uni0162" unicode="&#x162;" 
d="M244 0l34 173h223l227 1135h-235l-44 -222h-185l78 394h1135l-78 -394h-185l44 222h-234l-227 -1135h222l-34 -173h-274l-99 -113q226 -29 201 -156q-14 -69 -95 -116q-82 -47 -187 -47q-81 0 -182 30l18 91q68 -15 117 -15q119 0 132 61q16 83 -179 83h-20l158 182h-331
z" />
    <glyph glyph-name="uni0163" unicode="&#x163;" 
d="M251 888l35 173h271l54 271h297l-54 -271h431l-35 -173h-431l-95 -475q-26 -132 -4 -180q21 -49 107 -49q109 0 312 86l-40 -202q-227 -91 -388 -93l-77 -88q226 -29 201 -156q-14 -69 -95 -116q-83 -47 -187 -47q-80 0 -182 30l18 91q68 -15 117 -15q119 0 132 61
q16 83 -179 83h-20l146 170q-97 22 -139 88q-66 100 -21 329l97 483h-271z" />
    <glyph glyph-name="Tcaron" unicode="&#x164;" 
d="M244 0l34 173h223l227 1135h-235l-44 -222h-185l78 394h1135l-78 -394h-185l44 222h-234l-227 -1135h222l-34 -173h-741zM1350 1935l-272 -321h-285l-145 321h160l152 -190h2l228 190h160z" />
    <glyph glyph-name="tcaron" unicode="&#x165;" 
d="M251 888l35 173h271l54 271h297l-54 -271h431l-35 -173h-431l-95 -475q-26 -132 -4 -180q21 -49 107 -49q109 0 312 86l-40 -202q-231 -93 -394 -93q-192 0 -259 101q-66 100 -21 329l97 483h-271zM1226 1431h-122l60 296h267l-46 -229q-32 -161 -114 -256
q-82 -98 -198 -107h-8l21 102q103 14 135 165z" />
    <glyph glyph-name="Tbar" unicode="&#x166;" 
d="M797 173h222l-34 -173h-741l34 173h223l99 493h-235l29 148h235l99 494h-235l-44 -222h-185l78 394h1135l-78 -394h-185l44 222h-234l-99 -494h234l-29 -148h-234z" />
    <glyph glyph-name="tbar" unicode="&#x167;" 
d="M1139 270l-40 -202q-231 -93 -394 -93q-192 0 -259 101q-66 100 -21 329l23 113h-222l25 124h222l49 246h-271l35 173h271l54 271h297l-54 -271h431l-35 -173h-431l-49 -246h296l-25 -124h-296l-21 -105q-26 -132 -4 -180q21 -49 107 -49q109 0 312 86z" />
    <glyph glyph-name="Utilde" unicode="&#x168;" 
d="M282 1308l34 172h494l-34 -172h-99l-148 -742q-49 -245 -11 -337q41 -92 190 -92t213 99q54 84 92 272l160 800h-98l34 172h394l-34 -172h-98l-153 -765q-41 -207 -91 -306q-50 -100 -148 -171q-143 -103 -356 -103q-288 0 -390 171q-34 58 -38 133q-5 88 23 228l163 813
h-99zM738 1614h-148q31 141 78 213q71 108 186 108q65 0 120 -43l32 -26q22 -17 26 -21q47 -46 84 -46q64 0 93 136h148q-31 -141 -77 -213q-72 -108 -187 -108q-62 0 -118 43l-34 26l-10 8l-7 6q-4 3 -8 7q-54 46 -85 46q-64 0 -93 -136z" />
    <glyph glyph-name="utilde" unicode="&#x169;" 
d="M213 913l35 173h389l-130 -646q-27 -139 -9 -189q18 -49 95 -49q116 0 284 172l108 539h-129l35 173h413l-183 -913h105l-34 -173h-389l31 160q-110 -100 -187 -140q-89 -45 -224 -45q-158 0 -209 85q-50 85 -10 281l114 572h-105zM635 1293h-148q31 141 77 213
q72 108 187 108q65 0 119 -43l33 -26l11 -8q10 -8 15 -13q47 -46 84 -46q64 0 93 136h148q-31 -141 -78 -213q-71 -108 -186 -108q-62 0 -119 43l-33 26l-10 8l-8 6l-7 7q-54 46 -85 46q-64 0 -93 -136z" />
    <glyph glyph-name="Umacron" unicode="&#x16a;" 
d="M282 1308l34 172h494l-34 -172h-99l-148 -742q-49 -245 -11 -337q41 -92 190 -92t213 99q54 84 92 272l160 800h-98l34 172h394l-34 -172h-98l-153 -765q-41 -207 -91 -306q-50 -100 -148 -171q-143 -103 -356 -103q-288 0 -390 171q-34 58 -38 133q-5 88 23 228l163 813
h-99zM584 1644l35 173h740l-35 -173h-740z" />
    <glyph glyph-name="umacron" unicode="&#x16b;" 
d="M213 913l35 173h389l-130 -646q-27 -139 -9 -189q18 -49 95 -49q116 0 284 172l108 539h-129l35 173h413l-183 -913h105l-34 -173h-389l31 160q-110 -100 -187 -140q-89 -45 -224 -45q-158 0 -209 85q-50 85 -10 281l114 572h-105zM485 1303l34 173h740l-34 -173h-740z
" />
    <glyph glyph-name="Ubreve" unicode="&#x16c;" 
d="M282 1308l34 172h494l-34 -172h-99l-148 -742q-49 -245 -11 -337q41 -92 190 -92t213 99q54 84 92 272l160 800h-98l34 172h394l-34 -172h-98l-153 -765q-41 -207 -91 -306q-50 -100 -148 -171q-143 -103 -356 -103q-288 0 -390 171q-34 58 -38 133q-5 88 23 228l163 813
h-99zM685 1935h136q14 -148 189 -148t246 148h136q-45 -135 -137 -216q-120 -105 -280 -105q-167 0 -245 114q-53 79 -45 207z" />
    <glyph glyph-name="ubreve" unicode="&#x16d;" 
d="M213 913l35 173h389l-130 -646q-27 -139 -9 -189q18 -49 95 -49q116 0 284 172l108 539h-129l35 173h413l-183 -913h105l-34 -173h-389l31 160q-110 -100 -187 -140q-89 -45 -224 -45q-158 0 -209 85q-50 85 -10 281l114 572h-105zM539 1604h136q13 -148 188 -148
t247 148h136q-45 -136 -137 -216q-121 -105 -280 -105q-167 0 -245 115q-54 77 -45 206z" />
    <glyph glyph-name="Uring" unicode="&#x16e;" 
d="M282 1308l34 172h494l-34 -172h-99l-148 -742q-49 -245 -11 -337q41 -92 190 -92t213 99q54 84 92 272l160 800h-98l34 172h394l-34 -172h-98l-153 -765q-41 -207 -91 -306q-50 -100 -148 -171q-143 -103 -356 -103q-288 0 -390 171q-34 58 -38 133q-5 88 23 228l163 813
h-99zM1068 2073q97 0 152 -69q55 -68 36 -165q-20 -99 -102 -167t-182 -68q-85 0 -138 56q-69 71 -47 178q20 99 101 166q84 69 180 69zM1046 1962q-51 0 -95 -36q-43 -36 -53 -87t19 -87q28 -37 78 -37q47 0 87 29q52 38 63 95q10 51 -19 87t-80 36z" />
    <glyph glyph-name="uring" unicode="&#x16f;" 
d="M213 913l35 173h389l-130 -646q-27 -139 -9 -189q18 -49 95 -49q116 0 284 172l108 539h-129l35 173h413l-183 -913h105l-34 -173h-389l31 160q-110 -100 -187 -140q-89 -45 -224 -45q-158 0 -209 85q-50 85 -10 281l114 572h-105zM922 1752q98 0 152 -69q55 -68 36 -165
q-20 -99 -103 -167q-81 -68 -181 -68q-85 0 -138 56q-69 71 -47 178q19 98 102 166q83 69 179 69zM899 1641q-51 0 -94 -36t-53 -87t18 -87q29 -37 79 -37q47 0 87 29q51 38 63 95q10 51 -19 87t-81 36z" />
    <glyph glyph-name="Uhungarumlaut" unicode="&#x170;" 
d="M282 1308l34 172h494l-34 -172h-99l-148 -742q-49 -245 -11 -337q41 -92 190 -92t213 99q54 84 92 272l160 800h-98l34 172h394l-34 -172h-98l-153 -765q-41 -207 -91 -306q-50 -100 -148 -171q-143 -103 -356 -103q-288 0 -390 171q-34 58 -38 133q-5 88 23 228l163 813
h-99zM661 1614l280 321h232l-387 -321h-125zM1021 1614l280 321h232l-387 -321h-125z" />
    <glyph glyph-name="uhungarumlaut" unicode="&#x171;" 
d="M213 913l35 173h389l-130 -646q-27 -139 -9 -189q18 -49 95 -49q116 0 284 172l108 539h-129l35 173h413l-183 -913h105l-34 -173h-389l31 160q-110 -100 -187 -140q-89 -45 -224 -45q-158 0 -209 85q-50 85 -10 281l114 572h-105zM551 1283l280 321h232l-387 -321h-125z
M911 1283l280 321h232l-387 -321h-125z" />
    <glyph glyph-name="Uogonek" unicode="&#x172;" 
d="M282 1308l34 172h494l-34 -172h-99l-148 -742q-49 -245 -11 -337q41 -92 190 -92t213 99q54 84 92 272l160 800h-98l34 172h394l-34 -172h-98l-153 -765q-41 -207 -91 -306q-50 -100 -148 -171q-143 -103 -356 -103q-288 0 -390 171q-34 58 -38 133q-5 88 23 228l163 813
h-99zM663 0h158q-212 -84 -232 -181q-18 -94 141 -94q46 0 115 15l-17 -81q-85 -29 -177 -29q-284 0 -253 156q24 120 265 214z" />
    <glyph glyph-name="uogonek" unicode="&#x173;" 
d="M213 913l35 173h389l-130 -646q-27 -139 -9 -189q18 -49 95 -49q116 0 284 172l108 539h-129l35 173h413l-183 -913h105l-34 -173h-389l31 160q-110 -100 -187 -140q-89 -45 -224 -45q-158 0 -209 85q-50 85 -10 281l114 572h-105zM859 0h158q-212 -84 -232 -181
q-18 -94 141 -94q46 0 115 15l-17 -81q-85 -29 -177 -29q-284 0 -253 156q24 120 265 214z" />
    <glyph glyph-name="Wcircumflex" unicode="&#x174;" 
d="M619 1614l272 321h285l145 -321h-160l-152 190h-2l-228 -190h-160zM215 0l121 1308h-60l34 172h360l-34 -172h-70l-104 -958h7l319 921h222l-58 -921h6l281 958h-57l34 172h292l-34 -172h-60l-407 -1308h-242l30 951v0l-335 -951h-245z" />
    <glyph glyph-name="wcircumflex" unicode="&#x175;" 
d="M220 0l48 913h-74l35 173h395l-35 -173h-82l-27 -510h4l212 473h247l14 -503h4l188 540h-79l35 173h329l-35 -173h-75l-318 -913h-246l-18 602h-4l-271 -602h-247zM553 1283l272 321h285l145 -321h-160l-152 190h-2l-228 -190h-160z" />
    <glyph glyph-name="Ycircumflex" unicode="&#x176;" 
d="M239 0l34 173h247l95 477l-247 658h-93l34 172h543l-34 -172h-95l157 -423l305 423h-103l34 172h395l-34 -172h-86l-480 -658l-95 -477h246l-34 -173h-789zM661 1614l272 321h285l145 -321h-160l-152 190h-2l-228 -190h-160z" />
    <glyph glyph-name="ycircumflex" unicode="&#x177;" 
d="M509 33l-214 880h-101l35 173h574l-35 -173h-138l127 -517l341 517h-138l35 173h438l-35 -173h-102l-754 -1135h201l-34 -173h-683l34 173h197zM581 1283l272 321h285l145 -321h-160l-152 190h-2l-228 -190h-160z" />
    <glyph glyph-name="Ydieresis" unicode="&#x178;" 
d="M239 0l34 173h247l95 477l-247 658h-93l34 172h543l-34 -172h-95l157 -423l305 423h-103l34 172h395l-34 -172h-86l-480 -658l-95 -477h246l-34 -173h-789zM656 1634l44 222h222l-44 -222h-222zM1100 1634l44 222h222l-44 -222h-222z" />
    <glyph glyph-name="Zacute" unicode="&#x179;" 
d="M111 0l36 185l893 1123h-446l-44 -222h-185l78 394h958l-37 -185l-886 -1110h491l50 247h185l-86 -432h-1007zM789 1614l272 321h295l-384 -321h-183z" />
    <glyph glyph-name="zacute" unicode="&#x17a;" 
d="M148 0l39 197l700 716h-384l-39 -197h-173l74 370h907l-35 -173l-710 -728h417l40 197h173l-76 -382h-933zM722 1283l272 321h295l-384 -321h-183z" />
    <glyph glyph-name="Zdotaccent" unicode="&#x17b;" 
d="M111 0l36 185l893 1123h-446l-44 -222h-185l78 394h958l-37 -185l-886 -1110h491l50 247h185l-86 -432h-1007zM793 1639l59 296h296l-59 -296h-296z" />
    <glyph glyph-name="zdotaccent" unicode="&#x17c;" 
d="M148 0l39 197l700 716h-384l-39 -197h-173l74 370h907l-35 -173l-710 -728h417l40 197h173l-76 -382h-933zM699 1303l59 296h296l-59 -296h-296z" />
    <glyph glyph-name="Zcaron" unicode="&#x17d;" 
d="M111 0l36 185l893 1123h-446l-44 -222h-185l78 394h958l-37 -185l-886 -1110h491l50 247h185l-86 -432h-1007zM1352 1935l-272 -321h-285l-145 321h160l152 -190h2l228 190h160z" />
    <glyph glyph-name="zcaron" unicode="&#x17e;" 
d="M148 0l39 197l700 716h-384l-39 -197h-173l74 370h907l-35 -173l-710 -728h417l40 197h173l-76 -382h-933zM1285 1604l-272 -321h-285l-145 321h160l152 -190h2l228 190h160z" />
    <glyph glyph-name="longs" unicode="&#x17f;" 
d="M120 0l34 173h271l141 703h-271l37 185h271l18 92q90 451 585 451q163 0 327 -77l-52 -256h-172v121q-69 38 -141 38q-196 0 -249 -266l-198 -991h316l-34 -173h-883z" />
    <glyph glyph-name="florin" unicode="&#x192;" 
d="M26 -296l399 999h-154l35 173h188l39 99q104 260 282 401t400 141q93 0 225 -28l-62 -311h-173l5 150q-44 17 -77 17q-157 0 -272 -290l-70 -179h193l-35 -173h-228l-398 -999h-297z" />
    <glyph glyph-name="Aringacute" unicode="&#x1fa;" 
d="M1143 1825q55 -69 36 -166q-20 -98 -102 -167q-9 -7 -16 -12h2l114 -1307h61l-34 -173h-491l34 173h135l-20 234h-448l-114 -234h136l-34 -173h-377l34 173h62l635 1307h1q-68 72 -47 178q19 98 102 167q41 34 84 51l272 320h295l-384 -321q37 -17 64 -50zM497 580h350
l-53 609h-2zM969 1782q-51 0 -95 -36q-43 -36 -53 -87t19 -87q28 -37 78 -37q47 0 87 29q52 38 63 95q10 51 -19 87q-28 36 -80 36z" />
    <glyph glyph-name="aringacute" unicode="&#x1fb;" 
d="M837 1684l272 321h295l-384 -321q37 -17 64 -51q55 -68 36 -165q-20 -99 -103 -167q-81 -68 -181 -68q-85 0 -138 56q-69 71 -47 178q19 98 102 166q39 33 84 51zM909 1591q-51 0 -94 -36t-53 -87t18 -87q29 -37 79 -37q47 0 87 29q51 38 63 95q10 51 -19 87t-81 36z
M1306 1086l-183 -913h99l-34 -173h-384l31 160q-191 -185 -381 -185q-181 0 -260 143q-78 143 -29 389q57 288 228 446q170 158 422 158q89 0 206 -25h285zM980 883l-33 7q-77 21 -146 21q-260 0 -335 -371q-67 -337 130 -337q126 0 282 171z" />
    <glyph glyph-name="AEacute" unicode="&#x1fc;" 
d="M12 0l34 173h62l653 1307h700l-64 -320h-185l30 148h-148l-96 -481h222l-35 -173h-222l-94 -469h173l32 160h185l-68 -345h-629l81 407h-225l-114 -234h87l-34 -173h-345zM677 580l122 609h-3l-295 -609h176zM930 1614l272 321h295l-384 -321h-183z" />
    <glyph glyph-name="aeacute" unicode="&#x1fd;" 
d="M721 1283l272 321h295l-384 -321h-183zM587 151q-119 -176 -266 -176q-118 0 -178 96q-61 96 -32 243q66 328 408 328h87l26 131q32 161 -60 161q-39 0 -102 -36l-39 -96h-144l47 234q183 74 317 74q128 0 196 -114q115 114 236 114q317 0 207 -554l-18 -87h-456
q-23 -129 2 -195q33 -91 157 -91q110 0 251 55l-40 -202q-196 -61 -315 -61q-124 0 -203 65q-45 38 -81 111zM536 291l35 178h-29q-153 0 -182 -144q-22 -110 59 -110q54 0 117 76zM853 642h208l4 25q26 167 19 211q-10 61 -52 61q-98 0 -179 -297z" />
    <glyph glyph-name="Oslashacute" unicode="&#x1fe;" 
d="M739 1614l272 321h295l-384 -321h-183zM1330 1517h152l-180 -216q97 -199 25 -560q-156 -778 -721 -778q-207 0 -317 115l-95 -115h-153l179 216q-95 202 -23 562q74 374 260 575q188 201 460 201q206 0 316 -116zM882 1345q-272 0 -392 -604q-33 -163 -38 -282l605 729
q-37 157 -175 157zM641 136q272 0 393 605q32 161 35 279l-603 -729q37 -155 175 -155z" />
    <glyph glyph-name="oslashacute" unicode="&#x1ff;" 
d="M686 1283l272 321h295l-384 -321h-183zM1247 1123h145l-185 -178q118 -156 69 -402q-51 -253 -237 -410q-187 -158 -436 -158q-187 0 -302 97l-100 -97h-144l176 170q-111 156 -63 398q50 251 236 409t430 158q185 0 302 -93zM644 148q126 5 213.5 110.5t123.5 284.5
q23 113 13 197l-515 -496q47 -96 165 -96zM802 938q-125 0 -213 -107.5t-124 -287.5q-21 -107 -15 -188l513 494q-47 89 -161 89z" />
    <glyph glyph-name="uni0218" unicode="&#x218;" 
d="M123 56l76 384h172l-17 -211q147 -93 267 -93q125 0 195 64q55 49 71 130q23 113 -103 199q-9 5 -17 12l-15 10q-15 9 -27 18l-119 84q-170 120 -223 214q-53 92 -25 229q39 196 192 309q154 113 379 113q172 0 396 -73l-75 -376h-173l19 217q-100 59 -200 59
q-84 0 -145 -52q-62 -53 -78 -133q-15 -78 33 -131q41 -44 136 -110l127 -88q176 -123 218 -195q43 -74 16 -206q-43 -219 -219 -343q-177 -124 -434 -124q-167 0 -427 93zM442 -99q176 -3 248 -38q87 -43 69 -129q-13 -69 -93 -117q-80 -49 -188 -49q-96 0 -174 13l18 92
q53 -6 96 -6q130 0 144 68q15 75 -138 77z" />
    <glyph glyph-name="uni0219" unicode="&#x219;" 
d="M197 52l63 318h173l-4 -149q131 -73 244 -73q163 0 186 117q12 58 -18 90q-29 31 -125 60l-135 41q-305 92 -259 322q36 180 198 264q130 68 341 68q200 0 379 -59l-63 -311h-172l7 156q-93 42 -201 42q-174 0 -199 -125q-11 -56 26 -79q33 -21 124 -51l158 -52
q155 -51 206 -118q52 -68 29 -186q-33 -166 -171 -259q-136 -93 -351 -93q-196 0 -436 77zM496 -99q175 -3 248 -38q87 -43 69 -129q-13 -69 -93 -117q-81 -49 -188 -49q-96 0 -174 13l18 92q53 -6 96 -6q130 0 144 68q15 75 -138 77z" />
    <glyph glyph-name="uni021A" unicode="&#x21a;" 
d="M244 0l34 173h223l227 1135h-235l-44 -222h-185l78 394h1135l-78 -394h-185l44 222h-234l-227 -1135h222l-34 -173h-741zM483 -99q175 -3 248 -38q87 -43 69 -129q-13 -69 -93 -117q-80 -49 -188 -49q-96 0 -174 13l18 92q53 -6 96 -6q130 0 144 68q15 75 -138 77z" />
    <glyph glyph-name="uni021B" unicode="&#x21b;" 
d="M251 888l35 173h271l54 271h297l-54 -271h431l-35 -173h-431l-95 -475q-26 -132 -4 -180q21 -49 107 -49q109 0 312 86l-40 -202q-231 -93 -394 -93q-192 0 -259 101q-66 100 -21 329l97 483h-271zM498 -99q175 -3 248 -38q87 -43 69 -129q-13 -69 -93 -117
q-81 -49 -188 -49q-96 0 -174 13l18 92q53 -6 96 -6q130 0 144 68q15 75 -138 77z" />
    <glyph glyph-name="circumflex" unicode="&#x2c6;" 
d="M520 1283l272 321h285l145 -321h-160l-152 190h-2l-228 -190h-160z" />
    <glyph glyph-name="caron" unicode="&#x2c7;" 
d="M1286 1604l-272 -321h-285l-145 321h160l152 -190h2l228 190h160z" />
    <glyph glyph-name="uni02C9" unicode="&#x2c9;" 
d="M490 1303l34 173h740l-34 -173h-740z" />
    <glyph glyph-name="breve" unicode="&#x2d8;" 
d="M581 1604h136q13 -148 188 -148t247 148h136q-45 -136 -137 -216q-120 -105 -280 -105q-167 0 -245 114q-54 79 -45 207z" />
    <glyph glyph-name="dotaccent" unicode="&#x2d9;" 
d="M722 1283l59 296h296l-59 -296h-296z" />
    <glyph glyph-name="ring" unicode="&#x2da;" 
d="M964 1752q98 0 152 -69q55 -68 36 -165q-20 -99 -103 -167q-82 -68 -181 -68q-86 0 -138 56q-69 72 -47 178q19 98 102 166q83 69 179 69zM941 1641q-50 0 -94 -36q-43 -36 -53 -87t18 -87q30 -37 79 -37q47 0 87 29q52 39 63 95q10 51 -19 87t-81 36z" />
    <glyph glyph-name="ogonek" unicode="&#x2db;" 
d="M589 0h158q-212 -84 -232 -181q-18 -94 141 -94q46 0 115 15l-17 -81q-85 -29 -177 -29q-284 0 -253 156q24 120 265 214z" />
    <glyph glyph-name="tilde" unicode="&#x2dc;" 
d="M657 1293h-148q31 141 77 213q72 108 187 108q65 0 119 -43l33 -26l11 -8q10 -8 15 -13q47 -46 84 -46q64 0 93 136h148q-31 -141 -78 -213q-71 -108 -186 -108q-62 0 -119 43l-33 26l-10 8l-8 6l-7 7q-54 46 -85 46q-64 0 -93 -136z" />
    <glyph glyph-name="hungarumlaut" unicode="&#x2dd;" 
d="M466 1283l280 321h232l-387 -321h-125zM826 1283l280 321h232l-387 -321h-125z" />
    <glyph glyph-name="tonos" unicode="&#x384;" 
d="M707 1283l168 419h240l-260 -419h-148z" />
    <glyph glyph-name="dieresistonos" unicode="&#x385;" 
d="M382 1293l44 222h222l-44 -222h-222zM1117 1293l44 222h223l-44 -222h-223zM735 1293l168 419h240l-260 -419h-148z" />
    <glyph glyph-name="Alphatonos" unicode="&#x386;" 
d="M25 0l34 173h62l635 1307h307l114 -1307h61l-34 -173h-491l34 173h135l-20 234h-448l-114 -234h136l-34 -173h-377zM497 580h350l-53 609h-2zM277 1283l168 419h240l-260 -419h-148z" />
    <glyph glyph-name="anoteleia" unicode="&#x387;" 
d="M576 721l73 365h365l-73 -365h-365z" />
    <glyph glyph-name="Epsilontonos" unicode="&#x388;" 
d="M187 0l34 173h148l261 1307h844l-74 -370h-185l40 198h-364l-96 -481h150l20 103h172l-76 -380h-172l21 104h-150l-94 -469h394l45 222h185l-81 -407h-1022zM256 1283l168 419h240l-260 -419h-148z" />
    <glyph glyph-name="Etatonos" unicode="&#x389;" 
d="M223 0l34 173h104l261 1307h330l-34 -172h-50l-91 -457h247l91 457h-50l34 172h390l-34 -172h-60l-227 -1135h60l-34 -173h-390l34 173h50l99 493h-247l-99 -493h50l-34 -173h-434zM256 1283l168 419h240l-260 -419h-148z" />
    <glyph glyph-name="Iotatonos" unicode="&#x38a;" 
d="M213 0l34 173h300l227 1135h-200l34 172h796l-34 -172h-300l-227 -1135h300l-34 -173h-896zM256 1283l168 419h240l-260 -419h-148z" />
    <glyph glyph-name="Omicrontonos" unicode="&#x38c;" 
d="M974 1517q244 0 335 -201q92 -200 18 -575q-156 -778 -664 -778q-223 0 -318 164q-117 205 -35 614q74 374 245 575q174 201 419 201zM939 1345q-214 0 -334 -604q-121 -605 93 -605q213 0 334 605q120 604 -93 604zM256 1283l168 419h240l-260 -419h-148z" />
    <glyph glyph-name="Upsilontonos" unicode="&#x38e;" 
d="M351 0l34 173h180l53 263q73 366 10 600.5t-134 234.5l42 209q61 0 171 -74q93 -62 131.5 -161t51.5 -306l3 -64q136 282 293 433.5t338 171.5l-37 -185q-147 0 -341 -284.5t-256 -590.5l-49 -247h180l-34 -173h-636zM206 1283l168 419h240l-260 -419h-148z" />
    <glyph glyph-name="Omegatonos" unicode="&#x38f;" 
d="M618 148l-29 -148h-433l34 173h241q-83 139 -113.5 312t7.5 365q65 322 231 494.5t414 172.5t345 -172.5t32 -494.5q-38 -192 -137.5 -365t-238.5 -312h242l-34 -173h-437l29 148q100 160 173 318.5t118 383.5q45 224 13 359t-140 135q-87 0 -183.5 -135t-141.5 -359
q-45 -225 -30.5 -383.5t38.5 -318.5zM256 1283l168 419h240l-260 -419h-148z" />
    <glyph glyph-name="iotadieresistonos" unicode="&#x390;" 
d="M1071 25q-163 -50 -324 -50q-190 0 -270 69q-59 53 -66.5 132.5t29.5 265.5l129 644h296l-135 -672q-27 -137 7 -196t142 -59q85 0 227 41zM300 1283l44 222h222l-44 -222h-222zM1035 1283l44 222h223l-44 -222h-223zM653 1283l168 419h240l-260 -419h-148z" />
    <glyph glyph-name="Alpha" unicode="&#x391;" 
d="M25 0l34 173h62l635 1307h307l114 -1307h61l-34 -173h-491l34 173h135l-20 234h-448l-114 -234h136l-34 -173h-377zM497 580h350l-53 609h-2z" />
    <glyph glyph-name="Beta" unicode="&#x392;" 
d="M42 0l34 173h98l227 1135h-98l34 172h550q275 0 376 -75q102 -75 68 -245q-31 -157 -168 -264q-83 -64 -239 -121q167 -38 244 -124q98 -109 66 -266q-76 -385 -602 -385h-590zM454 173h80q191 0 274.5 49t110.5 186q54 271 -314 271h-50zM590 851h45q150 0 249.5 74.5
t124.5 197.5q23 118 -50 154q-62 31 -226 31h-52z" />
    <glyph glyph-name="Gamma" unicode="&#x393;" 
d="M517 185h148l-36 -185h-592l34 173h148l227 1135h-148l34 172h1073l-78 -394h-185l44 222h-444z" />
    <glyph glyph-name="uni0394" unicode="&#x394;" 
d="M25 0l36 185l695 1295h307l177 -1295l-36 -185h-1179zM934 185l-138 1009h-8l-542 -1009h688z" />
    <glyph glyph-name="Epsilon" unicode="&#x395;" 
d="M37 0l34 173h148l227 1135h-148l34 172h1073l-74 -370h-185l40 198h-445l-96 -481h236l24 123h172l-84 -420h-172l25 124h-236l-94 -469h507l45 222h185l-81 -407h-1135z" />
    <glyph glyph-name="Zeta" unicode="&#x396;" 
d="M111 0l36 185l893 1123h-446l-44 -222h-185l78 394h958l-37 -185l-886 -1110h491l50 247h185l-86 -432h-1007z" />
    <glyph glyph-name="Eta" unicode="&#x397;" 
d="M41 0l34 173h100l227 1135h-100l34 172h470l-34 -172h-90l-92 -462h387l92 462h-90l34 172h470l-34 -172h-100l-227 -1135h100l-34 -173h-470l34 173h90l100 498h-387l-100 -498h90l-34 -173h-470z" />
    <glyph glyph-name="Theta" unicode="&#x398;" 
d="M918 1517q269 0 373 -201q107 -200 32 -576q-81 -408 -283.5 -592.5t-439.5 -184.5t-346 164q-135 205 -52 614q73 374 259 575q188 201 457 201zM883 1345q-265 0 -386 -605q-120 -604 152 -604q258 0 378 604q121 605 -144 605zM572 674l32 160h356l-32 -160h-356z" />
    <glyph glyph-name="Iota" unicode="&#x399;" 
d="M123 0l34 173h343l227 1135h-343l34 172h982l-34 -172h-343l-227 -1135h343l-34 -173h-982z" />
    <glyph glyph-name="Kappa" unicode="&#x39a;" 
d="M38 0l34 173h98l227 1135h-98l34 172h483l-34 -172h-105l-106 -531h40l543 531h-100l34 172h431l-34 -172h-115l-502 -489l354 -646h41l-34 -173h-467l34 173h100l-297 543h-40l-109 -543h105l-34 -173h-483z" />
    <glyph glyph-name="Lambda" unicode="&#x39b;" 
d="M782 173h98l-86 1016h-2l-492 -1016h100l-34 -173h-341l34 173h62l635 1307h307l114 -1307h61l-34 -173h-456z" />
    <glyph glyph-name="Mu" unicode="&#x39c;" 
d="M14 0l34 173h70l227 1135h-70l34 172h360l43 -981l440 981h357l-34 -172h-68l-227 -1135h68l-34 -173h-402l34 173h100l189 944h-6l-418 -932h-178l-48 869h-6l-176 -881h100l-34 -173h-355z" />
    <glyph glyph-name="Nu" unicode="&#x39d;" 
d="M37 0l34 173h99l227 1135h-99l34 172h296l389 -999l165 827h-148l34 172h444l-34 -172h-99l-261 -1308h-197l-390 993l-164 -820h148l-34 -173h-444z" />
    <glyph glyph-name="Xi" unicode="&#x39e;" 
d="M554 659l-18 -92h-123l74 369h123l-19 -92h383l19 92h123l-74 -369h-123l18 92h-383zM75 0l76 383h185l-38 -188h709l38 188h185l-76 -383h-1079zM558 1295l-34 -172h-185l71 357h999l-71 -357h-185l34 172h-629z" />
    <glyph glyph-name="Omicron" unicode="&#x39f;" 
d="M917 1517q272 0 377 -201q107 -200 33 -575q-156 -778 -721 -778q-247 0 -356 164q-135 205 -53 614q74 374 260 575q188 201 460 201zM882 1345q-257 0 -377 -604q-121 -605 136 -605t378 605q120 604 -137 604z" />
    <glyph glyph-name="Pi" unicode="&#x3a0;" 
d="M682 1307l-227 -1134h90l-34 -173h-474l34 173h99l227 1134h-99l34 173h1155l-34 -173h-99l-227 -1134h99l-34 -173h-474l34 173h90l227 1134h-387z" />
    <glyph glyph-name="Rho" unicode="&#x3a1;" 
d="M37 0l34 173h198l227 1135h-198l34 172h634q278 0 382 -94q107 -94 65 -302q-48 -240 -237 -378q-190 -138 -471 -138h-61l-79 -395h296l-34 -173h-790zM678 740h37q314 0 375 303q30 149 -22 207q-51 58 -214 58h-62z" />
    <glyph glyph-name="Sigma" unicode="&#x3a3;" 
d="M336 185h684l40 198h185l-76 -383h-1109l36 185l624 543l-374 579l34 173h1054l-72 -360h-185l38 187h-502l327 -506z" />
    <glyph glyph-name="Tau" unicode="&#x3a4;" 
d="M244 0l34 173h223l227 1135h-235l-44 -222h-185l78 394h1135l-78 -394h-185l44 222h-234l-227 -1135h222l-34 -173h-741z" />
    <glyph glyph-name="Upsilon" unicode="&#x3a5;" 
d="M246 0l34 173h200l53 263q73 366 -2.5 600.5t-265.5 234.5l42 209q179 0 303 -74q105 -62 150 -161t64 -306l5 -64q144 282 315.5 433.5t371.5 171.5l-37 -185q-163 0 -372.5 -284.5t-271.5 -590.5l-49 -247h200l-34 -173h-706z" />
    <glyph glyph-name="Phi" unicode="&#x3a6;" 
d="M756 1307h-130l34 173h500l-34 -173h-130l-24 -118q193 0 306.5 -126t73.5 -323q-39 -196 -203 -322.5t-356 -126.5l-24 -118h130l-34 -173h-500l34 173h130l24 118q-192 0 -306 126.5t-75 322.5q40 197 204 323t356 126zM587 414l131 652q-68 0 -145.5 -81t-110.5 -245
q-33 -165 12 -245.5t113 -80.5zM807 414q57 0 139.5 80.5t115.5 245.5q33 164 -17 245t-107 81z" />
    <glyph glyph-name="Chi" unicode="&#x3a7;" 
d="M12 0l34 173h82l488 563l-208 572h-111l34 172h556l-34 -172h-116l118 -323l261 323h-96l34 172h420l-34 -172h-105l-418 -490l235 -645h98l-34 -173h-543l34 173h114l-144 396l-331 -396h95l-34 -173h-395z" />
    <glyph glyph-name="Psi" unicode="&#x3a8;" 
d="M775 173h200l-34 -173h-647l34 173h200l83 413q-169 0 -228 87.5t-46 318.5l5 92q8 134 -1.5 163.5t-62.5 29.5h-13l40 203h20q173 0 220.5 -65t34.5 -289l-4 -97l-5 -90q-4 -108 9.5 -135t74.5 -27l140 703h234l-140 -703q62 0 86 26.5t63 135.5l31 90l33 97
q77 223 150.5 288.5t247.5 65.5h19l-40 -203h-13q-52 0 -74 -30t-68 -163l-31 -92q-78 -231 -172 -318.5t-263 -87.5z" />
    <glyph glyph-name="uni03A9" unicode="&#x3a9;" 
d="M557 148l-29 -148h-481l34 173h268q-96 139 -133.5 312t0.5 365q65 322 245.5 494.5t456.5 172.5t387.5 -172.5t46.5 -494.5q-38 -192 -144.5 -365t-258.5 -312h268l-34 -173h-485l29 148q125 160 203 318.5t123 383.5q45 224 6 359t-176 135q-117 0 -221.5 -135
t-149.5 -359q-45 -225 -25 -383.5t70 -318.5z" />
    <glyph glyph-name="Iotadieresis" unicode="&#x3aa;" 
d="M121 0l39 197h345l217 1086h-345l39 197h987l-39 -197h-345l-217 -1086h345l-39 -197h-987zM583 1634l44 222h222l-44 -222h-222zM1043 1634l44 222h222l-44 -222h-222z" />
    <glyph glyph-name="Upsilondieresis" unicode="&#x3ab;" 
d="M246 0l34 173h200l53 263q73 366 -2.5 600.5t-265.5 234.5l42 209q179 0 303 -74q105 -62 150 -161t64 -306l5 -64q144 282 315.5 433.5t371.5 171.5l-37 -185q-163 0 -372.5 -284.5t-271.5 -590.5l-49 -247h200l-34 -173h-706zM624 1634l44 222h222l-44 -222h-222z
M1064 1634l44 222h222l-44 -222h-222z" />
    <glyph glyph-name="alphatonos" unicode="&#x3ac;" 
d="M986 661q37 62 66 164t61 261h259q-41 -156 -127.5 -311t-207.5 -305q13 -55 32 -117t40.5 -124t44 -121t43.5 -108h-270q-11 22 -23.5 51.5t-24.5 62.5t-24 67t-20 66q-40 -44 -86 -92t-98 -88t-110.5 -66t-122.5 -26q-69 0 -118 24t-81 64.5t-48.5 94.5t-22 115t0 125
t17.5 124q12 63 36 131t58.5 133.5t78 124.5t96.5 103.5t114 70.5t129 26q69 0 112.5 -18.5t73 -60t50 -107.5t45.5 -161zM743 601q-22 81 -37 133t-28.5 82t-27.5 42t-32 12q-46 0 -88.5 -82t-74.5 -238q-32 -162 -17.5 -253t75.5 -91q35 0 69.5 17t69.5 46t69.5 67.5
t69.5 81.5zM758 1283l168 419h240l-260 -419h-148z" />
    <glyph glyph-name="epsilontonos" unicode="&#x3ad;" 
d="M828 1283l168 419h240l-260 -419h-148zM1174 227l-36 -180q-228 -73 -449 -73q-560 0 -499 302q40 201 347 309q-236 65 -201 240q57 286 605 286q201 0 372 -35l-35 -174q-172 36 -325 36q-298 0 -326 -139q-27 -138 302 -138h214l-35 -172h-268q-299 0 -334 -177
q-33 -162 279 -162q177 0 389 77z" />
    <glyph glyph-name="etatonos" unicode="&#x3ae;" 
d="M726 1283l168 419h240l-260 -419h-148zM146 0l151 757q38 190 2 329h307q7 -75 -1 -208q180 232 391 232q290 0 214 -382l-224 -1123h-283l213 1070q39 195 -87 195q-56 0 -119.5 -41.5t-143.5 -147.5l-136 -681h-284z" />
    <glyph glyph-name="iotatonos" unicode="&#x3af;" 
d="M1071 25q-163 -50 -324 -50q-190 0 -270 69q-59 53 -66.5 132.5t29.5 265.5l129 644h296l-135 -672q-27 -137 7 -196t142 -59q85 0 227 41zM716 1283l168 419h240l-260 -419h-148z" />
    <glyph glyph-name="upsilondieresistonos" unicode="&#x3b0;" 
d="M380 1293l44 222h222l-44 -222h-222zM1115 1293l44 222h223l-44 -222h-223zM354 1086h296l-111 -554q-43 -212 -13.5 -298.5t143.5 -86.5q111 0 186.5 87t105.5 237q57 287 -34 615h291q50 -278 -1 -533q-52 -261 -227 -419.5t-386 -158.5q-217 0 -310 95
q-72 80 -78.5 186.5t36.5 321.5zM733 1293l168 419h240l-260 -419h-148z" />
    <glyph glyph-name="alpha" unicode="&#x3b1;" 
d="M986 661q37 62 66 164t61 261h259q-41 -156 -127.5 -311t-207.5 -305q13 -55 32 -117t40.5 -124t44 -121t43.5 -108h-270q-11 22 -23.5 51.5t-24.5 62.5t-24 67t-20 66q-40 -44 -86 -92t-98 -88t-110.5 -66t-122.5 -26q-69 0 -118 24t-81 64.5t-48.5 94.5t-22 115t0 125
t17.5 124q12 63 36 131t58.5 133.5t78 124.5t96.5 103.5t114 70.5t129 26q69 0 112.5 -18.5t73 -60t50 -107.5t45.5 -161zM743 601q-22 81 -37 133t-28.5 82t-27.5 42t-32 12q-46 0 -88.5 -82t-74.5 -238q-32 -162 -17.5 -253t75.5 -91q35 0 69.5 17t69.5 46t69.5 67.5
t69.5 81.5z" />
    <glyph glyph-name="beta" unicode="&#x3b2;" 
d="M78 -395l271 1359q66 330 212 485t396 155q179 0 270.5 -97t60.5 -254q-47 -237 -357 -385q175 -57 251 -172.5t46 -268.5q-39 -196 -204 -324t-383 -128q-87 0 -208 38l-81 -408h-274zM710 916h25q76 0 153 96t102 221q40 201 -106 201q-167 0 -245 -389l-169 -845
q41 -21 82 -37t100 -16q100 0 178.5 74t104.5 203q26 130 -42 225t-191 95h-27z" />
    <glyph glyph-name="gamma" unicode="&#x3b3;" 
d="M661 -395h-238q-34 139 -12 248q18 89 112 272q-107 603 -306 961h342q116 -272 185 -677l132 207q215 321 341 470h230q-106 -117 -315 -417t-339 -527q15 -164 -2 -251q-27 -133 -130 -286z" />
    <glyph glyph-name="delta" unicode="&#x3b4;" 
d="M636 981q-157 110 -206.5 178t-32.5 156q27 136 174.5 212.5t374.5 76.5q125 0 309 -34l-39 -195q-179 57 -313 57q-192 0 -212 -99q-11 -54 65 -100q39 -27 104 -76q33 -26 52 -39l63 -44q198 -136 264 -260t32 -294q-49 -245 -231 -395t-431 -150q-238 0 -366.5 139.5
t-83.5 361.5q70 350 477 505zM782 892q-260 -142 -313 -407q-32 -163 16 -250.5t158 -87.5q116 0 198.5 90.5t114.5 252.5q50 250 -174 402z" />
    <glyph glyph-name="epsilon" unicode="&#x3b5;" 
d="M1175 232l-37 -185q-228 -73 -449 -73q-560 0 -499 302q40 201 347 309q-236 65 -201 240q57 286 605 286q201 0 372 -35l-35 -174q-172 36 -325 36q-298 0 -326 -139q-27 -138 302 -138h214l-35 -172h-268q-299 0 -332 -167q-34 -167 278 -167q177 0 389 77z" />
    <glyph glyph-name="zeta" unicode="&#x3b6;" 
d="M636 1153h-43q-151 0 -320 74l51 257q127 -101 220 -135t261 -49q369 287 650 304l42 -156q-243 -272 -658 -324q-231 -287 -296 -610q-29 -148 37 -214t245 -66h63q379 0 319 -301q-31 -158 -170 -255.5t-335 -97.5q-80 0 -179 20l35 177q91 -25 186 -25q199 0 225 129
q14 69 -43.5 94t-164.5 25h-44q-584 0 -487 488q65 324 406 665z" />
    <glyph glyph-name="eta" unicode="&#x3b7;" 
d="M146 0l151 757q38 190 2 329h307q7 -75 -1 -208q180 232 391 232q290 0 214 -382l-224 -1123h-283l213 1070q39 195 -87 195q-56 0 -119.5 -41.5t-143.5 -147.5l-136 -681h-284z" />
    <glyph glyph-name="theta" unicode="&#x3b8;" 
d="M257 796q74 373 256.5 590.5t421.5 217.5t334.5 -218.5t19.5 -595.5q-75 -378 -257.5 -596.5t-421.5 -218.5q-243 0 -337 217.5t-16 603.5zM573 893h439q48 241 22.5 390t-133.5 149t-194 -149t-134 -390zM981 721h-445l-11 -53q-45 -227 -17 -374t136 -147t194.5 149
t133.5 380z" />
    <glyph glyph-name="iota" unicode="&#x3b9;" 
d="M1071 25q-163 -50 -324 -50q-190 0 -270 69q-59 53 -66.5 132.5t29.5 265.5l129 644h296l-135 -672q-27 -137 7 -196t142 -59q85 0 227 41z" />
    <glyph glyph-name="kappa" unicode="&#x3ba;" 
d="M185 0l217 1086h276l-105 -525l229 230q192 193 280 244t225 51l-41 -204h-25q-74 0 -143 -42t-199 -173l-68 -67l346 -600h-314l-299 520l-103 -520h-276z" />
    <glyph glyph-name="lambda" unicode="&#x3bb;" 
d="M716 766l-215 -309q-43 -62 -74 -123t-52.5 -116.5t-34.5 -101.5t-19 -77q-1 -7 -3.5 -20.5t-2.5 -18.5h-290q20 57 54.5 122.5t81.5 141t105 162t125 184.5l273 397l-36 158q-25 112 -72 146t-178 34h-21l47 234h30q250 0 342 -74t146 -317l155 -705q53 -242 144 -483
h-317q-48 125 -114 432z" />
    <glyph glyph-name="uni03BC" unicode="&#x3bc;" 
d="M61 -395l296 1481h283l-134 -666q-43 -219 100 -219q122 0 263 206l136 679h284l-152 -758q-38 -190 -4 -328h-307q-7 82 3 207q-128 -232 -288 -232q-76 0 -116 37l-81 -407h-283z" />
    <glyph glyph-name="nu" unicode="&#x3bd;" 
d="M450 0q-12 79 -38 219t-63 329q-26 127 -44 215t-32.5 149t-26 101.5t-20.5 72.5h323q9 -31 30.5 -129.5t53.5 -266.5q23 -121 38.5 -200.5t25 -129.5t14 -77.5t7.5 -44.5l33 47q321 452 356 627q20 103 -9 174h269q5 -65 -8 -130q-44 -219 -610 -956h-299z" />
    <glyph glyph-name="xi" unicode="&#x3be;" 
d="M641 824q-117 28 -189 106.5t-49 191.5q24 121 126 211q-159 21 -252 57l43 215q139 -96 375 -132q59 35 86 46q202 85 387 85q87 0 171 -14l7 -128q-236 -152 -577 -152q-58 -67 -75 -150q-26 -134 70.5 -202.5t311.5 -68.5h129l-35 -175h-206q-428 0 -481 -265
q-43 -215 262 -215h99q391 0 330 -306q-32 -160 -185 -253.5t-368 -93.5q-107 0 -203 19l35 178q90 -25 206 -25q257 7 282 134q15 73 -38.5 93t-175.5 20h-105q-254 0 -371 102.5t-79 291.5q29 146 157.5 259t311.5 171z" />
    <glyph glyph-name="omicron" unicode="&#x3bf;" 
d="M836 1110q243 0 367 -158q123 -158 73 -409q-51 -253 -237 -410q-187 -158 -436 -158q-216 0 -337 130q-151 164 -96 438q50 251 236 409t430 158zM802 938q-112 0 -199 -107q-89 -108 -125 -287q-36 -180 9 -288t158 -108q243 0 322 394q36 183 -9 289q-45 107 -156 107
z" />
    <glyph glyph-name="pi" unicode="&#x3c0;" 
d="M923 871h-262l-174 -871h-271l174 871h-30q-82 0 -186 -60l45 225q97 50 201 50h978l-43 -215h-160l-116 -576q-33 -168 18 -295h-282q-37 146 -6 303z" />
    <glyph glyph-name="rho" unicode="&#x3c1;" 
d="M58 -395l140 702q52 261 98.5 386t139.5 229q176 189 451 189q242 0 345.5 -131.5t56.5 -368.5q-54 -268 -249 -439.5t-452 -171.5q-70 0 -150 27l-84 -422h-296zM477 225q70 -53 149 -53q128 0 225 108.5t139 317.5q31 155 -8.5 248t-146.5 93q-113 0 -185 -106
t-130 -394z" />
    <glyph glyph-name="sigma1" unicode="&#x3c2;" 
d="M468 -222q92 -25 196 -25q235 0 261 130q15 73 -44.5 95t-178.5 22h-94q-247 0 -373 119t-82 339q56 279 303 465.5t560 186.5q154 0 268 -23l-41 -206q-91 37 -285 37q-175 0 -314.5 -116t-175.5 -295q-55 -272 249 -272h97q410 0 350 -302q-32 -159 -181.5 -255.5
t-375.5 -96.5q-75 0 -174 19z" />
    <glyph glyph-name="sigma" unicode="&#x3c3;" 
d="M467 548q-80 -401 120 -401q199 0 278 396t-121 396q-199 0 -277 -391zM948 1086h478l-42 -206h-254q71 -139 30 -342q-53 -266 -215.5 -414.5t-392.5 -148.5t-333 149t-49 419q53 267 214.5 417t385.5 150q74 0 178 -24z" />
    <glyph glyph-name="tau" unicode="&#x3c4;" 
d="M531 0q-38 146 18 427l89 444h-157q-148 0 -272 -50l45 225q114 40 283 40h859l-43 -215h-419l-89 -444q-56 -277 -6 -427h-308z" />
    <glyph glyph-name="upsilon" unicode="&#x3c5;" 
d="M354 1086h296l-111 -554q-43 -212 -13.5 -298.5t143.5 -86.5q111 0 186.5 87t105.5 237q57 287 -34 615h291q50 -278 -1 -533q-52 -261 -227 -419.5t-386 -158.5q-217 0 -310 95q-72 80 -78.5 186.5t36.5 321.5z" />
    <glyph glyph-name="phi" unicode="&#x3c6;" 
d="M1061 1110q55 0 117 -28.5t103 -106.5q43 -80 44 -178t-22 -213q-11 -57 -31 -115.5t-46.5 -113.5t-60 -103t-71.5 -84q-155 -146 -366 -168l-79 -395h-235l79 395q-194 22 -291 168q-98 145 -50 384q27 135 80.5 228.5t125 161t150.5 109.5t163 59l-38 -191
q-18 -4 -52.5 -23.5t-72.5 -63t-69.5 -114t-53.5 -179.5q-13 -68 -19 -146.5t19 -128t66.5 -71t75.5 -21.5l74 371q25 123 55.5 213.5t71 154.5t85 102.5t89.5 61t84 29t75 6.5zM762 172q52 0 94.5 23.5t83.5 71.5q20 24 38.5 58t34.5 73t28.5 83t28.5 122q8 39 16.5 106.5
t4.5 116t-23 80.5t-58 32q-29 0 -52 -16t-38.5 -49.5t-33.5 -100.5t-42 -190z" />
    <glyph glyph-name="chi" unicode="&#x3c7;" 
d="M537 368l-100 284q-100 282 -176 434h329q72 -151 153 -384l21 -63l371 447h244l-540 -652l149 -414q12 -33 87 -213q28 -66 80 -202h-335q-46 122 -70 182q-51 131 -64 168l-74 204l-441 -554h-249z" />
    <glyph glyph-name="psi" unicode="&#x3c8;" 
d="M416 -395l79 395q-126 10 -199.5 52t-107.5 111.5t-33.5 164t23.5 211.5l47 233q42 211 2 314h246q32 -97 -10 -306l-30 -150q-21 -109 -34 -192.5t-6 -141.5t40 -89t102 -35l222 1111h224l-222 -1111q97 0 178 108q75 117 125 370q46 230 -1 436h251q32 -201 -16 -444
q-58 -289 -215 -460q-157 -170 -350 -182l-79 -395h-236z" />
    <glyph glyph-name="omega" unicode="&#x3c9;" 
d="M669 275q-137 -300 -301 -300q-140 0 -198 145t-7 399q58 291 235 567h247q-208 -295 -270 -604q-62 -310 40 -310q60 0 114 88.5t90 206.5q-22 133 -7 233q30 146 116 282h165q37 -136 7 -282q-30 -100 -104 -233q-11 -118 10.5 -206.5t75.5 -88.5q102 0 164 311
q62 308 -17 603h237q65 -276 7 -567q-51 -254 -166 -399t-255 -145q-165 0 -183 300z" />
    <glyph glyph-name="iotadieresis" unicode="&#x3ca;" 
d="M440 1293l44 222h222l-44 -222h-222zM847 1293l44 222h222l-44 -222h-222zM1071 25q-163 -50 -324 -50q-190 0 -270 69q-59 53 -66.5 132.5t29.5 265.5l129 644h296l-135 -672q-27 -137 7 -196t142 -59q85 0 227 41z" />
    <glyph glyph-name="upsilondieresis" unicode="&#x3cb;" 
d="M513 1293l44 222h222l-44 -222h-222zM925 1293l44 222h222l-44 -222h-222zM354 1086h296l-111 -554q-43 -212 -13.5 -298.5t143.5 -86.5q111 0 186.5 87t105.5 237q57 287 -34 615h291q50 -278 -1 -533q-52 -261 -227 -419.5t-386 -158.5q-217 0 -310 95
q-72 80 -78.5 186.5t36.5 321.5z" />
    <glyph glyph-name="omicrontonos" unicode="&#x3cc;" 
d="M836 1110q243 0 367 -158q123 -158 73 -409q-51 -253 -237 -410q-187 -158 -436 -158q-216 0 -337 130q-151 164 -96 438q50 251 236 409t430 158zM802 938q-112 0 -199 -107q-89 -108 -125 -287q-36 -180 9 -288t158 -108q243 0 322 394q36 183 -9 289q-45 107 -156 107
zM763 1283l168 419h240l-260 -419h-148z" />
    <glyph glyph-name="upsilontonos" unicode="&#x3cd;" 
d="M758 1283l168 419h240l-260 -419h-148zM354 1086h296l-111 -554q-43 -212 -13.5 -298.5t143.5 -86.5q111 0 186.5 87t105.5 237q57 287 -34 615h291q50 -278 -1 -533q-52 -261 -227 -419.5t-386 -158.5q-217 0 -310 95q-72 80 -78.5 186.5t36.5 321.5z" />
    <glyph glyph-name="omegatonos" unicode="&#x3ce;" 
d="M798 1283l168 419h240l-260 -419h-148zM669 275q-137 -300 -301 -300q-140 0 -198 145t-7 399q58 291 235 567h247q-208 -295 -270 -604q-62 -310 40 -310q60 0 114 88.5t90 206.5q-22 133 -7 233q30 146 116 282h165q37 -136 7 -282q-30 -100 -104 -233
q-11 -118 10.5 -206.5t75.5 -88.5q102 0 164 311q62 308 -17 603h237q65 -276 7 -567q-51 -254 -166 -399t-255 -145q-165 0 -183 300z" />
    <glyph glyph-name="uni0400" unicode="&#x400;" 
d="M37 0l34 173h148l227 1135h-148l34 172h1073l-74 -370h-185l40 198h-444l-96 -481h235l24 123h172l-84 -420h-172l25 124h-235l-94 -469h506l45 222h185l-81 -407h-1135zM880 1614l-257 321h295l145 -321h-183z" />
    <glyph glyph-name="uni0401" unicode="&#x401;" 
d="M37 0l34 173h148l227 1135h-148l34 172h1073l-74 -370h-185l40 198h-444l-96 -481h235l24 123h172l-84 -420h-172l25 124h-235l-94 -469h506l45 222h185l-81 -407h-1135zM555 1634l44 222h222l-44 -222h-222zM1013 1634l44 222h222l-44 -222h-222z" />
    <glyph glyph-name="uni0402" unicode="&#x402;" 
d="M558 0h-425l34 173h140l237 1184h-100l-42 -207h-173l66 330h871l-66 -330h-173l42 207h-140l-108 -538q153 131 295 131q160 0 231.5 -125t23.5 -366q-41 -205 -179.5 -344.5t-370.5 -139.5l34 172q79 0 146 71t101 241q32 159 1 223.5t-110 64.5q-102 0 -210 -118z" />
    <glyph glyph-name="uni0403" unicode="&#x403;" 
d="M715 173l-34 -173h-644l34 173h148l227 1135h-148l34 172h1073l-74 -370h-185l40 198h-444l-226 -1131zM618 1614l273 321h295l-385 -321h-183z" />
    <glyph glyph-name="uni0404" unicode="&#x404;" 
d="M1233 225l-41 -206q-197 -56 -405 -56q-330 0 -484 208q-156 208 -86 559q71 352 307 569q236 218 553 218q183 0 386 -66l-68 -341h-173l9 171q-75 64 -177 64q-188 0 -328 -161q-122 -139 -176 -352h389l24 120h172l-83 -413h-172l24 120h-387q-26 -225 45 -353
q88 -158 311 -158q165 0 360 77z" />
    <glyph glyph-name="uni0405" unicode="&#x405;" 
d="M123 56l76 384h172l-17 -211q147 -93 267 -93q125 0 195 64q55 49 71 130q23 113 -103 199q-17 11 -32 22l-16 10l-11 8l-119 84q-171 121 -223 214q-53 92 -25 229q39 196 192 309q154 113 379 113q174 0 396 -73l-75 -376h-173l19 217q-100 59 -200 59q-84 0 -145 -52
q-62 -53 -78 -134q-15 -77 33 -130q41 -44 136 -110l127 -88q176 -123 218 -195q43 -74 16 -206q-44 -220 -219 -343q-177 -124 -434 -124q-167 0 -427 93z" />
    <glyph glyph-name="uni0406" unicode="&#x406;" 
d="M123 0l34 173h343l227 1135h-343l34 172h982l-34 -172h-343l-227 -1135h343l-34 -173h-982z" />
    <glyph glyph-name="uni0407" unicode="&#x407;" 
d="M123 0l34 173h343l227 1135h-343l34 172h982l-34 -172h-343l-227 -1135h343l-34 -173h-982zM593 1634l44 222h222l-44 -222h-222zM1053 1634l44 222h222l-44 -222h-222z" />
    <glyph glyph-name="uni0408" unicode="&#x408;" 
d="M117 31l97 487h172l-39 -319q85 -61 158 -61q103 0 150 72q39 60 66 193l181 905h-321l34 172h864l-34 -172h-247l-185 -925q-84 -420 -521 -420q-126 0 -302 48z" />
    <glyph glyph-name="uni0409" unicode="&#x409;" 
d="M10 0l34 173h22q32 0 65.5 20.5t55.5 58t35 90.5t27 119l169 846h-80l34 173h670l-121 -605h55q93 0 162.5 -29.5t109 -82.5t51.5 -126t-5 -157q-24 -124 -73.5 -210.5t-120 -146.5t-161.5 -91.5t-192 -31.5h-210l261 1307h-170l-151 -755q-19 -93 -37 -170t-41 -138.5
t-53.5 -107t-74.5 -76t-103 -45.5t-128 -15h-30zM781 173h11q47 0 100.5 23.5t89 62.5t55 85t37.5 136q45 222 -174 222h-13z" />
    <glyph glyph-name="uni040A" unicode="&#x40a;" 
d="M531 0l140 702h-211l-106 -529h50l-34 -173h-330l34 173h70l227 1134h-70l34 173h330l-34 -173h-50l-87 -432h211l87 432h-50l34 173h360l-34 -173h-100l-87 -432h55q83 0 155.5 -29.5t112.5 -80.5t52.5 -122.5t-8.5 -172.5q-24 -124 -72.5 -205.5t-119 -141.5
t-159.5 -91.5t-190 -31.5h-210zM775 173h11q53 0 101.5 23.5t84.5 66t57.5 96t32.5 111.5q47 232 -168 232h-13z" />
    <glyph glyph-name="uni040B" unicode="&#x40b;" 
d="M1137 173h77l-34 -173h-362l118 591q20 101 10.5 143.5t-66.5 42.5q-34 0 -93.5 -35t-101.5 -104l-93 -465h70l-34 -173h-495l34 173h140l237 1184h-100l-42 -207h-173l66 330h831l-66 -330h-173l42 207h-100l-110 -551q67 72 139 108t143 36q143 0 199 -92t19 -276z" />
    <glyph glyph-name="uni040C" unicode="&#x40c;" 
d="M534 0h-485l34 173h100l227 1135h-100l34 172h485l-34 -172h-100l-91 -457q46 11 88 38t79 63t70.5 77t63.5 80l123 160q45 58 90.5 98.5t94 65.5t100 36t110.5 11h46l-34 -172h-28q-35 0 -65.5 -14.5t-57 -38.5t-50 -53.5t-46.5 -59.5l-90 -117q-44 -57 -82.5 -95
t-73.5 -62t-66.5 -36.5t-61.5 -19.5q65 -27 107.5 -65.5t70.5 -86.5t45.5 -103t33.5 -114l74 -270h107l-34 -173h-409l34 174q-8 35 -17 70l-18 70q-34 137 -80 225.5t-100 130.5h-61l-99 -497h100zM798 1614l273 321h295l-385 -321h-183z" />
    <glyph glyph-name="uni040D" unicode="&#x40d;" 
d="M928 1614l-257 321h295l145 -321h-183zM41 0l34 173h100l227 1135h-100l34 172h470l-34 -172h-90l-182 -908l603 1080h380l-34 -172h-100l-227 -1135h100l-34 -173h-470l34 173h90l181 907l-602 -1080h-380z" />
    <glyph glyph-name="uni040E" unicode="&#x40e;" 
d="M277 1308l34 172h470l-34 -172h-76l141 -588l419 588h-162l34 172h420l-34 -172h-68l-668 -940q-164 -231 -275 -299.5t-310 -68.5h-61l68 344h173l-9 -147q66 0 106 29t105 125l34 47l-219 910h-88zM683 1910h210q-17 -88 5 -129.5t84 -41.5q61 0 100.5 41.5t56.5 129.5
h210q-29 -148 -127.5 -222t-264.5 -74q-167 0 -235 74t-39 222z" />
    <glyph glyph-name="uni040F" unicode="&#x40f;" 
d="M459 173h379l227 1134h-95l34 173h480l-34 -173h-100l-227 -1134h100l-34 -173h-464l-77 -385h-220l77 385h-465l34 173h100l227 1134h-100l34 173h480l-34 -173h-95z" />
    <glyph glyph-name="uni0410" unicode="&#x410;" 
d="M25 0l34 173h62l635 1307h307l114 -1307h61l-34 -173h-491l34 173h135l-20 234h-448l-114 -234h136l-34 -173h-377zM497 580h350l-53 609h-2z" />
    <glyph glyph-name="uni0411" unicode="&#x411;" 
d="M325 1308l34 172h1002l-74 -370h-185l40 198h-411l-84 -418h83q302 0 414 -75q161 -108 113 -345q-49 -249 -229.5 -359.5t-529.5 -110.5h-434l34 173h110l227 1135h-110zM504 173h44q172 0 267.5 57t130.5 235q28 140 -37.5 196t-223.5 56h-72z" />
    <glyph glyph-name="uni0412" unicode="&#x412;" 
d="M42 0l34 173h98l227 1135h-98l34 172h550q275 0 376 -75q102 -75 68 -245q-31 -157 -168 -264q-83 -64 -239 -121q167 -38 244 -124q98 -109 66 -266q-76 -385 -602 -385h-590zM454 173h80q191 0 274.5 49t110.5 186q54 271 -314 271h-50zM590 851h45q150 0 249.5 74.5
t124.5 197.5q23 118 -50 154q-62 31 -226 31h-52z" />
    <glyph glyph-name="uni0413" unicode="&#x413;" 
d="M715 173l-34 -173h-644l34 173h148l227 1135h-148l34 172h1073l-74 -370h-185l40 198h-444l-226 -1131z" />
    <glyph glyph-name="uni0414" unicode="&#x414;" 
d="M-46 -385l110 558h46q204 256 326 517t185 580l8 37h-90l34 173h861l-34 -173h-60l-227 -1134h60l-111 -558h-220l77 385h-669l-77 -385h-219zM377 181h458l225 1126h-191l-5 -24q-60 -303 -188 -589t-299 -513z" />
    <glyph glyph-name="uni0415" unicode="&#x415;" 
d="M37 0l34 173h148l227 1135h-148l34 172h1073l-74 -370h-185l40 198h-444l-96 -481h235l24 123h172l-84 -420h-172l25 124h-235l-94 -469h506l45 222h185l-81 -407h-1135z" />
    <glyph glyph-name="uni0416" unicode="&#x416;" 
d="M738 172h90l-34 -172h-359l34 172h90l101 507h-31q-20 -28 -38 -56.5t-40 -66t-51 -90t-72 -128.5q-8 -13 -22.5 -39.5t-33.5 -60t-39 -70.5t-39 -70.5t-33.5 -59.5t-21.5 -38h-239l34 172h68l171 279q52 86 93.5 143.5t79 95.5t75 61t82.5 40q-32 19 -57.5 43.5
t-46.5 57.5t-37 75.5t-28 96.5l-16 82q-6 34 -12 64t-17 51.5t-33.5 34t-66.5 12.5l34 172h23q74 0 122 -24.5t77.5 -63.5t44.5 -87t23 -94l13 -70q12 -59 19 -99.5t11 -68.5l6.5 -45.5t5.5 -30.5t6.5 -23.5t19.5 -24.5l92 459h-90l34 172h359l-34 -172h-90l-92 -459
q22 14 29.5 24.5t15.5 23.5t17.5 30.5t25.5 45.5t39 68.5t57 99.5l41 70q28 46 62 94t78.5 87t102.5 63.5t132 24.5h23l-34 -172q-44 0 -71.5 -12.5t-47.5 -34t-38 -51.5t-38 -64l-48 -82q-34 -54 -67 -96.5t-67 -75.5t-69.5 -57.5t-73.5 -43.5q37 -17 65.5 -40t51 -61
t41 -95.5t36.5 -143.5l59 -279h68l-34 -172h-239q-3 12 -7.5 38t-9.5 59.5t-11 70.5t-11 70.5t-9.5 60t-6.5 39.5q-13 76 -21 128.5t-15 90t-13 66t-16 56.5h-31z" />
    <glyph glyph-name="uni0417" unicode="&#x417;" 
d="M134 247q263 -103 435 -103q169 0 258 67q84 69 107 181q24 122 -70 195q-123 84 -342 84h-111l34 173h110q415 0 472 283q43 217 -213 217q-87 0 -198 -28l-57 -157h-189l59 296q257 62 453 62q232 0 354 -98q120 -98 85 -277q-32 -161 -189 -261q-100 -61 -269 -106
q172 -30 268 -120q123 -119 94 -262q-39 -193 -234 -311q-120 -73 -221 -96t-237 -23q-240 0 -440 82z" />
    <glyph glyph-name="uni0418" unicode="&#x418;" 
d="M41 0l34 173h100l227 1135h-100l34 172h470l-34 -172h-90l-182 -908l603 1080h380l-34 -172h-100l-227 -1135h100l-34 -173h-470l34 173h90l181 907l-602 -1080h-380z" />
    <glyph glyph-name="uni0419" unicode="&#x419;" 
d="M664 1910h210q-17 -88 5 -129.5t84 -41.5q61 0 100.5 41.5t56.5 129.5h210q-29 -148 -127.5 -222t-264.5 -74q-167 0 -235 74t-39 222zM41 0l34 173h100l227 1135h-100l34 172h470l-34 -172h-90l-182 -908l603 1080h380l-34 -172h-100l-227 -1135h100l-34 -173h-470
l34 173h90l181 907l-602 -1080h-380z" />
    <glyph glyph-name="uni041A" unicode="&#x41a;" 
d="M534 0h-485l34 173h100l227 1135h-100l34 172h485l-34 -172h-100l-91 -457q46 11 88 38t79 63t70.5 77t63.5 80l123 160q45 58 90.5 98.5t94 65.5t100 36t110.5 11h46l-34 -172h-28q-35 0 -65.5 -14.5t-57 -38.5t-50 -53.5t-46.5 -59.5l-90 -117q-44 -57 -82.5 -95
t-73.5 -62t-66.5 -36.5t-61.5 -19.5q65 -27 107.5 -65.5t70.5 -86.5t45.5 -103t33.5 -114l74 -270h107l-34 -173h-409l34 174q-8 35 -17 70l-18 70q-34 137 -80 225.5t-100 130.5h-61l-99 -497h100z" />
    <glyph glyph-name="uni041B" unicode="&#x41b;" 
d="M4 0l34 173q86 7 161.5 63.5t122.5 161.5t108.5 346t111.5 492l15 71h-120l34 173h1009l-34 -173h-95l-227 -1134h95l-34 -173h-474l34 173h94l227 1134h-239l-8 -39q-78 -392 -152.5 -652.5t-137.5 -363.5q-79 -126 -193 -189t-332 -63z" />
    <glyph glyph-name="uni041C" unicode="&#x41c;" 
d="M14 0l34 173h70l227 1135h-70l34 172h360l43 -981l440 981h357l-34 -172h-68l-227 -1135h68l-34 -173h-402l34 173h100l189 944h-6l-418 -932h-178l-48 869h-6l-176 -881h100l-34 -173h-355z" />
    <glyph glyph-name="uni041D" unicode="&#x41d;" 
d="M41 0l34 173h100l227 1135h-100l34 172h470l-34 -172h-90l-92 -462h387l92 462h-90l34 172h470l-34 -172h-100l-227 -1135h100l-34 -173h-470l34 173h90l100 498h-387l-100 -498h90l-34 -173h-470z" />
    <glyph glyph-name="uni041E" unicode="&#x41e;" 
d="M917 1517q272 0 377 -201q107 -200 33 -575q-156 -778 -721 -778q-247 0 -356 164q-135 205 -53 614q74 374 260 575q188 201 460 201zM882 1345q-257 0 -377 -604q-121 -605 136 -605t378 605q120 604 -137 604z" />
    <glyph glyph-name="uni041F" unicode="&#x41f;" 
d="M1065 1308h-379l-227 -1135h95l-34 -173h-480l34 173h100l227 1135h-100l34 172h1149l-34 -172h-100l-227 -1135h100l-34 -173h-480l34 173h95z" />
    <glyph glyph-name="uni0420" unicode="&#x420;" 
d="M37 0l34 173h198l227 1135h-198l34 172h634q278 0 382 -94q107 -94 65 -302q-48 -240 -237 -378q-190 -138 -471 -138h-61l-79 -395h296l-34 -173h-790zM678 740h37q314 0 375 303q30 149 -22 207q-51 58 -214 58h-62z" />
    <glyph glyph-name="uni0421" unicode="&#x421;" 
d="M1234 261l-44 -216q-218 -82 -426 -82q-330 0 -484 208q-156 208 -86 559q71 352 307 569q236 218 553 218q183 0 386 -66l-85 -427h-173l26 257q-75 64 -177 64q-178 0 -318 -161q-140 -160 -193 -426q-57 -284 31 -442t301 -158q155 0 382 103z" />
    <glyph glyph-name="uni0422" unicode="&#x422;" 
d="M244 0l34 173h223l227 1135h-235l-40 -198h-185l74 370h1135l-74 -370h-185l40 198h-234l-227 -1135h222l-34 -173h-741z" />
    <glyph glyph-name="uni0423" unicode="&#x423;" 
d="M277 1308l34 172h470l-34 -172h-76l141 -588l419 588h-162l34 172h420l-34 -172h-68l-668 -940q-164 -231 -275 -299.5t-310 -68.5h-61l68 344h173l-9 -147q66 0 106 29t105 125l34 47l-219 910h-88z" />
    <glyph glyph-name="uni0424" unicode="&#x424;" 
d="M756 1307h-130l34 173h500l-34 -173h-130l-24 -118q193 0 306.5 -126t73.5 -323q-39 -196 -203 -322.5t-356 -126.5l-24 -118h130l-34 -173h-500l34 173h130l24 118q-192 0 -306 126.5t-75 322.5q40 197 204 323t356 126zM587 414l131 652q-68 0 -145.5 -81t-110.5 -245
q-33 -165 12 -245.5t113 -80.5zM807 414q57 0 139.5 80.5t115.5 245.5q33 164 -17 245t-107 81z" />
    <glyph glyph-name="uni0425" unicode="&#x425;" 
d="M12 0l34 173h82l488 563l-208 572h-111l34 172h556l-34 -172h-116l118 -323l261 323h-96l34 172h420l-34 -172h-105l-418 -490l235 -645h98l-34 -173h-543l34 173h114l-144 396l-331 -396h95l-34 -173h-395z" />
    <glyph glyph-name="uni0426" unicode="&#x426;" 
d="M455 173h387l227 1134h-99l34 173h484l-34 -173h-100l-227 -1134h100l-111 -558h-220l77 385h-937l34 173h100l227 1134h-100l34 173h484l-34 -173h-99z" />
    <glyph glyph-name="uni0427" unicode="&#x427;" 
d="M662 0l34 173h120l83 415q-155 -94 -302 -94q-212 0 -289 95t-39 285l87 433h-60l34 173h426l-34 -173h-70l-81 -402q-22 -114 6 -171t107 -57q100 0 250 86l109 544h-70l34 173h467l-34 -173h-101l-227 -1134h100l-34 -173h-516z" />
    <glyph glyph-name="uni0428" unicode="&#x428;" 
d="M55 0l34 173h40l227 1134h-40l34 173h300l-34 -173h-40l-227 -1134h190l227 1134h-40l34 173h300l-34 -173h-40l-227 -1134h190l227 1134h-40l34 173h300l-34 -173h-40l-227 -1134h40l-34 -173h-1120z" />
    <glyph glyph-name="uni0429" unicode="&#x429;" 
d="M1163 173h45l-111 -558h-220l77 385h-900l34 173h50l227 1134h-50l34 173h305l-34 -173h-40l-227 -1134h185l227 1134h-40l34 173h295l-34 -173h-40l-227 -1134h185l227 1134h-40l34 173h310l-34 -173h-45z" />
    <glyph glyph-name="uni042A" unicode="&#x42a;" 
d="M212 0l34 173h110l227 1134h-312l34 173h608l-116 -580h48q227 0 339 -74q154 -104 106 -343q-55 -274 -285 -402q-146 -81 -387 -81h-406zM652 174h27q86 0 173.5 55t127.5 254q26 132 -33.5 188t-145.5 56h-38z" />
    <glyph glyph-name="uni042B" unicode="&#x42b;" 
d="M345 1480h300l-34 -173h-40l-82 -407h80q184 0 267 -115t48 -290q-51 -259 -203.5 -377t-370.5 -118h-260l34 173h50l227 1134h-50zM849 0l34 173h60l227 1134h-60l34 173h330l-34 -173h-60l-227 -1134h60l-34 -173h-330zM344 173h40q98 0 171.5 73t107.5 244
q23 114 -23 175.5t-144 61.5h-41z" />
    <glyph glyph-name="uni042C" unicode="&#x42c;" 
d="M330 1308l34 172h506l-34 -172h-100l-82 -408h83q302 0 414 -75q161 -108 113 -345q-51 -259 -231.5 -369.5t-529.5 -110.5h-434l34 173h110l227 1135h-110zM509 173h44q172 0 267.5 57t132.5 245q28 140 -37.5 196t-223.5 56h-72z" />
    <glyph glyph-name="uni042D" unicode="&#x42d;" 
d="M296 1110l68 341q231 66 414 66q317 0 465 -218q150 -217 79 -569q-70 -351 -308 -559t-568 -208q-208 0 -383 56l41 206q165 -77 330 -77q223 0 375 158q121 128 185 353h-387l-24 -120h-172l83 413h172l-24 -120h389q30 213 -36 352q-76 161 -264 161q-102 0 -203 -64
l-59 -171h-173z" />
    <glyph glyph-name="uni042E" unicode="&#x42e;" 
d="M442 683l-102 -510h50l-34 -173h-310l34 173h50l227 1134h-50l34 173h310l-34 -173h-50l-91 -456h167q70 293 191.5 479.5t294.5 186.5q154 0 217 -186.5t-18 -590.5q-80 -404 -208 -590.5t-302 -186.5q-173 0 -223 186.5t12 533.5h-165zM838 740q-58 -294 -54 -449
t69 -155t130.5 154.5t124.5 449.5t54.5 449.5t-68.5 154.5q-63 0 -129.5 -153t-126.5 -451z" />
    <glyph glyph-name="uni042F" unicode="&#x42f;" 
d="M470 173l-34 -173h-396l34 173h70q41 47 86 101l115 149q74 87 140 153.5t159 94.5q-189 80 -237 179t-24 220q41 186 187 290q148 120 476 120h428l-34 -172h-90l-227 -1135h90l-34 -173h-490l34 173h120l89 444h-51q-93 -59 -188.5 -175.5t-191.5 -230.5
q-15 -17 -31 -38zM1070 1308h-55q-140 0 -225 -64t-107 -175q-30 -151 35.5 -215t190.5 -64h57z" />
    <glyph glyph-name="uni0430" unicode="&#x430;" 
d="M1306 1086l-183 -913h99l-34 -173h-384l31 160q-191 -185 -381 -185q-181 0 -260 143q-78 143 -29 389q57 288 228 446q170 158 422 158q89 0 206 -25h285zM980 883l-33 7q-77 21 -146 21q-260 0 -335 -371q-67 -337 130 -337q126 0 282 171z" />
    <glyph glyph-name="uni0431" unicode="&#x431;" 
d="M1385 1680l-58 -293h-279q-197 0 -315 -128.5t-176 -357.5q189 185 372 185q209 0 302.5 -147t45.5 -387q-52 -259 -233 -418t-432 -159q-555 0 -410 730q92 459 300 666.5t514 207.5h177l20 101h172zM516 687l-10 -49q-96 -489 151 -489q110 0 190 96t117 281
q66 334 -135 334q-148 0 -313 -173z" />
    <glyph glyph-name="uni0432" unicode="&#x432;" 
d="M75 0l34 173h100l148 740h-100l35 173h519q275 0 380 -55q106 -55 82 -171q-24 -124 -156 -203q-79 -46 -222 -88q159 2 240 -61q104 -80 80 -199q-61 -309 -581 -309h-559zM494 173h80q166 0 245 36t98 129q26 130 -314 130h-50zM584 624h45q129 0 224 55t109 123
q12 62 -62 88q-63 23 -206 23h-52z" />
    <glyph glyph-name="uni0433" unicode="&#x433;" 
d="M780 173l-34 -173h-666l34 173h170l146 728h-170l37 185h1095l-77 -385h-185l40 200h-444l-145 -724z" />
    <glyph glyph-name="uni0434" unicode="&#x434;" 
d="M-58 -345l102 518h70q146 142 254 333.5t146 379.5l5 27h-100l35 173h912l-35 -173h-80l-148 -740h80l-103 -518h-200l69 345h-739l-69 -345h-199zM382 181h448l146 732h-217l-4 -18q-34 -176 -147 -386t-226 -328z" />
    <glyph glyph-name="uni0435" unicode="&#x435;" 
d="M1218 254l-40 -203q-257 -76 -485 -76q-300 0 -439 150q-138 149 -86 410q52 258 245 417q191 159 450 159q246 0 352 -150q105 -149 50 -422l-11 -58h-787q-3 -89 11 -135q53 -177 310 -177q166 0 430 85zM507 654h481q22 119 -13 189q-45 91 -160 91q-127 0 -216 -98
q-62 -68 -92 -182z" />
    <glyph glyph-name="uni0436" unicode="&#x436;" 
d="M813 499l-99 -499h-199l99 499h-22q-12 -18 -25.5 -37.5t-31 -44.5t-39.5 -57.5t-52 -76.5q-33 -49 -59 -88t-49 -72.5t-42.5 -63t-37.5 -59.5h-233l32 163h59l135 182q128 172 249 215q-28 12 -51 27t-41.5 38t-33 55t-24.5 78l-11 49q-8 35 -13.5 56t-12 32.5t-17 15
t-28.5 3.5h-18l35 172h30q58 0 97.5 -15t65.5 -43.5t42.5 -70t26.5 -95.5l11 -55q10 -54 17 -89.5t13.5 -57t16.5 -30.5t36 -9l58 293h-90l35 172h379l-35 -172h-90l-58 -293q26 0 39 9t28.5 30.5t36.5 57t53 89.5l33 55q32 54 64 95.5t70.5 70t84 43.5t103.5 15h30
l-35 -172h-18q-18 0 -29.5 -3.5t-23 -15t-25 -32.5t-35.5 -56l-31 -49q-29 -46 -56 -78t-54.5 -55t-56.5 -38t-63 -27q105 -43 163 -215l63 -182h59l-32 -163h-233q-8 30 -16 59.5t-16.5 63t-19.5 72.5t-24 88q-12 44 -21 76.5t-16.5 57.5t-13 44.5t-11.5 37.5h-22z" />
    <glyph glyph-name="uni0437" unicode="&#x437;" 
d="M168 221q246 -75 405 -75q107 0 185 49q75 48 88 115q11 55 -80 105q-99 41 -272 41h-103l32 163h102q333 0 374 206q25 125 -181 125q-59 0 -160 -20l-50 -120h-173l52 258q233 45 414 45q215 0 332 -72q115 -72 89 -203q-28 -138 -166 -192q-92 -64 -247 -97
q161 -22 252 -88q118 -88 101 -173q-28 -141 -205 -228q-107 -53 -199.5 -70t-219.5 -17q-220 0 -408 60z" />
    <glyph glyph-name="uni0438" unicode="&#x438;" 
d="M75 0l34 173h100l148 741h-100l35 172h435l-35 -172h-70l-120 -600l504 772h365l-35 -172h-100l-148 -741h100l-34 -173h-435l34 173h70l120 600l-503 -773h-365z" />
    <glyph glyph-name="uni0439" unicode="&#x439;" 
d="M599 1579h210q-34 -171 89 -171t157 171h210q-59 -296 -392 -296t-274 296zM75 0l34 173h100l148 741h-100l35 172h435l-35 -172h-70l-120 -600l504 772h365l-35 -172h-100l-148 -741h100l-34 -173h-435l34 173h70l120 600l-503 -773h-365z" />
    <glyph glyph-name="uni043A" unicode="&#x43a;" 
d="M70 0l34 173h110l148 740h-110l35 173h475l-35 -173h-80l-57 -287q26 2 48.5 17t48.5 41.5t58.5 65t79.5 88.5l60 63q47 51 91 86t91 57t100 32t119 10h46l-35 -173h-28q-41 0 -69 -5t-51.5 -17t-46.5 -32.5t-53 -51.5l-44 -46q-29 -29 -53 -56t-52 -51t-62.5 -44
t-82.5 -35q55 -7 93.5 -31t68 -60t53 -81.5t46.5 -95.5l62 -134h135l-34 -173h-442l34 173l-18 47q-19 53 -36 92t-33.5 67.5t-32 48.5t-33.5 35h-61l-58 -290h80l-34 -173h-475z" />
    <glyph glyph-name="uni043B" unicode="&#x43b;" 
d="M26 0l34 173q47 5 85 22t69 44t54.5 62t42.5 76q48 106 81.5 221.5t59.5 243.5l14 71h-120l35 173h990l-35 -173h-100l-148 -740h100l-34 -173h-455l34 173h80l148 740h-235l-8 -39q-16 -81 -36.5 -164t-47.5 -164.5t-61.5 -159.5t-78.5 -148q-43 -68 -96.5 -114
t-114 -73.5t-125.5 -39t-132 -11.5z" />
    <glyph glyph-name="uni043C" unicode="&#x43c;" 
d="M55 0l34 173h74l148 740h-74l35 173h359l86 -681l364 681h310l-35 -173h-60l-148 -740h60l-34 -173h-396l34 173h126l123 617h-4l-320 -597h-198l-85 528h-6l-110 -548h111l-34 -173h-360z" />
    <glyph glyph-name="uni043D" unicode="&#x43d;" 
d="M75 0l34 173h100l148 741h-100l35 172h445l-35 -172h-70l-56 -280h329l56 280h-70l35 172h445l-35 -172h-100l-148 -741h100l-34 -173h-445l34 173h70l58 288h-329l-58 -288h70l-34 -173h-445z" />
    <glyph glyph-name="uni043E" unicode="&#x43e;" 
d="M836 1110q244 0 367 -158t73 -409q-55 -274 -237 -410q-185 -158 -436 -158q-237 0 -363 147t-71 421q50 251 236 409q187 158 431 158zM802 938q-112 0 -199 -107q-89 -108 -125 -288q-36 -179 9 -287t157 -108q112 5 199.5 110.5t123.5 284.5q36 180 -9 288
q-45 107 -156 107z" />
    <glyph glyph-name="uni043F" unicode="&#x43f;" 
d="M961 914h-329l-148 -741h65l-34 -173h-440l34 173h100l148 741h-100l35 172h1079l-35 -172h-100l-148 -741h100l-34 -173h-440l34 173h65z" />
    <glyph glyph-name="uni0440" unicode="&#x440;" 
d="M222 913l35 173h385l-33 -161q192 185 384 185q180 0 259 -143q78 -143 29 -388q-57 -288 -227 -446q-169 -158 -423 -158q-91 0 -206 25l-45 -222h130l-34 -173h-514l34 173h99l227 1135h-100zM464 197l32 -7q78 -21 147 -21q261 0 337 377q68 344 -130 344
q-125 0 -283 -178z" />
    <glyph glyph-name="uni0441" unicode="&#x441;" 
d="M1233 266l-43 -214q-251 -77 -462 -77q-315 0 -464 150q-147 151 -95 415q53 263 268 416q213 154 532 154q208 0 409 -54l-73 -365h-172l15 203q-101 47 -223 47q-361 0 -435 -370q-41 -205 51 -306q86 -93 277 -93q148 0 415 94z" />
    <glyph glyph-name="uni0442" unicode="&#x442;" 
d="M244 0l34 173h223l148 740h-212l-40 -200h-185l75 373h1089l-75 -373h-185l40 200h-211l-148 -740h222l-34 -173h-741z" />
    <glyph glyph-name="uni0443" unicode="&#x443;" 
d="M983 1086h451l-35 -173h-105l-694 -1077q-93 -143 -190.5 -198.5t-269.5 -57.5h-144l72 369h173l-15 -197q81 0 127.5 42.5t109.5 137.5l58 88l-237 893h-90l35 173h560l-35 -173h-148l144 -540l347 540h-149z" />
    <glyph glyph-name="uni0444" unicode="&#x444;" 
d="M669 -272h104l-24 -123h-427l24 123h104l55 272q-91 4 -173 52.5t-124.5 124.5t-50 172t12.5 194t65.5 194t118 172t174.5 124.5t194 52.5l73 370h-104l25 123h427l-25 -123h-104l-73 -370q90 -4 172 -52.5t124.5 -124.5t50 -172t-12.5 -194t-65.5 -194t-118 -172
t-174.5 -124.5t-193 -52.5zM692 913q-25 0 -69 -22t-85.5 -67.5t-75 -115.5t-52.5 -165t-13.5 -165t29 -115.5t58.5 -67.5t60 -22zM753 173q25 0 69 22t85.5 67.5t75 115.5t52.5 165t13.5 165t-29 115.5t-58.5 67.5t-60 22z" />
    <glyph glyph-name="uni0445" unicode="&#x445;" 
d="M25 0l34 173h125l377 361l-208 379h-98l35 173h514l-35 -173h-79l112 -203l214 203h-73l35 173h409l-35 -173h-94l-375 -349l219 -391h136l-34 -173h-588l34 173h111l-118 211l-217 -211h99l-34 -173h-466z" />
    <glyph glyph-name="uni0446" unicode="&#x446;" 
d="M467 181h367l146 732h-90l35 173h475l-35 -173h-100l-148 -740h100l-103 -518h-200l69 345h-937l34 173h100l148 740h-100l35 173h475l-35 -173h-90z" />
    <glyph glyph-name="uni0447" unicode="&#x447;" 
d="M658 0l34 173h120l52 258q-146 -69 -263 -69q-206 0 -288 70t-54 209l54 272h-101l35 173h461l-35 -173h-70l-42 -210q-17 -84 14 -126t110 -42q70 0 212 64l63 314h-70l35 173h461l-35 -173h-101l-148 -740h100l-34 -173h-510z" />
    <glyph glyph-name="uni0448" unicode="&#x448;" 
d="M60 0l34 173h40l148 740h-40l35 173h300l-35 -173h-40l-146 -732h186l146 732h-40l35 173h298l-35 -173h-40l-146 -732h186l146 732h-40l35 173h299l-35 -173h-39l-148 -740h39l-34 -173h-1109z" />
    <glyph glyph-name="uni0449" unicode="&#x449;" 
d="M1152 173h45l-103 -518h-200l69 345h-903l34 173h45l148 740h-45l35 173h303l-35 -173h-40l-146 -732h180l146 732h-40l35 173h297l-35 -173h-40l-146 -732h180l146 732h-40l35 173h303l-35 -173h-45z" />
    <glyph glyph-name="uni044A" unicode="&#x44a;" 
d="M213 0l34 173h130l148 740h-323l35 173h598l-70 -346h74q218 0 332.5 -89t78.5 -269q-36 -178 -207.5 -280t-420.5 -102h-409zM652 174h45q97 0 167.5 55t90.5 153q18 93 -27 139t-154 46h-43z" />
    <glyph glyph-name="uni044B" unicode="&#x44b;" 
d="M272 1086h305l-35 -173h-40l-35 -173h75q184 0 271.5 -93.5t54.5 -256.5q-34 -174 -184.5 -282t-363.5 -108h-265l34 173h50l148 740h-50zM844 0l34 173h60l148 740h-60l35 173h330l-35 -173h-55l-148 -740h55l-34 -173h-330zM354 173h40q93 0 160 53t89 164
q18 90 -28 139t-139 49h-41z" />
    <glyph glyph-name="uni044C" unicode="&#x44c;" 
d="M262 913l35 173h500l-35 -173h-110l-43 -213h78q302 0 418 -55q167 -79 128 -273q-42 -210 -216.5 -291t-518.5 -81h-418l34 173h110l148 740h-110zM504 173h67q144 0 236.5 42t112.5 143q19 93 -50 134t-227 41h-67z" />
    <glyph glyph-name="uni044D" unicode="&#x44d;" 
d="M161 219q74 -38 159.5 -54.5t174.5 -16.5q76 0 148 21t133 61.5t106 100.5t66 138h-476l35 173h478q2 70 -16 125t-53.5 92.5t-87 57.5t-116.5 20q-25 0 -53.5 -3t-56 -8t-51 -11.5t-37.5 -14.5l-52 -144h-173l61 306q31 8 78.5 16.5t104.5 15.5t120.5 11.5t128.5 4.5
q81 0 155 -13t135.5 -40.5t109.5 -71.5t75.5 -105.5t34 -142t-13.5 -181.5q-30 -146 -101 -255t-170 -181.5t-220 -108.5t-250 -36q-51 0 -108.5 3t-113.5 9.5t-106 17t-86 25.5z" />
    <glyph glyph-name="uni044E" unicode="&#x44e;" 
d="M413 461l-58 -288h45l-34 -173h-310l34 173h50l148 740h-50l35 173h310l-35 -173h-45l-57 -284h152q53 204 166 349t286 145q154 0 225.5 -145t12.5 -440q-57 -283 -175.5 -424t-292.5 -141q-173 0 -234 133t-23 355h-150zM803 538q-43 -215 -27 -298.5t81 -83.5
t114 83.5t92 298.5t28.5 308.5t-78.5 93.5q-63 0 -115 -93.5t-95 -308.5z" />
    <glyph glyph-name="uni044F" unicode="&#x44f;" 
d="M954 913h-94q-235 0 -265 -150q-16 -86 38.5 -124t175.5 -38h83zM79 173h120q13 14 22 25.5t18.5 23t19 23.5t22.5 27l29 36q32 38 58 65t52.5 46t55.5 30.5t65 18.5q-139 39 -198.5 120t-37.5 191q19 96 70.5 155.5t124.5 93.5t162.5 46t184.5 12h518l-35 -173h-80
l-148 -740h80l-34 -173h-456l34 173h80l51 255h-116q-46 -28 -100 -89t-123 -151l-12 -15l-34 -173h-427z" />
    <glyph glyph-name="uni0450" unicode="&#x450;" 
d="M1218 254l-40 -203q-257 -76 -485 -76q-300 0 -439 150q-138 149 -86 410q52 258 245 417q191 159 450 159q246 0 352 -150q105 -149 50 -422l-11 -58h-787q-3 -89 11 -135q53 -177 310 -177q166 0 430 85zM507 654h481q22 119 -13 189q-45 91 -160 91q-127 0 -216 -98
q-62 -68 -92 -182zM890 1283l-257 321h295l145 -321h-183z" />
    <glyph glyph-name="uni0451" unicode="&#x451;" 
d="M1218 254l-40 -203q-257 -76 -485 -76q-300 0 -439 150q-138 149 -86 410q52 258 245 417q191 159 450 159q246 0 352 -150q105 -149 50 -422l-11 -58h-787q-3 -89 11 -135q53 -177 310 -177q166 0 430 85zM507 654h481q22 119 -13 189q-45 91 -160 91q-127 0 -216 -98
q-62 -68 -92 -182zM576 1293l44 222h222l-44 -222h-222zM1020 1293l44 222h222l-44 -222h-222z" />
    <glyph glyph-name="uni0452" unicode="&#x452;" 
d="M644 173l-34 -173h-500l34 173h100l183 913h-100l29 150h100l34 170h-100l35 173h380l-69 -343h325l-29 -150h-325l-73 -364q171 191 386 191q306 0 232 -369l-122 -611q-65 -328 -425 -328q-85 0 -157 20l33 165q55 -17 118 -17q73 0 102.5 32.5t50.5 135.5l114 571
q35 176 -89 176q-136 0 -285 -176l-68 -339h120z" />
    <glyph glyph-name="uni0453" unicode="&#x453;" 
d="M728 173l-34 -173h-644l34 173h148l148 741h-148l35 172h1073l-75 -372h-185l40 200h-444l-147 -737zM617 1283l272 321h296l-385 -321h-183z" />
    <glyph glyph-name="uni0454" unicode="&#x454;" 
d="M1116 30q-42 -15 -96 -25.5t-112 -17t-116.5 -9.5t-109.5 -3q-129 0 -236 36t-177 108.5t-98 181.5t2 255q30 152 100 257.5t167 171.5t212 95.5t237 29.5q65 0 127.5 -4.5t116.5 -11.5t97.5 -15.5t72.5 -16.5l-61 -306h-173l4 144q-10 8 -30.5 14.5t-46 11.5t-53 8
t-52.5 3q-65 0 -124.5 -20t-110 -57.5t-90.5 -92.5t-66 -125h478l-35 -173h-476q-9 -78 12 -138t65 -100.5t108 -61.5t140 -21q89 0 181.5 16.5t180.5 54.5z" />
    <glyph glyph-name="uni0455" unicode="&#x455;" 
d="M197 52l63 318h173l-4 -149q131 -73 244 -73q163 0 186 117q12 58 -18 90q-29 31 -125 60l-135 41q-305 92 -259 322q36 180 198 264q130 68 341 68q200 0 379 -59l-63 -311h-172l7 156q-93 42 -201 42q-174 0 -199 -125q-11 -56 26 -79q33 -21 124 -51l158 -52
q155 -51 206 -118q52 -68 29 -186q-33 -166 -171 -259q-136 -93 -351 -93q-196 0 -436 77z" />
    <glyph glyph-name="uni0456" unicode="&#x456;" 
d="M140 0l34 173h370l148 740h-370l35 173h666l-183 -913h370l-34 -173h-1036zM766 1283l59 296h296l-59 -296h-296z" />
    <glyph glyph-name="uni0457" unicode="&#x457;" 
d="M140 0l34 173h370l148 740h-370l35 173h666l-183 -913h370l-34 -173h-1036zM581 1283l44 222h222l-44 -222h-222zM1025 1283l44 222h222l-44 -222h-222z" />
    <glyph glyph-name="uni0458" unicode="&#x458;" 
d="M18 -356l81 405h173l-22 -232q94 -68 174 -68q126 0 179 100q41 77 73 239l165 825h-432l35 173h728l-197 -981q-54 -273 -200 -399t-402 -126q-138 0 -355 64zM915 1283l59 296h296l-59 -296h-296z" />
    <glyph glyph-name="uni0459" unicode="&#x459;" 
d="M737 0h-220l182 913h-150l-72 -361q-19 -93 -37 -170t-41 -138.5t-53.5 -107t-74.5 -76t-103 -45.5t-121 -15h-17l34 173h19q25 0 58.5 20.5t55.5 58t35 90.5t27 119l90 452h-70l35 173h640l-70 -346h61q184 0 271.5 -93.5t54.5 -256.5q-34 -174 -184.5 -282t-349.5 -108
zM771 173h21q98 0 165 53t89 164q18 90 -28 139t-144 49h-22z" />
    <glyph glyph-name="uni045A" unicode="&#x45a;" 
d="M541 0l98 495h-201l-64 -322h35l-34 -173h-320l34 173h65l148 740h-65l35 173h320l-35 -173h-35l-51 -253h201l51 253h-40l35 173h350l-35 -173h-90l-47 -233h35q83 0 154.5 -21.5t114.5 -59t59 -90t-3 -144.5q-22 -111 -66 -171t-111 -104t-152 -67t-166 -23h-220z
M795 173h11q33 0 78 17t78.5 48.5t49 55.5t24.5 71q30 150 -160 150h-13z" />
    <glyph glyph-name="uni045B" unicode="&#x45b;" 
d="M85 0l34 173h100l183 913h-100l29 150h100l34 170h-100l35 173h380l-69 -343h325l-29 -150h-325l-70 -349q84 73 162 114q97 61 219 61q152 0 203 -84q51 -83 12 -281l-75 -374h100l-34 -173h-480l34 173h100l55 274q28 141 10 189q-19 49 -92 49q-96 0 -257 -162
l-70 -350h100l-34 -173h-480z" />
    <glyph glyph-name="uni045C" unicode="&#x45c;" 
d="M70 0l34 173h110l148 740h-110l35 173h475l-35 -173h-80l-54 -268q54 0 91.5 27t155.5 155l144 147q172 112 352 112h46l-24 -120h-28q-64 0 -100 -20.5t-90 -78.5q-27 -27 -61 -60l-37 -36q-184 -168 -283 -188q105 -26 164.5 -83.5t122.5 -192.5l36 -75
q8 -16 14.5 -31.5t12.5 -27.5h134l-34 -173h-337l-24 66l-68 154q-88 200 -158 262h-61l-62 -309h80l-34 -173h-475zM801 1283l272 321h296l-385 -321h-183z" />
    <glyph glyph-name="uni045D" unicode="&#x45d;" 
d="M851 1283l-257 321h295l145 -321h-183zM75 0l34 173h100l148 741h-100l35 172h435l-35 -172h-70l-120 -600l504 772h365l-35 -172h-100l-148 -741h100l-34 -173h-435l34 173h70l120 600l-503 -773h-365z" />
    <glyph glyph-name="uni045E" unicode="&#x45e;" 
d="M983 1086h451l-35 -173h-105l-694 -1077q-93 -143 -190.5 -198.5t-269.5 -57.5h-144l72 369h173l-15 -197q81 0 127.5 42.5t109.5 137.5l58 88l-237 893h-90l35 173h560l-35 -173h-148l144 -540l347 540h-149zM650 1579h210q-34 -171 89 -171t157 171h210
q-59 -296 -392 -296t-274 296z" />
    <glyph glyph-name="uni045F" unicode="&#x45f;" 
d="M486 181h329l146 732h-70l35 173h445l-35 -173h-100l-148 -740h100l-34 -173h-439l-69 -345h-200l69 345h-440l34 173h100l148 740h-100l35 173h445l-35 -173h-70z" />
    <glyph glyph-name="uni0490" unicode="&#x490;" 
d="M715 173l-34 -173h-644l34 173h148l227 1135h-148l34 172h873l40 198h200l-74 -370h-629l-226 -1131z" />
    <glyph glyph-name="uni0491" unicode="&#x491;" 
d="M780 173l-34 -173h-666l34 173h170l146 728h-170l37 185h895l39 198h200l-76 -383h-629l-145 -724z" />
    <glyph glyph-name="Wgrave" unicode="&#x1e80;" 
d="M908 1614l-257 321h295l145 -321h-183zM215 0l121 1308h-60l34 172h360l-34 -172h-70l-104 -958h7l319 921h222l-58 -921h6l281 958h-57l34 172h292l-34 -172h-60l-407 -1308h-242l30 951v0l-335 -951h-245z" />
    <glyph glyph-name="wgrave" unicode="&#x1e81;" 
d="M220 0l48 913h-74l35 173h395l-35 -173h-82l-27 -510h4l212 473h247l14 -503h4l188 540h-79l35 173h329l-35 -173h-75l-318 -913h-246l-18 602h-4l-271 -602h-247zM841 1283l-257 321h295l145 -321h-183z" />
    <glyph glyph-name="Wacute" unicode="&#x1e82;" 
d="M772 1614l272 321h295l-384 -321h-183zM215 0l121 1308h-60l34 172h360l-34 -172h-70l-104 -958h7l319 921h222l-58 -921h6l281 958h-57l34 172h292l-34 -172h-60l-407 -1308h-242l30 951v0l-335 -951h-245z" />
    <glyph glyph-name="wacute" unicode="&#x1e83;" 
d="M220 0l48 913h-74l35 173h395l-35 -173h-82l-27 -510h4l212 473h247l14 -503h4l188 540h-79l35 173h329l-35 -173h-75l-318 -913h-246l-18 602h-4l-271 -602h-247zM799 1283l272 321h295l-384 -321h-183z" />
    <glyph glyph-name="Wdieresis" unicode="&#x1e84;" 
d="M637 1634l44 222h222l-44 -222h-222zM1081 1634l44 222h222l-44 -222h-222zM215 0l121 1308h-60l34 172h360l-34 -172h-70l-104 -958h7l319 921h222l-58 -921h6l281 958h-57l34 172h292l-34 -172h-60l-407 -1308h-242l30 951v0l-335 -951h-245z" />
    <glyph glyph-name="wdieresis" unicode="&#x1e85;" 
d="M220 0l48 913h-74l35 173h395l-35 -173h-82l-27 -510h4l212 473h247l14 -503h4l188 540h-79l35 173h329l-35 -173h-75l-318 -913h-246l-18 602h-4l-271 -602h-247zM561 1293l44 222h222l-44 -222h-222zM1005 1293l44 222h222l-44 -222h-222z" />
    <glyph glyph-name="Ygrave" unicode="&#x1ef2;" 
d="M239 0l34 173h247l95 477l-247 658h-93l34 172h543l-34 -172h-95l157 -423l305 423h-103l34 172h395l-34 -172h-86l-480 -658l-95 -477h246l-34 -173h-789zM928 1614l-257 321h295l145 -321h-183z" />
    <glyph glyph-name="ygrave" unicode="&#x1ef3;" 
d="M509 33l-214 880h-101l35 173h574l-35 -173h-138l127 -517l341 517h-138l35 173h438l-35 -173h-102l-754 -1135h201l-34 -173h-683l34 173h197zM832 1283l-257 321h295l145 -321h-183z" />
    <glyph glyph-name="endash" unicode="&#x2013;" 
d="M228 540l35 175h987l-35 -175h-987z" />
    <glyph glyph-name="emdash" unicode="&#x2014;" 
d="M107 540l35 175h1229l-35 -175h-1229z" />
    <glyph glyph-name="uni2015" unicode="&#x2015;" 
d="M107 540l40 200h1229l-40 -200h-1229z" />
    <glyph glyph-name="underscoredbl" unicode="&#x2017;" 
d="M-27 -138l27 138h1229l-28 -138h-1228zM-84 -432l28 138h1228l-28 -138h-1228z" />
    <glyph glyph-name="quoteleft" unicode="&#x2018;" 
d="M1043 1283l-69 -345h-345l53 266q46 229 137 315q91 85 268 85h20l-25 -123h-14q-78 0 -109 -52q-26 -39 -51 -146h135z" />
    <glyph glyph-name="quoteright" unicode="&#x2019;" 
d="M693 1259l69 345h345l-53 -266q-52 -260 -165 -338q-87 -63 -240 -63l-20 1l25 123h14q77 0 109 52q26 39 52 146h-136z" />
    <glyph glyph-name="quotesinglbase" unicode="&#x201a;" 
d="M442 0l68 345h345l-53 -266q-45 -229 -137 -315q-91 -85 -268 -85h-20l25 123h14q77 0 111 53q24 39 51 145h-136z" />
    <glyph glyph-name="quotereversed" unicode="&#x201b;" 
d="M897 1234q-16 -107 -6 -146q12 -52 89 -52h14l-25 -123l-20 -1q-153 0 -216 63q-81 78 -29 338l53 266h345l-69 -345h-136z" />
    <glyph glyph-name="quotedblleft" unicode="&#x201c;" 
d="M741 1283l-69 -345h-345l53 266q46 229 137 315q91 85 268 85h20l-25 -123h-14q-78 0 -109 -52q-26 -39 -51 -146h135zM1325 1283l-69 -345h-345l53 266q46 229 137 315q91 85 268 85h20l-25 -123h-14q-78 0 -109 -52q-26 -39 -51 -146h135z" />
    <glyph glyph-name="quotedblright" unicode="&#x201d;" 
d="M411 1259l69 345h345l-53 -266q-52 -260 -165 -338q-87 -63 -240 -63l-20 1l25 123h14q77 0 109 52q26 39 52 146h-136zM995 1259l69 345h345l-53 -266q-52 -260 -165 -338q-87 -63 -240 -63l-20 1l25 123h14q77 0 109 52q26 39 52 146h-136z" />
    <glyph glyph-name="quotedblbase" unicode="&#x201e;" 
d="M160 0l68 345h345l-53 -266q-52 -260 -164 -338q-88 -63 -241 -63l-20 1l25 123h14q77 0 109 52q26 39 53 146h-136zM744 0l68 345h345l-53 -266q-52 -260 -164 -338q-88 -63 -241 -63l-20 1l25 123h14q77 0 109 52q26 39 53 146h-136z" />
    <glyph glyph-name="dagger" unicode="&#x2020;" 
d="M406 -296l242 1086l-326 -25l50 247l316 -25l73 493h296l-122 -493l325 25l-50 -247l-315 25l-193 -1086h-296z" />
    <glyph glyph-name="daggerdbl" unicode="&#x2021;" 
d="M407 -296l124 493l-326 -24l49 246l316 -24l79 395l-326 -25l50 247l316 -25l73 493h296l-122 -493l325 25l-50 -247l-315 25l-79 -395l325 24l-49 -246l-315 24l-75 -493h-296z" />
    <glyph glyph-name="bullet" unicode="&#x2022;" 
d="M672 321q-159 0 -250.5 116.5t-59.5 277.5q33 164 171.5 279.5t301.5 115.5q165 0 257 -116t59 -281q-33 -164 -172.5 -278t-306.5 -114z" />
    <glyph glyph-name="ellipsis" unicode="&#x2026;" 
d="M81 0l49 247h247l-49 -247h-247zM491 0l49 247h246l-49 -247h-246zM900 0l49 247h247l-49 -247h-247z" />
    <glyph glyph-name="perthousand" unicode="&#x2030;" 
d="M533 1480q216 0 146 -353q-70 -350 -284 -350q-216 0 -145 357q69 346 283 346zM507 1345q-82 0 -124 -212q-44 -220 40 -220q80 0 123 216t-39 216zM55 -37l995 1554h124l-996 -1554h-123zM959 594q85 109 178 109q208 0 138 -352q-70 -351 -278 -351q-93 0 -135 109
q-83 -109 -176 -109q-208 0 -138 352q70 351 279 351q93 0 132 -109zM807 567q-83 0 -125 -210q-44 -221 40 -221q80 0 123 219q43 212 -38 212zM1103 567q-81 0 -123 -211q-44 -220 39 -220q80 0 123 219q43 212 -39 212z" />
    <glyph glyph-name="minute" unicode="&#x2032;" 
d="M592 987l315 592h272l-414 -592h-173z" />
    <glyph glyph-name="second" unicode="&#x2033;" 
d="M370 987l315 592h272l-414 -592h-173zM814 987l315 592h272l-414 -592h-173z" />
    <glyph glyph-name="guilsinglleft" unicode="&#x2039;" 
d="M1107 841l-356 -297l235 -294l-138 -137l-469 430l645 432z" />
    <glyph glyph-name="guilsinglright" unicode="&#x203a;" 
d="M338 247l355 297l-235 294l139 137l468 -430l-644 -432z" />
    <glyph glyph-name="exclamdbl" unicode="&#x203c;" 
d="M170 0l51 257h296l-51 -257h-296zM322 454l74 730l59 296h316l-59 -296l-220 -730h-170zM763 0l51 257h296l-51 -257h-296zM915 454l74 730l59 296h316l-59 -296l-220 -730h-170z" />
    <glyph glyph-name="uni203E" unicode="&#x203e;" 
d="M335 1680h1229l-40 -200h-1229z" />
    <glyph glyph-name="fraction" unicode="&#x2044;" 
d="M87 -37l1209 1554h142l-1209 -1554h-142z" />
    <glyph glyph-name="uni207F" unicode="&#x207f;" 
d="M392 728l154 771h222l-30 -149q104 166 300 166q251 0 199 -261l-105 -527h-222l96 480q23 116 -79 116q-110 0 -217 -116l-96 -480h-222z" />
    <glyph glyph-name="franc" unicode="&#x20a3;" 
d="M60 0l34 173h50l227 1134h-50l34 173h993l-34 -173h-681l-89 -443h478l-33 -167q28 24 40 37q161 149 343 149l-48 -239l-51 1q-193 0 -322 -135l-101 -510h-261l137 690h-217l-137 -690h-312z" />
    <glyph glyph-name="lira" unicode="&#x20a4;" 
d="M192 0l39 197q114 13 159.5 86.5t77.5 236.5l14 68h-161l24 120h161l41 205h-161l24 120h161l11 53q86 431 515 431q100 0 219 -27l-37 -185q-119 39 -191 39q-87 0 -133.5 -53t-76.5 -205l-11 -53h210l-24 -120h-210l-41 -205h210l-24 -120h-210q-37 -143 -90.5 -219.5
t-196.5 -171.5h585l-39 -197h-845z" />
    <glyph glyph-name="peseta" unicode="&#x20a7;" 
d="M455 173l-34 -173h-337l261 1307h-50l34 173h374q232 0 335 -81.5t71 -240.5q-33 -166 -205.5 -286t-377.5 -120h-45l-116 -579h90zM1157 0q-95 -25 -189 -25q-341 0 -277 325l35 172h-136l27 135h136l29 145h246l-29 -145h279l-27 -135h-279l-20 -99q-33 -163 -4 -216.5
t134 -53.5q39 0 98 13zM511 902h24q118 0 211 68.5t115 179.5q36 180 -212 180h-53z" />
    <glyph glyph-name="Euro" unicode="&#x20ac;" 
d="M123 493l92 149h71q9 70 15 100q8 42 30 122h-134l92 148h101q75 141 135 213q245 293 644 293q144 0 306 -41l-41 -204q-185 72 -296 72q-170 0 -305 -117q-93 -80 -153 -216h603l-91 -148h-564q-26 -94 -41 -167l-10 -55h479l-92 -149h-393q7 -153 80 -236
q95 -109 256 -109q120 0 319 85l-41 -204q-201 -66 -366 -66q-494 0 -538 530h-158z" />
    <glyph glyph-name="uni2105" unicode="&#x2105;" 
d="M47 0l1283 1480h128l-1283 -1480h-128zM701 889q-129 -56 -268 -56q-220 0 -179 206q36 181 190.5 323.5t315.5 142.5q71 0 145 -39l-53 -146q-76 55 -132 55q-61 0 -124 -87.5t-92 -214.5q-21 -103 53 -103q73 0 198 64zM742 -25q-230 0 -187 219q38 188 194 325.5
t332 137.5q232 0 188 -217q-38 -191 -193 -328t-334 -137zM836 103q52 0 104.5 83t81.5 215q27 128 -33 128q-52 0 -106.5 -88t-82.5 -218q-24 -120 36 -120z" />
    <glyph glyph-name="uni2113" unicode="&#x2113;" 
d="M768 767q183 118 322 307t152 307q17 85 -51 85q-88 0 -159.5 -107.5t-202.5 -433.5zM689 570q-118 -295 -131 -362q-13 -60 41 -60q90 0 207.5 121t218.5 300l136 -68q-315 -526 -662 -526q-265 0 -217 245q16 79 79 234l9 31q-128 -47 -262 -69l23 145l29 7
q187 43 276 77l91 230q296 741 753 741q249 0 203 -232q-37 -185 -253 -406.5t-541 -407.5z" />
    <glyph glyph-name="uni2116" unicode="&#x2116;" 
d="M837 698q78 388 331 388t174 -395t-331 -395q-254 0 -174 402zM1026 695q-57 -289 6 -289t120 285t-6 285t-120 -281zM717 0l29 150h456l-29 -150h-456zM640 0h-165l-76 923l-184 -923h-165l295 1480h165l76 -923l184 923h165z" />
    <glyph glyph-name="trademark" unicode="&#x2122;" 
d="M282 740l20 99h74l109 543h-74l-20 -99h-86l39 197h456l-39 -197h-86l20 99h-74l-109 -543h74l-20 -99h-284zM689 740l20 99h54l109 543h-54l19 98h242l2 -418l164 418h243l-19 -98h-56l-109 -543h56l-20 -99h-186l123 616l-219 -566h-93l-2 559l-122 -609h-152z" />
    <glyph glyph-name="Omega" unicode="&#x2126;" 
d="M557 148l-29 -148h-481l34 173h268q-96 139 -133.5 312t0.5 365q65 322 245.5 494.5t456.5 172.5t387.5 -172.5t46.5 -494.5q-38 -192 -144.5 -365t-258.5 -312h268l-34 -173h-485l29 148q125 160 203 318.5t123 383.5q45 224 6 359t-176 135q-117 0 -221.5 -135
t-149.5 -359q-45 -225 -25 -383.5t70 -318.5z" />
    <glyph glyph-name="estimated" unicode="&#x212e;" 
d="M999 155h89q-80 -75 -161 -112q-146 -68 -313 -68q-132 0 -251 43t-204 120q-144 131 -144 303t144 304q85 77 204 119.5t251 42.5t251.5 -42.5t204.5 -119.5q144 -132 144 -304v-13h-964q-15 0 -15 -13v-228q0 -32 24 -58q50 -53 153.5 -89.5t203.5 -36.5q224 0 383 152
zM250 454h729q16 0 16 13v229q0 31 -24 57q-52 53 -154.5 90t-202.5 37q-99 0 -202 -37t-153 -90q-24 -26 -24 -57v-229q0 -13 15 -13z" />
    <glyph glyph-name="oneeighth" unicode="&#x215b;" 
d="M332 740l113 562l-174 -44l32 161l396 98l-156 -777h-211zM69 -37l1049 1554h138l-1049 -1554h-138zM771 380l-22 15q-87 61 -68 156q19 99 112 156.5t233 57.5q283 0 245 -190q-23 -119 -179 -194q82 -54 104.5 -90t11.5 -93q-47 -235 -379 -235q-305 0 -263 208
q23 119 205 209zM977 458q62 33 74 93q17 89 -64 89q-80 0 -97 -87q-9 -46 58 -80zM857 309q-60 -47 -73 -110q-22 -112 86 -112q90 0 107 87q8 39 -20 63l-42 30z" />
    <glyph glyph-name="threeeighths" unicode="&#x215c;" 
d="M178 742l28 139q100 -31 159 -31q98 0 120 107q24 119 -162 119l21 110q200 0 223 112q18 89 -81 89q-74 0 -187 -40l27 139q127 31 234 31q119 0 179 -49t43 -134q-25 -126 -224 -203q187 -39 158 -184q-21 -105 -113 -166t-231 -61q-88 0 -194 22zM107 -37l1050 1554
h137l-1049 -1554h-138zM781 380l-21 15q-87 61 -68 156q19 99 112 156.5t233 57.5q283 0 245 -190q-23 -119 -179 -194q81 -54 103.5 -90t11.5 -93q-47 -235 -378 -235q-305 0 -263 208q23 119 204 209zM988 458q62 33 74 93q17 89 -64 89q-80 0 -97 -87q-9 -46 57 -80z
M868 309q-60 -47 -73 -110q-22 -111 85 -111q91 0 108 86q8 39 -20 63l-42 30z" />
    <glyph glyph-name="fiveeighths" unicode="&#x215d;" 
d="M87 -37l1084 1554h126l-1082 -1554h-128zM781 380l-22 15q-87 61 -68 156q19 99 112 156.5t233 57.5q283 0 245 -190q-23 -119 -179 -194q82 -54 104.5 -90t11.5 -93q-47 -235 -379 -235q-305 0 -263 208q23 119 205 209zM987 458q62 33 74 93q17 89 -64 89
q-80 0 -97 -87q-9 -46 58 -80zM867 309q-60 -47 -73 -110q-22 -111 86 -111q90 0 107 86q8 39 -20 63l-42 30zM181 756l28 140q57 -32 136 -32q121 0 144 113q25 127 -130 127q-45 0 -94 -9l85 422h429l-30 -150h-268l-27 -133q144 0 217 -64.5t52 -173.5
q-24 -120 -124.5 -191t-246.5 -71q-86 0 -171 22z" />
    <glyph glyph-name="seveneighths" unicode="&#x215e;" 
d="M30 -37l1083 1554h138l-1083 -1554h-138zM775 380l-21 15q-87 61 -68 156q19 99 112 156.5t233 57.5q283 0 245 -190q-23 -119 -179 -194q81 -54 104 -90t12 -93q-47 -235 -379 -235q-305 0 -263 208q23 119 204 209zM982 458q62 33 74 93q17 89 -64 89q-80 0 -97 -87
q-9 -46 58 -80zM862 309q-60 -47 -73 -110q-22 -111 85 -111q91 0 108 86q8 39 -20 63l-42 30zM210 716q46 98 151 241t204 242l107 104h-387l35 177h551l-39 -197q-270 -204 -379 -567h-243z" />
    <glyph glyph-name="arrowleft" unicode="&#x2190;" 
d="M1250 530h-754q65 -77 77 -203h-128q-70 209 -242 271l10 49q198 73 352 282h128q-62 -126 -158 -204l755 1z" />
    <glyph glyph-name="arrowup" unicode="&#x2191;" 
d="M940 1480q25 -184 212 -296l-25 -128q-119 37 -180 117l-294 -1469h-196l294 1469q-93 -80 -226 -117l25 128q231 112 330 296h60z" />
    <glyph glyph-name="arrowright" unicode="&#x2192;" 
d="M189 530l40 196l753 -1q-64 78 -76 204h128q70 -209 242 -272l-12 -59q-196 -62 -350 -271h-128q62 126 157 203h-754z" />
    <glyph glyph-name="arrowdown" unicode="&#x2193;" 
d="M1007 1480l-293 -1469q94 80 227 117l-25 -128q-233 -113 -332 -296h-59q-25 183 -211 296l25 128q119 -37 180 -117l293 1469h195z" />
    <glyph glyph-name="arrowboth" unicode="&#x2194;" 
d="M983 726q-65 77 -77 203h128q70 -209 242 -271l-12 -60q-196 -62 -350 -271h-128q62 126 157 203h-447q65 -77 77 -203h-128q-70 209 -242 271l12 60q196 62 350 271h128q-62 -126 -157 -203h447z" />
    <glyph glyph-name="arrowupdn" unicode="&#x2195;" 
d="M940 1480q25 -184 212 -296l-25 -128q-119 37 -180 117l-225 -1125q93 80 226 117l-25 -128q-231 -111 -330 -296h-60q-25 185 -212 296l25 128q119 -37 180 -117l225 1125q-93 -80 -226 -117l25 128q231 112 330 296h60z" />
    <glyph glyph-name="arrowupdnbse" unicode="&#x21a8;" 
d="M869 -234l-37 -185h-602l37 185h602zM965 1604q25 -185 212 -296l-26 -128q-118 37 -179 117l-225 -1126q93 80 226 117l-26 -128q-231 -111 -330 -296h-60q-25 185 -212 296l26 128q119 -37 180 -117l225 1126q-93 -80 -227 -117l26 128q231 111 330 296h60z" />
    <glyph glyph-name="partialdiff" unicode="&#x2202;" 
d="M420 1275q124 176 241 252.5t263 76.5q219 0 312.5 -180.5t32.5 -485.5q-39 -193 -139 -394.5t-225 -336.5q-213 -232 -463 -232q-145 0 -211 93t-35 252q54 269 275 498t426 229q98 0 205 -77l7 33q35 175 -56.5 295.5t-262.5 120.5q-162 0 -370 -144zM1058 802
q-64 72 -141 72q-122 0 -251 -174t-166 -359q-29 -143 93 -143q114 0 245 165t220 439z" />
    <glyph glyph-name="Delta" unicode="&#x2206;" 
d="M25 0l36 185l695 1295h307l177 -1295l-36 -185h-1179zM934 185l-138 1009h-8l-542 -1009h688z" />
    <glyph glyph-name="product" unicode="&#x220f;" 
d="M682 1307l-286 -1430h90l-35 -173h-473l34 173h99l286 1430h-99l34 173h1155l-34 -173h-99l-286 -1430h99l-35 -173h-474l35 173h90l286 1430h-387z" />
    <glyph glyph-name="summation" unicode="&#x2211;" 
d="M271 -111h680l40 198h185l-77 -383h-1108l36 185l677 707l-368 711l34 173h1054l-72 -360h-185l38 187h-502l326 -633z" />
    <glyph glyph-name="minus" unicode="&#x2212;" 
d="M202 518l40 198h1032l-40 -198h-1032z" />
    <glyph glyph-name="uni2215" unicode="&#x2215;" 
d="M87 -37l1209 1554h142l-1209 -1554h-142z" />
    <glyph glyph-name="uni2219" unicode="&#x2219;" 
d="M316 628q34 170 182.5 292t320.5 122q174 0 272 -122.5t63 -296.5q-35 -173 -182 -296.5t-320 -123.5q-177 0 -274.5 123.5t-61.5 301.5z" />
    <glyph glyph-name="radical" unicode="&#x221a;" 
d="M432 -296l-125 694l-179 -58l-21 150l405 137l105 -597l758 1599h179l-914 -1925h-208z" />
    <glyph glyph-name="infinity" unicode="&#x221e;" 
d="M671 331q-161 -219 -338 -219q-120 0 -167.5 111t-9.5 301t135.5 302t222.5 112q164 0 243 -197l11 -27q177 224 341 224q116 0 162.5 -115t8.5 -306q-37 -183 -134 -294t-219 -111q-160 0 -241 184zM638 529l-13 41q-97 178 -148 178q-84 0 -129 -227q-48 -238 45 -238
q42 0 187 162q37 43 58 84zM814 516l11 -33q89 -185 140 -185q82 0 129 235q46 229 -45 229q-55 0 -199 -189z" />
    <glyph glyph-name="orthogonal" unicode="&#x221f;" 
d="M110 0l217 1086h195l-179 -891h866l-38 -195h-1061z" />
    <glyph glyph-name="intersection" unicode="&#x2229;" 
d="M1145 0h-195l185 927q30 149 -45.5 253.5t-219.5 104.5t-260 -104.5t-146 -253.5l-185 -927h-195l185 927q47 236 233.5 394.5t406.5 158.5q221 0 344.5 -158.5t76.5 -394.5z" />
    <glyph glyph-name="integral" unicode="&#x222b;" 
d="M1119 1754q-111 -46 -138 -178q-9 -48 -16 -120q-19 -210 -80 -588l-28 -159q-97 -555 -246 -780t-339 -225q-84 0 -130.5 51t-31.5 126q12 60 55 102t93 42q112 0 92 -105q-5 -23 -26 -52q60 19 90 59.5t46 121.5q10 48 17 126q32 310 85 587l31 158q131 653 266 824
q143 181 315 181q84 0 131 -53t32 -130q-31 -151 -154 -151q-108 0 -87 103q4 20 23 60z" />
    <glyph glyph-name="approxequal" unicode="&#x2248;" 
d="M1238 546q-42 -170 -130.5 -263.5t-206.5 -93.5q-89 0 -239 86l-98 58q-54 31 -109 31q-105 0 -151 -163h-165q31 158 123.5 260.5t204.5 102.5q106 0 246 -85l78 -47q68 -43 127 -43q120 0 152 157h168zM1335 1035q-42 -171 -130 -264.5t-206 -93.5q-89 0 -239 87
l-98 57q-55 31 -109 31q-105 0 -152 -163h-165q32 159 124.5 261t204.5 102q106 0 246 -85l77 -47q70 -42 128 -42q120 0 151 157h168z" />
    <glyph glyph-name="notequal" unicode="&#x2260;" 
d="M1007 1152h190l-135 -187h260l-40 -200h-363l-159 -223h478l-40 -200h-581l-134 -187h-190l134 187h-260l40 200h363l159 223h-478l40 200h581z" />
    <glyph glyph-name="equivalence" unicode="&#x2261;" 
d="M122 185l37 185h1057l-37 -185h-1057zM191 530l38 186h1057l-38 -186h-1057zM261 876l37 185h1057l-37 -185h-1057z" />
    <glyph glyph-name="lessequal" unicode="&#x2264;" 
d="M1398 1342l-46 -227l-642 -288l526 -296l-44 -220l-928 516zM1168 195l-38 -195h-1031l38 195h1031z" />
    <glyph glyph-name="greaterequal" unicode="&#x2265;" 
d="M1168 195l-38 -195h-1031l38 195h1031zM1295 827l-1134 -516l44 220l644 296l-528 288l46 227z" />
    <glyph glyph-name="house" unicode="&#x2302;" 
d="M1096 0h-962l140 703l577 481l385 -481zM947 185l89 441l-237 296l-355 -296l-89 -441h592z" />
    <glyph glyph-name="revlogicalnot" unicode="&#x2310;" 
d="M254 715h1031l-40 -200h-858l-78 -392h-173z" />
    <glyph glyph-name="integraltp" unicode="&#x2320;" 
d="M485 -432v1203q0 421 59 583q96 262 318 262q94 0 150 -49.5t56 -132.5q0 -64 -39 -104.5t-99 -40.5q-127 0 -127 144q0 12 7 33l7 20q-21 6 -32 6q-86 0 -86 -141q0 -47 14 -162q31 -248 31 -418v-1203h-259z" />
    <glyph glyph-name="integralbt" unicode="&#x2321;" 
d="M744 1935v-1522q0 -421 -59 -583q-95 -262 -317 -262q-94 0 -150 49.5t-56 133.5q0 63 39 104t99 41q127 0 127 -145q0 -11 -7 -32l-7 -21q21 -6 32 -6q86 0 86 141q0 48 -15 163q-31 247 -31 417v1522h259z" />
    <glyph glyph-name="SF100000" unicode="&#x2500;" 
d="M0 678v148h1229v-148h-1229z" />
    <glyph glyph-name="SF110000" unicode="&#x2502;" 
d="M541 1935h148v-2367h-148v2367z" />
    <glyph glyph-name="SF010000" unicode="&#x250c;" 
d="M541 826h688v-148h-540v-1110h-148v1258z" />
    <glyph glyph-name="SF030000" unicode="&#x2510;" 
d="M0 678v148h689v-1258h-148v1110h-541z" />
    <glyph glyph-name="SF020000" unicode="&#x2514;" 
d="M541 1935h148v-1109h540v-148h-688v1257z" />
    <glyph glyph-name="SF040000" unicode="&#x2518;" 
d="M0 678v148h541v1109h148v-1257h-689z" />
    <glyph glyph-name="SF080000" unicode="&#x251c;" 
d="M541 1935h148v-1109h540v-148h-540v-1110h-148v2367z" />
    <glyph glyph-name="SF090000" unicode="&#x2524;" 
d="M0 678v148h541v1109h148v-2367h-148v1110h-541z" />
    <glyph glyph-name="SF060000" unicode="&#x252c;" 
d="M1229 826v-148h-541v-1110h-148v1110h-540v148h1229z" />
    <glyph glyph-name="SF070000" unicode="&#x2534;" 
d="M0 678v148h541v1109h148v-1109h540v-148h-1229z" />
    <glyph glyph-name="SF050000" unicode="&#x253c;" 
d="M0 678v148h541v1109h148v-1109h540v-148h-540v-1110h-148v1110h-541z" />
    <glyph glyph-name="SF430000" unicode="&#x2550;" 
d="M0 826v148h1229v-148h-1229zM0 530v148h1229v-148h-1229z" />
    <glyph glyph-name="SF240000" unicode="&#x2551;" 
d="M393 -432v2367h148v-2367h-148zM689 -432v2367h148v-2367h-148z" />
    <glyph glyph-name="SF510000" unicode="&#x2552;" 
d="M541 -432v1406h688v-148h-540v-148h540v-148h-540v-962h-148z" />
    <glyph glyph-name="SF520000" unicode="&#x2553;" 
d="M393 -432v1258h836v-148h-392v-1110h-148v1110h-148v-1110h-148z" />
    <glyph glyph-name="SF390000" unicode="&#x2554;" 
d="M1229 974v-148h-688v-1258h-148v1406h836zM1229 530h-392v-962h-148v1110h540v-148z" />
    <glyph glyph-name="SF220000" unicode="&#x2555;" 
d="M0 826v148h689v-1406h-148v962h-541v148h541v148h-541z" />
    <glyph glyph-name="SF210000" unicode="&#x2556;" 
d="M393 -432v1110h-393v148h837v-1258h-148v1110h-148v-1110h-148z" />
    <glyph glyph-name="SF250000" unicode="&#x2557;" 
d="M0 530v148h541v-1110h-148v962h-393zM0 826v148h837v-1406h-148v1258h-689z" />
    <glyph glyph-name="SF500000" unicode="&#x2558;" 
d="M541 1935h148v-961h540v-148h-540v-148h540v-148h-688v1405z" />
    <glyph glyph-name="SF490000" unicode="&#x2559;" 
d="M393 1935h148v-1109h148v1109h148v-1109h392v-148h-836v1257z" />
    <glyph glyph-name="SF380000" unicode="&#x255a;" 
d="M1229 826h-540v1109h148v-961h392v-148zM1229 530h-836v1405h148v-1257h688v-148z" />
    <glyph glyph-name="SF280000" unicode="&#x255b;" 
d="M0 826v148h541v961h148v-1405h-689v148h541v148h-541z" />
    <glyph glyph-name="SF270000" unicode="&#x255c;" 
d="M393 1935h148v-1109h148v1109h148v-1257h-837v148h393v1109z" />
    <glyph glyph-name="SF260000" unicode="&#x255d;" 
d="M0 826v148h393v961h148v-1109h-541zM0 530v148h689v1257h148v-1405h-837z" />
    <glyph glyph-name="SF360000" unicode="&#x255e;" 
d="M541 1935h148v-961h540v-148h-540v-148h540v-148h-540v-962h-148v2367z" />
    <glyph glyph-name="SF370000" unicode="&#x255f;" 
d="M393 -432v2367h148v-2367h-148zM689 -432v2367h148v-1109h392v-148h-392v-1110h-148z" />
    <glyph glyph-name="SF420000" unicode="&#x2560;" 
d="M393 1935h148v-2367h-148v2367zM1229 826h-540v1109h148v-961h392v-148zM1229 530h-392v-962h-148v1110h540v-148z" />
    <glyph glyph-name="SF190000" unicode="&#x2561;" 
d="M0 826v148h541v961h148v-2367h-148v962h-541v148h541v148h-541z" />
    <glyph glyph-name="SF200000" unicode="&#x2562;" 
d="M393 -432v1110h-393v148h393v1109h148v-2367h-148zM689 -432v2367h148v-2367h-148z" />
    <glyph glyph-name="SF230000" unicode="&#x2563;" 
d="M0 530v148h541v-1110h-148v962h-393zM0 826v148h393v961h148v-1109h-541zM689 1935h148v-2367h-148v2367z" />
    <glyph glyph-name="SF470000" unicode="&#x2564;" 
d="M0 826v148h1229v-148h-1229zM0 530v148h1229v-148h-540v-962h-148v962h-541z" />
    <glyph glyph-name="SF480000" unicode="&#x2565;" 
d="M0 678v148h1229v-148h-392v-1110h-148v1110h-148v-1110h-148v1110h-393z" />
    <glyph glyph-name="SF410000" unicode="&#x2566;" 
d="M0 826v148h1229v-148h-1229zM0 530v148h541v-1110h-148v962h-393zM1229 530h-392v-962h-148v1110h540v-148z" />
    <glyph glyph-name="SF450000" unicode="&#x2567;" 
d="M0 826v148h541v961h148v-961h540v-148h-1229zM0 530v148h1229v-148h-1229z" />
    <glyph glyph-name="SF460000" unicode="&#x2568;" 
d="M0 678v148h393v1109h148v-1109h148v1109h148v-1109h392v-148h-1229z" />
    <glyph glyph-name="SF400000" unicode="&#x2569;" 
d="M0 826v148h393v961h148v-1109h-541zM1229 826h-540v1109h148v-961h392v-148zM0 530v148h1229v-148h-1229z" />
    <glyph glyph-name="SF540000" unicode="&#x256a;" 
d="M0 826v148h541v961h148v-961h540v-148h-540v-148h540v-148h-540v-962h-148v962h-541v148h541v148h-541z" />
    <glyph glyph-name="SF530000" unicode="&#x256b;" 
d="M393 -432v1110h-393v148h393v1109h148v-1109h148v1109h148v-1109h392v-148h-392v-1110h-148v1110h-148v-1110h-148z" />
    <glyph glyph-name="SF440000" unicode="&#x256c;" 
d="M0 530v148h541v-1110h-148v962h-393zM0 826v148h393v961h148v-1109h-541zM1229 826h-540v1109h148v-961h392v-148zM1229 530h-392v-962h-148v1110h540v-148z" />
    <glyph glyph-name="upblock" unicode="&#x2580;" 
d="M0 752v1183h1229v-1183h-1229z" />
    <glyph glyph-name="dnblock" unicode="&#x2584;" 
d="M0 752h1229v-1184h-1229v1184z" />
    <glyph glyph-name="block" unicode="&#x2588;" 
d="M0 1935h1229v-2367h-1229v2367z" />
    <glyph glyph-name="lfblock" unicode="&#x258c;" 
d="M0 1935h615v-2367h-615v2367z" />
    <glyph glyph-name="rtblock" unicode="&#x2590;" 
d="M614 1935h615v-2367h-615v2367z" />
    <glyph glyph-name="ltshade" unicode="&#x2591;" 
d="M0 1542v197h206v-197h-206zM205 1147v197h206v-197h-206zM0 753v197h206v-197h-206zM205 357v197h206v-197h-206zM0 -37v197h206v-197h-206zM409 1542v197h206v-197h-206zM614 1147v197h206v-197h-206zM409 753v197h206v-197h-206zM614 357v197h206v-197h-206zM409 -37
v197h206v-197h-206zM818 1542v197h206v-197h-206zM1023 1147v197h206v-197h-206zM818 753v197h206v-197h-206zM1023 357v197h206v-197h-206zM818 -37v197h206v-197h-206zM206 -432v196h205v-196h-205zM614 -432v196h206v-196h-206zM1023 -432v196h206v-196h-206z" />
    <glyph glyph-name="shade" unicode="&#x2592;" 
d="M0 1345v195h204v-195h-204zM0 950v196h204v-196h-204zM0 555v195h204v-195h-204zM0 160v195h204v-195h-204zM0 -236v196h204v-196h-204zM206 1543v195h204v-195h-204zM206 1148v195h204v-195h-204zM206 752v196h204v-196h-204zM206 357v196h204v-196h-204zM206 -38v196
h204v-196h-204zM412 1345v195h204v-195h-204zM412 950v196h204v-196h-204zM412 555v195h204v-195h-204zM412 160v195h204v-195h-204zM412 -236v196h204v-196h-204zM618 1543v195h204v-195h-204zM618 1148v195h204v-195h-204zM618 752v196h204v-196h-204zM618 357v196h204
v-196h-204zM618 -38v196h204v-196h-204zM824 1345v195h204v-195h-204zM824 950v196h204v-196h-204zM824 555v195h204v-195h-204zM824 160v195h204v-195h-204zM824 -236v196h204v-196h-204zM1030 1543v195h199v-195h-199zM1030 1148v195h199v-195h-199zM1030 752v196h199
v-196h-199zM1030 357v196h199v-196h-199zM1030 -38v196h199v-196h-199zM0 1739v196h204v-196h-204zM412 1739v196h204v-196h-204zM824 1739v196h204v-196h-204zM206 -432v195h204v-195h-204zM618 -432v195h204v-195h-204zM1030 -432v195h199v-195h-199z" />
    <glyph glyph-name="dkshade" unicode="&#x2593;" 
d="M206 1542v197h-206v-197h206zM411 1147v197h-206v-197h206zM206 753v197h-206v-197h206zM411 357v197h-206v-197h206zM206 -37v197h-206v-197h206zM615 1542v197h-206v-197h206zM820 1147v197h-206v-197h206zM615 753v197h-206v-197h206zM820 357v197h-206v-197h206z
M615 -37v197h-206v-197h206zM1024 1542v197h-206v-197h206zM1229 1147v197h-206v-197h206zM1024 753v197h-206v-197h206zM1229 357v197h-206v-197h206zM1024 -37v197h-206v-197h206zM411 -432v196h-205v-196h205zM820 -432v196h-206v-196h206zM1229 -432v196h-206v-196h206z
M0 1935h1229v-2367h-1229v2367z" />
    <glyph glyph-name="filledbox" unicode="&#x25a0;" 
d="M72 0v1086h1086v-1086h-1086z" />
    <glyph glyph-name="H22073" unicode="&#x25a1;" 
d="M72 0v1086h1086v-1086h-1086zM195 123h839v839h-839v-839z" />
    <glyph glyph-name="H18543" unicode="&#x25aa;" 
d="M245 222v740h740v-740h-740z" />
    <glyph glyph-name="H18551" unicode="&#x25ab;" 
d="M245 222v740h740v-740h-740zM368 345h494v494h-494v-494z" />
    <glyph glyph-name="filledrect" unicode="&#x25ac;" 
d="M72 592v395h1086v-395h-1086z" />
    <glyph glyph-name="triagup" unicode="&#x25b2;" 
d="M1176 0h-1123l561 1184z" />
    <glyph glyph-name="triagrt" unicode="&#x25ba;" 
d="M58 0v1184l1123 -592z" />
    <glyph glyph-name="triagdn" unicode="&#x25bc;" 
d="M53 1184h1123l-562 -1184z" />
    <glyph glyph-name="triaglf" unicode="&#x25c4;" 
d="M1171 1184v-1184l-1123 592z" />
    <glyph glyph-name="lozenge" unicode="&#x25ca;" 
d="M615 0l-592 592l592 592l592 -592zM615 260l332 332l-332 332l-332 -332z" />
    <glyph glyph-name="circle" unicode="&#x25cb;" 
d="M608 -12q-225 0 -386.5 163.5t-161.5 391.5q0 230 162.5 392.5t392.5 162.5t392.5 -162.5t162.5 -391.5q0 -233 -163 -394.5t-399 -161.5zM610 111q183 0 310 125.5t127 307.5q0 178 -126.5 304.5t-305.5 126.5t-305.5 -126.5t-126.5 -305.5q0 -178 126 -305t301 -127z
" />
    <glyph glyph-name="H18533" unicode="&#x25cf;" 
d="M608 -12q-225 0 -386.5 163.5t-161.5 391.5q0 230 162.5 392.5t392.5 162.5t392.5 -162.5t162.5 -391.5q0 -233 -163 -394.5t-399 -161.5z" />
    <glyph glyph-name="invbullet" unicode="&#x25d8;" 
d="M1229 -432h-1229v2367h1229v-2367zM608 308q188 0 319.5 128.5t131.5 312.5q0 186 -129.5 316.5t-314.5 130.5q-184 0 -314 -130t-130 -314q0 -181 129 -312.5t308 -131.5z" />
    <glyph glyph-name="invcircle" unicode="&#x25d9;" 
d="M0 1935h1229v-2367h-1229v2367zM608 197q236 0 399 161t163 395q0 229 -163 391.5t-392 162.5q-230 0 -392.5 -162.5t-162.5 -392.5q0 -228 161.5 -391.5t386.5 -163.5zM609 320q-174 0 -300 127.5t-126 304.5q0 179 126.5 305.5t305.5 126.5q178 0 305 -126.5
t127 -304.5q0 -182 -127 -307.5t-311 -125.5z" />
    <glyph glyph-name="openbullet" unicode="&#x25e6;" 
d="M608 222q-179 0 -308 131.5t-129 312.5q0 184 130 314t314 130q185 0 314.5 -130.5t129.5 -316.5q0 -184 -131.5 -312.5t-319.5 -128.5zM610 345q135 0 230.5 93t95.5 226q0 134 -93.5 228.5t-227.5 94.5q-133 0 -227 -94t-94 -227q0 -131 93.5 -226t222.5 -95z" />
    <glyph glyph-name="smileface" unicode="&#x263a;" 
d="M608 -12q-225 0 -386.5 163.5t-161.5 391.5q0 230 162.5 392.5t392.5 162.5t392.5 -162.5t162.5 -391.5q0 -233 -163 -394.5t-399 -161.5zM610 93q191 0 323 131t132 320q0 185 -132 316.5t-318 131.5t-317.5 -131.5t-131.5 -317.5q0 -185 130.5 -317.5t313.5 -132.5z
M272 512h79q52 -216 264 -216t264 216h80q-22 -152 -115 -241t-229 -89t-229 89.5t-114 240.5zM438 631q-87 0 -87 88t88 88t88 -88t-89 -88zM790 631q-87 0 -87 88t88 88t88 -88t-89 -88z" />
    <glyph glyph-name="invsmileface" unicode="&#x263b;" 
d="M608 -12q-225 0 -387 163.5t-162 391.5q0 230 162.5 392.5t392.5 162.5t393 -162.5t163 -391.5q0 -233 -163.5 -394.5t-398.5 -161.5zM271 512q21 -151 114.5 -240.5t228.5 -89.5q136 0 229 89t115 241h-79q-52 -216 -265 -216q-212 0 -264 216h-79zM437 631q89 0 89 88
t-88 88t-88 -88t87 -88zM790 631q89 0 89 88t-88 88q-89 0 -89 -88t88 -88z" />
    <glyph glyph-name="sun" unicode="&#x263c;" 
d="M612 432q105 0 177.5 72t72.5 175q0 102 -72.5 174.5t-174.5 72.5t-174.5 -72.5t-72.5 -174.5q0 -101 72 -174t172 -73zM541 123v168q-81 18 -148 61l-119 -118l-104 104l118 118q-44 70 -61 149h-168v148h168q16 76 61 148l-118 118l104 105l119 -119q67 43 148 62v167
h148v-167q81 -19 148 -62l118 119l105 -105l-118 -118q45 -72 61 -148h167v-148h-167q-17 -79 -61 -149l118 -118l-105 -104l-119 118q-66 -43 -147 -61v-168h-148z" />
    <glyph glyph-name="female" unicode="&#x2640;" 
d="M540 0v197h-246v148h246v156q-180 25 -299.5 164t-119.5 324q0 203 144.5 347t348.5 144q205 0 349.5 -144t144.5 -347q0 -185 -120 -324t-300 -164v-156h247v-148h-247v-197h-148zM610 642q146 0 248 102t102 248q0 140 -101.5 240t-244.5 100q-142 0 -243.5 -100
t-101.5 -241q0 -143 101 -246t240 -103z" />
    <glyph glyph-name="male" unicode="&#x2642;" 
d="M850 1321l-267 -90l-49 143l513 172l173 -517l-140 -47l-94 280l-187 -363q195 -155 207 -378q10 -205 -127.5 -357.5t-344.5 -163.5q-201 -11 -352 126.5t-162 341.5q-11 206 128 356.5t351 161.5q75 4 170 -20zM168 482q7 -147 113.5 -244.5t252.5 -89.5
q140 7 235.5 114t88.5 249q-8 144 -113.5 239.5t-251.5 87.5q-139 -7 -236 -112.5t-89 -243.5z" />
    <glyph glyph-name="spade" unicode="&#x2660;" 
d="M470 0l102 530q-134 -185 -276 -185q-105 0 -179.5 81t-74.5 195q0 137 142 299l58 64l63 69q139 153 277 378l32 49l31 -49q139 -225 279 -378l61 -69l58 -64q143 -162 143 -300q0 -114 -74.5 -194.5t-180.5 -80.5q-142 0 -277 185l102 -530h-286z" />
    <glyph glyph-name="club" unicode="&#x2663;" 
d="M470 0l97 592q-116 -185 -258 -185q-115 0 -193.5 82.5t-78.5 202.5q0 115 72 192.5t178 77.5q82 0 183 -55q-132 133 -132 281q0 123 80.5 207.5t196.5 84.5q117 0 196.5 -84.5t79.5 -207.5q0 -148 -132 -281q101 55 183 55q106 0 178 -77.5t72 -192.5
q0 -120 -78.5 -202.5t-193.5 -82.5q-142 0 -257 185l96 -592h-289z" />
    <glyph glyph-name="heart" unicode="&#x2665;" 
d="M615 0q-239 189 -408.5 494.5t-169.5 546.5q0 197 79.5 318t209.5 121q190 0 289 -234q99 234 288 234q130 0 210 -121t80 -318q0 -241 -170.5 -547t-407.5 -494z" />
    <glyph glyph-name="diamond" unicode="&#x2666;" 
d="M1192 740q-211 -213 -314.5 -345.5t-262.5 -394.5q-160 263 -262.5 394.5t-315.5 345.5q204 199 317 343.5t261 396.5q147 -251 260 -396t317 -344z" />
    <glyph glyph-name="musicalnote" unicode="&#x266a;" 
d="M542 1480h148v-26q0 -68 38.5 -128.5t143.5 -158.5l48 -45l74 -64q136 -120 136 -235q0 -113 -128 -279l-80 57q55 76 55 123q0 51 -107 153l-52 49q-6 5 -39 41l-50 55q-9 9 -39 46v-650q0 -455 -376 -455q-116 0 -184 53.5t-68 145.5q0 136 113 226.5t282 90.5
q47 0 85 -15v1016z" />
    <glyph glyph-name="musicalnotedbl" unicode="&#x266b;" 
d="M1014 1137l-457 -223v-765q0 -494 -306 -494q-100 0 -158 56t-58 153q0 130 87.5 215.5t221.5 85.5q25 0 69 -5v1012l746 345v-1047q0 -495 -305 -495q-102 0 -160 56t-58 153q0 130 88 215.5t221 85.5q26 0 69 -4v656z" />
    <glyph glyph-name="gopher" unicode="&#xf800;" 
d="M542 468q-3 -7 -12.5 -17.5t-21 -22t-23.5 -22.5t-20 -19q-7 -8 -14 -15.5t-13 -15.5t-9.5 -15.5t-3.5 -15.5q0 -3 0.5 -7t4 -8.5t9.5 -8t18 -3.5q9 0 22.5 6.5t29 16.5t31.5 23t29.5 25t23 22t11.5 15q-8 24 -24 41.5t-38 20.5zM652 674q27 0 56.5 10.5t53.5 31.5
q27 24 40 55.5t13 69.5q0 39 -14.5 71.5t-43.5 54.5q-26 20 -55.5 26t-52.5 6q-33 0 -61.5 -12.5t-52.5 -37.5q-25 -25 -37.5 -56.5t-12.5 -62.5q0 -9 1.5 -20.5t5 -24.5t9.5 -27.5t16 -28.5q20 -25 53 -40q34 -15 82 -15zM750 869q0 -19 -14.5 -32.5t-35.5 -13.5
q-25 0 -38.5 12.5t-13.5 30.5q0 20 13 34.5t39 14.5q8 0 16.5 -2t16 -7.5t12.5 -14.5t5 -22zM674 857q5 0 9.5 4.5t4.5 10.5q0 3 -2.5 8t-10.5 5q-6 0 -10.5 -3.5t-4.5 -9.5q0 -15 14 -15zM1118 952q0 -4 4.5 -7t9.5 -3q6 0 10.5 3.5t4.5 9.5q0 3 -2.5 6.5t-10.5 3.5
q-5 0 -10.5 -3t-5.5 -10zM1002 900v3v2q-3 12 -11.5 19t-26.5 7q-10 0 -21.5 -1.5t-21.5 -5.5t-17.5 -11.5t-7.5 -18.5q0 -10 3.5 -15.5t9 -9t13 -4.5t15.5 -1q9 0 20.5 1.5t21 5.5t16.5 11t7 18zM950 790q9 0 22.5 2t25 6.5t20.5 14.5t9 26q0 11 -3.5 22.5t-12.5 18.5
q-3 -5 -9 -10.5t-14.5 -11t-19.5 -9t-24 -3.5q-14 0 -29.5 5t-20.5 13q-7 -5 -13.5 -11.5t-12.5 -15t-10 -18t-4 -18.5q0 -14 10 -20.5t23 -6.5q8 0 16 2t15.5 5.5t15.5 6t16 2.5zM953 769q-23 -15 -57 -18q2 -13 2 -23q0 -8 -1 -14t-2.5 -10.5t-2 -8t-0.5 -7.5
q0 -6 2.5 -10t8.5 -4q13 0 22.5 2.5t16 10t9.5 20.5t3 35v12.5t-1 14.5zM1020 785q-14 -8 -22 -12t-20 -4h-5h-5q1 -8 1.5 -14t0.5 -10q0 -9 -1 -14.5t-2 -10.5t-2 -9.5t-1 -10.5q0 -4 2.5 -8t10.5 -4q13 0 22 5.5t13.5 17t6 29.5t1.5 45zM737 1110q62 0 113 -18t91 -51
q28 15 56.5 21t57.5 6q43 0 79 -19t52 -55q13 -5 23.5 -15.5t10.5 -23.5t-7.5 -24t-19.5 -18q-7 -54 -34.5 -87.5t-73.5 -57.5q6 -34 9.5 -70t3.5 -73v-21v-20q3 1 11.5 3.5t17.5 8t18 13.5t14 21q8 22 17.5 36.5t26.5 14.5q13 0 19.5 -9.5t6.5 -35.5q0 -19 -9.5 -42
t-26.5 -43t-43 -34.5t-59 -17.5q-6 -71 -21.5 -129t-36 -105.5t-44.5 -84.5t-49 -66q-10 -9 -19.5 -19t-19.5 -17q7 -12 13.5 -20.5t10.5 -14.5q5 -7 9.5 -13.5t8.5 -13.5q10 -14 16.5 -28.5t6.5 -28.5q0 -13 -6 -22t-14.5 -15t-19 -8.5t-19.5 -2.5q-17 0 -35 14t-34 32
q-16 19 -26 33t-17 26q-51 -21 -105.5 -31t-112.5 -10q-31 0 -56.5 3.5t-49.5 10.5q-17 -23 -27 -34l-10.5 -10.5t-12.5 -11.5q-14 -12 -31 -20t-36 -8q-20 0 -34.5 10t-14.5 33q-1 11 7 24.5t18 27t19.5 25t12.5 18.5q-41 35 -61.5 80.5t-23.5 94.5q-7 -2 -19.5 -2.5
t-28.5 -0.5q-17 0 -35 2t-32.5 7t-23.5 15t-9 26q0 20 15.5 31.5t38.5 11.5q15 0 27.5 -1t24.5 -2.5t24 -2.5t27 -1q4 20 9.5 41.5t10 43.5t8 43.5t3.5 43.5q0 31 -11 63t-23.5 67.5t-23.5 75t-11 84.5t16.5 93.5t52.5 93.5q-12 4 -26 6t-27.5 3.5t-26.5 4.5t-22.5 9t-16 16
t-6.5 26q0 19 7.5 31.5t20 21t28 12t31.5 3.5t33.5 -4.5t34.5 -12t33.5 -16.5t29.5 -20q47 30 107 49q-20 9 -33 21t-13 28t7.5 26t18.5 16t22 8t20 2q16 0 33 -3.5t35 -12.5t39.5 -22.5t46.5 -32.5q10 1 21 1h23zM1153 901q-10 0 -20 2.5t-18 7.5t-13 12.5t-5 18.5
q0 7 3 16t8.5 16t14.5 12.5t22 7.5q-13 20 -37 31t-59 11q-23 0 -42 -6.5t-36 -15.5q42 -41 67 -93t40 -120q13 7 25.5 16t23.5 20.5t20 26.5t13 37q-3 -1 -3.5 -0.5t-3.5 0.5z" />
    <glyph glyph-name="uniFB01" unicode="&#xfb01;" 
d="M37 0l34 173h105l143 715h-105l35 173h105l26 131q38 193 169 302q132 110 323 110q100 0 189 -36l-57 -285h-173l3 136q-13 10 -28 10q-95 0 -135 -201l-33 -167h667l-178 -888h105l-34 -173h-493l34 173h105l143 715h-384l-143 -715h105l-34 -173h-494zM1103 1283
l59 296h246l-59 -296h-246z" />
    <glyph glyph-name="uniFB02" unicode="&#xfb02;" 
d="M1229 0q-68 -10 -108 -10q-50 0 -115 20.5t-97 79.5t-32.5 151.5t25.5 220.5l177 885q-136 80 -215 80q-153 0 -196 -212l-30 -154h271l-35 -173h-271l-143 -715h105l-34 -173h-494l34 173h105l143 715h-105l35 173h105l23 119q85 424 486 424l272 -25h273l-219 -1096
q-13 -66 -20.5 -121t1 -94.5t34 -61.5t61.5 -22z" />
    <glyph glyph-name="uniFFFD" unicode="&#xfffd;" 
d="M156 784l779 820l450 -820l-778 -820zM755 178l36 177h-210l-36 -177h210zM804 495l10 51q13 65 41 113q27 47 101 113l27 26q124 116 143 211q24 117 -43 174q-64 56 -215 56q-89 0 -259 -46l-50 -249h133l42 143q51 31 90 31q42 0 73 -24q37 -33 23 -104
q-15 -73 -97 -168l-27 -28q-83 -87 -118 -145t-49 -126l-5 -28h180z" />
    <glyph glyph-name="zero.dot" 
d="M917 1517q250 0 348 -203t24 -574q-74 -372 -253 -574q-180 -203 -430 -203q-227 0 -328 166q-125 208 -45 611q74 370 254 573q180 204 430 204zM642 648l40 202h202l-40 -202h-202zM882 1345q-217 0 -338 -605q-120 -604 97 -604t337 604q121 605 -96 605z" />
    <glyph glyph-name="zero.empty" 
d="M917 1517q250 0 348 -203t24 -574q-74 -372 -253 -574q-180 -203 -430 -203q-227 0 -328 166q-125 208 -45 611q74 370 254 573q180 204 430 204zM882 1345q-208 0 -329 -605q-120 -604 93 -604q203 0 323 604q121 605 -87 605z" />
  </font>
</defs>
</svg>
