<?xml version="1.0" standalone="no"?>
<!DOCTYPE svg PUBLIC "-//W3C//DTD SVG 20010904//EN"
 "http://www.w3.org/TR/2001/REC-SVG-20010904/DTD/svg10.dtd">
<svg version="1.0" xmlns="http://www.w3.org/2000/svg"
 width="500.000000pt" height="500.000000pt" viewBox="0 0 500.000000 500.000000"
 preserveAspectRatio="xMidYMid meet">
<metadata>
Created by potrace 1.11, written by Peter Selinger 2001-2013
</metadata>
<g transform="translate(0.000000,500.000000) scale(0.100000,-0.100000)"
fill="#000000" stroke="none">
<path d="M2430 4610 c-24 -8 -23 -8 8 -9 17 -1 32 4 32 9 0 11 -5 11 -40 0z"/>
<path d="M2300 4600 c-9 -6 -10 -10 -3 -10 6 0 15 5 18 10 8 12 4 12 -15 0z"/>
<path d="M2205 4590 c-3 -5 1 -10 10 -10 9 0 13 5 10 10 -3 6 -8 10 -10 10 -2
0 -7 -4 -10 -10z"/>
<path d="M2730 4588 c0 -18 12 -33 33 -41 14 -5 17 -1 17 23 0 25 -4 30 -25
30 -14 0 -25 -6 -25 -12z"/>
<path d="M2384 4578 c-4 -6 -2 -14 4 -16 6 -2 8 -10 5 -18 -3 -9 1 -14 11 -14
22 0 31 27 16 45 -15 18 -26 19 -36 3z"/>
<path d="M2147 4548 c3 -18 10 -39 16 -45 15 -20 30 -15 24 7 -3 11 -1 18 4
14 5 -3 9 2 9 11 0 9 -9 19 -20 22 -11 3 -17 9 -14 14 3 5 -2 9 -10 9 -12 0
-14 -7 -9 -32z"/>
<path d="M2945 4560 c3 -5 11 -10 16 -10 6 0 7 5 4 10 -3 6 -11 10 -16 10 -6
0 -7 -4 -4 -10z"/>
<path d="M3007 4543 c-23 -22 8 -63 46 -63 19 0 29 40 15 57 -11 14 -50 18
-61 6z"/>
<path d="M2430 4492 c0 -26 11 -34 27 -21 20 17 16 39 -7 39 -13 0 -20 -7 -20
-18z"/>
<path d="M2657 4485 c-17 -24 -17 -25 1 -25 11 0 23 7 26 16 15 40 0 45 -27 9z"/>
<path d="M2855 4490 c-5 -9 11 -50 20 -50 2 0 15 4 30 10 22 9 24 12 13 30
-13 21 -52 27 -63 10z"/>
<path d="M2182 4458 c-18 -18 -15 -41 4 -34 9 4 13 2 8 -5 -4 -7 1 -10 12 -7
26 5 29 34 6 47 -13 7 -22 7 -30 -1z"/>
<path d="M3217 4438 c-8 -29 19 -79 38 -72 19 8 19 53 0 60 -8 4 -15 12 -15
20 0 22 -17 16 -23 -8z"/>
<path d="M1680 4415 c-16 -19 -5 -47 17 -43 23 4 31 58 10 58 -8 0 -20 -7 -27
-15z"/>
<path d="M1952 4384 c-7 -8 -10 -19 -7 -25 4 -6 12 -3 21 8 14 17 15 16 8 -6
-4 -17 -3 -22 7 -19 19 6 24 39 7 49 -17 11 -21 11 -36 -7z"/>
<path d="M3425 4390 c3 -5 8 -10 11 -10 2 0 4 5 4 10 0 6 -5 10 -11 10 -5 0
-7 -4 -4 -10z"/>
<path d="M3386 4361 c-4 -5 -2 -12 3 -15 5 -4 12 -2 15 3 4 5 2 12 -3 15 -5 4
-12 2 -15 -3z"/>
<path d="M2850 4348 c0 -8 9 -14 20 -14 24 0 21 20 -3 24 -9 2 -17 -3 -17 -10z"/>
<path d="M2327 4333 c-4 -3 -7 -12 -7 -20 0 -11 4 -11 20 -1 11 7 20 16 20 20
0 10 -24 10 -33 1z"/>
<path d="M2557 4333 c-14 -13 -7 -25 8 -13 12 10 16 8 23 -11 7 -17 11 -19 17
-9 12 19 -32 50 -48 33z"/>
<path d="M1726 4301 c-8 -12 21 -34 34 -26 17 11 11 35 -9 35 -11 0 -22 -4
-25 -9z"/>
<path d="M3177 4303 c-14 -13 -6 -22 21 -25 23 -2 28 -8 30 -36 3 -28 6 -31
18 -21 21 17 18 66 -5 79 -22 11 -54 13 -64 3z"/>
<path d="M3480 4294 c0 -9 7 -14 17 -12 25 5 28 28 4 28 -12 0 -21 -6 -21 -16z"/>
<path d="M1522 4289 c2 -6 8 -10 13 -10 5 0 11 4 13 10 2 6 -4 11 -13 11 -9 0
-15 -5 -13 -11z"/>
<path d="M3360 4285 c-17 -21 -5 -51 15 -35 8 6 23 9 35 5 17 -5 20 -12 16
-31 -7 -26 3 -31 22 -12 22 22 14 57 -18 73 -37 19 -54 19 -70 0z"/>
<path d="M3542 4248 c-7 -7 -12 -21 -12 -31 0 -16 3 -17 15 -7 8 7 21 10 29 7
22 -9 28 5 9 25 -19 21 -25 22 -41 6z"/>
<path d="M2735 4230 c-3 -5 3 -10 15 -10 12 0 18 5 15 10 -3 6 -10 10 -15 10
-5 0 -12 -4 -15 -10z"/>
<path d="M1300 4195 c0 -8 5 -15 10 -15 6 0 10 7 10 15 0 8 -4 15 -10 15 -5 0
-10 -7 -10 -15z"/>
<path d="M1277 4194 c-11 -11 -8 -42 4 -50 19 -11 28 10 15 34 -6 12 -15 19
-19 16z"/>
<path d="M2881 4182 c-6 -10 -8 -28 -5 -38 12 -47 84 -53 84 -8 0 13 -4 24
-10 24 -5 0 -7 -6 -4 -13 3 -9 -4 -13 -23 -12 -25 0 -28 3 -25 33 2 36 -3 41
-17 14z"/>
<path d="M3710 4172 c0 -32 16 -53 36 -45 19 7 18 59 -2 67 -28 11 -34 7 -34
-22z"/>
<path d="M1630 4180 c20 -13 33 -13 25 0 -3 6 -14 10 -23 10 -15 0 -15 -2 -2
-10z"/>
<path d="M1434 4145 c-9 -22 3 -45 22 -45 14 0 15 2 3 17 -12 15 -12 16 4 10
20 -7 23 3 5 21 -16 16 -27 15 -34 -3z"/>
<path d="M3805 4150 c3 -5 8 -10 11 -10 2 0 4 5 4 10 0 6 -5 10 -11 10 -5 0
-7 -4 -4 -10z"/>
<path d="M1747 4132 c-3 -4 3 -13 14 -20 10 -7 19 -8 19 -3 0 13 -28 33 -33
23z"/>
<path d="M2204 4125 c8 -8 17 -15 20 -15 3 0 3 7 0 15 -4 8 -13 15 -21 15 -12
0 -12 -2 1 -15z"/>
<path d="M3836 4127 c3 -10 9 -15 12 -12 3 3 0 11 -7 18 -10 9 -11 8 -5 -6z"/>
<path d="M2410 4120 c0 -5 7 -7 15 -4 10 4 15 0 15 -12 0 -14 3 -15 12 -6 10
10 10 15 -2 22 -20 13 -40 13 -40 0z"/>
<path d="M3145 4109 c-11 -16 -1 -19 13 -3 7 8 8 14 3 14 -5 0 -13 -5 -16 -11z"/>
<path d="M3310 4106 c0 -9 6 -15 13 -13 6 1 11 -4 10 -10 -2 -7 2 -13 8 -13 6
0 9 10 7 22 -3 26 -38 38 -38 14z"/>
<path d="M3550 4102 c0 -14 23 -41 31 -37 18 12 10 44 -11 42 -11 -1 -20 -3
-20 -5z"/>
<path d="M3855 4101 c-3 -6 0 -11 9 -11 8 0 17 -6 20 -12 3 -7 5 -4 3 6 -2 22
-22 32 -32 17z"/>
<path d="M1267 4073 c-14 -13 -6 -24 13 -18 15 5 20 2 20 -12 1 -17 1 -17 11
0 5 9 7 22 4 27 -7 11 -38 13 -48 3z"/>
<path d="M3910 4061 c0 -6 4 -13 10 -16 6 -3 7 1 4 9 -7 18 -14 21 -14 7z"/>
<path d="M1143 4045 c-3 -9 -3 -18 0 -21 9 -9 27 6 27 22 0 19 -19 18 -27 -1z"/>
<path d="M3958 4008 c14 -18 3 -31 -35 -42 -41 -13 -25 -86 18 -86 24 0 28 10
30 63 1 26 6 44 11 41 4 -3 8 -1 8 3 0 5 -10 14 -22 22 -20 13 -22 13 -10 -1z"/>
<path d="M1865 4000 c-3 -5 -1 -10 4 -10 6 0 11 5 11 10 0 6 -2 10 -4 10 -3 0
-8 -4 -11 -10z"/>
<path d="M2433 3968 c2 -20 -4 -23 -48 -29 -39 -4 -53 -2 -62 10 -6 9 -9 19
-7 23 3 5 -6 8 -20 8 -34 0 -39 -13 -15 -39 29 -31 12 -53 -51 -67 -45 -10
-57 -9 -81 5 -28 15 -40 50 -19 52 19 3 25 4 35 10 6 4 25 10 43 14 67 14 23
15 -52 1 -134 -26 -299 -93 -406 -166 -33 -22 -62 -40 -66 -40 -17 0 -94 -73
-87 -82 4 -8 0 -9 -11 -5 -13 5 -36 -11 -89 -62 -40 -39 -87 -89 -105 -113
-45 -59 -152 -224 -152 -235 0 -4 -14 -37 -31 -71 -17 -35 -28 -66 -25 -69 2
-3 18 24 35 60 34 72 51 85 77 56 17 -19 17 -21 -5 -57 -12 -20 -29 -52 -37
-69 -8 -20 -22 -34 -34 -34 -11 -1 -26 -2 -32 -3 -7 -1 -12 6 -10 14 2 10 -4
7 -17 -7 -31 -33 -28 -55 5 -43 78 30 109 -6 78 -92 -15 -40 -26 -55 -47 -62
-25 -9 -31 -7 -48 14 -14 19 -18 36 -14 70 4 32 3 39 -4 25 -19 -41 -51 -175
-50 -207 1 -18 3 -24 5 -13 13 60 27 105 34 105 10 0 23 -30 22 -50 -5 -87
-14 -112 -48 -132 -19 -11 -34 -26 -34 -34 0 -16 22 -9 62 18 26 18 29 18 53
2 21 -13 25 -23 20 -42 -3 -13 -9 -38 -12 -54 -3 -16 -17 -37 -30 -45 -24 -16
-26 -15 -54 15 -16 17 -29 38 -29 46 0 9 -4 16 -10 16 -10 0 -14 -51 -13 -205
1 -100 29 -275 45 -275 6 0 8 9 5 20 -9 36 23 22 39 -16 16 -39 15 -110 -1
-107 -5 0 -16 22 -24 47 -8 25 -18 46 -22 46 -14 0 54 -189 102 -283 56 -110
179 -286 233 -336 33 -31 34 -23 1 15 -51 59 -18 89 35 31 30 -33 39 -70 19
-83 -14 -8 43 -68 131 -138 66 -53 157 -116 166 -116 3 0 26 -12 52 -27 51
-31 175 -83 181 -77 9 8 -23 34 -43 34 -20 1 -56 21 -56 33 0 17 39 14 84 -7
28 -13 59 -26 69 -30 27 -9 20 -34 -10 -38 -23 -3 -14 -8 41 -26 80 -25 149
-31 82 -6 -52 19 -66 32 -66 62 0 24 1 24 53 18 63 -9 79 -23 82 -73 l3 -38
103 -11 c209 -21 472 6 644 66 200 71 350 142 430 204 118 92 296 294 350 398
39 75 65 128 65 136 0 4 15 37 34 72 118 227 157 634 90 940 -38 175 -73 281
-124 380 -97 186 -186 299 -357 449 -87 76 -90 77 -95 11 -3 -31 -7 -35 -39
-43 -31 -7 -43 -5 -73 15 -45 29 -49 69 -10 104 30 29 37 29 60 7 9 -10 24
-18 33 -19 23 -4 -35 42 -86 68 -24 12 -46 19 -49 15 -4 -3 5 -12 20 -18 34
-16 33 -22 -8 -37 -63 -23 -130 28 -112 85 5 15 -2 23 -29 36 -46 22 -72 23
-55 2 7 -8 19 -15 26 -15 8 0 14 -8 14 -19 0 -10 3 -32 6 -48 7 -38 -8 -45
-64 -30 -34 9 -44 17 -53 45 -15 45 -5 82 24 82 21 1 21 1 -3 14 -14 7 -38 16
-55 19 -27 6 -28 5 -7 -5 26 -13 27 -21 8 -37 -17 -14 -124 10 -137 31 -13 20
-11 28 9 29 40 1 -36 20 -105 26 -68 5 -73 4 -73 -14 0 -30 -40 -60 -87 -66
-56 -7 -82 11 -66 46 14 29 8 37 -24 37 -18 0 -22 -5 -20 -22z m293 2 c32 0
51 -44 33 -77 -10 -18 -21 -23 -55 -23 -53 0 -79 28 -60 63 22 42 28 48 43 43
8 -3 26 -6 39 -6z m-636 -59 c0 -12 -21 -27 -45 -33 -11 -3 -28 -9 -37 -13
-37 -15 -17 21 20 37 42 19 62 22 62 9z m359 -6 c15 -9 14 -50 -1 -62 -7 -6
-32 -13 -55 -16 -32 -4 -45 -1 -58 13 -21 23 -16 51 11 65 23 11 85 11 103 0z
m155 -36 c14 -11 26 -29 26 -39 0 -19 -39 -52 -56 -49 -19 3 -34 -1 -34 -10 0
-6 14 -11 31 -13 18 -2 37 -11 43 -21 16 -25 -12 -70 -49 -78 l-30 -7 31 -1
c19 -1 40 -11 54 -26 l24 -25 -21 -22 c-15 -15 -38 -23 -76 -26 -67 -5 -78 11
-45 69 20 36 20 40 5 57 -21 23 -21 41 -1 71 15 21 15 25 -5 52 -26 34 -21 66
12 79 36 14 63 11 91 -11z m304 -1 c42 -13 43 -46 2 -76 -49 -37 -108 -24
-130 28 -12 30 -12 34 11 50 24 19 50 19 117 -2z m-794 -8 c42 -16 31 -39 -31
-66 -61 -27 -103 -26 -103 4 0 27 12 38 60 54 25 9 46 16 47 17 1 0 13 -3 27
-9z m-162 -30 c-5 -32 -29 -58 -70 -75 -40 -17 -62 -10 -62 20 0 36 65 85 110
82 21 -2 24 -6 22 -27z m358 5 c22 -23 22 -25 6 -50 -9 -14 -21 -25 -26 -25
-6 0 -10 -4 -10 -10 0 -5 5 -10 12 -10 18 0 48 -31 48 -50 0 -26 -31 -57 -62
-64 -21 -5 -35 0 -58 21 -38 34 -33 57 17 78 35 15 37 41 2 30 -10 -4 -32 2
-49 12 -46 27 -37 54 25 75 66 22 68 22 95 -7z m445 -27 c21 -51 5 -70 -57
-66 -66 4 -80 23 -48 66 19 25 31 32 57 32 29 0 36 -5 48 -32z m-280 -18 c16
-18 17 -23 4 -46 -27 -51 -98 -57 -133 -11 -26 35 -13 59 35 68 60 11 76 9 94
-11z m-687 -26 c2 -13 -8 -25 -30 -38 -18 -11 -44 -30 -57 -43 -23 -22 -60
-30 -74 -16 -8 7 31 53 46 53 5 0 27 16 50 35 44 38 60 40 65 9z m388 -29 c1
0 -1 -17 -5 -38 -5 -34 -11 -41 -46 -53 -36 -12 -42 -12 -65 5 -37 27 -39 73
-3 99 41 29 65 31 93 8 14 -12 26 -21 26 -21z m874 10 c6 -3 10 -18 10 -33 0
-36 -44 -64 -79 -51 -39 15 -37 1 1 -16 45 -18 59 -59 29 -88 -17 -18 -23 -19
-49 -8 -68 28 -95 88 -51 111 17 9 20 20 18 56 -2 29 2 48 10 53 12 8 87 -9
111 -24z m128 -9 c36 -23 41 -60 11 -79 -19 -12 -62 -3 -83 19 -16 15 -22 75
-9 87 9 10 42 -1 81 -27z m-1195 10 c14 -11 17 -22 12 -48 -5 -28 -15 -39 -49
-55 -50 -25 -76 -16 -76 26 0 34 16 55 55 76 36 18 35 18 58 1z m914 -18 c22
-18 11 -49 -24 -68 -31 -16 -31 -17 -12 -33 26 -23 24 -42 -7 -66 -21 -17 -29
-18 -50 -9 -28 13 -59 63 -49 78 3 6 22 10 41 10 21 0 33 4 29 10 -3 6 -15 10
-26 10 -30 0 -45 42 -25 72 15 23 20 25 63 17 25 -5 52 -14 60 -21z m-1069
-10 c25 -25 14 -75 -25 -112 -55 -52 -103 -45 -103 15 0 20 13 38 46 68 50 44
63 48 82 29z m897 -14 c10 -10 15 -29 13 -48 -3 -27 -7 -31 -36 -34 -22 -2
-41 3 -53 14 -23 21 -23 28 -3 59 19 29 55 33 79 9z m-259 -22 c6 -4 14 -17
18 -29 8 -25 -22 -62 -51 -64 -12 -1 -9 -4 7 -8 27 -7 55 -54 46 -77 -12 -30
-116 -8 -116 25 0 9 7 27 16 39 8 12 10 22 5 22 -6 0 -18 11 -26 24 -21 32 -6
63 32 69 48 7 58 7 69 -1z m1069 -94 c0 -4 -4 -8 -10 -9 -5 -1 -18 -5 -28 -11
-14 -7 -25 -2 -50 22 -27 25 -32 36 -29 65 l4 34 57 -46 c31 -26 56 -50 56
-55z m-430 58 c42 -18 58 -46 46 -79 -18 -47 -85 -43 -96 6 -9 43 -9 62 -2 75
10 15 10 15 52 -2z m-1062 -16 c31 -15 33 -32 12 -74 -9 -16 -14 -29 -13 -30
2 -1 17 -9 33 -18 26 -15 30 -22 27 -55 -2 -21 -13 -48 -24 -60 l-21 -22 -33
25 c-29 22 -32 30 -27 57 3 18 12 39 19 48 21 24 17 28 -15 16 -23 -9 -34 -7
-55 6 -26 17 -35 58 -18 83 7 12 72 43 82 40 3 -1 17 -8 33 -16z m-374 1 c42
-3 -60 -130 -106 -131 -25 0 -33 10 -43 55 -6 25 -4 32 5 29 7 -3 28 8 47 24
22 20 41 29 58 27 14 -1 31 -3 39 -4z m552 -20 c37 -46 22 -76 -50 -101 -49
-16 -51 -16 -71 2 -23 22 -23 22 -10 68 16 58 95 76 131 31z m1055 3 c47 -36
45 -64 -6 -86 -40 -16 -41 -16 -70 9 -34 28 -40 68 -12 89 26 20 50 17 88 -12z
m-924 -28 c8 -40 -8 -66 -41 -66 -16 0 -36 -3 -45 -6 -12 -5 -16 0 -16 22 0
36 8 47 45 66 35 19 51 14 57 -16z m-464 -19 c3 -32 -2 -43 -29 -68 -22 -21
-40 -29 -58 -27 -23 3 -26 7 -27 45 0 38 4 45 35 68 50 36 75 30 79 -18z m850
20 c32 -25 -6 -75 -48 -62 -10 3 -21 2 -24 -3 -3 -5 8 -12 24 -16 44 -8 38
-28 -7 -24 -25 2 -38 8 -39 18 0 8 -5 23 -9 34 -21 49 56 90 103 53z m693 -17
c47 -47 49 -65 8 -74 -44 -9 -97 35 -98 82 -1 28 2 32 25 32 17 0 39 -14 65
-40z m-1680 -52 c7 -27 -3 -49 -35 -82 -42 -41 -96 -13 -96 50 0 8 16 30 36
48 34 31 38 33 63 20 14 -8 29 -24 32 -36z m1183 22 c81 -34 49 -97 -34 -64
-42 17 -54 46 -28 72 15 15 8 16 62 -8z m671 -25 c33 -45 28 -90 -11 -98 -20
-4 -34 4 -65 37 -45 46 -48 76 -9 87 46 13 57 9 85 -26z m-2105 -1 c0 -13 -31
-72 -49 -92 -14 -16 -29 -22 -48 -20 -46 5 -42 39 11 93 39 39 49 44 66 35 11
-6 20 -13 20 -16z m1098 20 c36 -10 20 -28 -32 -38 -36 -6 -50 -5 -56 4 -21
34 24 51 88 34z m209 0 c26 -7 37 -44 19 -63 -16 -15 -80 -8 -92 10 -7 13 23
59 39 59 6 0 22 -3 34 -6z m289 -14 c1 0 4 -9 7 -20 3 -11 -1 -27 -10 -35 -30
-31 -93 -10 -93 30 0 32 25 45 64 34 17 -5 31 -9 32 -9z m103 -10 c35 -17 51
-37 51 -60 0 -12 -60 -31 -74 -23 -24 13 -56 47 -56 59 0 12 26 44 36 44 3 0
22 -9 43 -20z m167 -26 c36 -39 38 -43 28 -68 -14 -36 -97 -6 -124 44 -7 14
-6 23 6 34 9 9 19 14 24 11 5 -3 11 -1 15 5 9 15 13 13 51 -26z m-1393 -31
c-4 -49 -86 -99 -118 -73 -23 19 -19 73 8 97 31 28 47 32 82 17 24 -10 30 -18
28 -41z m394 42 c4 -12 -84 -38 -98 -30 -18 12 -8 23 29 33 44 12 64 11 69 -3z
m-117 -8 c0 -25 -26 -47 -77 -66 l-53 -19 0 33 c0 39 5 43 62 54 62 13 68 12
68 -2z m250 -18 c0 -5 -8 -9 -17 -7 -10 1 -25 -2 -33 -7 -13 -8 -13 -7 -1 8
15 19 51 23 51 6z m130 1 c0 -5 -5 -10 -11 -10 -5 0 -7 5 -4 10 3 6 8 10 11
10 2 0 4 -4 4 -10z m-1032 -40 c4 -48 -46 -110 -89 -110 -19 0 -29 -5 -29 -15
0 -9 9 -15 25 -15 17 0 29 -8 36 -24 23 -51 -51 -121 -106 -100 -29 12 -29 50
1 80 20 19 25 29 15 32 -7 2 -25 -10 -38 -27 -25 -32 -74 -43 -88 -20 -7 11
34 79 48 79 4 0 12 11 17 25 13 33 29 32 41 -5 16 -44 29 -37 23 13 -4 38 -1
46 33 84 32 36 43 42 73 40 32 -2 35 -5 38 -37z m1320 12 c35 -23 11 -35 -34
-16 -47 20 -48 20 -39 34 8 12 38 5 73 -18z m592 -4 c17 -19 30 -44 30 -59 0
-23 -5 -27 -32 -31 -43 -7 -88 33 -88 78 0 17 3 34 7 37 16 17 55 5 83 -25z
m-1689 -10 c10 -16 -3 -62 -24 -85 -56 -62 -118 15 -66 81 18 23 26 26 53 20
17 -3 34 -11 37 -16z m1207 6 c25 -17 30 -62 7 -70 -20 -8 -72 14 -80 33 -17
46 28 69 73 37z m642 8 c0 -5 9 -17 19 -29 11 -11 28 -39 39 -62 l20 -41 -22
0 c-27 0 -90 97 -80 123 6 17 24 24 24 9z m-516 -23 c34 -27 33 -72 -2 -77
-44 -6 -102 64 -75 91 13 14 51 7 77 -14z m142 -24 c36 -36 29 -69 -14 -73
-58 -6 -100 61 -54 87 27 16 41 13 68 -14z m-1930 -19 c7 -19 -52 -106 -71
-106 -17 0 -20 26 -5 35 6 4 19 24 30 46 21 41 37 49 46 25z m309 4 c7 0 15
-15 17 -35 3 -29 -1 -40 -27 -64 -40 -38 -81 -48 -95 -22 -5 11 -10 28 -10 38
0 25 69 95 87 88 8 -3 21 -5 28 -5z m340 -4 c18 -13 17 -14 -11 -29 -17 -9
-36 -23 -43 -31 -21 -26 -41 -19 -41 13 0 48 56 76 95 47z m1640 -58 c19 -33
10 -56 -23 -65 -61 -15 -102 108 -42 129 16 6 41 -19 65 -64z m-235 36 c25
-21 30 -33 28 -58 -3 -27 -6 -31 -32 -29 -41 3 -76 39 -76 80 0 28 3 33 24 33
14 0 39 -12 56 -26z m-319 -15 c26 -18 40 -49 22 -49 -15 0 -73 52 -68 61 9
13 13 12 46 -12z m-1213 2 c8 -4 14 -23 15 -41 4 -70 -93 -96 -107 -28 -10 53
48 97 92 69z m202 -1 c0 -5 -4 -10 -10 -10 -5 0 -10 5 -10 10 0 6 5 10 10 10
6 0 10 -4 10 -10z m1139 -24 c18 -19 21 -31 16 -55 -5 -25 -12 -31 -34 -31
-40 0 -71 26 -71 61 0 21 6 32 23 39 34 14 42 12 66 -14z m-1179 4 c0 -5 -4
-10 -10 -10 -5 0 -10 5 -10 10 0 6 5 10 10 10 6 0 10 -4 10 -10z m1484 -43
c39 -51 31 -102 -13 -95 -33 5 -55 48 -47 91 9 46 27 47 60 4z m-1764 3 c9
-17 6 -29 -17 -65 -29 -46 -57 -57 -81 -33 -33 33 10 118 60 118 17 0 31 -7
38 -20z m1577 -2 c28 -26 32 -82 7 -96 -15 -8 -14 -13 10 -45 15 -20 26 -44
24 -54 -5 -26 -56 -30 -74 -6 -18 24 -18 82 0 89 12 5 9 14 -15 46 -32 45 -35
58 -17 76 18 18 39 15 65 -10z m419 -8 c12 0 25 -7 28 -16 9 -24 -25 -96 -42
-89 -7 3 -18 5 -23 5 -5 0 -17 17 -28 38 -23 45 -13 77 23 68 11 -3 31 -6 42
-6z m-296 -109 c0 -36 -12 -51 -40 -51 -41 0 -65 40 -50 85 6 18 16 36 23 38
16 7 67 -48 67 -72z m-1656 63 c22 -9 20 -16 -16 -58 -30 -35 -33 -36 -45 -20
-7 10 -13 21 -13 26 0 6 51 58 57 58 1 0 8 -3 17 -6z m-170 -36 c7 -19 5 -36
-8 -62 -9 -20 -21 -36 -26 -36 -5 0 0 -17 11 -38 l21 -38 -22 -46 c-31 -66
-87 -89 -108 -43 -16 34 -15 42 5 92 14 32 25 43 48 49 27 6 28 7 7 11 -26 5
-55 54 -46 78 25 65 99 86 118 33z m1639 14 c16 -17 14 -62 -3 -62 -9 0 -60
50 -60 60 0 25 41 27 63 2z m388 -13 c32 -34 35 -55 15 -82 -23 -30 -64 -18
-88 24 -44 78 12 123 73 58z m-1369 -1 c-7 -7 -12 -8 -12 -2 0 14 12 26 19 19
2 -3 -1 -11 -7 -17z m-901 -15 c9 -24 6 -37 -21 -90 l-32 -62 21 -27 c32 -41
24 -99 -23 -151 -56 -64 -111 29 -67 114 11 23 26 43 33 46 8 4 7 6 -4 6 -21
1 -38 31 -37 63 1 36 52 111 79 119 39 11 40 11 51 -18z m2454 -37 c14 -29 28
-67 31 -84 l6 -32 -30 15 c-22 12 -34 28 -47 67 -16 51 -13 104 5 93 6 -3 21
-30 35 -59z m-1975 25 c0 -12 -20 -25 -27 -18 -7 7 6 27 18 27 5 0 9 -4 9 -9z
m365 -1 c3 -5 1 -10 -4 -10 -6 0 -11 5 -11 10 0 6 2 10 4 10 3 0 8 -4 11 -10z
m1311 -36 c36 -38 42 -60 21 -87 -18 -26 -69 -13 -91 23 -15 27 -15 31 1 64 9
20 21 36 26 36 5 0 25 -16 43 -36z m-1822 10 c9 -8 16 -20 16 -25 0 -15 -38
-87 -50 -94 -32 -20 -75 38 -63 85 12 47 66 66 97 34z m102 -11 c-10 -10 -19
5 -10 18 6 11 8 11 12 0 2 -7 1 -15 -2 -18z m-323 -19 c14 -48 -25 -131 -65
-139 -22 -5 -33 -2 -44 12 -28 36 -26 58 7 112 29 46 36 52 63 49 24 -2 32 -9
39 -34z m2267 -10 c27 -47 31 -69 17 -88 -18 -25 -64 -12 -82 24 -20 39 -3
103 27 98 12 -2 29 -17 38 -34z m-1615 -18 c-4 -20 -11 -36 -16 -36 -11 0 -12
24 -1 34 7 7 8 12 11 38 0 6 4 9 7 6 3 -3 2 -22 -1 -42z m115 24 c0 -5 -2 -10
-4 -10 -3 0 -8 5 -11 10 -3 6 -1 10 4 10 6 0 11 -4 11 -10z m990 -29 c0 -23
-16 -36 -25 -21 -9 14 1 40 15 40 5 0 10 -9 10 -19z m178 3 c12 -8 29 -28 37
-45 9 -16 19 -28 23 -28 38 6 60 -4 76 -33 14 -26 15 -39 7 -60 -11 -30 -25
-34 -65 -18 -18 6 -27 19 -32 44 -3 20 -10 33 -16 30 -37 -23 -102 62 -79 105
14 25 20 26 49 5z m-1518 -40 c0 -13 -4 -24 -9 -24 -4 0 -8 13 -7 29 1 35 16
30 16 -5z m1733 24 c9 -7 23 -29 31 -49 13 -32 13 -38 0 -57 -22 -32 -51 -27
-74 11 -24 39 -25 70 -4 91 19 19 25 20 47 4z m-343 -51 c0 -3 -9 -3 -20 0
-13 4 -20 14 -20 31 l0 25 20 -26 c11 -14 20 -27 20 -30z m-1567 28 c-3 -9 -8
-14 -10 -11 -3 3 -2 9 2 15 9 16 15 13 8 -4z m214 -17 c-3 -8 -6 -5 -6 6 -1
11 2 17 5 13 3 -3 4 -12 1 -19z m1424 -28 c22 -36 37 -50 53 -50 16 0 27 -10
39 -35 19 -40 20 -45 8 -63 -14 -22 -56 5 -70 46 -8 20 -26 58 -42 85 -27 45
-35 67 -24 67 3 0 19 -22 36 -50z m486 1 c35 -22 53 -72 33 -96 -28 -34 -100
-1 -100 45 0 21 20 70 29 70 3 0 20 -9 38 -19z m-1903 -19 c-6 -4 -14 -14 -17
-22 -3 -9 -6 -5 -6 11 -1 31 9 43 23 29 8 -8 8 -13 0 -18z m45 2 c-15 -18 -22
-13 -13 10 3 9 10 13 16 10 5 -3 4 -12 -3 -20z m348 -4 c1 -11 -2 -20 -8 -20
-5 0 -9 4 -9 9 0 5 -3 17 -6 25 -4 11 -2 15 8 11 7 -3 14 -14 15 -25z m-693
-2 c-11 -37 -34 -78 -43 -78 -17 0 -19 28 -5 56 24 45 61 62 48 22z m606 2 c0
-5 -5 -10 -11 -10 -5 0 -7 5 -4 10 3 6 8 10 11 10 2 0 4 -4 4 -10z m1062 -2
c6 -15 -1 -38 -10 -38 -4 0 -7 11 -7 25 0 26 10 33 17 13z m-932 -7 c0 -6 -4
-13 -10 -16 -5 -3 -10 1 -10 9 0 9 5 16 10 16 6 0 10 -4 10 -9z m1359 -11 c3
0 12 -20 20 -44 9 -33 10 -49 1 -65 -11 -21 -36 -27 -55 -13 -20 14 -35 62
-26 80 5 9 12 25 15 36 4 11 12 16 22 12 9 -3 19 -6 23 -6z m-2280 -26 c25
-32 25 -37 5 -91 -16 -42 -41 -60 -77 -54 -10 1 -17 -3 -16 -11 1 -7 1 -30 0
-50 -1 -31 -6 -40 -33 -54 -31 -16 -32 -16 -55 11 -19 21 -23 37 -21 69 3 37
7 43 45 60 34 16 44 27 53 60 13 46 28 70 50 79 25 9 28 8 49 -19z m218 4 c-3
-8 -6 -5 -6 6 -1 11 2 17 5 13 3 -3 4 -12 1 -19z m620 0 c-3 -8 -6 -5 -6 6 -1
11 2 17 5 13 3 -3 4 -12 1 -19z m-381 -72 c2 -24 -4 -40 -19 -57 -27 -29 -33
-127 -9 -145 8 -6 12 -16 8 -23 -6 -9 -11 -9 -22 0 -12 10 -14 4 -14 -30 0
-23 -4 -40 -9 -37 -4 3 -8 -23 -7 -59 1 -35 -2 -72 -5 -82 -6 -14 -8 -11 -8
12 -1 23 -4 26 -11 15 -14 -23 -25 16 -12 43 13 27 22 85 26 157 4 71 23 140
42 147 9 3 13 12 9 21 -3 8 0 21 6 29 14 17 6 28 -16 19 -11 -4 -14 -13 -9
-31 4 -18 2 -25 -9 -25 -21 0 -29 41 -12 60 8 9 15 21 15 26 0 6 6 16 13 23
16 16 39 -16 43 -63z m24 59 c0 -8 -2 -15 -4 -15 -2 0 -6 7 -10 15 -3 8 -1 15
4 15 6 0 10 -7 10 -15z m39 -41 c1 -12 -7 -28 -16 -35 -15 -13 -16 -11 -10 11
4 14 7 39 8 55 0 26 2 27 9 10 5 -11 9 -30 9 -41z m453 24 c-7 -7 -12 -8 -12
-2 0 14 12 26 19 19 2 -3 -1 -11 -7 -17z m914 -8 c8 0 14 -7 14 -15 0 -15 -30
-22 -30 -7 0 4 -2 16 -4 27 -2 11 -1 14 1 8 3 -7 11 -13 19 -13z m281 22 c6
-4 19 -26 28 -49 15 -39 15 -43 0 -67 -28 -42 -68 -27 -86 33 -10 32 -9 42 6
65 18 27 31 31 52 18z m-1487 -6 c0 -3 -4 -8 -10 -11 -5 -3 -10 -1 -10 4 0 6
5 11 10 11 6 0 10 -2 10 -4z m110 -38 c0 -6 -7 -5 -15 2 -8 7 -15 17 -15 22 0
6 7 5 15 -2 8 -7 15 -17 15 -22z m42 1 c-9 -11 -18 -15 -20 -9 -5 14 18 41 29
35 4 -3 1 -15 -9 -26z m-711 -3 c24 -51 -20 -122 -67 -110 -19 5 -25 3 -23 -7
2 -8 0 -31 -5 -52 -9 -48 -45 -66 -82 -42 -26 17 -28 25 -18 74 5 25 13 33 43
41 31 8 38 16 54 59 17 48 24 54 75 60 7 0 17 -10 23 -23z m369 9 c0 -8 -4
-15 -10 -15 -5 0 -10 7 -10 15 0 8 5 15 10 15 6 0 10 -7 10 -15z m520 -37 c0
-10 -4 -18 -10 -18 -5 0 -10 -11 -10 -25 0 -14 5 -25 10 -25 16 0 12 -15 -10
-40 l-20 -23 0 22 c0 14 4 20 12 15 8 -5 9 0 5 17 -4 13 -7 32 -7 42 0 9 -6
17 -12 17 -7 0 -13 11 -13 24 0 13 3 22 6 20 4 -2 10 4 13 13 6 14 8 14 21 -3
8 -10 15 -27 15 -36z m-378 17 c-2 -11 2 -15 10 -13 7 3 12 12 10 21 -2 11 2
15 13 11 18 -7 20 -31 3 -37 -10 -3 -10 -7 0 -19 7 -9 10 -22 7 -30 -4 -11 2
-18 20 -22 24 -6 26 -10 19 -39 -6 -31 -19 -47 -38 -47 -5 0 -1 9 9 20 17 18
17 21 1 45 -9 14 -25 25 -36 25 -21 0 -27 15 -10 25 13 8 13 35 0 35 -6 0 -15
-12 -20 -26 -6 -14 -17 -32 -25 -41 -12 -12 -13 -18 -4 -29 6 -8 9 -14 6 -14
-3 0 -13 -3 -23 -7 -11 -4 -15 -3 -10 5 3 6 2 13 -3 17 -5 3 -14 -2 -20 -12
-9 -17 -10 -17 -28 0 -26 23 -35 22 -31 -5 3 -22 42 -36 53 -18 9 15 25 2 18
-15 -3 -8 -13 -15 -23 -15 -10 0 -22 -9 -25 -20 -3 -11 -11 -20 -17 -20 -6 0
-8 9 -5 20 4 15 0 20 -15 20 -16 0 -18 3 -9 13 7 9 7 17 0 24 -11 11 -2 63 12
63 5 0 9 9 9 19 0 11 5 23 10 26 6 4 10 -7 10 -25 0 -39 24 -36 28 3 4 29 9
32 30 18 11 -7 11 -9 -2 -14 -9 -4 -16 -16 -16 -27 0 -26 16 -26 23 0 3 11 9
20 14 19 18 -3 33 2 33 11 0 6 -7 10 -15 10 -11 0 -13 4 -6 18 5 9 12 25 15
35 7 23 32 16 28 -8z m448 9 c0 -8 -4 -12 -10 -9 -5 3 -10 10 -10 16 0 5 5 9
10 9 6 0 10 -7 10 -16z m986 -2 c7 -4 16 -24 22 -44 9 -32 7 -41 -8 -60 -18
-22 -20 -22 -49 -6 -28 15 -29 15 -35 -5 -6 -20 -8 -19 -21 12 -8 18 -15 40
-15 47 0 21 21 17 27 -6 8 -29 23 -25 23 6 0 49 26 76 56 56z m392 -32 c6 -22
12 -50 12 -62 0 -21 -1 -21 -17 -6 -9 9 -17 25 -18 35 0 10 -4 23 -8 30 -8 12
1 43 12 43 3 0 12 -18 19 -40z m-2699 6 c21 -22 22 -31 16 -85 -9 -78 -29 -93
-74 -55 -33 28 -39 60 -21 111 10 26 35 53 50 53 4 0 17 -11 29 -24z m987 -8
c-21 -30 -20 -35 6 -42 17 -4 20 -8 11 -17 -8 -8 -17 -7 -36 6 -23 15 -25 19
-14 38 13 23 40 48 46 42 1 -2 -4 -14 -13 -27z m131 21 c7 -7 13 -7 17 0 10
16 36 1 36 -21 0 -17 -3 -18 -14 -8 -8 6 -23 11 -33 10 -33 -4 -43 0 -43 15 0
17 21 20 37 4z m-527 -28 c0 -10 -10 -31 -22 -46 -15 -20 -18 -30 -10 -33 14
-4 16 -32 3 -32 -5 0 -12 6 -14 13 -3 7 -6 5 -6 -5 -1 -10 -6 -18 -12 -18 -6
0 -9 -7 -5 -15 3 -8 1 -15 -4 -15 -6 0 -10 -4 -10 -10 0 -5 3 -9 8 -9 28 5 39
-3 39 -28 0 -16 3 -35 7 -44 5 -11 2 -16 -9 -16 -8 0 -15 9 -15 20 0 13 -5 17
-15 13 -12 -4 -12 0 2 22 l18 27 -32 -23 c-31 -22 -56 -15 -28 8 8 7 12 17 9
22 -4 6 -1 14 7 18 9 6 10 12 2 22 -12 14 -21 47 -13 46 3 -1 15 4 28 11 19
10 22 18 17 44 -4 22 -3 28 3 18 6 -8 17 -11 26 -8 18 7 22 27 5 27 -5 0 -7 5
-4 10 9 15 25 2 25 -19z m1564 8 c-3 -5 -10 -7 -15 -3 -5 3 -7 10 -3 15 3 5
10 7 15 3 5 -3 7 -10 3 -15z m466 11 c22 -12 36 -81 21 -107 -25 -43 -28 -45
-49 -34 -11 6 -27 29 -36 51 -15 37 -15 44 -1 70 16 31 34 37 65 20z m-1560
-32 c0 -25 -3 -29 -10 -18 -13 20 -13 50 0 50 6 0 10 -15 10 -32z m-580 7 c0
-8 -7 -15 -15 -15 -8 0 -15 7 -15 15 0 8 7 15 15 15 8 0 15 -7 15 -15z m-70
-18 c0 -13 -7 -32 -15 -43 -13 -18 -14 -17 -15 17 0 20 3 39 7 42 13 14 23 7
23 -16z m684 -2 c-4 -8 -8 -15 -10 -15 -2 0 -4 7 -4 15 0 8 4 15 10 15 5 0 7
-7 4 -15z m-491 -25 c-12 -21 -20 -27 -28 -19 -7 7 -3 16 14 30 32 26 35 24
14 -11z m547 26 c0 -3 -4 -8 -10 -11 -5 -3 -10 -1 -10 4 0 6 5 11 10 11 6 0
10 -2 10 -4z m1017 -28 c-3 -7 -5 -2 -5 12 0 14 2 19 5 13 2 -7 2 -19 0 -25z
m342 3 c27 -37 27 -83 0 -107 -19 -17 -23 -17 -47 -3 -37 20 -41 73 -10 111
29 35 32 34 57 -1z m-2025 -1 c-22 -9 -29 -6 -20 9 4 6 14 7 23 4 15 -6 14 -7
-3 -13z m588 -90 c5 0 8 9 8 20 0 11 4 20 9 20 5 0 11 -9 14 -20 3 -11 2 -20
-2 -20 -19 0 -61 -51 -61 -73 0 -14 -7 -27 -15 -31 -8 -3 -15 -10 -15 -16 0
-5 7 -10 15 -10 8 0 15 7 15 15 0 8 7 15 15 15 20 0 19 -26 0 -34 -8 -3 -15
-9 -14 -13 3 -19 -2 -43 -9 -43 -4 0 -15 17 -24 37 -16 33 -16 39 -1 67 32 62
34 68 28 74 -4 4 -12 0 -18 -8 -7 -8 -18 -15 -24 -16 -32 -2 -35 -5 -30 -24 6
-24 -18 -28 -27 -4 -3 8 -11 12 -16 9 -8 -5 -7 -11 1 -21 6 -8 8 -21 4 -31 -5
-10 -7 -21 -7 -25 1 -5 -3 -8 -8 -8 -5 0 -10 2 -10 4 0 2 -3 12 -7 22 -4 12
-3 15 5 10 15 -9 16 16 2 30 -7 7 -6 19 2 37 10 20 18 25 36 20 15 -3 22 -1
22 8 0 17 58 23 77 7 18 -15 22 -8 12 20 -11 28 -38 40 -50 21 -5 -9 -9 -10
-9 -2 0 6 10 23 23 37 l22 26 15 -50 c8 -28 18 -50 22 -50z m104 63 c-10 -10
-19 5 -10 18 6 11 8 11 12 0 2 -7 1 -15 -2 -18z m-306 1 c0 -8 -4 -12 -10 -9
-5 3 -10 10 -10 16 0 5 5 9 10 9 6 0 10 -7 10 -16z m260 -10 c0 -8 -4 -14 -10
-14 -5 0 -10 9 -10 21 0 11 5 17 10 14 6 -3 10 -13 10 -21z m1258 17 c7 -4 18
-26 23 -47 8 -35 6 -41 -17 -61 -35 -31 -72 -30 -84 3 -16 42 -12 67 17 91 28
25 40 28 61 14z m-243 -11 c3 -5 1 -10 -4 -10 -6 0 -11 5 -11 10 0 6 2 10 4
10 3 0 8 -4 11 -10z m-1819 -52 c-9 -63 -14 -72 -32 -57 -19 15 -18 74 2 93
29 29 37 19 30 -36z m584 32 c0 -5 -4 -10 -10 -10 -5 0 -10 5 -10 10 0 6 5 10
10 10 6 0 10 -4 10 -10z m1357 2 c7 -4 15 -26 19 -48 5 -37 3 -43 -22 -63 -15
-12 -31 -18 -34 -14 -4 4 -10 32 -13 60 -5 43 -3 54 11 62 21 13 24 13 39 3z
m437 -15 c27 -20 31 -109 6 -132 -23 -21 -56 -6 -70 31 -15 38 -12 59 11 88
23 30 28 31 53 13z m-519 -7 c3 -5 1 -10 -4 -10 -6 0 -11 5 -11 10 0 6 2 10 4
10 3 0 8 -4 11 -10z m-1030 -10 c3 -5 -1 -10 -10 -10 -9 0 -13 5 -10 10 3 6 8
10 10 10 2 0 7 -4 10 -10z m-739 -67 c-3 -3 -12 -3 -21 1 -14 5 -14 9 2 33
l18 27 3 -28 c2 -15 1 -30 -2 -33z m-367 33 c18 -21 25 -81 13 -114 -9 -26 -8
-29 7 -25 34 9 52 -23 45 -80 -4 -29 -8 -54 -10 -56 -2 -2 11 -11 29 -20 25
-13 33 -24 39 -56 10 -55 -7 -85 -45 -85 l-30 0 20 -22 c25 -28 36 -83 23
-109 -12 -21 -50 -25 -79 -9 -10 5 -24 30 -31 55 -11 41 -11 48 5 65 10 11 25
20 33 20 10 0 12 5 6 18 -16 37 -16 89 0 105 23 22 20 28 -9 21 -15 -4 -32 -1
-40 6 -19 16 -19 80 0 106 19 25 19 34 -3 34 -36 0 -62 29 -62 70 0 63 15 90
49 90 15 0 34 -6 40 -14z m2544 0 c3 -7 8 -33 12 -58 6 -41 5 -45 -21 -56 -24
-11 -30 -10 -50 9 -31 29 -30 50 2 88 28 33 49 39 57 17z m-2419 -15 c14 -16
16 -30 11 -74 -5 -40 -3 -57 7 -68 25 -25 38 -56 38 -93 0 -20 -4 -36 -10 -36
-5 0 -10 -5 -10 -12 0 -6 8 -4 19 6 30 27 48 11 54 -47 7 -82 -8 -99 -63 -66
-30 19 -32 23 -27 60 3 25 1 39 -6 39 -6 0 -21 10 -34 22 -30 28 -30 76 -1
113 20 26 21 27 2 21 -27 -8 -60 28 -68 76 -5 30 -3 40 16 57 27 26 50 27 72
2z m629 6 c3 -8 -3 -13 -14 -13 -19 0 -24 8 -12 19 10 11 20 8 26 -6z m-333
-10 c0 -8 -10 -22 -21 -33 -15 -13 -20 -14 -15 -4 3 8 9 23 12 33 7 20 24 23
24 4z m410 3 c0 -5 -4 -10 -10 -10 -5 0 -10 5 -10 10 0 6 5 10 10 10 6 0 10
-4 10 -10z m1314 -5 c-4 -8 -10 -15 -15 -15 -4 0 -6 7 -3 15 4 8 10 15 15 15
4 0 6 -7 3 -15z m260 -1 c26 -16 40 -53 30 -78 -9 -23 -69 -57 -89 -50 -17 7
-35 43 -35 70 0 12 56 74 68 74 1 0 13 -7 26 -16z m-2169 -21 c14 -15 25 -35
25 -45 0 -18 -58 -78 -76 -78 -25 0 -36 29 -29 77 11 79 36 93 80 46z m305 2
c0 -8 -2 -15 -4 -15 -2 0 -6 7 -10 15 -3 8 -1 15 4 15 6 0 10 -7 10 -15z m664
-17 c-1 -18 -3 -35 -4 -38 0 -3 -5 3 -11 12 -7 12 -6 23 3 38 7 11 13 20 14
20 1 0 0 -15 -2 -32z m-887 7 c8 -9 12 -23 9 -32 -6 -14 -8 -14 -21 3 -15 19
-20 44 -9 44 3 0 12 -7 21 -15z m490 -17 c-3 -7 -5 -2 -5 12 0 14 2 19 5 13 2
-7 2 -19 0 -25z m153 22 c0 -5 -4 -10 -10 -10 -5 0 -10 5 -10 10 0 6 5 10 10
10 6 0 10 -4 10 -10z m1318 -3 c6 -7 14 -32 18 -55 4 -28 12 -43 25 -47 54
-17 63 -111 14 -133 -14 -6 -25 -16 -25 -22 0 -14 6 -13 42 6 30 15 32 15 45
-2 20 -27 17 -83 -4 -90 -10 -3 -28 -11 -40 -17 -35 -16 -66 17 -60 64 4 29 1
37 -17 45 -18 8 -21 17 -20 64 1 55 1 56 -37 74 -49 24 -50 48 -7 93 35 36 50
40 66 20z m-1148 -7 c0 -5 -5 -10 -11 -10 -5 0 -7 5 -4 10 3 6 8 10 11 10 2 0
4 -4 4 -10z m127 -12 c-3 -8 -6 -5 -6 6 -1 11 2 17 5 13 3 -3 4 -12 1 -19z
m-484 5 c-7 -2 -19 -2 -25 0 -7 3 -2 5 12 5 14 0 19 -2 13 -5z m1372 -48 c0
-25 -3 -45 -7 -45 -10 0 -11 74 -1 83 3 4 7 7 7 7 1 0 1 -20 1 -45z m-1468 10
c-7 -14 -18 -25 -25 -25 -7 0 -18 -13 -23 -30 -6 -16 -15 -30 -19 -30 -13 0
-16 42 -6 72 8 23 14 26 38 21 17 -3 28 -1 28 6 0 6 4 11 9 11 5 0 4 -11 -2
-25z m411 14 c-2 -6 -8 -10 -13 -10 -5 0 -11 4 -13 10 -2 6 4 11 13 11 9 0 15
-5 13 -11z m72 1 c0 -5 -4 -10 -10 -10 -5 0 -10 5 -10 10 0 6 5 10 10 10 6 0
10 -4 10 -10z m-740 -15 c0 -8 5 -15 11 -15 5 0 7 -4 4 -10 -12 -19 -30 -10
-30 15 0 14 3 25 8 25 4 0 7 -7 7 -15z m400 -36 c0 -15 -5 -39 -11 -53 -9 -19
-8 -29 5 -47 l16 -23 0 31 c0 18 5 35 11 38 17 11 22 -1 9 -24 -8 -16 -8 -21
2 -21 8 0 6 -5 -4 -11 -10 -5 -21 -28 -24 -51 -6 -37 -8 -39 -21 -23 -18 25
-17 49 2 41 19 -7 19 5 0 30 -12 16 -16 17 -24 4 -9 -12 -11 -12 -16 2 -4 9
-13 14 -21 11 -9 -3 -14 2 -14 16 0 12 5 21 10 21 6 0 10 -4 10 -10 0 -5 6
-10 14 -10 17 0 30 60 16 74 -5 5 -10 17 -10 27 0 12 6 15 25 11 20 -3 25 -10
25 -33z m312 16 c3 -14 1 -28 -3 -31 -5 -3 -9 -2 -9 3 0 4 -3 18 -6 31 -4 12
-2 22 4 22 5 0 12 -11 14 -25z m-389 -20 c17 7 41 -11 33 -24 -4 -6 -11 -9
-16 -6 -15 9 -61 -6 -57 -19 2 -6 -3 -26 -10 -45 -11 -25 -12 -36 -3 -41 9 -6
8 -13 -2 -31 -7 -13 -14 -26 -15 -28 -1 -2 -9 4 -18 13 -12 12 -13 20 -6 35 6
11 8 27 4 37 -4 12 -3 15 5 10 7 -4 12 -1 12 9 0 11 -5 15 -15 11 -19 -7 -19
5 -1 49 16 38 32 45 39 18 4 -15 5 -14 6 3 0 11 7 26 14 33 10 10 13 8 15 -8
2 -11 9 -18 15 -16z m1897 -46 c0 -39 -5 -50 -31 -73 -30 -27 -31 -27 -47 -9
-26 27 -42 71 -35 90 3 10 17 30 30 45 24 25 26 26 54 10 25 -15 29 -23 29
-63z m39 39 l-1 -43 -8 35 c-8 32 -6 50 6 50 2 0 4 -19 3 -42z m-1775 -6 c-8
-38 -20 -41 -26 -7 -4 17 0 29 11 35 21 11 22 9 15 -28z m164 26 c18 -18 15
-35 -7 -41 -26 -6 -29 -2 -23 28 5 28 12 31 30 13z m-1267 -20 c25 -46 2 -148
-33 -148 -9 0 -11 154 -1 163 12 12 22 7 34 -15z m503 5 c4 -9 3 -19 -2 -22
-5 -3 -12 -13 -15 -21 -3 -8 -6 2 -6 23 -1 38 12 50 23 20z m226 -3 c0 -11 -6
-20 -14 -20 -9 0 -12 7 -9 20 3 11 9 20 14 20 5 0 9 -9 9 -20z m1952 3 c17
-20 31 -93 20 -108 -14 -20 -47 -31 -72 -25 -20 5 -27 15 -34 48 -8 39 -7 45
19 72 33 35 46 37 67 13z m-2561 -3 c15 -9 19 -22 19 -69 0 -55 -2 -59 -29
-71 -23 -9 -33 -9 -50 2 -18 11 -21 21 -19 63 3 73 31 100 79 75z m332 -63 c0
-32 -2 -59 -5 -62 -2 -2 -13 -2 -25 1 -37 10 -40 66 -5 107 25 28 35 15 35
-46z m204 41 c-3 -8 -6 -5 -6 6 -1 11 2 17 5 13 3 -3 4 -12 1 -19z m484 -12
c-6 -15 -18 -26 -28 -26 -16 1 -16 2 -2 13 8 7 18 21 22 31 4 10 10 17 13 14
2 -3 0 -17 -5 -32z m294 15 c3 -10 1 -29 -4 -42 -9 -21 -10 -22 -11 -4 0 11
-3 30 -6 43 -8 27 12 30 21 3z m-199 -21 c8 0 14 -4 14 -10 0 -5 -6 -10 -14
-10 -14 0 -27 22 -25 43 1 7 3 4 6 -5 2 -10 11 -18 19 -18z m-57 -80 c-15 -14
-32 -34 -38 -45 -10 -20 -10 -20 -11 2 0 12 13 35 29 51 21 20 27 32 19 40 -7
7 -6 15 3 25 12 13 15 11 19 -17 5 -25 0 -36 -21 -56z m1251 64 c14 -35 3 -70
-27 -89 -14 -9 -26 -15 -27 -13 -1 2 0 31 2 66 3 53 6 62 23 62 12 0 23 -10
29 -26z m-1073 -16 c-3 -8 -6 -5 -6 6 -1 11 2 17 5 13 3 -3 4 -12 1 -19z
m-777 -35 c0 -7 -4 -13 -10 -13 -5 0 -10 7 -10 15 0 8 -4 15 -8 15 -13 0 -7
-43 6 -48 7 -2 12 -11 12 -19 0 -11 -5 -9 -19 8 -27 36 -30 52 -13 72 16 17
17 17 29 1 7 -10 13 -24 13 -31z m2297 25 c-3 -8 -6 -5 -6 6 -1 11 2 17 5 13
3 -3 4 -12 1 -19z m-2257 3 c0 -6 -4 -13 -10 -16 -5 -3 -10 1 -10 9 0 9 5 16
10 16 6 0 10 -4 10 -9z m67 -13 c-3 -8 -6 -5 -6 6 -1 11 2 17 5 13 3 -3 4 -12
1 -19z m455 0 c-7 -7 -12 -20 -12 -30 0 -10 -4 -18 -10 -18 -13 0 -13 6 6 41
8 17 18 28 22 25 3 -4 0 -12 -6 -18z m1208 6 c0 -8 -5 -12 -10 -9 -6 4 -8 11
-5 16 9 14 15 11 15 -7z m-1849 -36 c-4 -35 -6 -38 -9 -15 -3 26 3 57 10 57 2
0 1 -19 -1 -42z m149 -3 c-7 -8 -17 -12 -22 -9 -5 3 -1 14 9 24 20 19 31 7 13
-15z m460 26 c0 -5 -9 -11 -20 -14 -13 -3 -20 0 -20 9 0 8 9 14 20 14 11 0 20
-4 20 -9z m-370 -22 c0 -6 -4 -7 -10 -4 -5 3 -10 11 -10 16 0 6 5 7 10 4 6 -3
10 -11 10 -16z m620 11 c0 -5 -4 -10 -10 -10 -5 0 -10 5 -10 10 0 6 5 10 10
10 6 0 10 -4 10 -10z m-110 -15 c7 -8 16 -12 21 -9 5 3 9 -2 9 -10 0 -9 -7
-16 -15 -16 -8 0 -15 5 -15 11 0 7 -8 18 -17 25 -10 7 -13 14 -7 14 6 0 17 -7
24 -15z m-445 -5 c3 -5 1 -10 -4 -10 -6 0 -11 5 -11 10 0 6 2 10 4 10 3 0 8
-4 11 -10z m-22 -29 c3 -12 0 -18 -9 -17 -20 3 -27 13 -20 31 7 20 22 12 29
-14z m157 25 c0 -2 -7 -6 -15 -10 -8 -3 -15 -1 -15 4 0 6 7 10 15 10 8 0 15
-2 15 -4z m1805 -68 c-5 -48 -9 -54 -52 -63 -25 -5 -34 -2 -41 12 -11 21 -4
83 10 83 5 0 22 9 36 21 24 19 27 19 38 4 7 -9 11 -35 9 -57z m127 7 c-5 -70
-12 -82 -49 -81 -33 1 -56 39 -47 76 9 39 44 71 74 68 24 -3 25 -5 22 -63z
m-2241 2 c-7 -7 -13 -2 -21 17 -14 38 -13 39 11 15 15 -15 18 -24 10 -32z
m779 27 c0 -8 -4 -14 -10 -14 -5 0 -10 9 -10 21 0 11 5 17 10 14 6 -3 10 -13
10 -21z m-1366 10 c12 -5 16 -21 16 -69 0 -74 -15 -94 -58 -79 -24 8 -27 15
-30 62 -3 45 0 56 20 72 26 22 30 23 52 14z m137 -27 c3 -4 5 -29 5 -55 -1
-41 -4 -48 -27 -56 -37 -13 -79 25 -79 71 0 27 6 37 32 53 31 19 48 16 69 -13z
m874 14 c-3 -6 -11 -8 -17 -5 -6 4 -5 9 3 15 16 10 23 4 14 -10z m49 -16 c-5
-27 -3 -36 10 -41 22 -8 20 -37 -4 -51 -24 -16 -34 -2 -26 33 4 15 3 23 -3 20
-16 -10 -19 18 -4 47 19 39 35 34 27 -8z m145 5 c9 0 9 -5 1 -20 -14 -25 -40
-26 -40 -1 0 11 -3 28 -7 38 -6 17 -6 17 14 1 11 -10 25 -18 32 -18z m61 0 c0
-10 -4 -22 -10 -25 -6 -4 -10 7 -10 25 0 18 4 29 10 25 6 -3 10 -15 10 -25z
m1153 9 c16 -26 0 -68 -31 -80 -23 -9 -30 -7 -49 16 -30 34 -29 39 10 64 36
24 55 24 70 0z m-1970 -93 l26 -78 -25 -23 c-23 -21 -23 -24 -7 -29 29 -10 43
-50 28 -80 -12 -22 -11 -31 6 -65 22 -46 23 -55 9 -80 -15 -29 -70 -13 -93 27
-24 41 -16 77 20 90 18 7 22 11 10 11 -9 1 -26 16 -37 34 -24 39 -24 41 -4 62
9 9 14 18 11 21 -3 3 -18 -8 -34 -25 -36 -39 -67 -34 -88 16 -20 47 -19 69 5
93 17 17 24 18 45 8 14 -6 28 -22 32 -35 5 -23 7 -22 24 16 10 23 22 41 27 41
5 0 7 21 5 48 -7 65 8 45 40 -52z m897 65 c5 7 12 10 16 6 4 -3 1 -14 -6 -22
-12 -15 -14 -15 -22 -1 -5 9 -16 16 -23 16 -8 0 -15 5 -15 11 0 5 4 8 9 4 5
-3 13 0 18 7 5 9 9 6 11 -11 3 -18 6 -21 12 -10z m-850 5 c0 -21 -21 -31 -31
-15 -14 22 -11 29 11 29 11 0 20 -6 20 -14z m410 -16 c0 -16 -4 -30 -10 -30
-5 0 -7 6 -4 14 3 8 1 17 -5 21 -16 9 -13 25 4 25 10 0 15 -10 15 -30z m-210
10 c0 -5 -5 -10 -11 -10 -5 0 -7 5 -4 10 3 6 8 10 11 10 2 0 4 -4 4 -10z m425
-8 c10 2 20 -2 22 -9 3 -7 -4 -10 -19 -6 -43 9 -49 13 -42 24 5 8 9 8 14 -1 4
-6 15 -10 25 -8z m-125 -8 c0 -8 -4 -12 -10 -9 -5 3 -10 10 -10 16 0 5 5 9 10
9 6 0 10 -7 10 -16z m-173 -10 c8 -21 -15 -44 -26 -25 -5 7 -14 10 -20 7 -12
-8 -16 16 -4 27 12 13 44 7 50 -9z m1453 6 c0 -5 -2 -10 -4 -10 -3 0 -8 5 -11
10 -3 6 -1 10 4 10 6 0 11 -4 11 -10z m-1000 -10 c0 -5 -4 -10 -10 -10 -5 0
-10 5 -10 10 0 6 5 10 10 10 6 0 10 -4 10 -10z m-789 -33 c-8 -8 -11 -7 -11 4
0 9 3 19 7 23 4 4 9 2 11 -4 3 -7 -1 -17 -7 -23z m379 29 c0 -2 -7 -9 -15 -16
-12 -10 -15 -10 -15 4 0 9 7 16 15 16 8 0 15 -2 15 -4z m125 -26 c11 -36 -2
-55 -37 -53 -18 1 -35 2 -37 2 -3 1 4 7 14 15 11 8 23 12 27 10 5 -3 8 6 8 20
0 31 16 34 25 6z m25 16 c0 -3 -4 -8 -10 -11 -5 -3 -10 -1 -10 4 0 6 5 11 10
11 6 0 10 -2 10 -4z m-430 -46 c-7 -4 -9 -13 -6 -19 4 -6 2 -11 -3 -11 -12 0
-15 53 -4 64 4 3 11 -1 16 -10 6 -11 5 -19 -3 -24z m46 -7 c-8 -8 -12 -3 -21
27 l-7 25 17 -23 c9 -13 14 -26 11 -29z m244 26 c0 -6 -4 -7 -10 -4 -5 3 -10
11 -10 16 0 6 5 7 10 4 6 -3 10 -11 10 -16z m300 11 c0 -5 -2 -10 -4 -10 -3 0
-8 5 -11 10 -3 6 -1 10 4 10 6 0 11 -4 11 -10z m1159 -8 c13 -24 -12 -62 -39
-62 -16 0 -17 4 -10 30 16 54 32 65 49 32z m126 -1 c16 -19 16 -22 -1 -58 -22
-44 -55 -54 -85 -27 -27 24 -24 59 7 83 33 26 56 27 79 2z m-1545 -6 c0 -8 -7
-15 -15 -15 -16 0 -20 12 -8 23 11 12 23 8 23 -8z m216 -5 c15 0 19 -16 5 -24
-14 -9 -45 20 -36 34 6 10 10 11 13 2 2 -7 10 -12 18 -12z m1448 4 c20 -8 20
-36 2 -73 -16 -30 -58 -54 -81 -45 -36 14 -24 104 14 104 11 0 23 5 26 10 7
12 17 12 39 4z m-1880 -25 c-3 -5 -10 -7 -15 -3 -5 3 -7 10 -3 15 3 5 10 7 15
3 5 -3 7 -10 3 -15z m636 1 c0 -5 -2 -10 -4 -10 -3 0 -8 5 -11 10 -3 6 -1 10
4 10 6 0 11 -4 11 -10z m1388 -19 c4 -26 -17 -93 -32 -103 -48 -32 -104 61
-65 108 10 12 48 21 79 18 8 0 16 -11 18 -23z m-2200 -9 c2 -12 -2 -22 -8 -22
-7 0 -10 6 -7 14 3 7 0 19 -6 26 -9 10 -9 11 3 8 8 -3 16 -14 18 -26z m372 18
c0 -5 -5 -10 -11 -10 -5 0 -7 5 -4 10 3 6 8 10 11 10 2 0 4 -4 4 -10z m-812
-13 c6 -7 17 -34 23 -59 11 -42 11 -49 -5 -66 -19 -22 -52 -19 -65 7 -16 31
-22 103 -10 117 14 18 43 18 57 1z m662 -49 c-7 -19 -9 -19 -9 -5 -1 10 -8 25
-16 34 -8 8 -13 19 -10 23 3 5 14 1 25 -10 15 -15 17 -25 10 -42z m429 41
c-16 -10 -23 -4 -14 10 3 6 11 8 17 5 6 -4 5 -9 -3 -15z m1630 -16 c-17 -64
-31 -93 -45 -93 -19 0 -18 51 0 95 10 23 22 35 35 35 18 0 18 -4 10 -37z
m-1941 9 c2 -7 -2 -10 -12 -6 -9 3 -16 11 -16 16 0 13 23 5 28 -10z m221 -24
c1 -5 -3 -8 -9 -8 -5 0 -10 12 -9 28 0 24 1 25 9 7 5 -11 9 -23 9 -27z m-457
-8 c-2 -22 -8 -40 -13 -40 -4 0 -13 -18 -19 -40 -6 -22 -15 -40 -20 -40 -13 0
-13 17 1 25 5 4 8 12 6 18 -2 7 1 27 9 44 12 31 12 32 -9 30 -13 -1 -23 4 -25
15 -3 15 2 17 26 12 17 -4 32 -1 36 5 11 17 12 14 8 -29z m668 36 c0 -3 -4 -8
-10 -11 -5 -3 -10 -1 -10 4 0 6 5 11 10 11 6 0 10 -2 10 -4z m-276 -21 c3 -8
12 -15 20 -15 7 0 16 -7 20 -15 3 -8 12 -15 21 -15 8 0 15 -4 15 -10 0 -5 -7
-10 -15 -10 -8 0 -15 -4 -15 -10 0 -5 -5 -10 -11 -10 -6 0 -8 8 -4 19 3 10 -1
23 -9 30 -11 10 -15 5 -19 -26 -3 -30 0 -41 17 -55 11 -9 18 -19 15 -22 -9
-10 -99 90 -99 110 0 11 37 42 51 43 4 1 9 -6 13 -14z m1331 -5 c3 -5 1 -27
-5 -49 -8 -31 -17 -41 -43 -50 -27 -10 -34 -9 -44 6 -7 9 -13 23 -13 31 0 17
20 55 34 64 16 11 64 10 71 -2z m-1649 -11 c4 -8 0 -9 -15 -4 -15 5 -21 2 -21
-9 0 -9 -4 -16 -10 -16 -5 0 -10 9 -10 20 0 15 7 20 24 20 14 0 28 -5 32 -11z
m-196 -56 c0 -23 -20 -14 -30 13 -14 35 -1 53 16 23 7 -13 13 -30 14 -36z m35
37 c3 -11 11 -20 16 -20 5 0 9 -7 9 -15 0 -26 -16 -16 -33 20 -9 19 -13 35 -8
35 6 0 13 -9 16 -20z m615 10 c0 -5 -4 -10 -10 -10 -5 0 -10 5 -10 10 0 6 5
10 10 10 6 0 10 -4 10 -10z m1319 -19 c17 -31 -5 -78 -41 -90 -45 -16 -57 -14
-69 12 -7 16 -7 31 0 50 17 45 91 63 110 28z m-1762 -23 c-3 -8 -6 -5 -6 6 -1
11 2 17 5 13 3 -3 4 -12 1 -19z m1897 6 c19 -19 19 -17 2 -57 -10 -25 -23 -36
-52 -45 -35 -10 -41 -9 -58 8 -19 18 -19 21 -4 53 11 23 27 37 50 44 45 15 45
15 62 -3z m-1714 -4 c0 -5 -4 -10 -10 -10 -5 0 -10 5 -10 10 0 6 5 10 10 10 6
0 10 -4 10 -10z m334 -15 c-4 -8 -8 -15 -10 -15 -2 0 -4 7 -4 15 0 8 4 15 10
15 5 0 7 -7 4 -15z m-876 -17 c14 -18 17 -49 8 -76 -6 -17 -13 -21 -32 -17
-13 3 -35 7 -48 10 -18 4 -25 14 -30 40 -4 19 -4 40 -1 45 9 14 91 12 103 -2z
m527 2 c3 -5 1 -10 -4 -10 -6 0 -11 5 -11 10 0 6 2 10 4 10 3 0 8 -4 11 -10z
m1862 -73 c-10 -24 -24 -35 -52 -45 -36 -12 -41 -11 -53 5 -24 33 2 103 39
103 10 0 21 5 25 12 5 8 15 3 30 -16 22 -24 23 -30 11 -59z m-2534 56 c18 -10
37 -75 27 -94 -14 -26 -64 -25 -89 2 -57 62 -10 132 62 92z m750 -3 c-3 -11
-7 -20 -9 -20 -2 0 -4 9 -4 20 0 11 4 20 9 20 5 0 7 -9 4 -20z m387 10 c0 -5
-5 -10 -11 -10 -5 0 -7 5 -4 10 3 6 8 10 11 10 2 0 4 -4 4 -10z m-797 -55 c28
-58 24 -72 -20 -63 -26 5 -51 81 -34 102 8 9 16 16 20 16 4 0 19 -25 34 -55z
m597 13 c0 -5 -6 -8 -14 -8 -16 0 -38 24 -30 33 7 7 44 -14 44 -25z m1100 19
c0 -21 -26 -51 -38 -43 -8 5 -8 13 0 31 12 26 38 34 38 12z m106 -15 c23 -46
-38 -112 -87 -97 -26 9 -25 59 2 97 26 36 67 36 85 0z m-2270 4 c11 -8 26 -33
33 -56 15 -52 3 -70 -46 -70 -31 0 -36 4 -54 46 l-21 46 23 24 c26 28 37 29
65 10z m521 -18 c-3 -8 -6 -5 -6 6 -1 11 2 17 5 13 3 -3 4 -12 1 -19z m46 -28
c-7 -8 -22 24 -16 34 4 5 10 1 13 -10 4 -10 6 -21 3 -24z m1827 25 c10 -12 11
-28 4 -63 -9 -45 -10 -47 -53 -55 -62 -12 -76 3 -60 65 10 37 18 47 43 55 45
15 52 15 66 -2z m-1747 -20 c-8 -22 -22 -18 -16 5 3 11 9 17 14 15 4 -3 6 -12
2 -20z m73 -2 c-7 -7 -26 7 -26 19 0 6 6 6 15 -2 9 -7 13 -15 11 -17z m1794
-12 c35 -23 1 -130 -44 -139 -22 -5 -56 30 -56 56 0 43 21 81 48 85 15 2 29 5
32 5 3 1 12 -2 20 -7z m-377 -22 c32 -36 -7 -93 -60 -87 -38 4 -42 36 -8 77
31 36 44 38 68 10z m-1864 -9 c10 -5 25 -24 35 -43 18 -32 18 -35 1 -60 -14
-22 -22 -25 -48 -20 -38 7 -58 26 -82 76 -25 53 -15 71 36 63 23 -4 49 -11 58
-16z m299 -9 c8 -4 12 -18 10 -31 -3 -21 -4 -21 -26 9 -22 30 -14 41 16 22z
m82 -1 c0 -5 -2 -10 -4 -10 -3 0 -8 5 -11 10 -3 6 -1 10 4 10 6 0 11 -4 11
-10z m-487 -54 c14 -35 16 -49 7 -65 -29 -55 -110 7 -110 84 0 23 4 25 43 25
40 0 43 -2 60 -44z m367 23 c22 -40 -14 -88 -66 -89 -5 0 -21 14 -33 31 -19
26 -21 35 -12 55 9 20 18 24 55 24 36 0 48 -4 56 -21z m120 -4 c11 -13 10 -14
-4 -9 -9 3 -16 10 -16 15 0 13 6 11 20 -6z m1587 6 c29 -1 39 -35 19 -66 -16
-25 -87 -51 -112 -41 -18 7 -18 50 1 87 13 24 21 29 43 25 15 -2 37 -5 49 -5z
m373 3 c0 -15 -42 -94 -50 -94 -19 0 -23 50 -6 75 14 21 56 36 56 19z m-2568
-64 c34 -70 13 -116 -29 -64 -12 16 -23 37 -23 46 0 9 -4 20 -10 23 -5 3 -10
13 -10 21 0 11 8 14 27 12 20 -2 33 -13 45 -38z m354 22 c6 -4 19 -22 29 -41
25 -50 9 -81 -45 -81 -34 0 -42 4 -55 30 -14 27 -14 33 0 59 19 37 46 50 71
33z m230 -29 c-11 -11 -17 4 -9 23 7 18 8 18 11 1 2 -10 1 -21 -2 -24z m1407
31 c4 -4 -2 -19 -13 -34 -33 -46 -22 -58 16 -17 40 41 58 46 74 18 28 -53 -6
-115 -60 -109 -27 2 -36 9 -41 28 -4 14 -7 19 -8 12 -1 -7 -22 -26 -48 -42
-26 -17 -42 -30 -35 -30 23 0 14 -65 -12 -89 -35 -33 -60 -24 -64 21 -3 31 2
40 26 58 21 16 28 28 24 45 -3 18 4 29 34 49 20 14 41 23 46 20 5 -4 8 1 6 10
-2 9 6 27 17 41 21 26 28 29 38 19z m362 -14 c18 -20 18 -22 -2 -64 -19 -38
-27 -44 -58 -48 -42 -5 -65 18 -65 62 0 38 20 58 60 63 19 2 38 5 41 5 3 1 14
-7 24 -18z m-1803 -27 c32 -31 36 -53 9 -53 -32 0 -65 33 -57 58 9 28 14 28
48 -5z m1931 -27 c13 -19 14 -29 4 -57 -26 -70 -35 -80 -75 -77 -30 2 -38 8
-46 31 -14 39 15 91 63 110 20 8 37 15 37 16 1 1 9 -10 17 -23z m-2244 -1 c10
-3 24 -19 31 -36 11 -25 10 -32 -5 -49 -28 -31 -77 -26 -103 10 -25 33 -26 43
-12 70 10 19 40 21 89 5z m274 -23 c43 -45 21 -81 -50 -82 -20 0 -63 42 -63
61 0 18 41 49 63 49 13 0 35 -12 50 -28z m1695 -27 c4 -42 -33 -76 -91 -82
-39 -5 -46 -3 -51 15 -14 44 55 105 114 99 20 -2 26 -8 28 -32z m-2102 11 c29
-21 50 -89 36 -120 -20 -44 -48 -39 -87 15 -44 61 -46 96 -5 112 24 9 34 8 56
-7z m543 -30 c30 -32 21 -66 -17 -66 -27 1 -47 12 -70 41 -36 47 45 70 87 25z
m1170 -37 c-24 -19 -59 -25 -59 -11 0 4 17 17 38 29 42 24 58 11 21 -18z
m-1404 1 c25 -27 27 -32 16 -56 -11 -25 -15 -26 -61 -21 -49 6 -60 1 -40 -19
19 -19 0 -41 -38 -48 -34 -5 -41 -2 -81 39 -37 36 -42 46 -32 59 22 27 68 30
101 6 31 -22 39 -14 18 19 -18 30 -4 46 44 49 38 2 48 -2 73 -28z m1599 10
c38 -14 35 -54 -6 -74 -53 -27 -82 -19 -93 25 -12 48 37 73 99 49z m326 -17
c-1 -57 -67 -104 -122 -87 -25 7 -23 55 3 88 17 22 28 26 70 26 47 0 49 -1 49
-27z m-1605 -5 c54 -36 42 -59 -22 -42 -24 7 -35 27 -27 49 8 19 8 19 49 -7z
m-173 -8 c29 -22 41 -66 27 -92 -14 -26 -77 -24 -106 4 -25 23 -31 69 -10 86
10 8 30 16 58 21 4 0 18 -8 31 -19z m134 -42 c37 -29 63 -60 64 -75 0 -7 -11
-20 -25 -29 -14 -9 -25 -20 -25 -25 0 -14 32 -11 49 5 18 16 32 19 74 17 27
-1 28 -2 25 -53 -3 -47 -6 -54 -30 -62 -19 -7 -35 -6 -50 2 -13 6 -33 14 -45
17 -16 4 -23 14 -23 31 0 17 -17 43 -50 77 -55 57 -61 78 -28 101 29 20 30 20
64 -6z m1065 4 c28 -23 20 -48 -18 -63 -55 -21 -96 26 -57 65 21 21 47 20 75
-2z m644 -32 c-8 -15 -27 -42 -42 -60 l-28 -33 -7 34 c-8 39 10 75 45 88 37
14 49 3 32 -29z m-1548 13 c57 -18 63 -28 34 -64 -17 -22 -21 -22 -59 -10 -47
16 -72 52 -52 76 15 19 12 19 77 -2z m1328 -15 c6 -26 3 -34 -16 -49 -42 -33
-142 -19 -147 20 -6 41 24 61 94 61 62 0 62 0 69 -32z m-535 2 c0 -21 -34 -40
-71 -40 -31 0 -22 30 11 37 17 3 33 10 36 14 10 16 24 9 24 -11z m333 -17 c18
-11 4 -42 -34 -72 -30 -25 -46 -31 -65 -27 -20 5 -24 13 -24 43 0 54 24 76 75
67 22 -3 43 -8 48 -11z m-1509 -27 c30 -40 33 -63 9 -69 -66 -18 -73 -17 -99
8 -36 36 -30 78 11 86 50 11 52 10 79 -25z m554 -3 c19 -26 14 -49 -14 -62
-22 -9 -35 -9 -70 5 -51 19 -55 34 -17 64 32 25 79 21 101 -7z m518 -9 c8 -32
-3 -43 -50 -51 -47 -7 -61 9 -40 49 12 22 21 28 49 28 29 0 36 -4 41 -26z
m273 12 c21 -24 9 -69 -21 -84 -41 -19 -78 -1 -78 38 0 25 6 34 33 45 41 18
52 18 66 1z m-640 -12 c11 -3 11 -7 1 -19 -15 -18 -91 -20 -108 -3 -27 27 -13
37 41 32 28 -3 58 -8 66 -10z m511 1 c30 -37 -23 -82 -83 -71 -31 6 -37 11
-37 32 0 41 93 72 120 39z m600 -4 c17 -33 12 -76 -12 -99 -19 -17 -31 -20
-65 -15 -38 5 -41 8 -45 41 -6 49 30 92 78 92 23 0 37 -6 44 -19z m-1642 -22
c41 -37 39 -66 -4 -91 -30 -18 -32 -18 -75 5 -55 29 -64 64 -23 96 36 29 63
26 102 -10z m782 21 c0 -5 -12 -16 -27 -24 -24 -13 -25 -15 -7 -16 72 -1 50
-100 -22 -100 -29 0 -36 -5 -48 -34 -12 -28 -20 -34 -52 -39 -44 -5 -81 9
-100 38 -12 18 -11 24 2 43 12 18 25 22 65 22 28 0 59 -5 70 -10 16 -9 19 -7
19 13 0 14 9 36 20 50 18 22 18 26 4 38 -14 12 -14 14 3 20 27 11 73 10 73 -1z
m-115 -14 c16 -12 18 -19 10 -43 -9 -23 -18 -30 -59 -37 -75 -15 -111 24 -66
72 24 26 85 30 115 8z m-956 -46 c23 -21 31 -36 26 -48 -3 -9 -9 -29 -12 -45
-7 -33 -25 -30 -90 15 -70 47 -56 101 27 107 9 0 30 -13 49 -29z m1756 15 c15
-1 21 -10 23 -33 3 -28 -2 -35 -53 -68 -55 -37 -56 -37 -88 -22 -29 14 -33 21
-34 57 -1 57 33 85 92 75 22 -4 49 -8 60 -9z m-1184 -10 c49 -17 69 -38 69
-72 0 -19 -5 -23 -31 -23 -32 0 -69 15 -81 34 -8 11 -11 76 -4 76 2 0 23 -7
47 -15z m227 -7 c19 -19 14 -55 -10 -72 -12 -8 -25 -13 -29 -10 -4 2 -10 0
-14 -6 -3 -5 1 -10 10 -10 18 0 54 -38 55 -57 0 -17 -27 -29 -72 -32 -46 -3
-74 11 -93 49 -14 27 -14 30 2 38 10 5 33 7 51 5 44 -7 42 14 -2 23 -19 3 -37
13 -41 21 -8 23 3 51 23 56 36 10 109 6 120 -5z m424 -15 c20 -18 23 -45 8
-74 -12 -22 -35 -24 -90 -7 -47 15 -52 39 -18 75 26 27 73 30 100 6z m148 -8
c23 -12 30 -23 30 -44 0 -24 -7 -31 -47 -49 -37 -16 -51 -18 -71 -9 -21 10
-23 16 -18 46 5 35 38 70 64 71 7 0 26 -7 42 -15z m164 -2 c48 -24 48 -54 -1
-77 -23 -11 -38 -13 -42 -7 -4 6 -12 7 -21 0 -13 -8 -13 -11 1 -22 34 -26 33
-55 -4 -92 -39 -39 -65 -43 -108 -18 -23 14 -29 25 -29 50 0 28 6 35 41 53 23
12 48 18 60 15 20 -7 28 18 9 30 -18 11 -11 53 12 69 28 20 39 20 82 -1z
m-1357 -31 c54 -47 66 -93 32 -115 -51 -32 -63 -30 -115 20 -61 59 -63 90 -6
115 20 9 39 17 42 17 3 0 24 -17 47 -37z m221 -34 c6 -6 12 -21 12 -34 0 -25
-9 -33 -57 -50 -28 -10 -36 -8 -62 10 -43 29 -38 84 9 98 18 6 80 -10 98 -24z
m1442 5 c7 -7 -77 -81 -100 -88 -11 -4 -20 -11 -20 -16 0 -5 -7 -9 -15 -9 -35
0 -4 62 51 101 35 24 66 29 84 12z m-1264 -19 c43 -18 65 -76 39 -104 -13 -14
-26 -18 -49 -13 -49 8 -136 51 -135 65 1 29 17 51 45 63 30 14 45 12 100 -11z
m534 -6 c25 -28 26 -52 0 -78 -29 -29 -61 -25 -99 14 -28 29 -31 37 -22 54 7
13 24 22 44 25 17 2 37 5 44 5 7 1 21 -8 33 -20z m190 -79 c0 -23 -6 -28 -46
-38 -64 -16 -98 1 -102 50 -3 35 -1 37 35 46 53 13 113 -18 113 -58z m314 56
c15 -8 32 -12 37 -9 5 3 9 -15 9 -40 0 -35 -5 -48 -22 -60 -28 -20 -61 -20
-99 -1 -27 15 -29 19 -23 53 6 36 35 72 58 72 6 0 24 -7 40 -15z m-1523 -52
l24 -27 -32 23 c-33 23 -40 31 -25 31 5 0 19 -12 33 -27z m901 -14 c19 -25 19
-28 4 -58 -18 -35 -44 -44 -107 -39 -46 4 -58 17 -73 79 -8 35 21 49 98 46 51
-2 62 -6 78 -28z m-713 7 c15 -18 3 -70 -19 -84 -15 -9 -27 -6 -65 14 -25 15
-44 31 -43 36 4 10 81 45 104 47 6 1 17 -5 23 -13z m166 -13 c37 -18 41 -27
25 -67 -11 -29 -17 -31 -57 -14 -15 6 -39 13 -53 15 -56 10 -65 40 -17 65 41
21 59 22 102 1z m346 -47 c11 -20 17 -41 14 -46 -4 -6 -40 -10 -80 -10 -73 0
-75 0 -91 32 -16 30 -15 32 7 49 17 13 38 17 77 15 50 -2 54 -5 73 -40z m372
6 c36 -37 34 -58 -5 -76 -71 -32 -148 -15 -148 33 0 28 29 59 58 64 58 9 69 6
95 -21z m-578 -24 c31 -37 23 -44 -34 -28 -34 9 -41 15 -41 35 0 37 41 33 75
-7z m755 7 c34 -18 34 -15 19 -65 -11 -35 -15 -39 -56 -45 -39 -6 -49 -3 -72
17 -14 13 -27 23 -28 24 -2 0 2 14 9 31 7 19 22 33 42 40 45 15 54 15 86 -2z
m200 -23 c0 -8 -95 -50 -128 -57 -20 -3 -23 0 -20 22 2 14 10 29 18 33 8 4 28
14 45 23 26 13 33 14 57 1 15 -8 28 -18 28 -22z m-536 -51 c27 -28 28 -31 15
-60 -15 -34 -12 -33 -89 -31 -75 1 -83 5 -104 44 -28 53 -18 64 59 64 37 0 69
3 73 6 10 10 18 6 46 -23z m-229 -14 c0 -1 8 -17 18 -36 14 -27 15 -36 5 -43
-12 -8 -69 -6 -110 4 -41 10 -65 83 -30 90 14 3 117 -10 117 -15z m433 -28 c2
-12 -11 -19 -54 -28 -77 -15 -104 -14 -104 3 0 19 11 25 62 36 60 12 92 8 96
-11z"/>
<path d="M2460 2841 c0 -17 18 -21 24 -6 3 9 0 15 -9 15 -8 0 -15 -4 -15 -9z"/>
<path d="M2130 2115 c0 -8 7 -15 15 -15 8 0 15 7 15 15 0 8 -7 15 -15 15 -8 0
-15 -7 -15 -15z"/>
<path d="M3440 3983 c0 -4 5 -15 10 -23 8 -13 10 -13 10 2 0 9 -4 20 -10 23
-5 3 -10 3 -10 -2z"/>
<path d="M1725 3961 c11 -4 23 -19 27 -32 6 -21 7 -21 5 6 -2 24 -7 30 -27 32
-22 2 -22 2 -5 -6z"/>
<path d="M2831 3956 c12 -10 59 -15 59 -6 0 5 -14 10 -32 10 -17 0 -29 -2 -27
-4z"/>
<path d="M3732 3948 c-16 -16 -16 -51 1 -44 6 3 20 9 30 12 21 8 19 37 -3 42
-9 1 -21 -3 -28 -10z"/>
<path d="M3574 3935 c-4 -10 -1 -21 7 -26 20 -12 34 -5 34 17 0 24 -33 31 -41
9z"/>
<path d="M3200 3925 c0 -8 2 -15 4 -15 2 0 6 7 10 15 3 8 1 15 -4 15 -6 0 -10
-7 -10 -15z"/>
<path d="M4035 3922 c-18 -13 -15 -44 4 -39 14 3 16 -2 13 -30 -5 -38 8 -43
39 -12 l21 21 -26 25 c-14 13 -26 28 -26 33 0 12 -11 13 -25 2z"/>
<path d="M905 3890 c-10 -11 -16 -22 -13 -25 3 -3 13 4 23 15 10 11 16 22 13
25 -3 3 -13 -4 -23 -15z"/>
<path d="M964 3899 c-8 -14 11 -33 25 -25 6 4 11 14 11 22 0 16 -26 19 -36 3z"/>
<path d="M3345 3889 c-9 -14 -2 -20 14 -10 8 6 9 11 3 15 -6 3 -14 1 -17 -5z"/>
<path d="M4110 3831 c0 -5 7 -12 16 -15 24 -9 28 -7 14 9 -14 17 -30 20 -30 6z"/>
<path d="M1050 3815 c0 -17 2 -18 24 -9 23 9 20 24 -4 24 -11 0 -20 -7 -20
-15z"/>
<path d="M3470 3782 c0 -5 7 -13 16 -16 10 -4 14 -1 12 6 -5 15 -28 23 -28 10z"/>
<path d="M3820 3761 c0 -5 6 -14 14 -20 16 -13 32 2 21 19 -8 12 -35 13 -35 1z"/>
<path d="M4163 3750 c-3 -11 -12 -20 -19 -20 -23 0 -17 -57 7 -70 11 -7 26 -9
33 -7 7 3 21 -6 31 -19 21 -28 35 -31 35 -6 0 14 2 15 10 2 8 -13 10 -12 10 3
0 28 -30 67 -52 67 -10 0 -18 6 -17 13 2 20 -13 57 -23 57 -5 0 -12 -9 -15
-20z"/>
<path d="M3682 3748 c-15 -15 -16 -38 -2 -38 6 0 10 5 10 11 0 6 7 8 16 5 11
-4 14 -1 12 11 -4 21 -21 26 -36 11z"/>
<path d="M3985 3739 c-4 -13 -2 -27 7 -35 12 -13 17 -12 32 5 10 11 16 27 13
36 -9 22 -45 18 -52 -6z"/>
<path d="M822 3708 c-17 -17 -15 -47 4 -55 26 -10 38 12 22 41 -11 21 -16 24
-26 14z"/>
<path d="M3575 3671 c-3 -5 8 -9 24 -9 17 1 28 5 25 10 -7 11 -41 10 -49 -1z"/>
<path d="M911 3623 c0 -13 1 -23 3 -23 2 0 11 -3 20 -6 9 -3 16 -1 16 5 0 6
-6 11 -14 11 -8 0 -17 8 -19 18 -4 13 -5 11 -6 -5z"/>
<path d="M1110 3610 c-8 -5 -10 -15 -5 -26 7 -17 9 -17 12 -2 2 9 12 18 21 20
15 3 15 4 1 10 -9 3 -22 3 -29 -2z"/>
<path d="M3848 3609 c-19 -11 -25 -64 -9 -73 5 -4 7 2 4 12 -7 28 24 49 48 34
25 -16 26 5 2 24 -22 16 -23 16 -45 3z"/>
<path d="M697 3603 c-4 -3 -7 -11 -7 -17 0 -6 5 -5 12 2 6 6 9 14 7 17 -3 3
-9 2 -12 -2z"/>
<path d="M4293 3583 c6 -18 15 -33 19 -33 14 0 9 17 -12 41 l-19 24 12 -32z"/>
<path d="M4177 3583 c-13 -13 -7 -51 9 -57 20 -8 44 11 44 34 0 23 -37 39 -53
23z"/>
<path d="M3674 3569 c-4 -8 0 -9 15 -4 17 5 21 2 21 -16 0 -17 3 -20 11 -12 7
7 9 19 6 27 -7 18 -42 21 -53 5z"/>
<path d="M3967 3523 c-11 -10 -8 -53 3 -53 6 0 10 9 10 21 0 12 4 17 11 13 6
-3 9 -15 6 -25 -7 -25 7 -33 23 -14 25 30 -26 85 -53 58z"/>
<path d="M4334 3500 c1 -18 9 -36 19 -41 9 -6 17 -19 17 -30 0 -11 4 -18 8
-15 4 2 8 -8 7 -22 0 -16 5 -26 12 -25 7 2 10 -4 7 -12 -4 -8 -1 -15 5 -15 22
0 10 49 -28 115 -48 82 -49 83 -47 45z"/>
<path d="M725 3470 c-12 -37 8 -50 40 -26 16 12 17 16 6 30 -18 22 -38 20 -46
-4z m35 0 c0 -5 -4 -10 -10 -10 -5 0 -10 5 -10 10 0 6 5 10 10 10 6 0 10 -4
10 -10z"/>
<path d="M3825 3450 c3 -5 1 -19 -5 -31 -11 -19 -10 -20 9 -9 25 13 28 50 5
50 -8 0 -12 -4 -9 -10z"/>
<path d="M4160 3437 c0 -19 10 -27 26 -20 21 8 17 33 -6 33 -11 0 -20 -6 -20
-13z"/>
<path d="M893 3389 c-6 -6 -9 -18 -6 -25 6 -17 39 -18 49 -2 4 7 3 8 -4 4 -19
-12 -35 3 -21 20 14 17 -2 19 -18 3z"/>
<path d="M4290 3361 c0 -52 36 -53 42 -1 2 19 -2 26 -19 28 -20 3 -23 -1 -23
-27z"/>
<path d="M618 3373 c-12 -3 -18 -14 -18 -31 l1 -27 19 24 c16 19 27 44 18 40
-2 -1 -11 -3 -20 -6z"/>
<path d="M1106 3332 c-3 -5 1 -15 9 -22 21 -17 27 -9 10 13 -7 10 -16 14 -19
9z"/>
<path d="M4108 3334 c-4 -4 -5 -18 -1 -32 4 -17 2 -23 -6 -18 -7 5 -11 -2 -11
-18 0 -36 42 -36 58 -1 10 21 8 29 -11 51 -12 14 -25 22 -29 18z"/>
<path d="M3893 3284 c-8 -21 13 -42 28 -27 13 13 5 43 -11 43 -6 0 -13 -7 -17
-16z"/>
<path d="M4423 3293 c-15 -5 -18 -33 -4 -33 5 0 11 6 14 13 3 7 7 5 12 -8 4
-11 9 -27 13 -35 3 -8 4 -19 3 -24 -1 -4 2 -13 7 -20 15 -18 22 -60 13 -75
-11 -17 -23 1 -27 38 -4 33 -35 63 -53 51 -20 -12 -3 -85 19 -85 8 0 25 -11
38 -24 17 -19 22 -21 22 -7 0 19 16 22 23 4 14 -34 5 24 -13 85 -22 78 -49
126 -67 120z"/>
<path d="M610 3246 c0 -13 7 -26 15 -30 12 -4 14 0 8 22 -6 24 -5 26 10 13 15
-12 17 -11 17 3 0 10 -9 16 -25 16 -20 0 -25 -5 -25 -24z"/>
<path d="M744 3235 c-4 -9 -2 -21 3 -26 7 -7 12 -3 16 10 6 25 -11 39 -19 16z"/>
<path d="M4272 3219 c-11 -18 -11 -24 4 -40 23 -26 60 -24 75 3 10 18 8 24
-11 40 -29 24 -52 23 -68 -3z"/>
<path d="M901 3164 c0 -11 3 -14 6 -6 3 7 2 16 -1 19 -3 4 -6 -2 -5 -13z"/>
<path d="M4100 3093 c0 -10 4 -24 9 -32 15 -24 44 5 30 30 -12 24 -39 25 -39
2z"/>
<path d="M582 3088 c-18 -18 -14 -46 8 -58 19 -10 20 -9 14 16 -6 23 -4 25 15
19 27 -8 28 11 2 25 -24 13 -24 13 -39 -2z"/>
<path d="M4367 3067 c-22 -15 -13 -47 13 -47 23 0 34 30 17 47 -10 11 -16 11
-30 0z"/>
<path d="M750 3015 c0 -8 4 -15 9 -15 5 0 11 7 15 15 3 9 0 15 -9 15 -8 0 -15
-7 -15 -15z"/>
<path d="M1020 2975 c0 -8 2 -15 4 -15 2 0 6 7 10 15 3 8 1 15 -4 15 -6 0 -10
-7 -10 -15z"/>
<path d="M4473 2973 c-16 -6 -16 -41 0 -71 14 -24 67 -57 67 -41 0 5 -5 9 -12
9 -9 0 -9 3 0 12 7 7 12 21 13 33 1 11 6 0 11 -23 5 -24 12 -41 15 -38 11 10
-19 105 -35 112 -24 10 -45 13 -59 7z"/>
<path d="M4062 2951 c2 -7 7 -12 11 -12 12 1 9 15 -3 20 -7 2 -11 -2 -8 -8z"/>
<path d="M526 2934 c-3 -9 -2 -22 2 -31 8 -13 11 -13 25 1 18 18 13 46 -8 46
-7 0 -16 -7 -19 -16z"/>
<path d="M4215 2940 c-7 -12 3 -50 13 -50 4 0 13 4 21 9 10 7 11 13 2 30 -13
23 -26 27 -36 11z"/>
<path d="M4357 2883 c-11 -10 -8 -61 3 -68 32 -20 74 32 50 60 -13 16 -42 20
-53 8z"/>
<path d="M630 2805 c0 -33 15 -33 16 0 1 14 -2 25 -7 25 -5 0 -9 -11 -9 -25z"/>
<path d="M4088 2813 c-11 -15 -11 -16 5 -10 13 5 17 1 17 -14 0 -11 5 -17 10
-14 15 9 12 42 -4 48 -8 3 -20 -2 -28 -10z"/>
<path d="M1000 2766 c0 -8 5 -18 10 -21 6 -3 10 3 10 14 0 12 -4 21 -10 21 -5
0 -10 -6 -10 -14z"/>
<path d="M4522 2759 c2 -7 10 -15 17 -17 8 -3 12 1 9 9 -2 7 -10 15 -17 17 -8
3 -12 -1 -9 -9z"/>
<path d="M1072 2720 c0 -14 2 -19 5 -12 2 6 2 18 0 25 -3 6 -5 1 -5 -13z"/>
<path d="M4340 2731 c0 -5 -3 -16 -6 -24 -3 -8 2 -17 13 -21 20 -8 45 18 36
40 -6 15 -43 20 -43 5z"/>
<path d="M4478 2728 c-8 -7 -18 -23 -21 -35 -4 -17 1 -22 27 -26 21 -3 36 1
48 13 16 17 15 19 -6 39 -26 25 -27 25 -48 9z"/>
<path d="M506 2713 c-11 -11 -6 -23 9 -23 8 0 15 4 15 9 0 13 -16 22 -24 14z"/>
<path d="M827 2655 c-8 -19 13 -31 24 -14 13 20 11 29 -5 29 -8 0 -16 -7 -19
-15z"/>
<path d="M4216 2633 c-6 -15 8 -32 26 -33 12 0 18 18 12 34 -8 21 -30 20 -38
-1z"/>
<path d="M620 2630 c0 -5 7 -10 15 -10 8 0 15 5 15 10 0 6 -7 10 -15 10 -8 0
-15 -4 -15 -10z"/>
<path d="M4400 2565 c0 -25 14 -34 24 -16 8 12 -3 41 -15 41 -5 0 -9 -11 -9
-25z"/>
<path d="M4100 2550 c0 -5 5 -10 10 -10 6 0 10 5 10 10 0 6 -4 10 -10 10 -5 0
-10 -4 -10 -10z"/>
<path d="M503 2533 c-15 -6 -17 -43 -3 -43 6 0 10 6 10 13 0 9 3 8 9 -2 11
-17 25 3 17 24 -6 15 -12 17 -33 8z"/>
<path d="M940 2504 c0 -8 5 -12 10 -9 6 3 10 10 10 16 0 5 -4 9 -10 9 -5 0
-10 -7 -10 -16z"/>
<path d="M712 2498 c-15 -15 -16 -48 -2 -48 6 0 10 9 10 20 0 11 7 20 16 20 8
0 12 5 9 10 -8 13 -18 13 -33 -2z"/>
<path d="M4435 2390 c-8 -24 2 -60 16 -60 13 0 39 25 39 38 0 10 -33 42 -43
42 -3 0 -9 -9 -12 -20z"/>
<path d="M4526 2384 c-3 -9 -6 -25 -6 -35 0 -16 5 -19 21 -14 15 5 22 2 26
-14 3 -12 9 -21 14 -21 12 0 11 17 -1 25 -8 5 -7 11 1 21 9 11 8 19 -6 34 -22
24 -41 26 -49 4z"/>
<path d="M4191 2353 c0 -11 3 -13 6 -5 9 23 23 12 17 -14 -5 -20 -3 -25 7 -22
19 6 24 39 7 49 -21 14 -38 10 -37 -8z"/>
<path d="M4312 2348 c2 -13 10 -23 18 -23 8 0 16 10 18 23 3 17 -2 22 -18 22
-16 0 -21 -5 -18 -22z"/>
<path d="M847 2343 c-9 -9 -9 -43 1 -43 4 0 12 11 19 25 9 19 8 25 -1 25 -7 0
-16 -3 -19 -7z"/>
<path d="M571 2311 c-19 -12 -9 -55 14 -60 17 -3 18 -1 6 13 -10 12 -11 19 -2
30 14 17 1 28 -18 17z"/>
<path d="M444 2288 c1 -13 7 -23 12 -23 5 0 10 10 12 23 2 15 -2 22 -12 22
-11 0 -15 -7 -12 -22z"/>
<path d="M4077 2224 c-7 -8 4 -44 14 -44 12 0 12 37 0 44 -4 3 -11 3 -14 0z"/>
<path d="M4350 2193 c0 -28 16 -47 35 -40 25 10 15 51 -12 55 -17 3 -23 -2
-23 -15z m30 -8 c0 -8 -4 -15 -10 -15 -5 0 -10 7 -10 15 0 8 5 15 10 15 6 0
10 -7 10 -15z"/>
<path d="M4560 2199 c0 -5 5 -7 10 -4 6 3 10 8 10 11 0 2 -4 4 -10 4 -5 0 -10
-5 -10 -11z"/>
<path d="M702 2171 c-19 -12 -11 -45 13 -50 16 -3 17 -1 7 12 -7 8 -10 22 -6
31 7 18 5 19 -14 7z"/>
<path d="M4471 2136 c-11 -13 -6 -46 8 -46 19 1 33 20 26 39 -7 24 -18 27 -34
7z"/>
<path d="M4559 2143 c-1 -5 -3 -19 -4 -33 -1 -14 -6 -45 -9 -70 -6 -34 -5 -41
3 -28 13 19 27 138 17 138 -3 0 -7 -3 -7 -7z"/>
<path d="M936 2124 c-4 -10 -1 -14 6 -12 15 5 23 28 10 28 -5 0 -13 -7 -16
-16z"/>
<path d="M4194 2085 c4 -33 11 -39 26 -20 10 12 10 18 0 30 -18 22 -29 18 -26
-10z"/>
<path d="M534 2085 c-7 -18 14 -47 28 -39 6 4 5 9 -2 14 -7 4 -9 13 -6 19 4 6
12 8 18 5 7 -4 8 -2 4 4 -10 17 -36 15 -42 -3z"/>
<path d="M4050 2015 c0 -8 5 -15 10 -15 6 0 10 7 10 15 0 8 -4 15 -10 15 -5 0
-10 -7 -10 -15z"/>
<path d="M4329 1985 c-1 -3 -2 -8 -3 -12 -1 -5 -5 -14 -10 -21 -12 -20 7 -34
27 -20 11 9 15 21 11 36 -6 19 -22 31 -25 17z"/>
<path d="M660 1967 c0 -10 8 -17 18 -17 9 0 13 4 7 8 -5 4 -13 11 -17 16 -5 5
-8 2 -8 -7z"/>
<path d="M706 1965 c-3 -8 -1 -15 4 -15 6 0 10 7 10 15 0 8 -2 15 -4 15 -2 0
-6 -7 -10 -15z"/>
<path d="M870 1959 c0 -15 7 -29 15 -33 19 -7 19 -5 0 30 l-15 29 0 -26z"/>
<path d="M4433 1963 c-18 -7 -16 -52 2 -59 21 -9 47 15 43 40 -3 21 -22 29
-45 19z"/>
<path d="M4117 1898 c-7 -26 -1 -38 19 -38 20 0 29 27 14 45 -17 21 -27 19
-33 -7z"/>
<path d="M525 1869 c-10 -15 3 -56 20 -63 10 -3 17 3 21 19 9 37 -24 72 -41
44z m25 -25 c0 -8 -5 -12 -10 -9 -6 4 -8 11 -5 16 9 14 15 11 15 -7z"/>
<path d="M714 1865 c-9 -23 3 -45 26 -45 23 0 27 29 8 48 -16 16 -27 15 -34
-3z m36 -15 c0 -5 -4 -10 -10 -10 -5 0 -10 5 -10 10 0 6 5 10 10 10 6 0 10 -4
10 -10z"/>
<path d="M4340 1815 c-16 -19 -9 -49 12 -53 23 -4 43 35 27 54 -15 18 -23 18
-39 -1z"/>
<path d="M3980 1770 c-9 -16 -8 -20 5 -20 8 0 15 9 15 20 0 11 -2 20 -5 20 -2
0 -9 -9 -15 -20z"/>
<path d="M800 1743 c0 -5 8 -17 18 -26 20 -18 42 -7 42 22 0 11 -4 10 -15 -5
-15 -19 -15 -19 -30 0 -8 11 -15 15 -15 9z"/>
<path d="M4214 1715 c-4 -8 -3 -23 0 -32 6 -15 8 -15 23 -1 16 17 12 48 -7 48
-6 0 -13 -7 -16 -15z"/>
<path d="M681 1671 c-14 -26 12 -50 34 -31 20 17 19 27 -5 40 -15 8 -21 6 -29
-9z m29 -11 c0 -5 -4 -10 -10 -10 -5 0 -10 5 -10 10 0 6 5 10 10 10 6 0 10 -4
10 -10z"/>
<path d="M3883 1625 c-9 -10 -10 -16 -2 -21 15 -9 36 13 24 25 -6 6 -15 4 -22
-4z"/>
<path d="M4088 1579 c-17 -18 -17 -19 1 -19 23 0 37 18 25 29 -5 5 -17 0 -26
-10z"/>
<path d="M4302 1568 c-29 -29 3 -83 33 -58 8 7 15 21 15 31 0 24 -33 42 -48
27z"/>
<path d="M956 1531 c-10 -16 5 -41 25 -41 10 0 19 5 19 10 0 6 -4 10 -10 10
-5 0 -10 7 -10 15 0 17 -16 20 -24 6z"/>
<path d="M804 1515 c-4 -8 -1 -22 6 -30 14 -17 40 -20 40 -5 0 6 -4 10 -10 10
-5 0 -10 9 -10 20 0 23 -18 27 -26 5z"/>
<path d="M1133 1484 c-8 -20 21 -49 41 -41 21 8 21 43 0 51 -25 9 -34 7 -41
-10z m44 -20 c-9 -9 -28 6 -21 18 4 6 10 6 17 -1 6 -6 8 -13 4 -17z"/>
<path d="M4140 1480 c0 -5 5 -10 10 -10 6 0 10 -10 10 -22 -1 -22 -1 -23 -15
-4 -14 19 -15 19 -15 -7 0 -15 5 -27 11 -27 22 0 49 22 49 40 0 11 -9 24 -19
30 -25 13 -31 13 -31 0z"/>
<path d="M3732 1460 c0 -14 2 -19 5 -12 2 6 2 18 0 25 -3 6 -5 1 -5 -13z"/>
<path d="M691 1461 c-11 -7 -11 -12 2 -31 l15 -22 12 21 c17 33 1 51 -29 32z"/>
<path d="M3872 1438 c-16 -16 -15 -28 3 -28 8 0 15 2 15 4 0 2 3 11 6 20 7 19
-7 21 -24 4z"/>
<path d="M3984 1435 c-4 -9 -2 -21 4 -27 15 -15 44 -1 40 19 -4 23 -36 29 -44
8z"/>
<path d="M1020 1366 c0 -18 27 -29 36 -14 4 5 0 14 -7 19 -20 13 -29 11 -29
-5z"/>
<path d="M854 1325 c-4 -9 -2 -21 3 -26 14 -14 45 1 41 20 -4 22 -37 26 -44 6z"/>
<path d="M1360 1323 c0 -6 -3 -20 -6 -30 -7 -17 -6 -17 12 -1 14 14 16 21 6
30 -8 8 -12 9 -12 1z"/>
<path d="M3730 1315 c0 -8 9 -19 19 -25 16 -8 21 -6 26 11 8 25 -3 39 -15 19
-7 -10 -10 -11 -10 -2 0 6 -4 12 -10 12 -5 0 -10 -7 -10 -15z"/>
<path d="M4142 1302 c-18 -12 -11 -61 11 -68 36 -11 62 37 35 64 -14 14 -28
15 -46 4z"/>
<path d="M3987 1293 c-12 -12 -7 -22 8 -17 8 4 15 1 15 -5 0 -6 -4 -11 -10
-11 -5 0 -10 -4 -10 -10 0 -13 33 -13 47 1 17 17 3 49 -21 49 -13 0 -26 -3
-29 -7z"/>
<path d="M1200 1281 c0 -6 5 -13 10 -16 6 -3 10 1 10 9 0 9 -4 16 -10 16 -5 0
-10 -4 -10 -9z"/>
<path d="M985 1254 c-15 -11 -17 -18 -9 -32 14 -22 34 -22 48 0 8 13 7 21 -4
32 -13 13 -17 13 -35 0z"/>
<path d="M1560 1245 c0 -8 5 -15 10 -15 6 0 10 7 10 15 0 8 -4 15 -10 15 -5 0
-10 -7 -10 -15z"/>
<path d="M3651 1226 c-8 -10 -9 -16 -1 -21 13 -8 30 3 30 21 0 18 -14 18 -29
0z"/>
<path d="M3840 1214 c0 -10 -6 -14 -15 -10 -19 7 -19 -3 0 -28 12 -16 17 -17
30 -6 19 16 19 46 0 54 -9 3 -15 0 -15 -10z"/>
<path d="M4090 1214 c0 -8 5 -12 10 -9 6 4 8 11 5 16 -9 14 -15 11 -15 -7z"/>
<path d="M1113 1174 c-3 -8 2 -23 11 -32 15 -15 17 -15 34 1 16 17 16 19 -2
33 -25 18 -35 18 -43 -2z"/>
<path d="M1416 1183 c-11 -11 -6 -31 8 -36 8 -3 20 0 26 8 9 11 7 16 -8 24
-11 6 -22 7 -26 4z"/>
<path d="M3540 1116 c0 -8 -6 -17 -12 -19 -10 -4 -9 -8 2 -16 20 -13 43 9 34
32 -8 21 -24 22 -24 3z"/>
<path d="M1006 1103 c-20 -20 22 -77 49 -67 18 7 20 38 3 51 -19 15 -45 22
-52 16z"/>
<path d="M1280 1089 c0 -15 5 -20 22 -17 34 5 37 38 4 38 -20 0 -26 -5 -26
-21z"/>
<path d="M3697 1093 c4 -11 3 -14 -5 -9 -7 4 -12 1 -12 -7 0 -21 26 -28 40
-12 15 18 6 45 -14 45 -10 0 -13 -6 -9 -17z"/>
<path d="M1564 1089 c-3 -6 0 -17 8 -25 13 -13 16 -13 27 0 7 8 10 20 6 26 -8
13 -32 13 -41 -1z"/>
<path d="M3843 1089 c-13 -13 5 -59 23 -59 21 0 32 24 23 48 -9 24 -28 29 -46
11z"/>
<path d="M3300 1076 c7 -7 13 -7 20 0 6 6 3 10 -10 10 -13 0 -16 -4 -10 -10z"/>
<path d="M3963 1073 c-8 -2 -13 -22 -13 -44 0 -31 4 -39 18 -39 24 0 62 41 62
66 0 15 -7 20 -27 21 -16 1 -34 -1 -40 -4z"/>
<path d="M1820 1031 c0 -12 5 -21 10 -21 6 0 10 6 10 14 0 8 -4 18 -10 21 -5
3 -10 -3 -10 -14z"/>
<path d="M1164 1002 c-15 -23 0 -52 27 -52 24 0 36 27 22 49 -15 23 -36 24
-49 3z"/>
<path d="M3612 987 c-9 -10 -8 -18 2 -32 18 -25 48 -13 44 17 -4 27 -30 35
-46 15z"/>
<path d="M1906 967 c-23 -17 -10 -47 19 -47 13 0 26 7 29 16 8 22 8 22 -13 33
-13 7 -23 7 -35 -2z"/>
<path d="M2803 965 c-17 -19 -16 -25 2 -25 8 0 15 9 15 20 0 23 -1 24 -17 5z"/>
<path d="M1310 950 c-12 -23 -6 -40 16 -40 8 0 14 10 14 24 0 33 -16 42 -30
16z"/>
<path d="M1653 954 c-6 -16 19 -44 39 -44 19 0 21 33 3 46 -25 18 -34 18 -42
-2z"/>
<path d="M3750 954 c-10 -11 -10 -20 -2 -39 19 -40 52 -27 52 20 0 24 -36 37
-50 19z"/>
<path d="M1462 938 c-13 -17 3 -58 22 -58 20 0 30 38 16 55 -15 18 -25 19 -38
3z"/>
<path d="M2941 941 c-8 -6 -9 -11 -3 -15 6 -3 14 -1 17 5 9 14 2 20 -14 10z"/>
<path d="M3460 926 c0 -8 -5 -16 -12 -18 -6 -2 -8 -10 -4 -17 6 -9 11 -9 22 0
16 13 19 49 4 49 -5 0 -10 -6 -10 -14z"/>
<path d="M3241 918 c-1 -12 6 -18 19 -18 12 0 20 7 20 16 0 13 -3 14 -14 5
-11 -9 -15 -9 -19 1 -4 8 -6 7 -6 -4z"/>
<path d="M2666 885 c-3 -9 -10 -13 -16 -10 -5 3 -10 1 -10 -4 0 -17 30 -13 37
4 3 9 3 18 0 21 -2 3 -7 -2 -11 -11z"/>
<path d="M2425 871 c-3 -5 -1 -12 4 -15 5 -3 11 1 15 9 6 16 -9 21 -19 6z"/>
<path d="M1567 856 c-10 -26 4 -47 27 -44 15 2 21 10 21 28 0 29 -38 41 -48
16z"/>
<path d="M3041 848 c-1 -32 12 -43 29 -23 10 12 10 15 -3 15 -9 0 -18 8 -20
18 -3 11 -5 7 -6 -10z"/>
<path d="M1332 843 c-14 -25 6 -63 34 -63 25 0 37 21 27 48 -13 34 -46 43 -61
15z"/>
<path d="M3637 853 c-13 -12 -7 -33 8 -33 8 0 15 9 15 20 0 20 -11 26 -23 13z"/>
<path d="M1780 821 c0 -24 4 -31 19 -31 23 0 48 28 35 39 -5 5 -19 12 -31 16
-20 6 -23 3 -23 -24z"/>
<path d="M1950 827 c-16 -12 -16 -47 1 -47 5 0 9 8 10 18 0 14 2 14 9 -3 7
-19 8 -19 15 -2 11 26 -14 50 -35 34z"/>
<path d="M2280 827 c0 -7 5 -18 12 -25 14 -14 38 2 38 24 0 17 -17 18 -23 2
-4 -10 -6 -10 -6 0 -1 16 -21 16 -21 -1z"/>
<path d="M2514 805 c-3 -8 -3 -19 1 -25 11 -18 25 -11 25 15 0 27 -17 34 -26
10z"/>
<path d="M2812 805 c4 -26 51 -28 56 -2 3 16 1 17 -17 5 -18 -11 -23 -11 -32
2 -8 12 -10 11 -7 -5z"/>
<path d="M3324 808 c-4 -7 -3 -8 4 -4 7 4 12 3 12 -3 0 -5 -5 -13 -10 -16 -13
-8 -3 -25 13 -25 28 1 39 17 28 39 -13 23 -36 28 -47 9z"/>
<path d="M3660 805 c-7 -8 -9 -22 -6 -31 4 -9 1 -23 -6 -32 -18 -21 47 13 85
44 25 21 26 24 9 24 -11 0 -22 -6 -24 -12 -3 -9 -9 -8 -22 5 -21 21 -21 21
-36 2z"/>
<path d="M3500 763 c0 -10 5 -25 10 -33 8 -13 11 -13 26 2 9 9 14 24 11 32 -9
22 -47 21 -47 -1z"/>
<path d="M2070 741 c0 -11 4 -22 9 -26 11 -6 36 33 27 43 -3 3 -6 0 -6 -6 0
-7 -5 -12 -11 -12 -5 0 -7 5 -4 10 3 6 1 10 -4 10 -6 0 -11 -9 -11 -19z"/>
<path d="M1497 733 c-12 -11 -8 -40 7 -52 11 -9 18 -8 30 4 25 25 21 55 -7 55
-13 0 -27 -3 -30 -7z"/>
<path d="M3123 729 c-14 -14 -5 -56 14 -64 37 -14 59 46 24 65 -24 12 -25 12
-38 -1z"/>
<path d="M2330 715 c-20 -24 2 -41 24 -20 16 16 14 35 -3 35 -5 0 -14 -7 -21
-15z"/>
<path d="M2966 722 c-4 -7 -14 -11 -22 -8 -18 7 -18 -18 0 -33 17 -14 39 9 34
36 -3 14 -5 15 -12 5z"/>
<path d="M3560 697 c-56 -27 -55 -26 -47 -33 6 -6 97 42 97 51 0 6 2 7 -50
-18z"/>
<path d="M1821 701 c-17 -11 -10 -46 9 -46 9 0 14 8 12 20 l-4 20 16 -20 c13
-18 15 -18 16 -3 0 21 -31 40 -49 29z"/>
<path d="M1635 690 c-9 -15 4 -50 19 -50 20 0 39 27 32 45 -6 17 -42 20 -51 5z"/>
<path d="M2636 665 c-8 -22 4 -45 24 -45 26 0 35 32 14 47 -23 17 -31 16 -38
-2z m24 -11 c0 -8 -5 -12 -10 -9 -6 4 -8 11 -5 16 9 14 15 11 15 -7z"/>
<path d="M3378 673 c-34 -9 -30 -38 8 -60 19 -10 23 -9 28 10 14 52 7 62 -36
50z"/>
<path d="M1970 641 c0 -11 6 -21 13 -24 20 -6 47 4 47 19 0 20 -21 28 -31 13
-6 -10 -9 -11 -9 -1 0 6 -4 12 -10 12 -5 0 -10 -9 -10 -19z"/>
<path d="M2417 634 c-12 -12 -8 -41 7 -53 17 -14 39 9 34 36 -3 18 -29 29 -41
17z m15 -26 c-7 -7 -12 -8 -12 -2 0 14 12 26 19 19 2 -3 -1 -11 -7 -17z"/>
<path d="M2244 616 c-9 -24 4 -48 23 -44 24 4 24 52 0 56 -9 2 -20 -4 -23 -12z"/>
<path d="M2820 605 c-14 -36 3 -59 32 -44 13 7 18 19 16 37 -4 37 -35 41 -48
7z"/>
<path d="M3111 572 c-7 -14 -7 -24 3 -37 18 -25 59 -3 54 28 -4 29 -43 35 -57
9z"/>
<path d="M2976 555 c-7 -20 3 -45 19 -45 19 0 38 28 31 45 -7 19 -42 19 -50 0z"/>
<path d="M2074 536 c-11 -29 1 -51 26 -48 34 4 44 16 31 41 -13 24 -49 28 -57
7z"/>
<path d="M2520 510 c0 -22 43 -55 60 -45 16 10 12 52 -6 59 -32 12 -54 6 -54
-14z"/>
<path d="M2313 509 c-26 -10 -27 -13 -13 -40 13 -24 36 -25 49 0 15 27 -7 52
-36 40z"/>
<path d="M2727 484 c-12 -13 -7 -62 7 -67 22 -9 58 22 54 46 -3 22 -45 36 -61
21z"/>
</g>
</svg>
